<?xml version="1.0" encoding="utf-8"?>
<!-- Generator: Adobe Illustrator 28.0.0, SVG Export Plug-In . SVG Version: 6.00 Build 0)  -->
<svg version="1.1" id="Laag_1" xmlns="http://www.w3.org/2000/svg" xmlns:xlink="http://www.w3.org/1999/xlink" x="0px" y="0px"
	 viewBox="0 0 336.9 429.8" style="enable-background:new 0 0 336.9 429.8;" xml:space="preserve">
<style type="text/css">
	.st0{fill:#226F54;}
</style>
<g>
	<g>
		<path class="st0" d="M232.9,109c-5,3.8-11.5,6.3-17.6,7.4c-9,1.6-18.5,1-27.6,2c19.3-5,34.3-0.2,48.6-19.5
			c-6.7,2.9-15.9,3-22.9,1.5c5.1-0.2,6.3-0.5,11-2.3c22.9-8.5,33.1-36.5,33.2-59.2c0-5.7-1-13.3-3.7-18.3
			c-25.6,2.6-56.2,13.2-56.3,43.7c0,2.5,1.7,10,0.2,9.7c-0.6-1.5-1.1-3.2-1.5-4.8c-1-4.2-1.7-12.8-1.1-17c1.3-8.7,6-19.4,13.4-24.5
			c-0.2-0.3-0.2-0.3-0.3-0.6c-5.4,4.6-20.1,10.7-24,14.6c-4.2,4.3-6.1,10.1-8.6,15.3c-1.9,3.9-4.5,8.1-5.9,12.2
			c-5.1,15-0.4,29-2.1,44.4c-0.1,0.3-0.1,0.3-0.1,0.6c-0.8-5.6-0.6-11.3-1.1-16.8c-1.2-12.3-4.2-21.1-0.3-33.7
			c1.6-5,3.5-8.1,6.7-12.2c-6.2,4.3-10,10.8-14.7,16.5c-4.4,5.2-9.3,10.1-13.1,15.8c-8.5,12.8-15,29.5-8.7,44.4
			c2.2,8.3,4,14.9-0.2,23.2c-0.3-0.1-0.3-0.1-0.6-0.1c3.6-18.5-16.6-23.8-11.7-44.9c-15.9,25.7,12.7,33.5,3.8,54.9
			c-0.8-14.1-12.5-18.5-15.5-32.3c-6.6,24.2,16.5,23.5,4.9,43.7c0.1-14-11.4-13-12.5-29.3c-1.6,6.7-1.2,11,1.5,17.3
			c1.9,4.4,7.1,11-1.2,2.7c-8.2-8.2-5.8-16.8-6.2-4.9c0,4.1,15,14.8,9.7,13.3c-0.7-0.2-8.9-8.9-10.6-9.8c1.1,6.1,10.3,12.9,9.5,13.7
			c-2.6-1.6-8.6-3.5-10.3-4.7c-1.5-1-4.5-6.2-2.6-1.5c1.6,3.9,7.5,5.4,10.6,8c-6.3-1.9-13-3.2-19.6-3.7c-0.3,1.4,17.8,4.5,20.4,7.2
			c3.6,3.7-3-0.7-3.3-0.8c-6.2-2.2-16.3,2.2-18.9,8.5c5-5.5,17.4-10.1,21.4-1.7c-6.9-5.7-16.2-0.9-20,6.2
			c10.1-10.5,19.4-4.7,18.9-1.7c-0.2,0.9-13.5,8.9-15.3,9.9c-13.6,7.2-28.8,10.6-44,12.3c0,0.1-0.4,0.7,0.4,0.7
			c21,4.1,42.6-3.7,59.5-16.2c1.2,0.3,1.1,7.8-0.3,11.8c-0.2,0.5-3.7,6-0.6,2.4c0.2-0.2,1.6-2.5,1.6-2.7c1.3-3.4,0.6-13.8,2.5-5
			c1.3,6.1-2,8.7-5.9,12.6c13.2-4.9,7.4-17,8.4-17.1c2,2.7,3.4,7.4,2.8,10.7c-0.3,1.5-3.8,10,0.7,3.3c1.4-2.1,1.9-5.3,1.6-7.8
			c-0.2-1.9-3.7-10.7,0.8-2c3.4,6.7,0.6,13.1,1.2,13.4c5.6-6.9,1-16.3-4.3-21.9c5.5,2.9,8.6,9.2,8.6,15.3c0,1.8-2.2,11.2,0.5,5.5
			c4.5-9.5,0.9-18.9-8-23.9c12,3.2,10.6,17.1,24.8,20.5c0.1-0.3,0.1-0.3,0.1-0.6c-9.3-3.6-12.9-13.6-18.9-20.7
			c7.8,6.1,11.6,17,26.2,14.3c3.7-0.7,15.4-7.2,4.2-4c-16.3,0.1-16.8-8.9-27.8-12.9c3.9-0.5,7.8-0.3,11.7,0.6
			c5.2,6.4,14.1,10.6,22.3,7.8c6.1-2,0.1-1.1-1.6-1.3c-12-1.9-13.3-13.3-25.8-13.6c17.3-9.6,19.5,3.9,37.1,3.8
			c7.8,0,15.4-4.9,20.4-10.6c-14.8,9.4-31-0.8-45.6-5c25.2-18.1,35.6,15.4,61.3-14.7c-12.2,7.8-27.8,6.1-40.3,0.4
			c21-4.4,34.2-2.7,50.8-18.7c11.2-10.9,14.2-21.3,23.9-32.2C237.6,104.2,233.4,108.6,232.9,109z M165,132.8
			c-14.8,17.8-29.9,36.1-47.9,50.9c-6.1,5.1-7.6,5-1.9-1.1c4.6-5,10.1-9.4,14.9-14.2c13.8-13.8,21.2-22.4,33.7-37.1
			c5.2-6.2,10.3-12.5,15.5-18.8c14.5-17.8,28.4-35.8,42.3-54c9.3-12.2,9.9-14.5,22.1-27.6c0.4,0.1,0.4,0.1,0.9,0.2
			c-6.8,8.7-13.3,17.7-19.9,26.5c-8.5,11.2-17.1,22.3-25.5,33.5c-6.1,7.2-12.2,14.4-18.1,21.8C175.7,119.5,170.5,126.2,165,132.8z"
			/>
		<path class="st0" d="M89.7,166c-9.5-18.7-12.6-40.8-7-62.6c11.2-44.4,53.9-72.8,98.3-67.2c7.6-11.6,16.2-13.8,20.1-14.2
			c-1.6-0.5-3.2-0.9-4.9-1.4C138.4,6.1,79.6,41.3,65.1,99c-6.8,26.8-2.8,53.8,9.1,76.5C78.2,166.5,86.7,165.9,89.7,166z"/>
		<path class="st0" d="M260.6,67.1c0.2,3.5-0.2,13.1-8.6,22.1c7.8,17.7,10,38,4.9,58.2c-12.1,48-60.9,77.2-108.9,65.2
			c0.3,2.4,1.1,11.4-6,17.1c0.5,0.1,0.9,0.2,1.4,0.4c57.7,14.6,116.5-20.6,131.1-78.3C282,121.7,276.1,91.4,260.6,67.1z"/>
	</g>
	<g>
		<path class="st0" d="M172,9.3c0,2-1.6,3.6-3.6,3.6s-3.6-1.6-3.6-3.6s1.6-9.3,3.6-9.3S172,7.3,172,9.3z"/>
		<path class="st0" d="M164.9,241.5c0-2,1.6-3.6,3.6-3.6s3.6,1.6,3.6,3.6c0,2-1.6,9.3-3.6,9.3S164.9,243.5,164.9,241.5z"/>
		<path class="st0" d="M286,128.9c-2,0-3.6-1.6-3.6-3.6c0-2,1.6-3.6,3.6-3.6s9.3,1.6,9.3,3.6C295.3,127.3,288,128.9,286,128.9z"/>
		<path class="st0" d="M50.9,121.8c2,0,3.6,1.6,3.6,3.6c0,2-1.6,3.6-3.6,3.6s-9.3-1.6-9.3-3.6C41.6,123.4,48.9,121.8,50.9,121.8z"/>
	</g>
	<g>
		<circle class="st0" cx="85.3" cy="42.3" r="3.6"/>
		<circle class="st0" cx="251.6" cy="208.4" r="3.6"/>
	</g>
</g>
<g>
	<g>
		<path class="st0" d="M37.9,311.8l-0.8,12.5L14,323.4c-0.1,4.6-0.2,9.2-0.3,13.7c-0.1,4.5-0.2,9-0.3,13.5c-2.3-0.1-4.6-0.1-6.7-0.2
			c-2.1-0.1-4.4-0.2-6.7-0.2c0.3-12.7,0.7-25.4,1-38c0.3-12.6,0.6-25.3,0.8-38l43.4,1.1c-0.1,2.3-0.3,4.3-0.5,6
			c-0.2,1.7-0.4,3.7-0.5,5.8l-29.3-0.9l-0.6,24.6L37.9,311.8z"/>
		<path class="st0" d="M70.1,339.1c1.1,0,2.1-0.1,3-0.3c0.9-0.2,1.9-0.5,2.9-0.9c1-0.4,2-1.1,3.1-1.9s2.4-1.9,3.8-3.2l8.6,8.1
			c-2.3,3.1-5.2,5.6-8.7,7.5c-3.5,1.9-7.6,2.9-12.5,2.9c-4.1,0-7.6-0.9-10.7-2.7c-3-1.8-5.6-4.2-7.6-7.1c-2-2.9-3.5-6.3-4.4-10
			c-0.9-3.7-1.3-7.6-1.3-11.5c0.1-3.9,0.8-7.8,1.9-11.5c1.1-3.7,2.8-7.1,5-10c2.2-2.9,4.9-5.3,8.1-7.1s6.9-2.7,11.2-2.7
			c4.9,0,9,1.1,12.2,3.4c3.2,2.3,5.6,5.2,7.2,8.8c1.6,3.6,2.5,7.5,2.6,11.9c0.1,4.3-0.4,8.6-1.5,12.8c-5.7-0.1-11.3-0.1-16.9-0.1
			c-5.6,0-11.2,0-16.9-0.1c0.1,1.9,0.4,3.7,0.9,5.4c0.5,1.7,1.3,3.1,2.2,4.4c0.9,1.3,2.1,2.3,3.4,3S68.5,339.1,70.1,339.1z
			 M81.5,314.1c0-1.5-0.2-3.1-0.5-4.6c-0.4-1.5-1-2.9-1.8-4.1c-0.8-1.2-1.8-2.2-3-2.9c-1.2-0.7-2.6-1.1-4.3-1.1
			c-2.8,0-5.3,1.1-7.4,3.2c-2.1,2.1-3.5,5-4,8.6L81.5,314.1z"/>
		<path class="st0" d="M106.4,298.3c4.1-3.4,8-5.9,11.7-7.4c3.7-1.5,7.2-2.3,10.4-2.3c0.3,0,0.6,0,0.9,0c0.2,0,0.5,0,0.9,0.1
			c5,0.5,9,2.7,12,6.8c3,4,4.5,9.4,4.5,16.1c0,2.9-0.1,5.5-0.2,7.9c-0.2,2.4-0.2,4.6-0.2,6.8c0,3.1,0.4,5.7,1.2,7.9
			c0.8,2.2,2.6,4.1,5.3,5.7c-1.3,1.7-2.6,3.3-3.9,4.9c-1.3,1.6-2.6,3.2-3.9,4.9c-2.2-0.9-4-2-5.4-3.3c-1.4-1.3-2.5-2.8-3.4-4.6
			c-2.5,3-5.1,5.2-7.9,6.6c-2.8,1.4-5.6,2.2-8.4,2.3c-2.5,0-4.8-0.4-6.9-1.2c-2.1-0.8-3.9-1.9-5.5-3.4c-1.5-1.5-2.7-3.2-3.6-5.3
			c-0.8-2.1-1.3-4.4-1.3-6.9c0-6.5,2.8-11.9,8.3-16.2c5.5-4.3,13.3-7.3,23.2-9.1c-0.5-2.8-1.3-4.8-2.6-6c-1.3-1.2-3-1.8-5.3-1.8
			c-0.3,0-0.5,0-0.8,0c-0.2,0-0.5,0-0.8,0c-1.9,0.2-4,0.9-6.4,2c-2.4,1.1-4.9,2.8-7.4,4.9L106.4,298.3z M133.8,330
			c0-2.7,0-4.9,0.1-6.5c0.1-1.6,0.2-3,0.3-4.4c-2,0.3-4.1,0.8-6.2,1.5c-2.1,0.7-4.1,1.6-5.9,2.7c-1.8,1.1-3.2,2.5-4.4,4.1
			c-1.1,1.6-1.7,3.5-1.7,5.6s0.6,3.7,1.7,4.8c1.1,1,2.5,1.6,4.2,1.6c0.1,0,0.3,0,0.5,0c0.2,0,0.4,0,0.6,0c1.9-0.3,3.9-1.2,5.9-2.7
			C130.9,334.9,132.5,332.8,133.8,330z"/>
		<path class="st0" d="M176.5,329.3c0,2.8,0.5,4.9,1.7,6.4c1.1,1.5,3.1,2.6,6.1,3.3c-0.7,2.1-1.3,4.2-1.9,6.3
			c-0.6,2.1-1.2,4.2-1.9,6.3c-3.3-0.5-6.2-1.4-8.5-2.7c-2.3-1.3-4.2-3-5.7-4.9c-1.4-1.9-2.5-4.1-3.1-6.5c-0.6-2.4-1-4.9-1-7.4v-25.4
			l-7.5,0.8l-1.2-13.1l9.8-1.2l1.9-11.6c1.8-0.1,3.6-0.3,5.4-0.4c1.8-0.1,3.6-0.3,5.4-0.4c0,1.8,0,3.6,0.1,5.5c0,1.8,0,3.7,0,5.5
			l10-1.3l1.3,13.3l-11.2,1.3L176.5,329.3z"/>
		<path class="st0" d="M208.5,270.2l-1.3,28.6c0.7-1.3,1.5-2.5,2.5-3.6c1-1.1,2.1-2.2,3.4-3.1c1.3-0.9,2.7-1.6,4.3-2.2
			c1.6-0.5,3.3-0.8,5.2-0.8h0.2c3,0.1,5.6,0.7,7.9,2c2.2,1.2,4.1,3.2,5.6,5.8c1.5,2.6,2.6,6,3.4,10c0.8,4,1.1,8.9,1,14.6
			c-0.1,3.8-0.2,8-0.5,12.5s-0.8,9.6-1.4,15.1l-14,0.6c0.6-6.9,1.1-13.3,1.6-19.1c0.4-5.8,0.5-10.8,0.2-15.1c-0.3-4.3-1-7.6-2.1-10
			c-1.1-2.4-3-3.6-5.5-3.7c-1.7,0-3.1,0.5-4.4,1.5c-1.2,1-2.3,2.2-3.2,3.7c-0.9,1.5-1.6,3.1-2.2,4.8c-0.6,1.7-1.1,3.4-1.4,4.9
			c-0.1,5.5-0.2,10.9-0.2,16.3c0,5.4-0.1,10.8-0.2,16.3c-2.3,0.1-4.7,0.2-7.1,0.2c-2.4,0-4.8,0.1-7.1,0.2
			c0.3-13.2,0.5-26.3,0.7-39.4c0.2-13,0.4-26.2,0.7-39.4L208.5,270.2z"/>
		<path class="st0" d="M272.5,339.1c1.1,0,2.1-0.1,3-0.3c0.9-0.2,1.9-0.5,2.9-0.9c1-0.4,2-1.1,3.1-1.9s2.4-1.9,3.8-3.2l8.6,8.1
			c-2.3,3.1-5.2,5.6-8.7,7.5c-3.5,1.9-7.6,2.9-12.5,2.9c-4.1,0-7.6-0.9-10.7-2.7c-3-1.8-5.6-4.2-7.6-7.1c-2-2.9-3.5-6.3-4.4-10
			c-0.9-3.7-1.3-7.6-1.3-11.5c0.1-3.9,0.8-7.8,1.9-11.5c1.1-3.7,2.8-7.1,5-10c2.2-2.9,4.9-5.3,8.1-7.1s6.9-2.7,11.2-2.7
			c4.9,0,9,1.1,12.2,3.4c3.2,2.3,5.6,5.2,7.2,8.8c1.6,3.6,2.5,7.5,2.6,11.9c0.1,4.3-0.4,8.6-1.5,12.8c-5.7-0.1-11.3-0.1-16.9-0.1
			c-5.6,0-11.2,0-16.9-0.1c0.1,1.9,0.4,3.7,0.9,5.4c0.5,1.7,1.3,3.1,2.2,4.4c0.9,1.3,2.1,2.3,3.4,3S270.9,339.1,272.5,339.1z
			 M283.9,314.1c0-1.5-0.2-3.1-0.5-4.6c-0.4-1.5-1-2.9-1.8-4.1c-0.8-1.2-1.8-2.2-3-2.9c-1.2-0.7-2.6-1.1-4.3-1.1
			c-2.8,0-5.3,1.1-7.4,3.2c-2.1,2.1-3.5,5-4,8.6L283.9,314.1z"/>
		<path class="st0" d="M305,291.6l10.9-0.8l1.1,7.8c2.1-3.1,4.6-5.4,7.3-6.9c2.7-1.5,5.6-2.3,8.7-2.3c1.1,0,2.2,0.1,3.3,0.3
			c0.1,2.3,0.2,4.7,0.3,7c0.1,2.3,0.2,4.7,0.3,7c-1.3-0.3-2.5-0.5-3.6-0.5c-2,0-3.9,0.4-5.6,1.3c-1.7,0.9-3.2,2-4.5,3.5
			c-1.3,1.5-2.3,3.2-3.1,5.1c-0.8,1.9-1.3,4-1.5,6.2l1.1,30h-14L305,291.6z"/>
	</g>
	<g>
		<path class="st0" d="M124.9,424.8c-0.5,0.5-0.9,1-1.3,1.4c-0.4,0.4-0.8,0.8-1.2,1.2c-0.4,0.4-0.7,0.8-1.1,1.2
			c-0.4,0.4-0.8,0.8-1.2,1.3l-7.1-6.4c-0.8,0.2-1.6,0.3-2.4,0.5c-0.8,0.1-1.6,0.2-2.2,0.2c-3.5-0.2-6.6-1.2-9.3-2.9
			c-2.7-1.7-4.9-3.9-6.7-6.5c-1.8-2.6-3.1-5.5-3.9-8.7c-0.8-3.2-1.1-6.4-0.9-9.7c0.2-3.2,0.8-6.3,1.7-9.2c1-3,2.3-5.6,4-7.9
			c1.7-2.3,3.8-4.1,6.3-5.5c2.5-1.4,5.3-2.1,8.6-2.1c3.6,0,6.7,0.8,9.4,2.4c2.6,1.6,4.8,3.7,6.5,6.2c1.7,2.5,2.9,5.4,3.6,8.7
			c0.7,3.2,1,6.5,0.8,9.9c-0.1,2.1-0.5,4.2-0.9,6.2c-0.5,2-1.2,3.9-2,5.7c-0.8,1.8-1.9,3.3-3,4.7c-1.2,1.4-2.6,2.6-4.1,3.5
			L124.9,424.8z M94.6,400.3c0.1,2,0.5,4,1.1,5.9c0.6,1.9,1.5,3.7,2.6,5.2c1.1,1.5,2.5,2.8,4.2,3.7c1.7,0.9,3.6,1.4,5.9,1.4
			c2.2,0,4.1-0.6,5.8-1.8c1.6-1.2,3-2.8,4.1-4.7c1.1-1.9,1.9-4.1,2.5-6.6c0.5-2.5,0.8-5,0.7-7.5c0-2-0.3-4-0.9-6.1
			c-0.5-2.1-1.4-4-2.5-5.7c-1.1-1.7-2.5-3.1-4.1-4.2c-1.6-1.1-3.6-1.7-6-1.7c-2.2,0-4.1,0.7-5.8,2c-1.7,1.3-3.1,3-4.3,5.1
			c-1.2,2.1-2,4.5-2.6,7.1C94.6,394.9,94.4,397.6,94.6,400.3z"/>
		<path class="st0" d="M161.5,422.5c-1.2,0-2.2-0.1-2.9-0.2c-0.7-0.1-1.7-0.1-2.7-0.2l-1-6.2c-1.4,2.2-2.9,4-4.7,5.4
			c-1.8,1.3-4,2-6.8,2c-1.4-0.1-2.8-0.5-4-1.2c-1.2-0.7-2.3-1.9-3.2-3.4c-0.9-1.6-1.6-3.6-2.1-6.1c-0.5-2.5-0.7-5.6-0.7-9.2
			c0-2.4,0.1-5.3,0.3-8.6c0.2-3.4,0.5-6.7,0.8-10.1c0.7,0,1.2-0.1,1.8-0.1c0.5,0,1-0.1,1.4-0.1c0.4,0,0.9-0.1,1.4-0.1
			c0.5,0,1-0.1,1.6-0.1c0,1.4-0.1,3.1-0.3,5.2c-0.2,2.1-0.4,4.4-0.6,6.8c-0.2,2.4-0.3,4.8-0.3,7.3c0,2.4,0.1,4.6,0.4,6.6
			c0.3,2,0.8,3.6,1.5,4.9c0.7,1.3,1.8,2,3.1,2.2c0.1,0,0.2,0,0.3,0c0.1,0,0.2,0,0.3,0c1.2,0,2.4-0.3,3.5-1c1.1-0.7,2.2-1.5,3.1-2.5
			c0.9-1,1.6-2.1,2.2-3.3c0.5-1.2,0.8-2.3,0.9-3.4l0.8-23h6.5L161.5,422.5z"/>
		<path class="st0" d="M181.9,417.9c1.6,0,3-0.3,4.4-0.9c1.3-0.6,2.9-1.7,4.8-3.4l3.9,4.3c-1.5,1.8-3.3,3.2-5.4,4.3
			c-2.1,1-4.7,1.5-7.6,1.5c-2.6,0-4.8-0.6-6.7-1.7c-1.9-1.1-3.5-2.6-4.8-4.5c-1.3-1.8-2.2-4-2.8-6.3s-0.9-4.8-0.9-7.3
			c0-2.6,0.4-5.2,1.1-7.8c0.7-2.6,1.8-4.9,3.2-6.9c1.4-2,3.2-3.6,5.3-4.9c2.1-1.2,4.6-1.9,7.4-1.9c3,0,5.5,0.7,7.5,2.2
			c1.9,1.4,3.4,3.3,4.5,5.5c1,2.2,1.6,4.7,1.8,7.5c0.2,2.8,0,5.4-0.4,8.1c-4,0-8,0-12-0.1c-4,0-8.1-0.1-12-0.1
			c0,1.6,0.3,3.1,0.7,4.6c0.4,1.5,1,2.7,1.7,3.9c0.7,1.1,1.6,2,2.7,2.7C179.1,417.6,180.4,417.9,181.9,417.9z M191.3,400.6
			c0-1.4-0.2-2.9-0.5-4.3c-0.3-1.4-0.8-2.7-1.5-3.8c-0.7-1.1-1.5-2-2.6-2.7c-1-0.7-2.2-1-3.6-1c-1.3,0-2.4,0.3-3.5,0.8
			c-1.1,0.5-2.1,1.3-2.9,2.3c-0.9,1-1.6,2.1-2.1,3.5c-0.6,1.3-0.9,2.8-1.1,4.4L191.3,400.6z"/>
		<path class="st0" d="M223,390.8c-2.7-1.4-5.1-2.1-7.4-2.1c-1.4,0-2.7,0.3-3.8,0.9c-1.1,0.6-1.8,1.5-2.2,2.7
			c-0.4,1.5-0.3,2.6,0.4,3.6c0.7,0.9,1.7,1.8,3,2.5c1.3,0.7,2.9,1.5,4.6,2.2c1.7,0.7,3.3,1.6,4.8,2.6c1.5,1,2.7,2.2,3.8,3.7
			s1.6,3.3,1.6,5.6c-0.1,1.8-0.6,3.4-1.5,4.8c-0.8,1.4-1.9,2.5-3.2,3.5c-1.3,0.9-2.7,1.6-4.4,2.1c-1.6,0.5-3.3,0.7-5,0.7
			c-2.7,0-5.4-0.5-8-1.4c-2.6-0.9-4.9-2.3-6.8-4.1l3.2-5c1.7,1.5,3.6,2.6,5.6,3.3c2,0.7,3.9,1,5.6,1c2.1,0,3.8-0.4,5.3-1.3
			s2.3-2,2.5-3.3c0.1-1.1-0.2-2.1-0.8-2.9c-0.6-0.8-1.4-1.5-2.4-2.2s-2.2-1.2-3.4-1.8c-1.3-0.6-2.6-1.2-3.9-1.8
			c-2-0.9-3.5-2.1-4.7-3.5c-1.1-1.4-1.9-2.9-2.3-4.4c-0.4-1.5-0.4-3.1-0.1-4.6c0.3-1.5,1-2.9,2-4.2c1-1.2,2.3-2.2,4-3
			c1.7-0.8,3.6-1.2,5.9-1.2c3.9,0,7.4,0.8,10.5,2.4L223,390.8z"/>
		<path class="st0" d="M241,410.5c0.1,1.9,0.7,3.5,1.7,4.8c1.1,1.3,2.4,2.3,4.1,3c-0.2,0.6-0.4,1.1-0.5,1.6
			c-0.2,0.5-0.3,0.9-0.5,1.3c-0.1,0.4-0.3,0.8-0.5,1.2c-0.2,0.4-0.3,0.9-0.5,1.5c-2-0.4-3.6-1-4.9-1.8c-1.3-0.8-2.4-1.9-3.2-3
			c-0.8-1.2-1.4-2.5-1.7-4s-0.5-3-0.5-4.5V391l-5.4,0.6l-0.6-6.4l6.5-0.8l1.3-8.1c0.6,0,1-0.1,1.3-0.1c0.3,0,0.6-0.1,0.9-0.1
			c0.3,0,0.6-0.1,0.9-0.1c0.3,0,0.7-0.1,1.2-0.1c0,1.3,0,2.6,0,3.9c0,1.3,0,2.6,0,3.9l7.9-1l0.6,6.5l-8.4,1L241,410.5z"/>
	</g>
</g>
</svg>
