<?xml version="1.0" encoding="utf-8"?>
<!-- Generator: Adobe Illustrator 27.9.0, SVG Export Plug-In . SVG Version: 6.00 Build 0)  -->
<svg version="1.1" id="Laag_1" xmlns="http://www.w3.org/2000/svg" xmlns:xlink="http://www.w3.org/1999/xlink" x="0px" y="0px"
	 viewBox="0 0 131.5 126" style="enable-background:new 0 0 131.5 126;" xml:space="preserve">
<style type="text/css">
	.st0{opacity:0.8;fill:url(#SVGID_1_);enable-background:new    ;}
	.st1{opacity:0.6;fill:#EF7B5A;enable-background:new    ;}
	.st2{fill:url(#SVGID_00000037657382899919317880000001123014763644025786_);}
	.st3{opacity:0.6;}
	.st4{fill:#A898AB;}
	.st5{fill:#4A5CA9;}
	.st6{fill:url(#SVGID_00000091700398485998153990000012127297833494167443_);}
	.st7{fill:url(#SVGID_00000016057205972092687400000016691341862871981996_);}
	.st8{fill:url(#SVGID_00000048494960749415897040000001236323584231259063_);}
	.st9{fill:url(#SVGID_00000115494780947751225920000010945185691767543204_);}
	.st10{fill:url(#SVGID_00000066474937947397650480000006435942030601838262_);}
	.st11{fill:url(#SVGID_00000006666982796875381370000010622366637412347559_);}
	.st12{fill:url(#SVGID_00000129172801383392016170000009838967526334061954_);}
	.st13{fill:url(#SVGID_00000058591126116496249210000015360294353480230059_);}
	.st14{fill:url(#SVGID_00000182524874924080582690000010027514685184486796_);}
	.st15{fill:url(#SVGID_00000042722152785912023620000014381598552283552929_);}
	.st16{fill:url(#SVGID_00000112592045398300036190000011656035143167905443_);}
	.st17{fill:url(#SVGID_00000031898992934875930920000002694678785455140756_);}
	.st18{fill:url(#SVGID_00000129169291240257487910000008205010442370728081_);}
	.st19{fill:url(#SVGID_00000078750996653681641430000000081570992491525261_);}
	.st20{opacity:0.6;fill:url(#SVGID_00000148651579871642277520000001774983744580920228_);enable-background:new    ;}
	.st21{opacity:0.6;fill:#FFF8A7;enable-background:new    ;}
	.st22{opacity:0.7;fill:url(#SVGID_00000057841344993713017020000008432910766389624473_);enable-background:new    ;}
	.st23{opacity:0.9;fill:url(#SVGID_00000003070482987768380710000017884070529090905505_);enable-background:new    ;}
	.st24{fill:url(#SVGID_00000081623603171044945690000003818160898560100262_);}
	.st25{fill:url(#SVGID_00000107549220285857761470000015456802970064789944_);}
	.st26{fill:url(#SVGID_00000061460633613946425390000017632693447742830240_);}
	.st27{fill:url(#SVGID_00000007394337134992313190000014147684250010219671_);}
	.st28{fill:url(#SVGID_00000139975380616683979890000001364033991964555928_);}
	.st29{fill:url(#SVGID_00000055708606108597363310000016266270883724150197_);}
	.st30{fill:url(#SVGID_00000085225502646359092210000005944844571496538038_);}
	.st31{fill:url(#SVGID_00000083049931452885728720000008902413537615552422_);}
	.st32{fill:url(#SVGID_00000008111426421107343540000009756628382007793552_);}
	.st33{fill:url(#SVGID_00000041296115338739766860000007460024381593431225_);}
	.st34{fill:url(#SVGID_00000059311394164857336710000017939546774211021990_);}
	.st35{fill:url(#SVGID_00000176758822472422276390000014601067574841439385_);}
	.st36{fill:url(#SVGID_00000018947375694510249700000010287916290027230596_);}
	.st37{fill:url(#SVGID_00000173868266406555236280000008332492628989753277_);}
	.st38{fill:url(#SVGID_00000058571183605127493800000004633141420090975628_);}
	.st39{opacity:0.6;fill:url(#SVGID_00000076586678045283165830000002786931163348399281_);enable-background:new    ;}
	.st40{opacity:0.7;fill:url(#SVGID_00000037650822482297360230000004396167261869802390_);enable-background:new    ;}
	.st41{opacity:0.9;fill:url(#SVGID_00000164504860418314960390000014554509870323480480_);enable-background:new    ;}
	.st42{fill:url(#SVGID_00000052802679792699312490000013738576885145870757_);}
	.st43{fill:url(#SVGID_00000112616878990523539570000006325042329989159871_);}
	.st44{fill:url(#SVGID_00000183237522258706124230000011978491119639072190_);}
	.st45{fill:url(#SVGID_00000164495574548995354650000000160659670296531625_);}
	.st46{fill:url(#SVGID_00000173134956388196847930000002833379478763299772_);}
	.st47{fill:url(#SVGID_00000013169886600583493280000011231073327537837446_);}
	.st48{fill:url(#SVGID_00000058573358421263038280000016589470884500809089_);}
	.st49{fill:url(#SVGID_00000077318148011392900930000016780546991929543350_);}
	.st50{fill:url(#SVGID_00000104684464814153782690000001605750606911194004_);}
	.st51{fill:url(#SVGID_00000031183680671399978520000009454642495190391225_);}
	.st52{fill:url(#SVGID_00000019645595142180839610000008714085925376690851_);}
	.st53{fill:url(#SVGID_00000014618693355241806140000011749145744755728561_);}
	.st54{fill:url(#SVGID_00000155131157238835137440000001286731335638718097_);}
	.st55{fill:url(#SVGID_00000090285380100642004490000008227999910165110423_);}
	.st56{fill:url(#SVGID_00000104682110191256545280000000740685951808420226_);}
	.st57{opacity:0.6;fill:url(#SVGID_00000001623316571096870630000010224705692211008149_);enable-background:new    ;}
	.st58{opacity:0.7;fill:url(#SVGID_00000103980005078507746970000003071316759412774842_);enable-background:new    ;}
</style>
<g>
	
		<linearGradient id="SVGID_1_" gradientUnits="userSpaceOnUse" x1="-127.2219" y1="686.1118" x2="-148.8335" y2="716.2308" gradientTransform="matrix(1 0 0 1 219.01 -681.6)">
		<stop  offset="0.46" style="stop-color:#F7C7B1"/>
		<stop  offset="1" style="stop-color:#F59F1D"/>
	</linearGradient>
	<path class="st0" d="M73.3,21.7c0,0,1.1-1.3,2-1.9c1-0.7,2-1.5,3-2.2c1.1-0.8,2.2-1.5,3.4-2.1c1.2-0.6,2.4-1.2,3.6-1.9
		c-4,1.2-11.7,5-11.7,5s0.7-0.6,1.1-0.8c1.9-1.3,4.2-2.4,6.3-3.4c3.2-1.6,6.5-3.1,9.9-4.4c5.8-2.2,11.9-4,17.9-5.7
		c-6.9,1.3-20.4,4.8-20.4,4.8s15.1-5.1,22.8-6.5c3.6-0.6,7.3-1.1,11-1.5c-0.7,0-1.4,0-2.2,0c-1.6,0-3.3-0.1-4.9,0
		c-7.6,0.2-15.2,1.2-22.7,2.7c-5.2,1-10.6,2-15.6,3.9c-2.2,0.8-6.6,2.5-6.6,2.5s3.4-2,5-3c-0.3,0.1-0.6,0.2-0.9,0.3
		c-5.2,2-9.8,4.8-14.3,8c-0.1,0,1.3-1.6,2.1-2.3c-0.9,0.5-1.7,1-2.4,1.6s-2.1,1.7-2.1,1.6c1.1-1.2,2.4-2.3,3.6-3.4
		c-1.3,0.8-2.6,1.6-3.8,2.6c-2.1,1.8-4.1,3.9-5.9,6.1c-1.2,1.6-2.5,3.6-2.6,5.5c0,2,0.9,3.4,2.5,4.6c1.4,1,3.3,1.4,5,1.7
		c1.6,0.2,3.2,0.1,4.7-0.2c3.5-0.8,6-2.5,8.2-5.3c1.2-1.6,2.4-3.2,3.8-4.7c0.4-0.4,0.9-0.9,1.5-1.3c1.7-1.6,3.6-3,5.3-4.5
		C77.7,18.7,73.3,21.7,73.3,21.7L73.3,21.7z"/>
	<path class="st1" d="M50.7,19.9c-0.5,0.6-1.1,1.1-1.6,1.8c-0.5,0.6-0.9,1.2-1.2,1.8c-0.6,1.2-0.9,2.4-0.9,3.8
		c0,1.2,0.4,2.5,1.2,3.4c0.8,1,1.8,1.8,2.9,2.4c0,0,0.1,0,0-0.1c-2-1.3-3.5-3.6-3.5-6c0-1.2,0.2-2.5,0.8-3.6
		C49,22.2,49.9,21.1,50.7,19.9C50.8,19.9,50.8,19.9,50.7,19.9L50.7,19.9z"/>
	<path class="st1" d="M62.4,34c-0.5,0.2-1,0.4-1.5,0.6c-0.5,0.1-1.1,0.2-1.7,0.2c-1.1,0-2.2-0.2-3.3-0.5s-2.3-0.7-3.3-1.2
		c-0.5-0.3-1.1-0.5-1.6-0.8s-1-0.8-1.5-1.2c0,0-0.1,0,0,0.1c0.8,0.9,1.8,1.8,2.9,2.4c1,0.6,2.2,0.9,3.4,1.2c1,0.2,2.2,0.2,3.3,0.2
		C60.2,34.9,61.4,34.6,62.4,34L62.4,34L62.4,34z"/>
	<path class="st1" d="M71.5,27.3c-0.2,0.2-0.5,0.4-0.7,0.7c-0.3,0.2-0.5,0.5-0.8,0.7c-0.5,0.5-1.1,0.9-1.6,1.4c-1,0.9-2,1.7-3.1,2.5
		c0,0-0.1,0.1,0,0.1c0.6-0.3,1.2-0.6,1.7-0.9c0.6-0.4,1.1-0.9,1.7-1.4s1.1-1,1.7-1.6c0.3-0.3,0.5-0.5,0.7-0.8
		C71.2,27.8,71.4,27.6,71.5,27.3C71.6,27.3,71.5,27.3,71.5,27.3z"/>
	<path class="st1" d="M57.4,15c-0.6,0.6-1.5,1.1-2.2,1.7c-0.8,0.7-1.6,1.4-2.4,2.1c-1.4,1.4-2.7,2.8-3.6,4.5c-0.1,0.1,0.1,0.1,0.2,0
		c0.6-0.7,1.1-1.5,1.7-2.2c0.6-0.8,1.3-1.5,2-2.2s1.5-1.4,2.3-2.1C56,16.2,56.9,15.7,57.4,15C57.5,15,57.4,15,57.4,15z"/>
	<path class="st1" d="M75.7,22c-2.3,1.8-4.4,3.7-5.9,6.2c-0.1,0.1,0.1,0.1,0.2,0c1-0.8,1.8-2,2.6-2.9c1-1.1,2.2-2.2,3.3-3.3
		C75.9,22,75.7,22,75.7,22z"/>
	<path class="st1" d="M99.1,8.3c-2.3,0.9-4.7,1.7-7,2.7c-1.9,0.8-3.8,1.8-5.6,2.9c-2.9,1.7-5.7,3.8-8.3,6.1c-0.1,0.1,0.2,0,0.3,0
		c2.9-2.1,5.8-4.2,8.9-6c1.8-1,3.6-2,5.4-2.9c2.1-1,4.3-1.9,6.5-2.8C99.5,8.3,99.2,8.3,99.1,8.3L99.1,8.3z"/>
	<path class="st1" d="M114.7,3.3c-5.4,1-10.9,2.2-16.1,3.9c-2.4,0.8-4.8,1.6-7.1,2.5c-1.8,0.7-3.6,1.5-5.1,2.7
		c-0.1,0.1,0.3,0.1,0.4,0c8.8-4.3,18.5-6.9,28-9C115,3.3,114.8,3.3,114.7,3.3L114.7,3.3z"/>
	<path class="st1" d="M111.2,0c-1.4,0-2.9,0.1-4.3,0.2c-1.7,0.1-3.5,0.2-5.2,0.4c-3.3,0.3-6.5,0.8-9.7,1.5c-2.9,0.6-5.7,1.2-8.5,2
		c-2.3,0.7-4.9,1.4-7,2.6c-0.2,0.1,0,0.2,0.2,0.1C79.1,6,81.6,5.4,84,4.7c2.7-0.8,5.5-1.4,8.3-2c3.1-0.7,6.3-1.2,9.5-1.6
		c1.5-0.2,3-0.3,4.5-0.5C107.9,0.3,109.6,0.1,111.2,0C111.5,0.1,111.4,0,111.2,0L111.2,0z"/>
	<path class="st1" d="M91.9,1.7c-1.8,0.4-3.6,0.6-5.4,0.9c-1.9,0.4-3.8,0.8-5.7,1.3c-2.5,0.6-4.9,1.5-7.4,2.5
		c-1.9,0.8-3.8,1.6-5.6,2.5c-1.6,0.8-3.1,1.8-4.6,2.8c-0.1,0,0,0.1,0.1,0c1.6-0.9,3.4-1.7,5.1-2.5c1.9-0.9,3.8-1.7,5.7-2.5
		c2.5-1,5-1.8,7.5-2.6c1.8-0.5,3.6-0.9,5.3-1.3C88.6,2.4,90.3,2.2,91.9,1.7C92.2,1.7,92,1.6,91.9,1.7z"/>
	<path class="st1" d="M70.4,7.2c-0.4,0.2-1,0.3-1.4,0.5c-0.5,0.2-1,0.3-1.4,0.5c-1,0.4-2,0.7-3,1.1c-1.8,0.8-3.7,1.7-5.4,2.6
		c-3,1.7-5.7,4.1-7.9,6.8c-0.1,0.1,0.1,0.1,0.1,0c2.5-2.5,5.2-4.9,8.3-6.7c1.7-1,3.6-1.8,5.4-2.6c1-0.4,2-0.8,3-1.2
		C68.9,7.9,69.8,7.6,70.4,7.2C70.5,7.1,70.4,7.1,70.4,7.2L70.4,7.2z"/>
	
		<radialGradient id="SVGID_00000135679694090842719680000008638416953971554982_" cx="-1092.7983" cy="40.2685" r="1" gradientTransform="matrix(16.9494 4.122104e-02 -4.102770e-02 16.87 18578.8105 -620.6981)" gradientUnits="userSpaceOnUse">
		<stop  offset="0.41" style="stop-color:#6487A9"/>
		<stop  offset="0.91" style="stop-color:#A06D7E"/>
	</radialGradient>
	<path style="fill:url(#SVGID_00000135679694090842719680000008638416953971554982_);" d="M65.6,26.1c0-1,0.4-1.9,0.1-2.9
		c-0.2-0.8-0.9-1.4-1.6-1.8c-0.8-0.5-1.8-0.4-2.6-0.8c-0.4-0.2-0.7-0.6-1.1-0.8c-0.4-0.3-0.8-0.4-1.2-0.5c-0.7-0.2-1.6,0-2.3,0.3
		c-0.4,0.2-0.8,0.4-1.2,0.5s-0.8,0.2-1.3,0.4c-0.7,0.2-1.3,0.7-1.7,1.3c-0.2,0.3-0.2,0.6-0.3,0.9c0,0.1,0,0.1,0,0.2
		c-0.4,0.7-1.1,1.2-1.5,1.8c-0.5,0.8-0.6,1.8-0.5,2.7c0.1,0.9,0.7,1.8,1.4,2.4c0.3,0.4,0.7,0.8,1,1.1c0.3,0.3,0.5,0.8,0.8,1.2
		c0.5,0.8,1.3,1,2.2,0.7c0.4-0.1,0.9-0.3,1.3-0.5c0.6-0.2,1.2-0.1,1.8,0c1,0.2,2,0.2,3,0c0.8-0.2,1.7-0.5,2.5-0.9
		C66,30.2,65.5,27.8,65.6,26.1z"/>
	<g class="st3">
		<path class="st4" d="M65.6,26.1c0-1,0.4-1.9,0.1-2.9c-0.2-0.8-0.9-1.4-1.6-1.8c-0.8-0.5-1.8-0.4-2.6-0.8c-0.4-0.2-0.7-0.6-1.1-0.8
			c-0.4-0.3-0.8-0.4-1.2-0.5c-0.7-0.2-1.6,0-2.3,0.3c-0.4,0.2-0.8,0.4-1.2,0.5s-0.8,0.2-1.3,0.4c-0.7,0.2-1.3,0.7-1.7,1.3
			c-0.2,0.3-0.2,0.6-0.3,0.9c0,0.1,0,0.1,0,0.2c-0.4,0.7-1.1,1.2-1.5,1.8c-0.5,0.8-0.6,1.8-0.5,2.7c0.1,0.9,0.7,1.8,1.4,2.4
			c0.3,0.4,0.7,0.8,1,1.1c0.3,0.3,0.5,0.8,0.8,1.2c0.5,0.8,1.3,1,2.2,0.7c0.4-0.1,0.9-0.3,1.3-0.5c0.6-0.2,1.2-0.1,1.8,0
			c1,0.2,2,0.2,3,0c0.8-0.2,1.7-0.5,2.5-0.9C66,30.2,65.5,27.8,65.6,26.1z M62.2,23c-0.1,0.2-0.4,0.3-0.6,0.4
			c-0.3,0.1-0.6,0.3-0.8,0.6c-0.2,0.3-0.4,0.6-0.5,1c-0.1,0.2-0.3,0.5-0.5,0.7c-0.1,0.1-0.3,0.2-0.5,0.3c-0.2,0.1-0.2,0.3-0.3,0.5
			c-0.1,0.3-0.2,0.4-0.4,0.4c-0.7,0.2-1.4,0.6-1.7,1.2c0.5-0.2,1-0.5,1.5-0.3c0.1,0,0.1,0.1,0,0.1c-0.6,0.2-1.2,0.9-1.4,1.6
			c-0.1,0.3-0.1,1.1-0.5,1c-0.3,0-0.5-0.2-0.8-0.3c-0.4-0.1-0.7-0.2-1.1,0c-0.2,0.1-0.4,0.3-0.6,0.2c-0.3,0-0.3-0.4-0.6-0.4
			c-0.2,0-0.4,0.1-0.6-0.1c-0.2-0.1-0.3-0.3-0.5-0.5c-0.4-0.4-0.9-0.8-1.3-1.3c-0.5-0.6-0.6-1.5-0.5-2.3c0-0.2,0.1-0.4,0.2-0.6
			c0.2-0.5,0.5-0.9,0.9-1.3c0.2-0.2,0.5-0.3,0.7-0.5c0.3-0.2,0.3-0.5,0.3-0.9c0,0,0.1-0.1,0.1,0c0.2,0.2,0.2,0.5,0.3,0.7
			c0.1-0.5,0.2-1,0.6-1.2c0.1-0.1,0.4-0.2,0.5-0.2c0.2,0.1,0.3,0.2,0.4,0.4c-0.1-0.2-0.2-0.5-0.2-0.7v-0.1c0.2-0.1,0.3-0.4,0.6-0.5
			c0.1,0,0.2,0,0.3,0c0-0.1-0.1-0.1-0.2-0.2v-0.1c0.2-0.1,0.3-0.1,0.5-0.2c-0.1,0-0.2,0-0.3,0s-0.1-0.1,0-0.1c0.9-0.4,1.7-0.9,2.7-1
			c0.3,0,0.8,0,1,0.3c0.1,0.2,0,0.7-0.1,0.9c0,0-0.1,0.1-0.1,0c0-0.2,0-0.3-0.1-0.5c0,0.2-0.1,0.3-0.2,0.5h-0.1
			c-0.2-0.1-0.4-0.2-0.6-0.3c0,0,0,0.1,0.1,0.1c0,0,0,0.1-0.1,0.1c-0.2-0.1-0.7-0.3-0.9-0.1c-0.2,0.2,0.2,0.5,0.3,0.8v0.1
			c-0.3,0.2-0.9,0.2-1.1,0.6c0.4,0.1,0.8,0,1.2,0c0.2,0,0.4-0.1,0.5-0.1s0.2-0.1,0.3,0c0.2,0.1,0,0.5,0,0.6
			c-0.1,0.2-0.3,0.4-0.4,0.6c0,0,0,0,0,0.1c0.4-0.2,0.6-0.6,1-0.8h0.1c0,0.1,0,0.2,0,0.3c0,0.1,0,0.1,0,0.2s0.1,0.1,0.2,0
			c0.1-0.2,0.1-0.4,0.2-0.6c0.1-0.1,0.1-0.2,0.3-0.1s0.3,0.2,0.5,0.3c0-0.1-0.1-0.2-0.2-0.3c0-0.1,0-0.1,0.1-0.1
			c0.4,0.3,0.8,0.6,1.2,0.7C61.5,22.6,61.9,22.7,62.2,23C62.2,22.9,62.2,22.9,62.2,23L62.2,23z"/>
	</g>
	<g class="st3">
		<path class="st5" d="M52.7,23.3c-0.3,0.2-0.5,0.4-0.7,0.6s-0.4,0.3-0.6,0.5c-0.4,0.5-0.6,1-0.7,1.6c-0.1,0.7,0.1,1.3,0.5,1.8
			c0.2,0.3,0.4,0.5,0.7,0.8c0.2,0.2,0.4,0.4,0.6,0.6c0,0,0.1,0,0,0c-0.8-0.9-1.6-1.7-1.6-3c0-0.7,0.2-1.3,0.6-1.8
			c0.2-0.2,0.4-0.4,0.6-0.6C52.4,23.7,52.5,23.5,52.7,23.3C52.8,23.3,52.7,23.3,52.7,23.3L52.7,23.3z"/>
	</g>
	
		<radialGradient id="SVGID_00000145747340729546047240000009533124143406368425_" cx="-1105.9917" cy="30.5565" r="1" gradientTransform="matrix(22.3367 5.432291e-02 -5.406804e-02 22.2319 24774.9102 -597.361)" gradientUnits="userSpaceOnUse">
		<stop  offset="0.41" style="stop-color:#32485D"/>
		<stop  offset="0.91" style="stop-color:#A06D7E"/>
	</radialGradient>
	<path style="fill:url(#SVGID_00000145747340729546047240000009533124143406368425_);" d="M55.4,20.5c-0.1,0-0.2,0-0.4,0
		c0-0.1-0.2,0-0.3,0c-0.4,0.1-0.7,0.3-1.1,0.5c-0.2,0.1-0.3,0.2-0.4,0.3c-0.2,0.2-0.4,0.4-0.4,0.6V22c0,0.1,0,0.1,0,0.2
		c0,0,0,0,0.1,0c0-0.1,0-0.1,0-0.2c0,0,0,0,0-0.1c0.1,0,0.2,0,0.2-0.1c0,0,0,0,0,0.1s0,0.1,0,0.2s0,0.2,0,0.2s0,0,0.1,0
		c0-0.1,0-0.2,0-0.3c0-0.1,0-0.1,0-0.2c0,0,0,0,0-0.1c0.2-0.1,0.5-0.2,0.7-0.4l0,0c0,0.1,0.1,0.1,0.1,0.2c0,0,0.1,0,0,0
		c0-0.1,0-0.1-0.1-0.2l0,0l0,0l0.1,0.1c0.1,0.1,0.1,0.2,0.2,0.3l0,0c0-0.1-0.1-0.2-0.1-0.4c0,0,0-0.1-0.1-0.2l0.1-0.1l0.1-0.1
		c0.1-0.1,0.2-0.2,0.3-0.3l0,0h0.1c0.1,0,0.1,0,0.2,0.1c0,0,0.1,0,0,0s-0.2-0.1-0.3-0.1l0,0l0,0c0.1,0,0.1,0,0.2,0l0,0h-0.1
		C55.2,20.6,55.3,20.6,55.4,20.5C55.4,20.5,55.4,20.4,55.4,20.5L55.4,20.5z M54.9,20.6L54.9,20.6c0,0-1.1,0.5-1.2,0.6
		c-0.2,0.2-0.5,0.3-0.7,0.5v-0.1l0,0c0.3-0.4,0.7-0.7,1.2-0.9c0.2-0.1,0.3-0.1,0.5-0.2C54.9,20.5,54.9,20.6,54.9,20.6z"/>
	
		<radialGradient id="SVGID_00000088835218368541063510000007609181906750023096_" cx="-1105.9883" cy="30.5589" r="1" gradientTransform="matrix(22.335 5.431878e-02 -5.406366e-02 22.2301 24772.957 -597.3674)" gradientUnits="userSpaceOnUse">
		<stop  offset="0.41" style="stop-color:#32485D"/>
		<stop  offset="0.91" style="stop-color:#A06D7E"/>
	</radialGradient>
	<path style="fill:url(#SVGID_00000088835218368541063510000007609181906750023096_);" d="M55.8,31.6c-0.1-0.4-0.6-0.8-1-0.7l0,0
		c-0.2,0-0.4,0-0.4,0.2c0,0.4,0.6,0.7,0.9,0.8C55.6,32,55.9,31.9,55.8,31.6L55.8,31.6z"/>
	
		<radialGradient id="SVGID_00000056389792547464230030000003441454681119682749_" cx="-1105.9883" cy="30.5588" r="1" gradientTransform="matrix(22.335 5.431878e-02 -5.406391e-02 22.2302 24772.957 -597.366)" gradientUnits="userSpaceOnUse">
		<stop  offset="0.41" style="stop-color:#32485D"/>
		<stop  offset="0.91" style="stop-color:#A06D7E"/>
	</radialGradient>
	<path style="fill:url(#SVGID_00000056389792547464230030000003441454681119682749_);" d="M63.4,24.7c-0.6,0.2-1.2,0.8-1.3,1.4
		c0,0,0-0.1-0.1-0.1c0-0.2,0-0.4,0.1-0.5l0,0C62,25.6,62,25.8,62,26c-0.1-0.1-0.3-0.1-0.4-0.1c-0.1,0-0.2,0-0.4,0c0-0.1,0-0.2,0-0.3
		c0-0.2,0-0.5,0.2-0.6l0,0c-0.3,0-0.4,0.3-0.4,0.5c0,0.1,0,0.3,0,0.4c-0.2,0.1-0.4,0.1-0.5,0.3c-0.2,0.1-0.5,0.3-0.7,0.5l0,0
		l-0.1-0.1l-0.1-0.1l-0.1-0.1c0,0-0.1,0,0,0l0.1,0.1l0.1,0.1l0.1,0.1l0,0c0,0,0,0-0.1,0.1l0,0l-0.1-0.1l0,0l0.1,0.1l0,0
		c-0.1,0.1-0.2,0.2-0.2,0.2c-0.2-0.1-0.4,0-0.5,0c-0.3,0-0.6,0.1-0.9,0.3l0,0c0.3-0.1,0.6-0.2,1-0.2c0.1,0,0.2,0,0.3,0.1l0,0
		c-0.2,0.2-0.4,0.6-0.4,0.9c-0.2,0-0.4,0.1-0.5,0.2s-0.2,0.2-0.3,0.3c-0.1,0.1-0.1,0.3-0.2,0.3l0,0c0.1,0,0.2-0.3,0.3-0.4
		c0.2-0.2,0.4-0.3,0.6-0.4v0.1c0,0.1,0,0.2,0.1,0.2l-0.1,0.1c-0.1,0.1-0.1,0.1-0.2,0.2l0,0l0.1-0.1l0.1-0.1H59
		c0,0.1,0.1,0.1,0.2,0.1l-0.1,0.1l0,0l0,0l0,0c0,0,0,0,0.1-0.1l0.1-0.1c0.2,0.1,0.4,0.1,0.6,0.1c0.4,0,0.8,0,1.1-0.1
		c0,0,0,0.1,0.1,0.1c0,0.1,0.1,0.1,0.1,0.2c0,0,0.1,0,0,0c0-0.1,0-0.1-0.1-0.2v-0.1l0,0c0.5-0.2,0.9-0.4,1.1-0.9
		c0.1-0.3,0.2-0.5,0.2-0.8c0,0,0,0,0.1,0h0.1l0,0c-0.1,0-0.1,0-0.2,0c0-0.1,0-0.2,0-0.3c0,0,0.1-0.1,0.2-0.1c0,0,0.1,0,0.1-0.1
		c0,0,0,0,0.1,0c0,0,0.2,0,0.1,0l0,0c0,0,0,0,0.1,0l0,0c-0.1-0.1-0.3,0-0.4,0.1c0,0-0.1,0-0.1,0.1c0-0.1,0-0.2,0-0.2s0,0,0-0.1
		c0.1-0.3,0.2-0.6,0.4-0.9C62.8,25.1,63.1,24.9,63.4,24.7L63.4,24.7L63.4,24.7z M61.9,27.7c-0.3,0.9-1.3,1-2.1,1
		c-0.4,0-0.8-0.1-0.9-0.5l0,0c0.2,0.2,0.6,0.2,0.8,0.2c0.4,0,0.7-0.2,1-0.4c0.3-0.2,0.7-0.4,0.9-0.7c0.1-0.2,0.2-0.4,0.2-0.6
		s0-0.4,0.1-0.5c0,0.1,0,0.1,0,0.2C62.1,26.9,62.1,27.3,61.9,27.7z"/>
	
		<radialGradient id="SVGID_00000003088310555589611430000017345843207014438290_" cx="-1105.9917" cy="30.5565" r="1" gradientTransform="matrix(22.3367 5.432291e-02 -5.406804e-02 22.2319 24774.9082 -597.361)" gradientUnits="userSpaceOnUse">
		<stop  offset="0.41" style="stop-color:#32485D"/>
		<stop  offset="0.91" style="stop-color:#A06D7E"/>
	</radialGradient>
	<path style="fill:url(#SVGID_00000003088310555589611430000017345843207014438290_);" d="M64.9,22.8c0-0.2-0.2-0.4-0.2-0.5
		c-0.2-0.3-0.5-0.6-0.8-0.8c-0.1-0.1-0.4-0.2-0.6-0.1c-0.1,0-0.3,0.1-0.4,0.1c-0.2,0-0.4,0-0.6,0l0,0c0.2,0.2,0.6,0.1,0.9,0
		c0,0.1,0,0.1,0,0.2c-0.1,0-0.3,0.1-0.4,0.1l0,0c0.2,0,0.3,0,0.5-0.1c0,0.1,0.1,0.2,0.2,0.3c0,0.1,0.1,0.1,0.2,0.2l0,0l0,0l0,0l0,0
		h0.1l0,0h-0.1l0,0c0,0,0.1,0,0.1-0.1l0.1,0.1c-0.1,0-0.1,0.1-0.2,0.1c-0.1,0-0.1,0.1-0.2,0.1c0,0-0.1,0.1-0.2,0.1l0,0l0,0
		c0.1-0.1,0.1-0.1,0.2-0.2c0.1-0.1,0.2-0.1,0.3-0.2c0.1,0.1,0.1,0.1,0.2,0.1l0,0c-0.1,0.1-0.2,0.2-0.2,0.3l0,0
		c0.1-0.1,0.1-0.2,0.2-0.3c0,0,0,0,0.1-0.1c0.1,0.1,0.2,0.1,0.2,0.1C64.1,22.9,64,23,64,23.1l0,0c0-0.1,0.1-0.1,0.1-0.2
		c0,0,0,0,0-0.1c0,0,0.1,0,0.1,0.1c0.1,0,0.1,0.1,0.2,0.1c-0.1,0.1-0.2,0.3-0.2,0.5l0,0c0-0.1,0.1-0.2,0.1-0.3
		c0-0.1,0.1-0.1,0.1-0.2h0.1c-0.1,0.2-0.1,0.5-0.1,0.7l0,0C64.7,23.4,64.8,23.2,64.9,22.8C64.9,22.9,64.9,22.9,64.9,22.8L64.9,22.8z
		 M64.7,22.9L64.7,22.9L64.7,22.9L64.7,22.9c0-0.2-0.6-0.8-0.6-0.8c-0.1-0.1-0.6-0.5-0.8-0.4c0-0.1,0-0.1,0.2-0.1s0.4,0.2,0.6,0.3
		c0.3,0.2,0.5,0.6,0.7,0.9C64.8,22.9,64.7,22.9,64.7,22.9L64.7,22.9z"/>
	
		<radialGradient id="SVGID_00000085249632343576698510000006334975370808507839_" cx="-1105.9883" cy="30.5589" r="1" gradientTransform="matrix(22.335 5.431878e-02 -5.406366e-02 22.2301 24772.957 -597.3674)" gradientUnits="userSpaceOnUse">
		<stop  offset="0.41" style="stop-color:#32485D"/>
		<stop  offset="0.91" style="stop-color:#A06D7E"/>
	</radialGradient>
	<path style="fill:url(#SVGID_00000085249632343576698510000006334975370808507839_);" d="M60.8,21.7c-0.3-0.1-0.7-0.3-1-0.4
		c0-0.1,0-0.1-0.1-0.2c0,0,0,0,0.1,0c0.3-0.1,0.5-0.1,0.8-0.2l0,0C60.4,21,60.2,21,59.9,21c-0.1,0-0.2,0-0.2,0c-0.2,0-0.3,0-0.3,0
		s0.1,0,0.1-0.1c0.1-0.1,0.2-0.1,0.3-0.2l0,0c-0.1,0.1-0.3,0.1-0.4,0.2c0,0,0,0-0.1,0l0,0l0.1-0.1l0,0l-0.1,0.1h-0.1
		c-0.1,0-0.2-0.1-0.2-0.1c0-0.1,0-0.2,0-0.3c0-0.2,0-0.4,0-0.5l0,0c0,0.2,0,0.3,0,0.5c0,0.1,0,0.2,0,0.3c-0.1,0-0.1,0-0.2,0
		c0-0.1-0.1-0.1-0.1-0.2l0,0v0.1c0,0,0,0,0,0.1c-0.1,0-0.3,0-0.3,0s0,0-0.1-0.1s-0.2-0.1-0.3-0.2l0,0c0,0.1,0.2,0.2,0.2,0.3l0,0
		h-0.1c-0.1,0-0.1,0-0.2,0c-0.1,0-0.2,0-0.4-0.1l0,0c0.1,0,0.2,0.1,0.3,0.1s0.2,0,0.2,0.1s0,0.2,0.2,0.3l0,0c-0.1,0-0.1,0-0.2,0.1
		l0,0c0.1,0,0.2-0.1,0.2-0.1l0,0c-0.1,0-0.2,0.1-0.3,0.1c-0.2,0.1-0.4,0.2-0.7,0.2l0,0c0.2,0,0.3-0.1,0.5-0.2s0.4-0.1,0.6-0.2
		c0,0,0,0,0.1,0c0.1,0.1,0.2,0.1,0.4,0.1v0.1c0,0.1-0.1,0.3-0.1,0.4c0,0,0,0,0.1,0c0-0.2,0.1-0.3,0.2-0.5c0.1,0,0.2,0,0.4,0
		c0,0,0,0.1,0.1,0.1l0,0c0,0,0,0,0-0.1l0,0l0,0l0,0c0,0,0.1,0.1,0.2,0.1c0,0,0.1,0,0,0l-0.1-0.1c0.1,0,0.1,0,0.2,0
		c0.1,0,0.3,0.1,0.4,0.1C60.3,21.6,60.5,21.7,60.8,21.7C60.7,21.8,60.8,21.8,60.8,21.7L60.8,21.7z"/>
	
		<radialGradient id="SVGID_00000051370546037340570740000011080948665526013089_" cx="-1105.9851" cy="30.5613" r="1" gradientTransform="matrix(22.3332 5.431440e-02 -5.405953e-02 22.2284 24770.8906 -597.3694)" gradientUnits="userSpaceOnUse">
		<stop  offset="0.41" style="stop-color:#32485D"/>
		<stop  offset="0.91" style="stop-color:#A06D7E"/>
	</radialGradient>
	<path style="fill:url(#SVGID_00000051370546037340570740000011080948665526013089_);" d="M63.5,30.7c-0.2,0.1-0.4,0.2-0.7,0.3
		c-0.2,0.1-0.5,0.2-0.7,0.4c-0.2,0.1-0.3,0.2-0.4,0.3c-0.1,0.2,0.3,0.2,0.4,0.2c0.4,0,0.9-0.2,1.2-0.4c0.3-0.2,0.7-0.4,0.9-0.7
		C64.5,30.3,63.6,30.6,63.5,30.7z"/>
	
		<radialGradient id="SVGID_00000122716803247287506210000012238522332519489964_" cx="-1105.9917" cy="30.5565" r="1" gradientTransform="matrix(22.3367 5.432291e-02 -5.406804e-02 22.2319 24774.9102 -597.361)" gradientUnits="userSpaceOnUse">
		<stop  offset="0.41" style="stop-color:#32485D"/>
		<stop  offset="0.91" style="stop-color:#A06D7E"/>
	</radialGradient>
	<path style="fill:url(#SVGID_00000122716803247287506210000012238522332519489964_);" d="M54.1,25.4c-0.3,0.1-0.6,0.2-0.9,0.1
		c-0.2,0-0.4,0-0.6,0c0-0.2-0.1-0.4-0.1-0.6c0.1,0,0.2,0,0.2,0c0.1,0,0.2,0,0.3-0.1l0,0c-0.1,0-0.2,0-0.3,0s-0.2,0-0.2,0.1l0,0
		c0,0,0,0,0.1,0h0.1l0,0c0,0-0.1,0-0.2,0l0,0c0,0,0,0-0.1-0.1c0,0,0,0,0.1,0s0.2-0.1,0.3-0.1c0.1-0.1,0.3-0.2,0.3-0.3l0,0
		c-0.1,0.1-0.4,0.3-0.6,0.3c-0.1,0-0.2,0-0.3,0.1c0,0-0.1,0-0.1,0.1c-0.1,0.1-0.2,0.3-0.2,0.4c-0.3,0.6-0.4,1.4-0.3,2
		c0,0.1,0.1,0.5,0.3,0.5c0.1,0.1,0.2,0.1,0.2,0.1c0.1,0,0.2,0.1,0.3,0.2c0.2,0.1,0.2,0.2,0.3,0.3l0,0c0-0.1-0.1-0.2-0.1-0.3
		c0-0.1-0.2-0.1-0.3-0.2s-0.2-0.1-0.3-0.1l0,0c0.1-0.1,0.2-0.2,0.3-0.3h0.1c0.1,0,0.2,0.1,0.3,0.1c0,0,0.1,0,0,0
		c-0.1-0.1-0.2-0.1-0.3-0.2c0,0-0.1,0-0.1-0.1s0.1-0.1,0.1-0.2c0,0,0,0,0-0.1c0.1,0,0.1,0,0.2,0c0.2,0,0.4,0.1,0.5,0.1
		c0,0,0.1,0,0,0S52.9,27,52.8,27s-0.2,0-0.2-0.1c-0.1,0-0.1,0-0.2-0.1c0.1-0.2,0.1-0.4,0.2-0.6l0,0l0,0c0-0.1,0-0.2,0-0.3h0.1
		c0.1,0,0.2,0,0.3,0l0,0c-0.1,0-0.2,0-0.3-0.1c-0.1,0-0.1,0-0.2,0v-0.1h0.1c0.2,0,0.3,0,0.5,0C53.5,25.7,53.8,25.5,54.1,25.4
		L54.1,25.4L54.1,25.4z M52.4,25c-0.2,0.4-0.4,0.7-0.5,1.1s0,0.8,0.1,1.2c-0.1,0.1-0.2,0.2-0.3-0.1c-0.1-0.2-0.1-0.3-0.1-0.5l0,0
		h0.1l0,0l0,0c-0.1,0-0.1,0-0.2,0l0,0c0-0.1,0-0.1,0-0.2h0.1c0,0,0-0.1,0,0h-0.1c0-0.2,0-0.4,0.1-0.6l0,0c0.1-0.3,0.2-0.5,0.3-0.7
		C52,24.6,52.2,24.8,52.4,25L52.4,25L52.4,25z"/>
	
		<radialGradient id="SVGID_00000135656798561134305390000017730927610992333457_" cx="-1106.0177" cy="30.5369" r="1" gradientTransform="matrix(22.3508 5.435799e-02 -5.410359e-02 22.2462 24791.0977 -597.3226)" gradientUnits="userSpaceOnUse">
		<stop  offset="0.41" style="stop-color:#32485D"/>
		<stop  offset="0.91" style="stop-color:#A06D7E"/>
	</radialGradient>
	<path style="fill:url(#SVGID_00000135656798561134305390000017730927610992333457_);" d="M51.7,26L51.7,26C51.6,26,51.6,26,51.7,26
		L51.7,26C51.5,26.1,51.7,26.1,51.7,26C51.7,26.1,51.7,26,51.7,26z"/>
	
		<radialGradient id="SVGID_00000020370789128747895640000003566881762633581742_" cx="-1105.9883" cy="30.5589" r="1" gradientTransform="matrix(22.335 5.431878e-02 -5.406366e-02 22.2301 24772.957 -597.3674)" gradientUnits="userSpaceOnUse">
		<stop  offset="0.41" style="stop-color:#32485D"/>
		<stop  offset="0.91" style="stop-color:#A06D7E"/>
	</radialGradient>
	<path style="fill:url(#SVGID_00000020370789128747895640000003566881762633581742_);" d="M57.1,31.3c0-0.2-0.3-0.3-0.4-0.1
		c0,0.1,0,0.1,0,0.2s0.1,0.1,0.2,0.1C57,31.6,57.1,31.5,57.1,31.3C57.1,31.4,57.1,31.4,57.1,31.3L57.1,31.3L57.1,31.3z"/>
	
		<radialGradient id="SVGID_00000017495507155951052870000006657171009497010575_" cx="-1105.9949" cy="30.5542" r="1" gradientTransform="matrix(22.3385 5.432729e-02 -5.407218e-02 22.2336 24776.9746 -597.359)" gradientUnits="userSpaceOnUse">
		<stop  offset="0.41" style="stop-color:#32485D"/>
		<stop  offset="0.91" style="stop-color:#A06D7E"/>
	</radialGradient>
	<path style="fill:url(#SVGID_00000017495507155951052870000006657171009497010575_);" d="M53.9,30.7c-0.1-0.1-0.2-0.2-0.4-0.2
		c-0.1,0-0.1,0.1-0.1,0.2c0,0,0,0,0,0.1c0.1,0.1,0.4,0.3,0.5,0.2C54,30.9,54,30.8,53.9,30.7L53.9,30.7z"/>
	
		<radialGradient id="SVGID_00000046331392498269930290000016424117188731342729_" cx="-1105.9917" cy="30.5566" r="1" gradientTransform="matrix(22.3368 5.432277e-02 -5.406741e-02 22.2318 24775.0234 -597.3625)" gradientUnits="userSpaceOnUse">
		<stop  offset="0.41" style="stop-color:#32485D"/>
		<stop  offset="0.91" style="stop-color:#A06D7E"/>
	</radialGradient>
	<path style="fill:url(#SVGID_00000046331392498269930290000016424117188731342729_);" d="M63.7,28.1c-0.1,0-0.1,0-0.2,0.1
		c0,0-0.1,0.1-0.1,0.2l0,0c0.1,0,0.1,0,0.2,0c0,0,0.1-0.1,0.1-0.2V28.1L63.7,28.1L63.7,28.1z"/>
	
		<radialGradient id="SVGID_00000010296755415663143140000007259414100281634461_" cx="-1105.9883" cy="30.5588" r="1" gradientTransform="matrix(22.335 5.431878e-02 -5.406391e-02 22.2302 24772.957 -597.366)" gradientUnits="userSpaceOnUse">
		<stop  offset="0.41" style="stop-color:#32485D"/>
		<stop  offset="0.91" style="stop-color:#A06D7E"/>
	</radialGradient>
	<path style="fill:url(#SVGID_00000010296755415663143140000007259414100281634461_);" d="M65,26.1c-0.1-0.1-0.3-0.1-0.4,0
		s-0.1,0.2-0.2,0.3c-0.1,0.1-0.1,0.3-0.2,0.4c0,0.1,0,0.2,0,0.2l0,0c0,0.2,0.2,0.3,0.3,0.2c0.1,0,0.2-0.1,0.3-0.2
		C65.2,26.7,65.2,26.3,65,26.1z"/>
	
		<radialGradient id="SVGID_00000007411696279295599550000007216906764016343945_" cx="-1105.9429" cy="30.5924" r="1" gradientTransform="matrix(22.3105 5.425920e-02 -5.400456e-02 22.2058 24744.8418 -597.4341)" gradientUnits="userSpaceOnUse">
		<stop  offset="0.41" style="stop-color:#32485D"/>
		<stop  offset="0.91" style="stop-color:#A06D7E"/>
	</radialGradient>
	<path style="fill:url(#SVGID_00000007411696279295599550000007216906764016343945_);" d="M64.7,25.2C64.7,25.2,64.6,25.2,64.7,25.2
		c-0.1,0-0.1,0-0.1,0.1l0,0l0,0C64.6,25.3,64.6,25.3,64.7,25.2C64.6,25.3,64.6,25.3,64.7,25.2C64.6,25.3,64.6,25.3,64.7,25.2
		L64.7,25.2L64.7,25.2z"/>
	
		<radialGradient id="SVGID_00000176748286780364701270000005901770810578972849_" cx="-1106.0013" cy="30.5492" r="1" gradientTransform="matrix(22.342 5.433580e-02 -5.408093e-02 22.2372 24780.9902 -597.3433)" gradientUnits="userSpaceOnUse">
		<stop  offset="0.41" style="stop-color:#32485D"/>
		<stop  offset="0.91" style="stop-color:#A06D7E"/>
	</radialGradient>
	<path style="fill:url(#SVGID_00000176748286780364701270000005901770810578972849_);" d="M61.8,21.9c-0.1-0.1-0.2-0.1-0.3,0l0,0
		l0,0V22l0,0l0.1,0.1C61.8,22.1,61.8,22,61.8,21.9L61.8,21.9z"/>
	<g class="st3">
		<path class="st5" d="M58.8,19.5c-1-0.2-2,0.2-2.9,0.7l0,0c0.5-0.1,0.9-0.4,1.3-0.5C57.7,19.6,58.2,19.5,58.8,19.5
			C58.8,19.6,58.8,19.6,58.8,19.5z"/>
	</g>
	
		<linearGradient id="SVGID_00000017515384804865537850000003564767251780864641_" gradientUnits="userSpaceOnUse" x1="-127.354" y1="686.017" x2="-148.9656" y2="716.1361" gradientTransform="matrix(1 0 0 1 219.01 -681.6)">
		<stop  offset="0.46" style="stop-color:#F7C7B1"/>
		<stop  offset="1" style="stop-color:#F59F1D"/>
	</linearGradient>
	<path style="opacity:0.6;fill:url(#SVGID_00000017515384804865537850000003564767251780864641_);enable-background:new    ;" d="
		M122,1.1c-0.7,0-1.4,0-2.2,0c-1.6,0-3.3-0.1-4.9,0c-7.6,0.2-15.2,1.2-22.7,2.7c-5.2,1-10.6,2-15.6,3.9c-2.2,0.8-6.6,2.5-6.6,2.5
		s3.4-2,5-3c-0.3,0.1-0.6,0.2-0.9,0.3c-5.2,2-9.8,4.8-14.3,8c-0.1,0,1.3-1.6,2.1-2.3c-0.9,0.5-1.7,1-2.4,1.6s-2.1,1.7-2.1,1.6
		c1.1-1.2,2.4-2.3,3.6-3.4c-1.3,0.8-2.6,1.6-3.8,2.6c-2.1,1.8-4.1,3.9-5.9,6.1c-1.2,1.6-2.5,3.6-2.6,5.5c0,2,0.9,3.4,2.5,4.6
		c1.4,1,3.3,1.4,5,1.7c1.6,0.2,3.2,0.1,4.7-0.2c3.5-0.8,6-2.5,8.2-5.3c1.2-1.6,2.4-3.2,3.8-4.7c0.4-0.4,0.9-0.9,1.5-1.3
		c1.7-1.6,3.6-3,5.3-4.5c-2.3,1.1-6.7,4.1-6.7,4.1s1.1-1.3,2-1.9c1-0.7,2-1.5,3-2.2c1.1-0.8,2.2-1.5,3.4-2.1
		c1.2-0.6,2.4-1.2,3.6-1.9c-4,1.2-11.7,5-11.7,5s0.7-0.6,1.1-0.8c1.9-1.3,4.2-2.4,6.3-3.4c3.2-1.6,6.5-3.1,9.9-4.4
		c5.8-2.2,11.9-4,17.9-5.7C101.6,5.5,88.1,9,88.1,9s15.1-5.1,22.8-6.5C114.6,2,118.3,1.5,122,1.1L122,1.1z M97.1,5.1
		c-4.4,1.2-8.9,2.5-13.2,4.1c-2.8,1-6.1,2.1-8.6,4c-2.4,1.8-4.7,3.7-6.5,6.1c0.2-0.2,0.4-0.4,0.6-0.5c0,0,0-0.1,0-0.2s0.2-0.1,0.2,0
		l0,0c4.9-4.5,9.9-7.5,16.2-9.6c0.1,0,0.4,0,0.3,0.1C82.8,11.3,79,13,76,15.4c-1,0.8-1.9,1.8-2.8,2.9c-0.7,0.8-1.4,1.6-2,2.5
		c1.3-0.9,2.7-1.7,4.1-2.4c0.1,0,0.3,0,0.2,0.1c-1.1,0.7-2.2,1.4-3.1,2.3c-0.6,0.6-1,1.3-1.8,1.8h-0.1c-0.1-0.3-0.1-0.5-0.2-0.8
		c-0.2,1-0.6,1.9-1.1,2.7c0,0.1-0.2,0-0.1,0c0-0.5,0.1-1.1,0.1-1.6c-0.2,0.6-0.4,1.1-0.6,1.7c-0.4,0.9-0.8,1.8-1.3,2.7
		c-0.4,0.7-0.9,1.4-1.5,2c-0.5,0.5-1.1,1.1-1.8,1.2c0,0-0.1,0-0.1-0.1c0.1-0.3,0.3-0.6,0.5-0.9c-2,1.7-4.7,3-7.4,2.3
		c0.5,0.2,0.9,0.5,1.4,0.7v0.1c-2.1,0.3-5.2-0.9-5.6-3.1l0.1-0.1c0.4,0.3,0.8,0.6,1.2,0.9c-0.6-0.7-1.2-1.4-1.5-2.2
		c-0.4-1-0.4-2-0.2-3c0.3-2.2,1.3-4,2.8-5.4h0.2c0,1-0.2,2,0.2,2.9c0.2-1.2,0.6-2.4,1.3-3.4l0,0c0-0.1,0.2,0,0.1,0
		c-0.7,1.6-0.9,3.3-0.4,5.1c-0.1-1.3,0.1-2.5,0.6-3.7c0.7-1.8,1.8-3.1,3.3-4.2c0.1,0,0.2,0,0.1,0.1c-1,1.1-0.8,2.7-0.3,4
		c0.2-0.3,0.4-0.6,0.5-0.9c0.9-1.5,2.1-2.8,3.3-3.9c1.4-1.2,3-2.3,4.4-3.6c0.1-0.1,0.2,0,0.2,0.1c-0.5,1.1-1.1,2.3-1.8,3.3l0,0
		c0.4-0.3,0.7-0.6,1.1-0.9c2-1.6,4-3,6.2-4c0.1,0,0.2,0,0.1,0.1c-1.7,1.1-3.1,2.5-4.4,4.1c1-0.8,2.1-1.5,3.2-2.2
		C80.2,8.1,89.1,6.6,97.1,5.1C97,4.9,97.2,5,97.1,5.1L97.1,5.1z"/>
	<path class="st21" d="M56.1,32.9c-0.9-0.3-2-0.4-2.8-0.9s-1.7-1-2.3-1.7c-0.7-0.8-1.2-1.8-1.3-2.9c-0.1-0.5-0.1-1.1,0-1.6
		c0.1-0.4,0.3-0.8,0.3-1.3l0,0c-0.1,0.5-0.4,0.9-0.5,1.4s-0.1,1.1-0.1,1.6c0.1,1.1,0.6,2.1,1.3,2.9C52,32,54.2,32.7,56.1,32.9
		C56.1,33,56.2,33,56.1,32.9L56.1,32.9z"/>
	<path class="st21" d="M68.2,28.7c-1.2,1.1-2.6,2-4,2.7c-0.7,0.4-1.4,0.7-2.1,1c-0.8,0.3-1.5,0.5-2.3,0.7l0,0
		c0.7-0.2,1.5-0.2,2.3-0.4c0.7-0.2,1.5-0.6,2.2-1C65.7,30.9,67,29.9,68.2,28.7L68.2,28.7L68.2,28.7z"/>
	
		<linearGradient id="SVGID_00000129914914023221596310000003736474515990506170_" gradientUnits="userSpaceOnUse" x1="-147.226" y1="692.1885" x2="-163.6069" y2="710.684" gradientTransform="matrix(1 0 0 1 219.01 -681.6)">
		<stop  offset="0.46" style="stop-color:#F7C7B1"/>
		<stop  offset="1" style="stop-color:#583600"/>
	</linearGradient>
	<path style="opacity:0.7;fill:url(#SVGID_00000129914914023221596310000003736474515990506170_);enable-background:new    ;" d="
		M73.3,13.3c-2.5,1.3-5,2.6-7.1,4.4c0.4-0.7,0.8-1.3,1.2-2c0.1-0.1-0.2-0.1-0.3-0.1c-0.3,0.2-0.5,0.4-0.7,0.6
		c-0.3,0.3-0.7,0.6-1,0.9s-0.6,0.6-0.9,0.9c0.2-0.5,0.6-1,0.8-1.4c0.1-0.2-0.3-0.2-0.4-0.1c-0.5,0.3-0.9,0.6-1.3,1
		c-0.4,0.4-0.9,0.9-1.3,1.3c-0.8,0.9-1.4,1.8-2,2.9c-0.5,1-0.9,2-1.2,3.1l0,0c0-0.1,0-0.1-0.1-0.2c-0.2-0.6-0.3-1.3-0.4-1.9
		c-0.1-0.6-0.1-1.3-0.1-1.9c0-0.3,0-0.7,0.1-1c0-0.3,0.1-0.5,0.1-0.8c0-0.1-0.2,0-0.3,0c-0.5,0.5-0.7,1.2-1.1,1.8
		c-0.4,0.7-0.6,1.4-0.8,2.2c-0.2,0.8-0.3,1.5-0.4,2.3c0,0.4-0.1,0.7,0,1c0-0.1-0.1-0.1-0.1-0.2c-0.2-0.4-0.4-0.8-0.6-1.3
		C55,24,55,23.2,54.8,22.3c0-0.1-0.2,0-0.2,0.1c-0.3,0.6-0.4,1.2-0.4,1.9c0,0.3,0,0.7,0.1,1c0,0.2,0.1,0.4,0.1,0.6
		c0-0.1,0-0.1-0.1-0.2c-0.1-0.3-0.3-0.7-0.4-1c-0.2-0.6-0.3-1.2-0.5-1.9c0-0.1-0.2,0-0.3,0.1c-0.2,0.3-0.2,0.6-0.3,0.9
		c-0.1,0.4-0.1,0.7-0.2,1.1c0,0.6,0.1,1.2,0.3,1.7c0,0.1,0.1,0.3,0.1,0.4c0.2,0.7,0.7,1.3,1.3,1.9c1,1,2.4,1.4,3.8,1.4
		c2.6-0.1,4.9-1.8,6.5-3.7c-0.1,0.3-0.2,0.5-0.4,0.8c0,0,0,0.1,0.1,0.1c0.3,0,0.5-0.2,0.6-0.4c0.3-0.3,0.6-0.6,0.8-0.9
		c0.6-0.7,1.1-1.5,1.5-2.2c1.1-1.7,2.2-3.4,3.4-5.2c0.1-0.2-0.3-0.1-0.4,0c-0.5,0.5-1.1,0.9-1.7,1.3c-0.6,0.5-1.2,1-1.9,1.4
		c-0.1,0.1-0.2,0.2-0.3,0.3c0.2-0.5,0.4-0.9,0.6-1.3c0.5-0.9,1-1.7,1.7-2.6c0.6-0.8,1.4-1.6,2.2-2.4c0.4-0.4,0.8-0.8,1.2-1.2
		C72.4,14,72.7,13.6,73.3,13.3C73.9,13.3,73.5,13.2,73.3,13.3L73.3,13.3z"/>
</g>
<g>
	
		<linearGradient id="SVGID_00000091700045627983002130000017681247193349951386_" gradientUnits="userSpaceOnUse" x1="-106.9606" y1="737.3659" x2="-144.9598" y2="790.0628" gradientTransform="matrix(1 0 0 1 219.01 -681.6)">
		<stop  offset="0.46" style="stop-color:#F7C7B1"/>
		<stop  offset="1" style="stop-color:#F59F1D"/>
	</linearGradient>
	<path style="opacity:0.9;fill:url(#SVGID_00000091700045627983002130000017681247193349951386_);enable-background:new    ;" d="
		M104,90.8c0.5-1.9,1.3-3.7,2.1-5.5c0.9-2,1.7-4.1,2.5-6.2c0.8-1.9,1.5-3.9,2.3-5.8c0.8-1.7,1.6-3.4,2.2-5.1
		c-2.9,3.9-9.9,14.5-9.8,14.4c0.5-0.9,1-1.8,1.5-2.7c1.7-3.1,3.4-6.2,5.1-9.3c2-4,3.8-8,5.8-12c3-6,6.1-11.9,8.9-18
		c-3.6,5.5-11.2,16.4-11.1,16.2c3.9-7,7.4-14.2,11.8-20.9c2.2-3.3,4.5-6.5,6.5-9.9c-0.6,0.5-1,1.2-1.6,1.8c-1,1.1-2.2,2-3.2,3
		c-1.8,1.7-10.2,10.7-12.7,13.4c-3.2,3.5-6.7,6.9-10,10.3c-1.4,1.5-8.2,8-8.2,7.9c1.4-3.2,4.1-5.6,6-8.5c-0.3,0.3-0.7,0.6-1.1,0.9
		c-7.2,6.7-12.9,14.8-19.8,21.8c-0.1,0.1,2.4-4,3.7-6c-1.4,1.3-2.8,2.7-4,4.1s-4,4-3.9,3.9c2.2-2.7,4.5-5.5,6.5-8.4
		c-2.2,2.1-4.4,4.2-6.6,6.3c-4.1,4-8.4,7.8-12.4,11.8c-3.3,3.3-6.7,6.8-8.6,11.1c-2,4.3-1.9,8.9,0.4,13.1c2,3.8,5.8,6.4,9.7,8
		c3.8,1.6,8,2.3,12.1,2c10.3-0.8,15.7-4.9,20.3-13.3c1.6-3,4.8-10.8,6.2-13.9c0.6-1.2,1.1-2.5,1.6-3.7c1.5-4.2,3.1-8.3,4.1-12.6
		C108.1,82.8,103.9,90.9,104,90.8L104,90.8z"/>
	
		<radialGradient id="SVGID_00000062910740994391403090000003617635933892192432_" cx="-1126.1659" cy="15.6253" r="1" gradientTransform="matrix(43.465 0.1138 -0.1138 43.465 49000.3867 -441.0057)" gradientUnits="userSpaceOnUse">
		<stop  offset="0.41" style="stop-color:#6487A9"/>
		<stop  offset="0.91" style="stop-color:#A06D7E"/>
	</radialGradient>
	<path style="fill:url(#SVGID_00000062910740994391403090000003617635933892192432_);" d="M95.6,102.8c0.1-2.5,0.9-5.1,0.2-7.6
		c-0.6-2.1-2.3-3.8-4.2-4.8c-2.1-1.2-4.7-1.1-6.8-2.2c-1-0.5-1.8-1.5-2.7-2.1c-1-0.7-2-1.1-3.1-1.4c-1.9-0.4-4.1,0-5.9,0.8
		c-1,0.5-2,1-3.1,1.4s-2.2,0.5-3.3,0.9c-1.8,0.6-3.3,1.8-4.5,3.3c-0.5,0.7-0.6,1.6-0.8,2.4c0,0.2,0,0.3-0.1,0.5
		c-1.1,1.7-2.8,3-4,4.8c-1.4,2-1.6,4.6-1.4,7c0.2,2.5,1.9,4.6,3.6,6.4c0.9,0.9,1.7,2,2.7,2.9c0.9,0.9,1.4,2.1,2,3.1
		c1.3,2,3.4,2.5,5.6,2c1.2-0.3,2.2-0.8,3.4-1.2c1.5-0.5,3-0.3,4.6,0.1c2.7,0.6,5.2,0.6,7.8,0c2.2-0.5,4.5-1.2,6.4-2.5
		C96.6,113.6,95.5,107.3,95.6,102.8L95.6,102.8z"/>
	<g class="st3">
		<path class="st4" d="M95.6,102.8c0.1-2.5,0.9-5.1,0.2-7.6c-0.6-2.1-2.3-3.8-4.2-4.8c-2.1-1.2-4.7-1.1-6.8-2.2
			c-1-0.5-1.8-1.5-2.7-2.1c-1-0.7-2-1.1-3.1-1.4c-1.9-0.4-4.1,0-5.9,0.8c-1,0.5-2,1-3.1,1.4s-2.2,0.5-3.3,0.9
			c-1.8,0.6-3.3,1.8-4.5,3.3c-0.5,0.7-0.6,1.6-0.8,2.4c0,0.2,0,0.3-0.1,0.5c-1.1,1.7-2.8,3-4,4.8c-1.4,2-1.6,4.6-1.4,7
			c0.2,2.5,1.9,4.6,3.6,6.4c0.9,0.9,1.7,2,2.7,2.9c0.9,0.9,1.4,2.1,2,3.1c1.3,2,3.4,2.5,5.6,2c1.2-0.3,2.2-0.8,3.4-1.2
			c1.5-0.5,3-0.3,4.6,0.1c2.7,0.6,5.2,0.6,7.8,0c2.2-0.5,4.5-1.2,6.4-2.5C96.6,113.6,95.5,107.3,95.6,102.8L95.6,102.8z M86.8,94.6
			c-0.3,0.6-1,0.8-1.6,1.1c-0.8,0.4-1.5,0.8-2,1.6c-0.5,0.8-0.9,1.7-1.4,2.5c-0.3,0.6-0.7,1.4-1.3,1.8c-0.4,0.3-0.8,0.4-1.2,0.7
			c-0.5,0.4-0.6,0.9-0.7,1.4c-0.2,0.7-0.5,1-1.2,1.1c-1.8,0.4-3.6,1.5-4.3,3.3c1.2-0.5,2.5-1.2,3.9-0.8c0.1,0,0.1,0.2,0,0.3
			c-1.6,0.5-3.2,2.4-3.6,4.1c-0.2,0.7-0.2,2.8-1.4,2.7c-0.7-0.1-1.3-0.5-2-0.7c-0.9-0.3-1.9-0.4-2.8-0.1c-0.5,0.2-0.9,0.7-1.4,0.6
			c-0.7-0.1-0.7-1.1-1.5-1.1c-0.6,0-1.1,0.2-1.6-0.2c-0.5-0.4-0.9-0.8-1.3-1.3c-1.1-1.1-2.4-2.2-3.3-3.4c-1.2-1.7-1.5-3.9-1.2-5.9
			c0.1-0.6,0.2-1.1,0.4-1.7c0.5-1.3,1.4-2.5,2.4-3.4c0.5-0.5,1.2-0.8,1.8-1.3c0.9-0.6,0.8-1.4,0.8-2.4c0-0.1,0.2-0.2,0.2-0.1
			c0.4,0.5,0.6,1.2,0.7,1.8c0.2-1.2,0.5-2.6,1.7-3.2c0.3-0.2,1-0.6,1.4-0.4c0.5,0.2,0.8,0.6,1.2,1c-0.2-0.7-0.5-1.3-0.6-1.9
			c0-0.1,0-0.2,0.1-0.2c0.6-0.2,0.9-1,1.5-1.2c0.2-0.1,0.5-0.1,0.8-0.1c-0.1-0.1-0.3-0.3-0.4-0.4s0-0.2,0.1-0.2
			c0.4-0.2,0.9-0.3,1.2-0.5c-0.3,0-0.5,0-0.8,0c-0.2,0-0.2-0.2,0-0.3c2.3-1,4.5-2.4,7.1-2.6c0.9-0.1,2,0,2.5,0.9
			c0.4,0.6,0,1.8-0.2,2.4c0,0.1-0.2,0.2-0.3,0c-0.1-0.4-0.1-0.9-0.1-1.3c-0.1,0.4-0.2,0.9-0.4,1.3c0,0.1-0.1,0.1-0.2,0.1
			c-0.5-0.3-1-0.6-1.5-0.9c0.1,0.1,0.1,0.2,0.1,0.3c0.1,0.1-0.1,0.3-0.2,0.2c-0.5-0.4-1.9-0.9-2.4-0.3s0.5,1.4,0.7,2
			c0,0.1,0,0.1-0.1,0.2c-0.9,0.4-2.2,0.6-2.7,1.5c1,0.3,2.2,0.1,3.1-0.1c0.5-0.1,0.9-0.2,1.4-0.2c0.2,0,0.5-0.1,0.8,0
			c0.6,0.3,0.1,1.3-0.1,1.7c-0.4,0.6-0.7,1.1-1,1.7v0.1c1.1-0.4,1.7-1.5,2.6-2.2c0.1-0.1,0.2,0,0.2,0.1c0.1,0.2,0.1,0.5,0.1,0.8
			c0,0.2,0,0.4,0.1,0.5c0.1,0.3,0.3,0.2,0.4,0c0.2-0.5,0.2-1.1,0.5-1.6c0.1-0.2,0.4-0.5,0.7-0.4c0.5,0.2,0.8,0.7,1.3,0.7
			c-0.1-0.3-0.3-0.5-0.5-0.8c-0.1-0.1,0.1-0.3,0.2-0.2c0.9,0.8,2,1.5,3.2,1.9c0.9,0.3,1.8,0.5,2.5,1C86.8,94.5,86.9,94.5,86.8,94.6
			L86.8,94.6z"/>
	</g>
	<g class="st3">
		<path class="st5" d="M62.1,95.5c-0.7,0.5-1.2,1.2-1.9,1.7c-0.6,0.4-1.1,0.9-1.5,1.4c-1.1,1.2-1.6,2.7-1.7,4.3
			c-0.1,1.7,0.3,3.3,1.2,4.8c0.5,0.8,1.1,1.4,1.8,2.1c0.5,0.5,0.9,1.1,1.6,1.5c0.1,0,0.2-0.1,0.1-0.1c-2.1-2.3-4.2-4.6-4.3-7.8
			c-0.1-1.7,0.5-3.3,1.6-4.7c0.5-0.6,1.1-1.1,1.6-1.5C61.1,96.7,61.5,96,62.1,95.5C62.2,95.5,62.1,95.5,62.1,95.5L62.1,95.5z"/>
	</g>
	
		<radialGradient id="SVGID_00000002357952051122656630000013844038967132731833_" cx="-1131.3101" cy="11.8577" r="1" gradientTransform="matrix(57.2754 0.1499 -0.1499 57.2754 64884.1758 -378.2367)" gradientUnits="userSpaceOnUse">
		<stop  offset="0.41" style="stop-color:#32485D"/>
		<stop  offset="0.91" style="stop-color:#A06D7E"/>
	</radialGradient>
	<path style="fill:url(#SVGID_00000002357952051122656630000013844038967132731833_);" d="M69.1,88c-0.1,0.1-0.6,0-0.9,0.1
		c-0.1-0.2-0.6,0-0.8,0c-1,0.4-1.9,0.7-2.8,1.3c-0.4,0.3-0.8,0.6-1.1,0.9c-0.5,0.4-1,1-1.1,1.5c0,0.1,0,0.2,0,0.4c0,0.2,0,0.3,0,0.5
		c0,0.1,0.1,0,0.1-0.1c0-0.2,0.1-0.3,0.1-0.5V92c0.2,0,0.4-0.1,0.6-0.2c0,0.1,0,0.1,0,0.2c0,0.2,0,0.3,0.1,0.5c0,0.2,0.1,0.4,0,0.6
		c0,0.1,0.1,0.1,0.1,0c0.1-0.2,0.1-0.5,0.1-0.8c0-0.2,0-0.3,0-0.5v-0.1c0.6-0.2,1.2-0.6,1.7-1c0,0,0,0,0,0.1
		c0.1,0.1,0.2,0.3,0.2,0.4s0.1,0,0.1-0.1c-0.1-0.2-0.1-0.3-0.2-0.4c0,0,0-0.1-0.1-0.1l0.1-0.1c0.1,0.1,0.2,0.2,0.2,0.3
		c0.1,0.3,0.3,0.6,0.5,0.9c0,0,0.1,0,0.1-0.1c-0.1-0.3-0.2-0.6-0.3-1c0-0.1-0.1-0.3-0.2-0.4c0.1-0.1,0.2-0.2,0.4-0.3
		c0.1-0.1,0.2-0.2,0.3-0.3c0.3-0.2,0.6-0.5,0.9-0.7c0,0,0-0.1,0.1-0.1s0.2,0,0.2,0c0.2,0,0.4,0.1,0.6,0.1c0.1,0,0.2-0.1,0.1-0.1
		c-0.2-0.1-0.5-0.3-0.7-0.3l0,0h0.1c0.1,0,0.3,0,0.4,0.1l0.1-0.1c-0.1,0-0.2-0.1-0.4-0.1C68.5,88.3,68.8,88.3,69.1,88
		C69.2,88.1,69.2,88,69.1,88L69.1,88z M67.8,88.4C67.8,88.4,67.7,88.5,67.8,88.4c-0.1-0.1-2.8,1.4-3,1.6c-0.6,0.4-1.3,0.9-1.8,1.4
		c0-0.1,0-0.2,0-0.3l0,0c0.9-1,1.9-1.8,3.2-2.2c0.4-0.2,0.9-0.3,1.3-0.5C67.8,88.2,67.9,88.3,67.8,88.4L67.8,88.4z"/>
	
		<radialGradient id="SVGID_00000099642468077208483420000010980949277968937367_" cx="-1131.3109" cy="11.8571" r="1" gradientTransform="matrix(57.2785 0.15 -0.15 57.2785 64887.7891 -378.1767)" gradientUnits="userSpaceOnUse">
		<stop  offset="0.41" style="stop-color:#32485D"/>
		<stop  offset="0.91" style="stop-color:#A06D7E"/>
	</radialGradient>
	<path style="fill:url(#SVGID_00000099642468077208483420000010980949277968937367_);" d="M70.2,117.2c-0.2-1.1-1.6-2.1-2.7-1.8l0,0
		c-0.5,0-1,0-1.1,0.5c-0.1,1.1,1.6,1.9,2.4,2.1C69.6,118.2,70.4,118.1,70.2,117.2L70.2,117.2z"/>
	
		<radialGradient id="SVGID_00000128450591915328308930000010425461473691270542_" cx="-1131.3092" cy="11.8584" r="1" gradientTransform="matrix(57.2723 0.1499 -0.1499 57.2723 64880.6211 -378.2494)" gradientUnits="userSpaceOnUse">
		<stop  offset="0.41" style="stop-color:#32485D"/>
		<stop  offset="0.91" style="stop-color:#A06D7E"/>
	</radialGradient>
	<path style="fill:url(#SVGID_00000128450591915328308930000010425461473691270542_);" d="M89.9,99.1c-1.5,0.6-3.2,2-3.4,3.7
		c-0.1-0.1-0.1-0.2-0.2-0.2c0-0.5,0-0.9,0.2-1.4c0-0.1-0.1,0-0.1,0c-0.1,0.4-0.2,0.8-0.3,1.2c-0.3-0.2-0.7-0.3-1.1-0.3
		c-0.3,0-0.6,0-0.9,0.1c-0.1-0.3-0.1-0.6-0.1-0.9c0-0.5,0.1-1.3,0.4-1.7c0-0.1,0-0.1-0.1-0.1c-0.4,0.4-0.5,1.1-0.6,1.6
		c0,0.2-0.1,0.7,0,1.1c-0.5,0.2-0.9,0.4-1.4,0.7c-0.6,0.4-1.2,0.8-1.7,1.2l-0.1-0.1c-0.1-0.1-0.2-0.2-0.3-0.3
		c-0.1-0.1-0.2-0.2-0.3-0.3c-0.1-0.1-0.2-0.1-0.3-0.2c0,0-0.1,0-0.1,0.1c0.1,0.1,0.2,0.1,0.2,0.2c0.1,0.1,0.2,0.2,0.3,0.4
		c0.1,0.1,0.2,0.3,0.3,0.4c0,0,0,0.1,0.1,0.1c-0.1,0.1-0.1,0.1-0.2,0.2l-0.1-0.1c-0.1-0.1-0.2-0.2-0.3-0.3c0,0-0.1,0-0.1,0.1
		c0.1,0.1,0.2,0.2,0.3,0.3l0.1,0.1c-0.2,0.2-0.4,0.4-0.6,0.6c-0.4-0.2-0.9-0.1-1.3-0.1c-0.9,0-1.6,0.3-2.3,0.7v0.1
		c0.8-0.3,1.6-0.5,2.5-0.5c0.3,0,0.6,0.1,0.9,0.1c0,0,0,0,0,0.1c-0.5,0.7-1,1.5-1.1,2.3c-0.5,0.1-1,0.4-1.2,0.6
		c-0.3,0.2-0.5,0.5-0.8,0.8c-0.2,0.2-0.3,0.7-0.5,0.9v0.1c0.3-0.1,0.5-0.8,0.8-1c0.5-0.5,1-0.8,1.7-1c0,0.1,0,0.2,0,0.3
		c0,0.2,0.1,0.4,0.2,0.6c-0.1,0-0.3,0.2-0.3,0.2c-0.2,0.2-0.3,0.4-0.4,0.6c-0.1,0.1,0,0.1,0.1,0s0.2-0.3,0.3-0.4
		c0.1-0.1,0.1-0.1,0.2-0.2s0.2-0.1,0.2-0.1c0.1,0.1,0.2,0.3,0.4,0.4c-0.1,0.1-0.2,0.2-0.2,0.3c0,0,0,0.1-0.1,0.1c0,0-0.1,0.1,0,0.1
		l0,0c0.1,0,0.1-0.1,0.2-0.1c0.1-0.1,0.2-0.2,0.3-0.3c0.4,0.2,1,0.3,1.5,0.3c0.9,0,2-0.1,3-0.4c0,0.1,0.1,0.2,0.2,0.4
		c0.1,0.2,0.2,0.4,0.3,0.5c0,0,0.1,0,0.1-0.1c-0.1-0.2-0.1-0.3-0.2-0.5c0-0.1-0.1-0.2-0.1-0.3c0,0,0,0,0-0.1
		c1.3-0.4,2.4-1.2,2.9-2.4c0.3-0.7,0.4-1.4,0.5-2.1c0.1,0,0.1-0.1,0.2-0.1s0.2,0,0.3-0.1c0.1,0,0.1-0.1,0-0.1c-0.2,0-0.3,0-0.5,0.1
		c0-0.2,0-0.5,0-0.7c0.1-0.1,0.3-0.2,0.5-0.3c0.1-0.1,0.2-0.1,0.3-0.2c0.1,0,0.1-0.1,0.2-0.1c-0.1,0,0.4-0.1,0.2,0l0,0
		c0.1,0,0.1,0,0.2-0.1l0,0c-0.3-0.2-0.8,0.1-1.1,0.2c-0.1,0-0.2,0.1-0.4,0.2c0-0.2,0-0.4-0.1-0.6c0-0.1,0-0.1,0-0.1
		c0.3-0.8,0.4-1.7,1-2.4C88.3,100.2,89.1,99.7,89.9,99.1C89.9,99.2,90,99.1,89.9,99.1L89.9,99.1z M86.1,107.1
		c-0.7,2.2-3.4,2.5-5.5,2.7c-1.1,0.1-2.2-0.2-2.3-1.4l0,0c0.4,0.5,1.6,0.6,2.2,0.6c0.9,0,1.8-0.5,2.6-1c0.7-0.4,1.8-1,2.3-1.8
		c0.3-0.5,0.4-1,0.6-1.6c0.1-0.4,0.1-0.9,0.2-1.4c0.1,0.1,0.1,0.3,0.1,0.4C86.6,104.9,86.4,106.1,86.1,107.1z"/>
	
		<radialGradient id="SVGID_00000072967090311685554210000012794699275255557311_" cx="-1131.3101" cy="11.8577" r="1" gradientTransform="matrix(57.2754 0.1499 -0.1499 57.2754 64884.1758 -378.2406)" gradientUnits="userSpaceOnUse">
		<stop  offset="0.41" style="stop-color:#32485D"/>
		<stop  offset="0.91" style="stop-color:#A06D7E"/>
	</radialGradient>
	<path style="fill:url(#SVGID_00000072967090311685554210000012794699275255557311_);" d="M93.8,94.3c0-0.4-0.4-1-0.6-1.3
		c-0.5-0.9-1.3-1.7-2.2-2.1c-0.4-0.2-1.1-0.4-1.5-0.3c-0.4,0-0.8,0.1-1.1,0.2c-0.5,0.1-1.1,0-1.6-0.1c0,0-0.1,0-0.1,0.1
		c0.6,0.5,1.6,0.3,2.4,0.1c-0.1,0.1-0.1,0.3,0,0.5c-0.4,0.1-0.7,0.3-1.1,0.3c0,0-0.1,0.1,0,0.1c0.4,0,0.8-0.1,1.2-0.2
		c0.1,0.3,0.4,0.6,0.5,0.8c0.1,0.2,0.3,0.4,0.4,0.6c0,0-0.1,0-0.1,0.1l0,0l0,0l0,0c0,0.1,0.1,0,0.2-0.1l0.1,0.1
		c-0.1,0.1-0.1,0.1-0.2,0.1s-0.1,0.1,0,0.1s0.2-0.1,0.3-0.2c0.1,0.1,0.1,0.1,0.2,0.2c-0.2,0.1-0.3,0.2-0.5,0.3s-0.3,0.2-0.4,0.3
		c-0.1,0.1-0.2,0.3-0.4,0.4v0.1c0.1,0,0.1,0,0.1-0.1c0.2-0.2,0.4-0.3,0.5-0.5c0.2-0.2,0.5-0.3,0.8-0.4c0.2,0.1,0.3,0.3,0.5,0.4
		c0,0,0,0-0.1,0.1c-0.2,0.3-0.4,0.6-0.6,0.8c0,0.1,0,0.1,0.1,0c0.2-0.2,0.4-0.5,0.6-0.7c0.1-0.1,0.1-0.1,0.2-0.2
		c0.2,0.1,0.4,0.3,0.6,0.4c-0.1,0.2-0.2,0.5-0.3,0.7c0,0.1,0.1,0,0.1,0c0.1-0.1,0.2-0.3,0.2-0.4s0.1-0.1,0.1-0.2
		c0.1,0.1,0.2,0.1,0.3,0.2c0.2,0.1,0.4,0.2,0.6,0.2c-0.3,0.3-0.5,0.9-0.5,1.3c0,0.1,0.1,0,0.1,0c0.1-0.2,0.2-0.5,0.3-0.7
		c0.1-0.2,0.2-0.4,0.3-0.6c0.1,0,0.2,0,0.3,0c-0.2,0.6-0.2,1.3-0.2,1.8c0,0.1,0.1,0,0.1,0C93.4,95.8,93.7,95.1,93.8,94.3L93.8,94.3
		L93.8,94.3z M93.2,94.5C93.2,94.5,93.2,94.4,93.2,94.5c0-0.1,0-0.1,0-0.2l0,0c0-0.4-1.4-1.9-1.6-2c-0.2-0.2-1.7-1.2-2.1-1
		c0-0.2,0.1-0.4,0.5-0.3c0.6,0.1,1.1,0.4,1.6,0.8c0.8,0.6,1.3,1.5,1.8,2.3C93.5,94.4,93.4,94.5,93.2,94.5L93.2,94.5z"/>
	
		<radialGradient id="SVGID_00000170973563393450050560000013644982052075017372_" cx="-1131.3101" cy="11.8577" r="1" gradientTransform="matrix(57.2754 0.1499 -0.1499 57.2754 64884.1758 -378.2367)" gradientUnits="userSpaceOnUse">
		<stop  offset="0.41" style="stop-color:#32485D"/>
		<stop  offset="0.91" style="stop-color:#A06D7E"/>
	</radialGradient>
	<path style="fill:url(#SVGID_00000170973563393450050560000013644982052075017372_);" d="M83,91.4c-0.9-0.3-1.7-0.7-2.6-1
		c0-0.2-0.1-0.4-0.2-0.5h0.1c0.7-0.2,1.4-0.2,2-0.4c0,0,0.1-0.1,0-0.1c-0.6,0.1-1.2,0.2-1.7,0.3c-0.2,0-0.4,0.1-0.7,0.1
		c-0.2-0.1-0.4-0.3-0.5-0.3c0.1-0.1,0.2-0.1,0.2-0.2c0.2-0.2,0.5-0.3,0.7-0.5v-0.1c-0.3,0.2-0.7,0.4-1,0.6c-0.1,0-0.1-0.1-0.2-0.1
		c0,0,0,0,0-0.1c0.1-0.1,0.2-0.2,0.2-0.3c0.1-0.1,0-0.1-0.1,0S79,89,78.9,89.1c-0.1,0-0.2,0-0.2-0.1c-0.2-0.1-0.4-0.2-0.7-0.2
		c0-0.2,0-0.5,0-0.7c0-0.5,0-1-0.1-1.4c0,0-0.1,0-0.1,0.1c0.1,0.4,0,0.9,0,1.3c0,0.2,0,0.5,0,0.7c-0.2,0-0.3,0-0.5-0.1
		c0-0.2-0.2-0.4-0.2-0.5s-0.1,0-0.1,0.1s0.1,0.2,0.1,0.3c0,0.1,0,0.1,0.1,0.2c-0.3,0-0.7,0-0.9,0.1c-0.1-0.1-0.1-0.1-0.2-0.1
		c-0.2-0.2-0.6-0.3-0.8-0.6c0-0.1-0.1,0-0.1,0.1c0.1,0.3,0.4,0.5,0.6,0.7l0.1,0.1c-0.1,0-0.2,0.1-0.2,0.1c-0.2,0-0.3-0.1-0.4-0.1
		c-0.3-0.1-0.6-0.1-1-0.2c0,0-0.1,0.1,0,0.1c0.2,0.1,0.5,0.1,0.7,0.2c0.2,0,0.4,0.1,0.6,0.2c-0.1,0.2,0.1,0.5,0.4,0.7h-0.1
		c-0.1,0.1-0.3,0.1-0.4,0.2c0,0,0,0.1,0.1,0c0.2-0.1,0.4-0.1,0.6-0.2l0.1,0.1c-0.3,0.1-0.5,0.2-0.8,0.3c-0.5,0.2-1.1,0.5-1.7,0.7
		c0,0-0.1,0.1,0,0.1c0.4,0,0.9-0.3,1.3-0.4c0.5-0.2,1-0.3,1.5-0.5c0.1,0,0.1,0.1,0.2,0.1c0.3,0.1,0.7,0.2,1,0.3
		c0,0.1-0.1,0.2-0.1,0.3c-0.1,0.3-0.2,0.7-0.2,1c0,0.1,0.1,0,0.1,0c0.1-0.4,0.3-0.8,0.4-1.2c0.3,0.1,0.6,0.1,1,0.1
		c0,0.1,0.1,0.2,0.2,0.2c0,0,0.1,0,0.1-0.1s-0.1-0.1-0.1-0.2c0,0,0,0,0.1,0h0.1l0.1,0.1c0.1,0.1,0.3,0.2,0.4,0.4c0,0,0.2,0,0.1-0.1
		s-0.2-0.2-0.3-0.4c0.2,0,0.4,0,0.5-0.1c0.3,0.1,0.7,0.1,1,0.2C81.7,91.1,82.3,91.4,83,91.4C83,91.5,83,91.4,83,91.4L83,91.4z"/>
	
		<radialGradient id="SVGID_00000134222832772517144320000000223908997711673753_" cx="-1131.3109" cy="11.8571" r="1" gradientTransform="matrix(57.2785 0.15 -0.15 57.2785 64887.7891 -378.1806)" gradientUnits="userSpaceOnUse">
		<stop  offset="0.41" style="stop-color:#32485D"/>
		<stop  offset="0.91" style="stop-color:#A06D7E"/>
	</radialGradient>
	<path style="fill:url(#SVGID_00000134222832772517144320000000223908997711673753_);" d="M90.1,114.8c-0.6,0.2-1.2,0.5-1.7,0.8
		c-0.6,0.3-1.2,0.6-1.8,1c-0.4,0.2-0.9,0.5-1.1,0.9c-0.3,0.6,0.7,0.6,1,0.5c1.1-0.1,2.3-0.6,3.2-1.2c0.7-0.4,1.9-1.1,2.3-1.8
		C92.8,113.8,90.4,114.6,90.1,114.8z"/>
	
		<radialGradient id="SVGID_00000056421829440924323910000015474151483158113973_" cx="-1131.3101" cy="11.8577" r="1" gradientTransform="matrix(57.2754 0.1499 -0.1499 57.2754 64884.1758 -378.2367)" gradientUnits="userSpaceOnUse">
		<stop  offset="0.41" style="stop-color:#32485D"/>
		<stop  offset="0.91" style="stop-color:#A06D7E"/>
	</radialGradient>
	<path style="fill:url(#SVGID_00000056421829440924323910000015474151483158113973_);" d="M65.6,101c-0.7,0.2-1.6,0.4-2.4,0.4
		c-0.5,0-1-0.1-1.5-0.1c0-0.6-0.1-1.1-0.4-1.6c0.2-0.1,0.4-0.1,0.6-0.1c0.2,0,0.5-0.1,0.8-0.2c0.1,0,0.1-0.1,0-0.1
		c-0.3,0-0.5,0.1-0.8,0.1c-0.2,0-0.4,0-0.6,0.1v-0.1c0.1,0,0.1,0,0.2,0c0.1,0,0.2-0.1,0.3-0.1s0-0.1,0-0.1c-0.1,0.1-0.3,0.1-0.4,0.1
		c-0.1,0-0.1,0-0.1,0c0-0.1-0.1-0.1-0.1-0.2c0.1,0,0.1,0,0.2,0c0.2,0,0.5-0.2,0.7-0.3c0.3-0.2,0.7-0.4,0.9-0.8h-0.1
		c-0.3,0.4-1.2,0.7-1.6,0.7c-0.3,0-0.5,0-0.7,0.2c-0.1,0-0.3,0.1-0.4,0.2c-0.3,0.3-0.5,0.7-0.6,1.1c-0.9,1.5-1.2,3.7-0.9,5.2
		c0.1,0.4,0.3,1.2,0.8,1.2c0.2,0.1,0.5,0.2,0.6,0.3c0.3,0.1,0.6,0.3,0.9,0.4c0.4,0.2,0.6,0.6,0.9,0.9c0,0,0.1,0,0.1-0.1
		c-0.1-0.3-0.2-0.5-0.3-0.8c-0.1-0.2-0.5-0.4-0.7-0.5c-0.3-0.2-0.6-0.3-0.9-0.4H60c0.3-0.2,0.6-0.5,0.8-0.9c0.1,0,0.2,0.1,0.4,0.1
		c0.3,0.1,0.5,0.2,0.7,0.4c0.1,0,0.1-0.1,0.1-0.1c-0.2-0.2-0.4-0.3-0.7-0.4c-0.1-0.1-0.2-0.1-0.4-0.2c0.1-0.2,0.2-0.3,0.2-0.4
		s0-0.1,0.1-0.2c0.1,0,0.3,0.1,0.5,0.1c0.5,0.1,0.9,0.2,1.4,0.3c0.1,0,0.2-0.1,0.1-0.1c-0.2-0.1-0.5-0.2-0.7-0.3
		c-0.2-0.1-0.4-0.1-0.6-0.2c-0.1,0-0.3-0.1-0.5-0.1c0.2-0.5,0.4-1,0.5-1.6c0,0,0.1-0.1,0-0.1l0,0c0.1-0.3,0.1-0.6,0.1-0.9
		c0.1,0,0.3,0,0.4,0c0.2,0,0.5,0.1,0.7,0.1c0.1,0,0.1-0.1,0.1-0.1c-0.2,0-0.5-0.1-0.7-0.2c-0.2,0-0.3,0-0.5,0c0-0.1,0-0.2,0-0.3
		c0.1,0,0.2,0,0.3,0c0.4,0,0.8,0.1,1.3,0.1C64,101.7,64.9,101.3,65.6,101C65.6,101.1,65.7,101,65.6,101L65.6,101z M61.1,99.9
		c-0.4,1-1,1.9-1.3,3c-0.2,1-0.1,2.1,0.2,3.1c-0.3,0.3-0.7,0.4-0.9-0.2c-0.2-0.4-0.2-0.9-0.2-1.3l0,0c0.1,0,0.3,0,0.3,0
		c0.1,0,0.1-0.1,0.1-0.1s0,0,0-0.1c-0.1,0-0.3,0-0.4-0.1l0,0c0-0.2,0-0.3,0-0.5c0.1,0,0.2-0.1,0.3-0.1s0.1-0.2,0-0.1
		c-0.1,0-0.2,0.1-0.3,0.1c0-0.5,0.1-1.1,0.2-1.7h0.1c0.2-0.7,0.4-1.3,0.7-1.9C60.3,98.9,60.8,99.3,61.1,99.9L61.1,99.9L61.1,99.9z"
		/>
	
		<radialGradient id="SVGID_00000079483411738543393020000016531747036978969003_" cx="-1131.3179" cy="11.852" r="1" gradientTransform="matrix(57.3033 0.15 -0.15 57.3031 64916.2305 -378.1398)" gradientUnits="userSpaceOnUse">
		<stop  offset="0.41" style="stop-color:#32485D"/>
		<stop  offset="0.91" style="stop-color:#A06D7E"/>
	</radialGradient>
	<path style="fill:url(#SVGID_00000079483411738543393020000016531747036978969003_);" d="M59.4,102.6c-0.1,0-0.1,0-0.2,0
		c-0.1,0-0.1,0-0.2-0.1c0,0-0.1,0-0.1,0.1C58.8,102.8,59.2,102.7,59.4,102.6C59.4,102.7,59.5,102.6,59.4,102.6z"/>
	
		<radialGradient id="SVGID_00000111887935772269805370000013551647142420328872_" cx="-1131.3126" cy="11.8559" r="1" gradientTransform="matrix(57.2847 0.15 -0.15 57.2846 64894.8984 -378.1667)" gradientUnits="userSpaceOnUse">
		<stop  offset="0.41" style="stop-color:#32485D"/>
		<stop  offset="0.91" style="stop-color:#A06D7E"/>
	</radialGradient>
	<path style="fill:url(#SVGID_00000111887935772269805370000013551647142420328872_);" d="M73.6,116.5c0-0.5-0.8-0.8-1.2-0.4
		c-0.1,0.2-0.1,0.4,0.1,0.5c0.1,0.2,0.2,0.3,0.4,0.4c0.3,0.1,0.6,0,0.7-0.3C73.6,116.7,73.6,116.6,73.6,116.5
		C73.6,116.6,73.6,116.5,73.6,116.5L73.6,116.5z"/>
	
		<radialGradient id="SVGID_00000052796867711150648690000001060774908287184275_" cx="-1131.3109" cy="11.8571" r="1" gradientTransform="matrix(57.2785 0.15 -0.15 57.2785 64887.793 -378.1767)" gradientUnits="userSpaceOnUse">
		<stop  offset="0.41" style="stop-color:#32485D"/>
		<stop  offset="0.91" style="stop-color:#A06D7E"/>
	</radialGradient>
	<path style="fill:url(#SVGID_00000052796867711150648690000001060774908287184275_);" d="M65.1,114.9c-0.3-0.3-0.5-0.7-1-0.5
		c-0.3,0.1-0.4,0.3-0.3,0.6c0,0,0,0.1,0,0.2c0.2,0.4,1,0.9,1.4,0.5C65.5,115.4,65.3,115.1,65.1,114.9z"/>
	
		<radialGradient id="SVGID_00000177482113761713115750000016695373839028075189_" cx="-1131.3091" cy="11.8583" r="1" gradientTransform="matrix(57.2721 0.1499 -0.1499 57.2724 64880.3945 -378.2479)" gradientUnits="userSpaceOnUse">
		<stop  offset="0.41" style="stop-color:#32485D"/>
		<stop  offset="0.91" style="stop-color:#A06D7E"/>
	</radialGradient>
	<path style="fill:url(#SVGID_00000177482113761713115750000016695373839028075189_);" d="M90.7,108c-0.2,0-0.3,0.1-0.4,0.2
		s-0.2,0.3-0.2,0.4c0,0,0,0.1,0.1,0.1c0.2,0,0.3,0,0.4-0.1s0.3-0.2,0.3-0.4c0,0,0.1-0.1,0.1-0.2C90.8,108,90.7,108,90.7,108
		L90.7,108z"/>
	
		<radialGradient id="SVGID_00000095323562115458697080000010851760681903113091_" cx="-1131.3109" cy="11.8571" r="1" gradientTransform="matrix(57.2785 0.15 -0.15 57.2784 64887.7891 -378.1821)" gradientUnits="userSpaceOnUse">
		<stop  offset="0.41" style="stop-color:#32485D"/>
		<stop  offset="0.91" style="stop-color:#A06D7E"/>
	</radialGradient>
	<path style="fill:url(#SVGID_00000095323562115458697080000010851760681903113091_);" d="M94.1,102.7c-0.2-0.3-0.7-0.3-0.9,0
		c-0.2,0.2-0.4,0.5-0.5,0.7c-0.2,0.4-0.4,0.8-0.4,1s0,0.4,0.1,0.6v0.1c0.1,0.4,0.5,0.7,0.9,0.4c0.3,0,0.5-0.2,0.7-0.5
		C94.5,104.5,94.6,103.4,94.1,102.7z"/>
	
		<radialGradient id="SVGID_00000096050159053337908980000002493127748112686240_" cx="-1131.2994" cy="11.8654" r="1" gradientTransform="matrix(57.2384 0.1499 -0.1499 57.2387 64841.7734 -378.2982)" gradientUnits="userSpaceOnUse">
		<stop  offset="0.41" style="stop-color:#32485D"/>
		<stop  offset="0.91" style="stop-color:#A06D7E"/>
	</radialGradient>
	<path style="fill:url(#SVGID_00000096050159053337908980000002493127748112686240_);" d="M93.3,100.4c0-0.1-0.1-0.1-0.2,0
		c-0.1,0-0.2,0.1-0.2,0.2v0.1c0,0.1,0.1,0.1,0.1,0.1c0.1,0,0.1-0.1,0.2-0.1l0,0l0,0C93.2,100.6,93.3,100.5,93.3,100.4z"/>
	
		<radialGradient id="SVGID_00000034060670525126943200000002017536353089347222_" cx="-1131.3126" cy="11.8559" r="1" gradientTransform="matrix(57.2847 0.15 -0.15 57.2847 64894.8945 -378.1652)" gradientUnits="userSpaceOnUse">
		<stop  offset="0.41" style="stop-color:#32485D"/>
		<stop  offset="0.91" style="stop-color:#A06D7E"/>
	</radialGradient>
	<path style="fill:url(#SVGID_00000034060670525126943200000002017536353089347222_);" d="M85.6,91.9c-0.2-0.2-0.5-0.2-0.7-0.1
		c0,0-0.1,0-0.1,0.1l0,0c0,0.1-0.1,0.2,0.1,0.2H85c0.1,0.1,0.2,0.2,0.3,0.2C85.6,92.4,85.8,92.1,85.6,91.9L85.6,91.9z"/>
	<g class="st3">
		<path class="st5" d="M77.8,85.7c-2.6-0.6-5.2,0.6-7.5,1.8c0,0-0.1,0.1,0,0.1c1.2-0.4,2.3-0.9,3.5-1.3
			C75.2,85.8,76.4,85.6,77.8,85.7C77.8,85.8,77.9,85.7,77.8,85.7L77.8,85.7z"/>
	</g>
	
		<linearGradient id="SVGID_00000170250998111031074160000013945011263875251889_" gradientUnits="userSpaceOnUse" x1="-106.913" y1="737.4001" x2="-144.9123" y2="790.097" gradientTransform="matrix(1 0 0 1 219.01 -681.6)">
		<stop  offset="0.46" style="stop-color:#F7C7B1"/>
		<stop  offset="1" style="stop-color:#F59F1D"/>
	</linearGradient>
	<path style="opacity:0.6;fill:url(#SVGID_00000170250998111031074160000013945011263875251889_);enable-background:new    ;" d="
		M131.8,26c-0.6,0.5-1,1.2-1.6,1.8c-1,1.1-2.2,2-3.2,3c-1.8,1.7-10.2,10.7-12.7,13.4c-3.2,3.5-6.7,6.9-10,10.3
		c-1.4,1.5-8.2,8-8.2,7.9c1.4-3.2,4.1-5.6,6-8.5c-0.3,0.3-0.7,0.6-1.1,0.9c-7.2,6.7-12.9,14.8-19.8,21.8c-0.1,0.1,2.4-4,3.7-5.9
		c-1.4,1.3-2.8,2.7-4,4.1s-4,4-3.9,3.9c2.2-2.7,4.5-5.5,6.5-8.4c-2.2,2.1-4.4,4.2-6.6,6.3c-4.1,4-8.4,7.8-12.4,11.8
		c-3.3,3.3-6.7,6.8-8.6,11.1c-2,4.3-1.9,8.9,0.4,13.1c2,3.8,5.8,6.4,9.7,8c3.8,1.6,8,2.3,12.1,2c10.3-0.8,15.7-4.9,20.3-13.3
		c1.6-3,4.8-10.8,6.2-13.9c0.6-1.2,1.1-2.5,1.6-3.7c1.5-4.2,3.1-8.3,4.1-12.6c-2.2,3.9-6.4,12-6.4,11.8c0.5-1.9,1.3-3.7,2.1-5.5
		c0.9-2,1.7-4.1,2.5-6.2c0.8-1.9,1.5-3.9,2.3-5.8c0.8-1.7,1.6-3.4,2.2-5.2c-2.9,3.9-9.9,14.5-9.8,14.4c0.5-0.9,1-1.8,1.5-2.7
		c1.7-3.1,3.4-6.2,5.1-9.3c2-4,3.8-8,5.8-12c3-6,6.1-11.9,8.9-18c-3.6,5.5-11.2,16.4-11.1,16.2c3.9-7,7.4-14.2,11.8-20.9
		C127.4,32.6,129.7,29.4,131.8,26L131.8,26z M117.7,45.8c-4.5,7.4-9.5,14.4-13.6,22c-3.2,5.8-6.4,11.8-8.6,18
		c0.3-0.5,0.6-1.1,0.9-1.6c0-0.1,0-0.3-0.1-0.4c0-0.2,0.3-0.3,0.3-0.1c0,0,0,0,0,0.1c5-9,9.2-18.4,15-27c0.1-0.1,0.3,0,0.3,0.1
		c-1.6,5.7-4.2,10.9-6.4,16.4c-1.1,2.7-2,5.5-3.1,8.3c-0.9,2.4-1.9,4.8-2.6,7.3c1.8-2.6,3.7-5.2,5.8-7.6c0.1-0.1,0.3,0,0.2,0.2
		c-1.2,2.4-2.9,4.6-4,7.1c-0.8,1.8-1.4,3.9-2.8,5.4c-0.1,0.1-0.2,0-0.2-0.1c-0.2-0.7-0.4-1.4-0.6-2.1c-0.1,2.6-0.6,5.2-1.6,7.5
		c-0.1,0.2-0.3,0.1-0.3,0c0-1.4,0-2.8-0.1-4.2c-0.2,1.6-0.5,3.1-0.9,4.7c-0.7,2.5-1.3,5-2.3,7.4c-0.8,1.9-1.9,3.7-3.2,5.3
		c-1.1,1.3-2.6,2.8-4.5,3c-0.1,0-0.2-0.1-0.1-0.2c0.3-0.8,0.8-1.6,1.3-2.3c-5.1,4.4-12.5,6.6-18.5,3.2c0.9,0.9,1.8,1.8,2.8,2.6
		c0.1,0.1,0,0.3-0.1,0.2c-5.5-0.3-11.2-5.9-9.9-11.6c0-0.1,0.2-0.1,0.3,0c0.6,1,1.1,2,1.7,3c-0.8-2.1-1.3-4.2-1.2-6.5
		c0.1-2.6,0.8-5,1.8-7.4c1.8-4.2,4.3-8.6,8-11.5c0.1-0.1,0.3,0,0.2,0.1c-0.5,2.4-1.3,4.8-1,7.2c1-2.7,2-5.5,3.8-7.8l0,0
		c0.1-0.1,0.3,0,0.2,0.2c-2.1,3.8-3,8.2-3.1,12.6c0.4-3.1,1.4-6.1,2.8-8.9c1.8-3.6,4.1-7.1,7-9.9c0.1-0.1,0.3,0,0.2,0.2
		c-2,3.1-2,6.8-1.6,10.4c0.4-0.8,0.8-1.6,1.2-2.4c1.8-3.5,3.8-6.8,6.1-10c2.2-3.2,4.5-6.3,6.3-9.7c0.1-0.2,0.3,0,0.3,0.1
		c-0.6,3-1.4,5.9-2.4,8.9v0.1c0.5-0.9,1-1.8,1.6-2.6c2.5-4,4.9-8.1,8.1-11.5c0.1-0.1,0.3,0,0.2,0.2c-2.4,3.6-4.1,7.5-5.5,11.5
		c1.3-2.2,2.7-4.4,4.2-6.5c5.2-7.6,11.2-14.5,17.4-21.3C117.6,45.5,117.8,45.6,117.7,45.8L117.7,45.8z"/>
	
		<linearGradient id="SVGID_00000054977373234217416720000011295851039538403731_" gradientUnits="userSpaceOnUse" x1="-113.89" y1="751.1344" x2="-150.5811" y2="792.3752" gradientTransform="matrix(1 0 0 1 219.01 -681.6)">
		<stop  offset="0.46" style="stop-color:#F7C7B1"/>
		<stop  offset="1" style="stop-color:#583600"/>
	</linearGradient>
	<path style="opacity:0.7;fill:url(#SVGID_00000054977373234217416720000011295851039538403731_);enable-background:new    ;" d="
		M101.3,69c-3.5,4.2-7.1,8.5-10.1,13.2c0.6-1.8,1.2-3.5,1.8-5.3c0.1-0.3-0.3-0.3-0.5-0.1c-0.5,0.4-0.8,1-1.1,1.6
		c-0.5,0.9-1,1.7-1.6,2.5c-0.5,0.8-1,1.6-1.5,2.5c0.4-1.3,0.9-2.6,1.3-3.8c0.1-0.5-0.5-0.4-0.7-0.2c-0.8,0.8-1.5,1.7-2.1,2.7
		c-0.8,1.2-1.6,2.3-2.3,3.5c-1.5,2.3-2.9,4.8-4.2,7.3c-1.3,2.4-2.4,5-3.4,7.6l0,0c0-0.2,0-0.3,0-0.4c-0.2-1.6-0.1-3.3,0-5
		c0.1-1.6,0.3-3.2,0.5-4.8c0.1-0.8,0.2-1.7,0.4-2.5c0.1-0.7,0.4-1.3,0.5-2c0-0.3-0.4-0.1-0.5,0c-1,1.2-1.7,2.7-2.5,4.1
		c-0.9,1.6-1.6,3.3-2.3,5c-0.7,1.8-1.3,3.7-1.9,5.6c-0.3,0.8-0.5,1.7-0.7,2.6c0-0.2,0-0.4-0.1-0.6c-0.1-1.1-0.2-2.3-0.4-3.4
		c-0.2-2.2,0.1-4.3,0.1-6.5c0-0.2-0.3-0.1-0.4,0c-0.9,1.3-1.4,2.8-1.8,4.4c-0.2,0.8-0.4,1.7-0.5,2.5c-0.1,0.6-0.1,1.1-0.2,1.7
		c0-0.2,0-0.3,0-0.5C67,99.8,67,98.9,66.9,98c-0.1-1.6,0.2-3.2,0.2-4.8c0-0.3-0.4-0.2-0.6-0.1c-0.6,0.5-0.8,1.2-1.1,1.9
		c-0.4,0.8-0.8,1.7-1,2.6c-0.4,1.4-0.7,2.9-0.7,4.4c0,0.3-0.1,0.7-0.1,1c-0.1,1.9,0.4,3.7,1.2,5.4c1.4,3.1,3.9,5.1,7.3,5.7
		c6.3,1.1,12.2-2.9,15.9-7.9c-0.3,0.7-0.6,1.4-0.8,2.1c0,0.1,0,0.3,0.2,0.3c0.6,0,1.1-0.4,1.4-0.9c0.6-0.8,1.2-1.7,1.8-2.5
		c1.3-1.9,2.2-4,3-6.1c1.9-4.8,3.7-9.6,5.2-14.6c0.1-0.4-0.5-0.2-0.6,0c-0.7,1.4-1.8,2.6-2.6,3.9c-1,1.4-2,2.8-3.1,4.2
		c-0.2,0.2-0.4,0.5-0.6,0.7c0.3-1.2,0.7-2.4,1-3.7c0.8-2.4,1.6-4.8,2.5-7.1c0.9-2.3,2-4.6,3-6.9c0.5-1.1,1-2.3,1.5-3.4
		c0.5-1,0.9-2.1,1.6-2.9C102.1,68.8,101.5,68.7,101.3,69L101.3,69z"/>
	<path class="st21" d="M65.6,118.9c-1.9-1.3-4.1-2.5-5.5-4.4c-1.3-1.9-2.5-3.8-3-6.1c-0.6-2.6-0.5-5.4,0.2-7.9
		c0.4-1.3,0.8-2.5,1.4-3.7c0.4-0.9,1.1-1.8,1.5-2.7c0-0.1-0.1,0-0.1,0c-0.5,1-1.4,1.9-2,2.9c-0.7,1.1-1.1,2.4-1.5,3.6
		c-0.8,2.6-0.8,5.4-0.3,8C57,113.5,61.2,117,65.6,118.9C65.5,119.1,65.6,119,65.6,118.9L65.6,118.9z"/>
	<path class="st21" d="M95.7,111.2c-2.6,3-5.9,5.5-9.5,7.2c-1.8,0.9-3.6,1.6-5.5,2.1c-2.1,0.5-4.2,0.8-6.3,1.1c0,0-0.1,0.1,0,0.1
		c2-0.1,4.1,0.1,6.1-0.3s4-1.3,5.8-2.2C90,117.2,93.3,114.5,95.7,111.2C95.9,111.1,95.8,111.1,95.7,111.2L95.7,111.2z"/>
	<path class="st1" d="M64.3,83.4c-1.2,1-2.5,1.9-3.7,3c-1.2,1-2.2,2.2-3.2,3.3c-2,2.3-3.6,5-4.8,7.8c-1.2,2.9-1.9,5.9-1.5,9
		c0.4,3,1.3,6,3,8.5c0,0.1,0.2,0,0.2-0.1c-2.8-5.2-2.6-11.9-0.5-17.3c1.1-2.7,2.5-5.3,4.3-7.6c1.9-2.4,4.1-4.4,6.3-6.5
		C64.6,83.4,64.5,83.3,64.3,83.4L64.3,83.4z"/>
	<path class="st1" d="M80.8,124.7c-1.4,0.4-2.8,0.8-4.3,0.9c-1.6,0.1-3.2-0.1-4.7-0.4c-2.9-0.6-5.6-1.7-8.1-3.3
		c-2.4-1.5-4.6-3.4-6.5-5.6c-0.9-1.1-1.7-2.2-2.4-3.4c-0.7-1.3-1.2-2.8-1.6-4.2c0-0.1-0.2,0-0.1,0.1c0.6,3,1.5,5.8,3.2,8.3
		c1.7,2.4,4.1,4.2,6.5,5.8c2.6,1.6,5.6,2.4,8.6,2.9c3.2,0.5,6.4,0.4,9.3-0.9C80.9,124.8,80.9,124.6,80.8,124.7L80.8,124.7z"/>
	<path class="st1" d="M102.7,106.7c-0.3,0.7-0.9,1.3-1.3,2c-0.5,0.8-1,1.5-1.5,2.2c-1.1,1.4-2.2,2.7-3.4,4c-2.3,2.5-4.8,4.8-7.6,6.8
		c-0.1,0.1-0.2,0.3,0,0.2c1.5-0.7,3.1-1.4,4.4-2.4c1.4-1.1,2.7-2.5,3.9-3.8c1.3-1.4,2.4-2.9,3.4-4.5c0.5-0.7,0.8-1.6,1.2-2.4
		C102.1,108.1,102.6,107.5,102.7,106.7C103,106.6,102.7,106.6,102.7,106.7L102.7,106.7z"/>
	<path class="st1" d="M77.2,75c-1.2,1.2-2.7,2.2-4.1,3.2c-1.6,1.3-3.2,2.5-4.7,3.8c-3.1,2.6-6.2,5.2-8.7,8.4
		c-0.2,0.2,0.1,0.3,0.2,0.2c1.5-1.2,2.9-2.7,4.3-4c1.5-1.4,3-2.7,4.6-4c1.5-1.3,3.1-2.6,4.6-4c1.3-1.1,2.8-2.2,3.9-3.5
		C77.4,75,77.3,75,77.2,75z"/>
	<path class="st1" d="M107.5,91.3c-2.7,6.1-5.9,12-8.3,18.2c-0.1,0.3,0.3,0.2,0.4,0c2-2.5,3.2-5.8,4.5-8.7c1.4-3.1,2.7-6.2,3.6-9.5
		C107.7,91.2,107.5,91.2,107.5,91.3L107.5,91.3z"/>
	<path class="st1" d="M120.5,52.8c-1.1,2.6-2.3,5.2-3.4,7.9c-1.1,2.6-1.9,5.3-2.8,8c-1.8,5.6-3.2,11.2-4.6,16.9
		c-0.1,0.2,0.3,0.1,0.3-0.1c2-5.5,3.4-11.1,5.2-16.6c0.8-2.7,1.6-5.4,2.6-8c1-2.7,2-5.4,3-8C120.8,52.7,120.6,52.7,120.5,52.8
		L120.5,52.8z"/>
	<path class="st1" d="M127.9,35.7c-2.9,4.8-5.8,9.5-8.3,14.6c-1.2,2.5-2.4,4.9-3.6,7.4c-1.1,2.3-2.1,4.8-2.5,7.4
		c0,0.3,0.3,0.1,0.3-0.1c4.1-10,9.1-19.7,14.2-29.2C128.1,35.6,127.9,35.6,127.9,35.7L127.9,35.7z"/>
	<path class="st1" d="M124.3,29.9c-0.9,0.6-1.7,1.4-2.5,2.2c-0.9,0.9-2,1.7-2.9,2.6c-1.9,1.8-3.6,3.6-5.3,5.5
		c-1.6,1.8-3.4,3.6-4.9,5.5c-1.7,2.1-3.3,4.3-5,6.4c-0.2,0.3,0.1,0.4,0.3,0.2c1.8-1.7,3.6-3.4,5.1-5.3c1.5-1.9,3.2-3.7,4.8-5.5
		c1.7-2,3.4-3.9,5.2-5.8c0.8-0.9,1.7-1.7,2.5-2.5c1-1,1.8-2.1,2.8-3C124.5,30,124.5,29.8,124.3,29.9L124.3,29.9z"/>
	<path class="st1" d="M113.4,39.3c-0.9,1.1-2.1,1.8-3.1,2.8c-1.2,1-2.3,2.1-3.5,3.2c-2.3,2.3-4.7,4.5-7.1,6.8
		c-2.3,2.2-4.6,4.6-6.8,6.9c-2.2,2.3-4.2,4.9-6.2,7.4c-0.1,0.1,0,0.2,0.1,0.1c2.2-2.3,4.7-4.4,6.9-6.8c2.3-2.4,4.6-4.8,6.9-7.1
		c2.3-2.2,4.6-4.5,6.8-6.9c1.1-1.1,2.1-2.3,3.2-3.4c1-1,2-1.9,2.9-3C113.7,39.3,113.5,39.3,113.4,39.3L113.4,39.3z"/>
	<path class="st1" d="M96,54.7c-0.5,0.6-1.1,1-1.7,1.5s-1.2,0.9-1.8,1.4c-1.3,1-2.6,2-3.8,3.1c-2.7,2.2-5.2,4.5-7.8,6.8
		c-5,4.4-10.2,8.8-14.8,13.6c-0.2,0.2,0.1,0.3,0.2,0.1c5.2-4.3,10.3-8.9,15.4-13.4c2.6-2.3,5.2-4.5,7.8-6.8c1.3-1.1,2.6-2.3,3.9-3.4
		c1-0.8,2.1-1.8,2.8-2.8C96.2,54.6,96.1,54.6,96,54.7L96,54.7z"/>
</g>
<g>
	
		<linearGradient id="SVGID_00000114069487652361708750000010461090211583192960_" gradientUnits="userSpaceOnUse" x1="-185.1903" y1="752.4678" x2="-209.628" y2="766.1506" gradientTransform="matrix(1 0 0 1 219.01 -681.6)">
		<stop  offset="0.46" style="stop-color:#F7C7B1"/>
		<stop  offset="1" style="stop-color:#F59F1D"/>
	</linearGradient>
	<path style="opacity:0.9;fill:url(#SVGID_00000114069487652361708750000010461090211583192960_);enable-background:new    ;" d="
		M24.2,83c0.5-0.7,1.2-1.2,1.8-1.7c0.7-0.6,1.4-1.3,2.1-1.9c0.6-0.6,1.3-1.2,2-1.8c0.6-0.5,1.2-1,1.8-1.6c-1.8,1-6.6,3.8-6.5,3.8
		c0.3-0.3,0.7-0.5,1.1-0.8c1.2-0.9,2.5-1.8,3.7-2.7c1.5-1.2,3-2.4,4.5-3.6c2.3-1.8,4.6-3.5,6.8-5.4c-2.4,1.5-7.4,4.3-7.3,4.3
		c2.8-2,5.5-4.2,8.5-6c1.5-0.9,2.9-1.7,4.4-2.7c-0.3,0.1-0.6,0.3-0.9,0.4c-0.6,0.2-1.2,0.4-1.8,0.6c-1,0.3-6,2.3-7.4,2.9
		c-1.9,0.8-3.9,1.4-5.8,2.2c-0.8,0.3-4.7,1.6-4.6,1.6c1.1-1,2.6-1.4,3.9-2.2c-0.2,0-0.4,0.1-0.6,0.1c-4,1.3-7.8,3.4-11.7,4.8
		c-0.1,0,1.7-1.1,2.5-1.6c-0.8,0.3-1.6,0.5-2.3,0.9c-0.7,0.3-2.3,0.8-2.2,0.8c1.4-0.6,2.8-1.3,4.1-2.1c-1.3,0.4-2.5,0.8-3.7,1.2
		c-2.3,0.8-4.7,1.5-7,2.3c-1.9,0.7-3.9,1.4-5.4,2.7c-1.6,1.3-2.4,3.1-2.3,5.2C2,84.5,3,86.2,4.2,87.6c1.2,1.3,2.7,2.4,4.4,3
		c4.2,1.6,7,1,10.4-1.4c1.2-0.9,3.9-3.3,5-4.3c0.4-0.4,0.9-0.8,1.3-1.1c1.3-1.3,2.7-2.7,3.9-4.2C27.3,80.6,24.2,83,24.2,83L24.2,83z
		"/>
	
		<radialGradient id="SVGID_00000101076429124959797610000016995754463511573902_" cx="-1087.6041" cy="11.7799" r="1" gradientTransform="matrix(17.0244 8.057 -7.9951 16.8936 18609.8926 8644.8369)" gradientUnits="userSpaceOnUse">
		<stop  offset="0.41" style="stop-color:#6487A9"/>
		<stop  offset="0.91" style="stop-color:#A06D7E"/>
	</radialGradient>
	<path style="fill:url(#SVGID_00000101076429124959797610000016995754463511573902_);" d="M18.8,86.1c0.5-1,1.3-1.8,1.5-2.9
		c0.1-0.9-0.2-1.9-0.8-2.6c-0.6-0.9-1.6-1.3-2.3-2.1c-0.3-0.4-0.4-0.9-0.7-1.3c-0.3-0.4-0.6-0.8-1-1.1c-0.7-0.5-1.6-0.8-2.5-0.8
		c-0.5,0-1,0-1.5,0s-1-0.2-1.5-0.2c-0.8-0.1-1.6,0.1-2.3,0.5c-0.3,0.2-0.5,0.5-0.7,0.8c0,0.1-0.1,0.1-0.1,0.2
		c-0.8,0.5-1.6,0.7-2.4,1.1C3.6,78,3,79,2.7,79.9c-0.4,1-0.1,2.2,0.2,3.2c0.2,0.5,0.3,1.1,0.5,1.6s0.2,1.1,0.2,1.6
		c0.1,1,0.9,1.6,1.9,1.8c0.5,0.1,1,0.1,1.5,0.2c0.7,0.1,1.2,0.5,1.8,0.9c0.9,0.7,1.9,1.2,3.1,1.4c0.9,0.2,2,0.3,3,0.2
		C17.2,90.5,17.9,87.8,18.8,86.1L18.8,86.1z"/>
	<g class="st3">
		<path class="st4" d="M18.8,86.1c0.5-1,1.3-1.8,1.5-2.9c0.1-0.9-0.2-1.9-0.8-2.6c-0.6-0.9-1.6-1.3-2.3-2.1
			c-0.3-0.4-0.4-0.9-0.7-1.3c-0.3-0.4-0.6-0.8-1-1.1c-0.7-0.5-1.6-0.8-2.5-0.8c-0.5,0-1,0-1.5,0s-1-0.2-1.5-0.2
			c-0.8-0.1-1.6,0.1-2.3,0.5c-0.3,0.2-0.5,0.5-0.7,0.8c0,0.1-0.1,0.1-0.1,0.2c-0.8,0.5-1.6,0.7-2.4,1.1C3.6,78,3,79,2.7,79.9
			c-0.4,1-0.1,2.2,0.2,3.2c0.2,0.5,0.3,1.1,0.5,1.6s0.2,1.1,0.2,1.6c0.1,1,0.9,1.6,1.9,1.8c0.5,0.1,1,0.1,1.5,0.2
			c0.7,0.1,1.2,0.5,1.8,0.9c0.9,0.7,1.9,1.2,3.1,1.4c0.9,0.2,2,0.3,3,0.2C17.2,90.5,17.9,87.8,18.8,86.1L18.8,86.1z M16.8,81.3
			c-0.2,0.2-0.5,0.1-0.8,0.1c-0.4,0-0.7,0-1.1,0.3c-0.4,0.2-0.7,0.5-1,0.7s-0.5,0.4-0.9,0.5c-0.2,0-0.4,0-0.6,0
			c-0.3,0-0.4,0.2-0.5,0.4c-0.2,0.2-0.4,0.3-0.7,0.2C10.5,83.3,9.6,83.4,9,84c0.6,0,1.2,0,1.7,0.4c0,0,0,0.1-0.1,0.1
			c-0.7-0.1-1.7,0.4-2.2,0.9c-0.2,0.2-0.6,1-1.1,0.8C7,86,6.9,85.8,6.6,85.6c-0.3-0.3-0.7-0.5-1.1-0.5c-0.2,0-0.5,0.1-0.7,0
			c-0.2-0.2-0.1-0.6-0.4-0.7c-0.2-0.1-0.5-0.1-0.6-0.4c-0.1-0.2-0.2-0.5-0.3-0.7c-0.2-0.6-0.6-1.3-0.7-1.9c-0.2-0.9,0.1-1.8,0.6-2.5
			c0.1-0.2,0.3-0.4,0.5-0.6c0.4-0.4,1-0.7,1.6-0.9c0.3-0.1,0.6-0.1,0.9-0.2C7,77,7.1,76.7,7.3,76.3c0,0,0.1-0.1,0.1,0
			c0.1,0.3,0,0.6,0,0.8c0.3-0.4,0.7-0.9,1.2-0.9c0.2,0,0.5,0,0.6,0.1c0.2,0.2,0.2,0.4,0.3,0.6c0-0.3,0.1-0.6,0.1-0.9
			c0,0,0-0.1,0.1-0.1c0.3,0,0.5-0.2,0.8-0.2c0.1,0,0.2,0.1,0.3,0.1c0-0.1-0.1-0.2-0.1-0.2s0-0.1,0.1-0.1c0.2,0,0.4,0,0.6,0
			c-0.1-0.1-0.2-0.1-0.3-0.1s0-0.1,0-0.1c1.1,0.1,2.2-0.1,3.2,0.3c0.4,0.1,0.8,0.4,0.8,0.8c0,0.3-0.3,0.7-0.5,0.9c0,0-0.1,0-0.1-0.1
			c0-0.2,0.1-0.4,0.2-0.5c-0.1,0.2-0.2,0.3-0.4,0.4h-0.1c-0.1-0.2-0.3-0.4-0.4-0.6c0,0.1,0,0.1,0,0.2s-0.1,0.1-0.1,0
			c-0.1-0.2-0.6-0.7-0.9-0.5c-0.3,0.1-0.1,0.6-0.1,0.9c0,0,0,0.1-0.1,0.1c-0.4,0-1-0.2-1.3,0.1c0.3,0.3,0.8,0.4,1.2,0.6
			c0.2,0.1,0.4,0.1,0.6,0.2c0.1,0,0.2,0,0.3,0.1c0.2,0.2-0.2,0.5-0.4,0.6c-0.2,0.2-0.5,0.3-0.7,0.5l0,0c0.5,0,0.9-0.3,1.4-0.4
			c0,0,0.1,0,0.1,0.1s-0.1,0.2-0.1,0.3c0,0.1-0.1,0.1-0.1,0.2s0.1,0.1,0.2,0.1c0.2-0.2,0.3-0.4,0.5-0.5c0.1-0.1,0.2-0.1,0.3,0
			c0.2,0.2,0.2,0.4,0.4,0.5c0-0.1,0-0.3-0.1-0.4c0-0.1,0.1-0.1,0.1,0c0.2,0.5,0.5,0.9,0.9,1.3C16.3,80.6,16.6,80.9,16.8,81.3
			C16.8,81.2,16.8,81.3,16.8,81.3L16.8,81.3z"/>
	</g>
	<g class="st3">
		<path class="st5" d="M6.9,77.1c-0.4,0.1-0.7,0.2-1,0.3c-0.3,0.1-0.6,0.1-0.9,0.3C4.4,78,3.9,78.5,3.5,79c-0.4,0.6-0.5,1.4-0.4,2.1
			c0.1,0.4,0.2,0.8,0.3,1.1c0.1,0.3,0.2,0.6,0.3,0.9h0.1c-0.4-1.3-0.8-2.5-0.2-3.8c0.3-0.7,0.8-1.2,1.5-1.5c0.3-0.1,0.6-0.2,0.9-0.3
			C6.3,77.4,6.6,77.2,6.9,77.1C7,77.1,7,77.1,6.9,77.1L6.9,77.1z"/>
	</g>
	
		<radialGradient id="SVGID_00000055678584793081017480000009184279192845391247_" cx="-1102.0464" cy="8.9395" r="1" gradientTransform="matrix(22.4337 10.617 -10.5354 22.2614 24827.416 11597.3809)" gradientUnits="userSpaceOnUse">
		<stop  offset="0.41" style="stop-color:#32485D"/>
		<stop  offset="0.91" style="stop-color:#A06D7E"/>
	</radialGradient>
	<path style="fill:url(#SVGID_00000055678584793081017480000009184279192845391247_);" d="M11.1,75.5c-0.1,0-0.2-0.1-0.4-0.1
		c0-0.1-0.2-0.1-0.3-0.1c-0.4,0-0.9-0.1-1.3,0c-0.2,0-0.4,0.1-0.6,0.1c-0.3,0.1-0.6,0.2-0.7,0.4c0,0,0,0.1-0.1,0.1
		c0,0.1-0.1,0.1-0.1,0.2h0.1c0-0.1,0.1-0.1,0.1-0.2c0,0,0,0,0-0.1c0.1,0,0.2,0,0.3,0.1c0,0,0,0,0,0.1s0,0.1-0.1,0.2
		c0,0.1,0,0.2-0.1,0.2c0,0,0,0,0.1,0c0.1-0.1,0.1-0.2,0.2-0.3c0-0.1,0.1-0.1,0.1-0.2c0,0,0,0,0-0.1c0.3,0,0.6,0,0.9-0.1l0,0
		c0,0.1,0,0.1,0,0.2h0.1c0-0.1,0-0.1,0-0.2c0,0,0,0,0-0.1c0,0,0,0,0.1,0c0,0.1,0,0.1,0,0.2s0,0.3,0,0.4h0.1c0-0.1,0.1-0.3,0.1-0.4
		s0-0.1,0-0.2c0.1,0,0.1,0,0.2,0c0.1,0,0.1,0,0.2,0c0.2,0,0.3-0.1,0.5-0.1l0,0c0,0,0.1,0,0.1,0.1c0.1,0,0.1,0.1,0.2,0.2h0.1
		c-0.1-0.1-0.1-0.2-0.2-0.2l0,0l0,0c0.1,0,0.1,0.1,0.2,0.1l0,0l-0.1-0.1C10.8,75.5,10.9,75.5,11.1,75.5L11.1,75.5L11.1,75.5z
		 M10.5,75.4C10.5,75.4,10.4,75.4,10.5,75.4c0-0.1-1.4,0-1.5,0.1c-0.3,0.1-0.7,0.1-1,0.2v-0.1l0,0c0.5-0.2,1.1-0.3,1.6-0.3
		c0.2,0,0.4,0,0.6,0C10.5,75.3,10.5,75.3,10.5,75.4L10.5,75.4z"/>
	
		<radialGradient id="SVGID_00000089535474984778336320000016299743484994148250_" cx="-1102.0488" cy="8.9391" r="1" gradientTransform="matrix(22.4349 10.6175 -10.536 22.2625 24828.8047 11598.0312)" gradientUnits="userSpaceOnUse">
		<stop  offset="0.41" style="stop-color:#32485D"/>
		<stop  offset="0.91" style="stop-color:#A06D7E"/>
	</radialGradient>
	<path style="fill:url(#SVGID_00000089535474984778336320000016299743484994148250_);" d="M6.1,87c0.1-0.4-0.3-1.1-0.7-1.2l0,0
		c-0.2-0.1-0.4-0.2-0.5,0c-0.2,0.4,0.3,1,0.6,1.3C5.7,87.3,6.1,87.4,6.1,87L6.1,87z"/>
	
		<radialGradient id="SVGID_00000064332417708413361850000006220120492969439883_" cx="-1102.0439" cy="8.9399" r="1" gradientTransform="matrix(22.4325 10.6164 -10.5348 22.2602 24825.9766 11596.7061)" gradientUnits="userSpaceOnUse">
		<stop  offset="0.41" style="stop-color:#32485D"/>
		<stop  offset="0.91" style="stop-color:#A06D7E"/>
	</radialGradient>
	<path style="fill:url(#SVGID_00000064332417708413361850000006220120492969439883_);" d="M17.2,83.6c-0.7,0-1.6,0.2-2,0.8v-0.1
		c0.1-0.2,0.2-0.3,0.3-0.5l0,0c-0.1,0.1-0.2,0.3-0.3,0.4c-0.1-0.1-0.2-0.2-0.4-0.3c-0.1-0.1-0.3-0.1-0.4-0.1c0-0.1,0.1-0.2,0.1-0.4
		c0.1-0.2,0.3-0.5,0.5-0.6l0,0c-0.2,0.1-0.4,0.3-0.5,0.5c-0.1,0.1-0.2,0.3-0.2,0.4c-0.2,0-0.4,0-0.7,0s-0.6,0.1-0.9,0.2
		c0,0,0,0,0-0.1s0-0.1-0.1-0.2c0-0.1,0-0.1-0.1-0.2c0-0.1-0.1-0.1-0.1-0.1h-0.1c0,0,0,0.1,0.1,0.1c0,0.1,0.1,0.1,0.1,0.2
		s0,0.1,0.1,0.2l0,0h-0.1c0,0,0,0,0-0.1s0-0.1-0.1-0.2c0,0-0.1,0,0,0c0,0.1,0,0.1,0,0.2l0,0c-0.1,0-0.2,0.1-0.4,0.1
		c-0.1-0.1-0.3-0.2-0.5-0.3c-0.4-0.1-0.7-0.2-1-0.2l0,0c0.4,0,0.7,0.1,1.1,0.3c0.1,0.1,0.2,0.1,0.3,0.2l0,0
		c-0.3,0.2-0.6,0.4-0.9,0.7c-0.2,0-0.4,0-0.6,0c-0.2,0-0.3,0.1-0.5,0.2c-0.1,0.1-0.2,0.2-0.3,0.3l0,0c0.1,0,0.4-0.2,0.5-0.2
		c0.3-0.1,0.6-0.1,0.9-0.1c0,0,0,0.1-0.1,0.1c0,0.1-0.1,0.2-0.1,0.3c-0.1,0-0.1,0-0.2,0c-0.1,0-0.2,0.1-0.3,0.1l0,0
		c0.1,0,0.1-0.1,0.2-0.1h0.1h0.1c0,0.1,0,0.2,0.1,0.2c-0.1,0-0.1,0-0.1,0.1c0,0,0,0-0.1,0l0,0l0,0h0.1c0.1,0,0.1,0,0.2-0.1
		c0.1,0.2,0.3,0.3,0.5,0.4c0.4,0.2,0.8,0.3,1.2,0.4c0,0.1,0,0.1,0,0.2s0,0.2,0,0.3h0.1c0-0.1,0-0.2,0-0.2v-0.1l0,0
		c0.6,0.1,1.1,0,1.6-0.4c0.2-0.2,0.4-0.5,0.6-0.7H15h0.1c0,0,0.1,0,0,0s-0.1,0-0.2,0c0-0.1,0.1-0.2,0.1-0.3c0.1,0,0.2,0,0.2,0
		c0.1,0,0.1,0,0.2,0h0.1c0,0,0.2,0,0.1,0l0,0c0,0,0,0,0.1,0l0,0C15.6,85,15.4,85,15.2,85c0,0-0.1,0-0.2,0c0-0.1,0.1-0.2,0.1-0.3
		c0,0,0,0,0-0.1c0.3-0.3,0.5-0.6,0.8-0.8C16.3,83.7,16.7,83.7,17.2,83.6L17.2,83.6L17.2,83.6z M14.2,86c-0.7,0.7-1.8,0.4-2.6,0.1
		c-0.4-0.2-0.8-0.5-0.7-1l0,0c0.1,0.3,0.5,0.5,0.7,0.6c0.4,0.2,0.8,0.2,1.2,0.1c0.4,0,0.9-0.1,1.2-0.3c0.2-0.1,0.4-0.3,0.5-0.5
		s0.2-0.4,0.3-0.5c0,0.1,0,0.1,0,0.2C14.8,85.3,14.5,85.7,14.2,86z"/>
	
		<radialGradient id="SVGID_00000079451191920502919070000003285628868987935630_" cx="-1102.0464" cy="8.9395" r="1" gradientTransform="matrix(22.4337 10.617 -10.5354 22.2614 24827.418 11597.3809)" gradientUnits="userSpaceOnUse">
		<stop  offset="0.41" style="stop-color:#32485D"/>
		<stop  offset="0.91" style="stop-color:#A06D7E"/>
	</radialGradient>
	<path style="fill:url(#SVGID_00000079451191920502919070000003285628868987935630_);" d="M19.6,82.5c0.1-0.2,0-0.5,0-0.6
		c0-0.4-0.2-0.9-0.5-1.2c-0.1-0.1-0.3-0.4-0.6-0.4c-0.1-0.1-0.3-0.1-0.5-0.1c-0.2-0.1-0.4-0.2-0.6-0.3l0,0c0.1,0.3,0.6,0.4,0.9,0.5
		c-0.1,0-0.1,0.1-0.1,0.2c-0.2,0-0.3,0-0.5-0.1l0,0c0.2,0.1,0.3,0.1,0.5,0.1c0,0.1,0,0.3,0,0.4s0,0.2,0.1,0.3c0,0,0,0-0.1,0l0,0l0,0
		l0,0h0.1l0,0h-0.1c0,0-0.1,0,0,0h0.1v0.1c-0.1,0-0.2,0-0.2,0c-0.1,0-0.2,0-0.2,0.1c-0.1,0-0.2,0.1-0.2,0.1l0,0c0,0,0,0,0.1,0
		s0.2-0.1,0.3-0.1c0.1,0,0.3,0,0.4,0c0,0.1,0.1,0.2,0.1,0.2l0,0c-0.1,0.1-0.3,0.1-0.4,0.2l0,0c0.1-0.1,0.2-0.1,0.4-0.2h0.1
		c0,0.1,0.1,0.2,0.2,0.3c-0.1,0.1-0.2,0.1-0.3,0.2l0,0c0.1,0,0.1-0.1,0.2-0.1c0,0,0.1,0,0.1-0.1l0.1,0.1c0,0.1,0.1,0.1,0.2,0.2
		c-0.2,0.1-0.3,0.3-0.4,0.4l0,0c0.1-0.1,0.2-0.2,0.3-0.2c0.1,0,0.2-0.1,0.2-0.2c0,0,0.1,0,0.1,0.1c-0.2,0.2-0.3,0.5-0.4,0.7
		c0,0,0,0,0.1,0C19.2,83,19.4,82.8,19.6,82.5L19.6,82.5L19.6,82.5z M19.3,82.4L19.3,82.4L19.3,82.4L19.3,82.4
		c0.1-0.2-0.2-1.1-0.2-1.2c-0.1-0.1-0.4-0.8-0.6-0.8c0-0.1,0.1-0.1,0.3,0c0.2,0.2,0.4,0.4,0.5,0.6c0.2,0.4,0.3,0.8,0.3,1.2
		C19.5,82.5,19.4,82.5,19.3,82.4L19.3,82.4z"/>
	
		<radialGradient id="SVGID_00000093897101715390504120000005255652205738118037_" cx="-1102.0464" cy="8.9395" r="1" gradientTransform="matrix(22.4337 10.617 -10.5354 22.2614 24827.416 11597.3809)" gradientUnits="userSpaceOnUse">
		<stop  offset="0.41" style="stop-color:#32485D"/>
		<stop  offset="0.91" style="stop-color:#A06D7E"/>
	</radialGradient>
	<path style="fill:url(#SVGID_00000093897101715390504120000005255652205738118037_);" d="M15.9,79.4c-0.3-0.3-0.5-0.6-0.8-0.9
		c0-0.1,0-0.2,0-0.2s0,0,0.1,0c0.3,0.1,0.6,0.2,0.9,0.2c0,0,0.1,0,0,0c-0.2-0.1-0.5-0.1-0.7-0.2c-0.1,0-0.2,0-0.3-0.1
		C15,78,14.9,78,14.9,77.9H15c0.1,0,0.2,0,0.3-0.1l0,0c-0.2,0-0.3,0-0.5,0c0,0,0,0-0.1-0.1l0,0c0,0,0.1,0,0.1-0.1l0,0
		c-0.1,0-0.1,0.1-0.2,0.1c0,0-0.1,0-0.1-0.1c-0.1-0.1-0.1-0.1-0.2-0.2c0-0.1,0.1-0.2,0.1-0.3c0.1-0.2,0.2-0.4,0.2-0.6l0,0
		c0,0.2-0.2,0.3-0.3,0.5c-0.1,0.1-0.1,0.2-0.1,0.3c-0.1,0-0.1-0.1-0.2-0.1c0-0.1,0-0.2,0-0.3h-0.1V77v0.1C13.8,77,13.6,77,13.5,77
		v-0.1c-0.1-0.1-0.2-0.2-0.2-0.4h-0.1c0,0.1,0.1,0.3,0.1,0.4c0,0,0,0,0,0.1h-0.1c-0.1,0-0.1-0.1-0.2-0.1c-0.1-0.1-0.2-0.2-0.3-0.2
		l0,0c0.1,0.1,0.2,0.1,0.3,0.2s0.1,0.1,0.2,0.2c-0.1,0.1,0,0.2,0,0.3c0,0,0,0-0.1,0s-0.1,0-0.2,0l0,0c0.1,0,0.2,0,0.3,0
		c0,0,0,0,0,0.1c-0.1,0-0.2,0-0.4,0s-0.5,0-0.8-0.1c0,0-0.1,0,0,0c0.2,0.1,0.4,0.1,0.6,0.1c0.2,0,0.4,0.1,0.7,0.1c0,0,0,0,0.1,0.1
		s0.2,0.2,0.3,0.3l-0.1,0.1c-0.1,0.1-0.2,0.2-0.3,0.3c0,0,0,0,0.1,0c0.1-0.2,0.3-0.3,0.4-0.4c0.1,0.1,0.2,0.1,0.4,0.2v0.1l0,0v-0.1
		l0,0l0,0c0,0,0,0,0,0.1s0.1,0.1,0.1,0.2h0.1c0-0.1,0-0.1-0.1-0.2c0.1,0,0.1,0.1,0.2,0.1c0.1,0.1,0.2,0.2,0.3,0.3
		C15.4,79,15.6,79.2,15.9,79.4C15.8,79.4,15.9,79.4,15.9,79.4L15.9,79.4z"/>
	
		<radialGradient id="SVGID_00000049939206679183817280000005744934070139156394_" cx="-1102.0488" cy="8.9391" r="1" gradientTransform="matrix(22.4349 10.6175 -10.536 22.2625 24828.8047 11598.0293)" gradientUnits="userSpaceOnUse">
		<stop  offset="0.41" style="stop-color:#32485D"/>
		<stop  offset="0.91" style="stop-color:#A06D7E"/>
	</radialGradient>
	<path style="fill:url(#SVGID_00000049939206679183817280000005744934070139156394_);" d="M14.4,89.7c-0.3,0-0.5,0-0.8,0
		s-0.6,0-0.9,0.1c-0.2,0-0.4,0-0.6,0.1c-0.2,0.2,0.2,0.3,0.3,0.4c0.5,0.2,1,0.2,1.5,0.2c0.4,0,0.9-0.1,1.2-0.3
		C15.6,89.8,14.6,89.8,14.4,89.7z"/>
	
		<radialGradient id="SVGID_00000127747054631949893550000008469760679030508966_" cx="-1102.0439" cy="8.9399" r="1" gradientTransform="matrix(22.4325 10.6164 -10.5348 22.2602 24825.9766 11596.7061)" gradientUnits="userSpaceOnUse">
		<stop  offset="0.41" style="stop-color:#32485D"/>
		<stop  offset="0.91" style="stop-color:#A06D7E"/>
	</radialGradient>
	<path style="fill:url(#SVGID_00000127747054631949893550000008469760679030508966_);" d="M7.3,79.9c-0.3-0.1-0.7-0.1-1-0.3
		c-0.2-0.1-0.4-0.2-0.6-0.3c0.1-0.2,0.2-0.5,0.2-0.7c0.1,0,0.2,0,0.3,0.1c0.1,0,0.2,0,0.3,0.1c0,0,0.1,0,0,0s-0.2-0.1-0.3-0.1
		c-0.1,0-0.2-0.1-0.3-0.1l0,0H6h0.1l0,0c-0.1,0-0.1,0-0.2,0c0,0,0,0-0.1,0v-0.1c0,0,0,0,0.1,0s0.2,0,0.3,0c0.2,0,0.4,0,0.5-0.1l0,0
		c-0.2,0.1-0.6,0.1-0.8,0c-0.1-0.1-0.2-0.1-0.3-0.1c-0.1,0-0.1,0-0.2,0c-0.2,0.1-0.3,0.2-0.5,0.3c-0.6,0.4-1.1,1.2-1.3,1.9
		c0,0.2-0.1,0.5,0.1,0.6C3.9,81,4,81.1,4,81.2c0.1,0.1,0.2,0.2,0.3,0.3c0.1,0.2,0.1,0.3,0.2,0.5l0,0c0-0.1,0-0.2,0-0.4
		c0-0.1-0.1-0.2-0.2-0.3C4.2,81.2,4.1,81.1,4,81l0,0c0.2,0,0.3-0.1,0.5-0.2l0.1,0.1c0.1,0.1,0.1,0.2,0.2,0.3c0,0,0.1,0,0,0
		c-0.1-0.1-0.1-0.2-0.2-0.3l-0.1-0.1c0.1,0,0.1-0.1,0.2-0.1c0,0,0,0,0.1,0s0.1,0.1,0.2,0.1c0.2,0.1,0.3,0.3,0.5,0.4h0.1
		C5.5,81.1,5.5,81,5.4,81c-0.1-0.1-0.1-0.1-0.2-0.2c0,0-0.1-0.1-0.2-0.1c0.2-0.1,0.3-0.3,0.5-0.5l0,0l0,0c0.1-0.1,0.1-0.2,0.2-0.3
		c0.1,0,0.1,0,0.1,0.1c0.1,0.1,0.2,0.1,0.3,0.2c0,0,0.1,0,0,0C6,80.1,5.9,80.1,5.9,80c-0.1,0-0.1-0.1-0.2-0.1c0,0,0-0.1,0.1-0.1
		c0,0,0.1,0,0.1,0.1c0.2,0.1,0.3,0.2,0.5,0.3C6.5,79.8,7,79.9,7.3,79.9C7.3,79.9,7.4,79.9,7.3,79.9L7.3,79.9z M5.8,78.6
		c-0.4,0.3-0.7,0.5-1,0.9c-0.3,0.3-0.4,0.8-0.5,1.2c-0.2,0.1-0.3,0-0.3-0.2s0.1-0.4,0.2-0.6l0,0h0.1c0,0,0,0,0.1,0l0,0
		c0,0-0.1-0.1-0.2-0.1l0,0c0-0.1,0.1-0.1,0.1-0.2h0.1c0,0,0.1,0,0,0H4.3c0.1-0.2,0.2-0.4,0.4-0.6l0,0c0.2-0.2,0.4-0.4,0.6-0.6
		C5.6,78.1,5.7,78.3,5.8,78.6L5.8,78.6L5.8,78.6z"/>
	
		<radialGradient id="SVGID_00000161597219623232303900000015847390928577551535_" cx="-1102.0709" cy="8.9347" r="1" gradientTransform="matrix(22.4458 10.6227 -10.5411 22.2734 24841.3223 11603.958)" gradientUnits="userSpaceOnUse">
		<stop  offset="0.41" style="stop-color:#32485D"/>
		<stop  offset="0.91" style="stop-color:#A06D7E"/>
	</radialGradient>
	<path style="fill:url(#SVGID_00000161597219623232303900000015847390928577551535_);" d="M4.6,79.4C4.6,79.3,4.5,79.3,4.6,79.4
		C4.5,79.4,4.5,79.3,4.6,79.4c-0.1-0.1-0.1-0.1-0.2-0.1C4.4,79.3,4.5,79.4,4.6,79.4L4.6,79.4z"/>
	
		<radialGradient id="SVGID_00000034779910350055323780000008246203394984864668_" cx="-1102.054" cy="8.9381" r="1" gradientTransform="matrix(22.4374 10.6187 -10.5371 22.265 24831.6113 11599.3496)" gradientUnits="userSpaceOnUse">
		<stop  offset="0.41" style="stop-color:#32485D"/>
		<stop  offset="0.91" style="stop-color:#A06D7E"/>
	</radialGradient>
	<path style="fill:url(#SVGID_00000034779910350055323780000008246203394984864668_);" d="M7.6,87.4c0.1-0.2-0.2-0.5-0.4-0.3
		c-0.1,0-0.1,0.1-0.1,0.2s0,0.2,0.1,0.2C7.3,87.5,7.5,87.5,7.6,87.4L7.6,87.4L7.6,87.4L7.6,87.4z"/>
	
		<radialGradient id="SVGID_00000182486810348951008040000002474569134702129311_" cx="-1102.0488" cy="8.9391" r="1" gradientTransform="matrix(22.4349 10.6175 -10.536 22.2625 24828.8047 11598.0312)" gradientUnits="userSpaceOnUse">
		<stop  offset="0.41" style="stop-color:#32485D"/>
		<stop  offset="0.91" style="stop-color:#A06D7E"/>
	</radialGradient>
	<path style="fill:url(#SVGID_00000182486810348951008040000002474569134702129311_);" d="M4.6,85.2c-0.1-0.2-0.1-0.4-0.3-0.4
		c-0.1,0-0.2,0.1-0.2,0.2c0,0,0,0,0,0.1c0,0.2,0.2,0.5,0.4,0.5C4.6,85.5,4.6,85.3,4.6,85.2z"/>
	
		<radialGradient id="SVGID_00000037680981578845890470000003291053256146255790_" cx="-1102.0463" cy="8.9395" r="1" gradientTransform="matrix(22.4336 10.6169 -10.5354 22.2614 24827.3086 11597.2979)" gradientUnits="userSpaceOnUse">
		<stop  offset="0.41" style="stop-color:#32485D"/>
		<stop  offset="0.91" style="stop-color:#A06D7E"/>
	</radialGradient>
	<path style="fill:url(#SVGID_00000037680981578845890470000003291053256146255790_);" d="M15.9,87.2c-0.1,0-0.1,0-0.2,0
		c-0.1,0-0.1,0.1-0.2,0.1c0,0,0,0,0,0.1c0.1,0,0.1,0.1,0.2,0C15.8,87.4,15.9,87.4,15.9,87.2C15.8,87.3,15.9,87.3,15.9,87.2
		L15.9,87.2L15.9,87.2z"/>
	
		<radialGradient id="SVGID_00000101814136729120088680000014290186009560534677_" cx="-1102.0488" cy="8.9391" r="1" gradientTransform="matrix(22.4349 10.6175 -10.536 22.2625 24828.8047 11598.0293)" gradientUnits="userSpaceOnUse">
		<stop  offset="0.41" style="stop-color:#32485D"/>
		<stop  offset="0.91" style="stop-color:#A06D7E"/>
	</radialGradient>
	<path style="fill:url(#SVGID_00000101814136729120088680000014290186009560534677_);" d="M18.2,85.8c0-0.2-0.2-0.2-0.4-0.2
		c-0.1,0-0.2,0.1-0.3,0.2c-0.2,0.1-0.3,0.2-0.3,0.3c0,0.1-0.1,0.2-0.1,0.3l0,0c0,0.2,0.1,0.4,0.3,0.3c0.1,0,0.3,0,0.4,0
		C18,86.6,18.2,86.1,18.2,85.8L18.2,85.8z"/>
	
		<radialGradient id="SVGID_00000088846992887926668600000005980696162267417236_" cx="-1102.0195" cy="8.9447" r="1" gradientTransform="matrix(22.4204 10.6107 -10.5292 22.2483 24812.1621 11590.1543)" gradientUnits="userSpaceOnUse">
		<stop  offset="0.41" style="stop-color:#32485D"/>
		<stop  offset="0.91" style="stop-color:#A06D7E"/>
	</radialGradient>
	<path style="fill:url(#SVGID_00000088846992887926668600000005980696162267417236_);" d="M18.3,84.7C18.3,84.7,18.2,84.7,18.3,84.7
		c-0.1-0.1-0.2,0-0.2,0l0,0l0,0h0.1C18.2,84.8,18.2,84.8,18.3,84.7C18.2,84.8,18.2,84.8,18.3,84.7C18.2,84.8,18.3,84.8,18.3,84.7z"
		/>
	
		<radialGradient id="SVGID_00000025409129791804253120000003578790903010716049_" cx="-1102.054" cy="8.9381" r="1" gradientTransform="matrix(22.4374 10.6187 -10.5371 22.265 24831.6074 11599.3477)" gradientUnits="userSpaceOnUse">
		<stop  offset="0.41" style="stop-color:#32485D"/>
		<stop  offset="0.91" style="stop-color:#A06D7E"/>
	</radialGradient>
	<path style="fill:url(#SVGID_00000025409129791804253120000003578790903010716049_);" d="M16.8,80c0-0.1-0.2-0.2-0.3-0.1l0,0l0,0
		c0,0-0.1,0.1,0,0.1l0,0c0,0.1,0.1,0.1,0.1,0.1C16.7,80.2,16.9,80.1,16.8,80L16.8,80z"/>
	<g class="st3">
		<path class="st5" d="M14.9,76.2c-0.9-0.7-2.2-0.7-3.3-0.7l0,0c0.5,0.1,1.1,0.1,1.6,0.1C13.8,75.7,14.4,75.9,14.9,76.2L14.9,76.2
			L14.9,76.2z"/>
	</g>
	
		<linearGradient id="SVGID_00000049213696090050963310000010442831730901588625_" gradientUnits="userSpaceOnUse" x1="-185.2141" y1="752.4253" x2="-209.6518" y2="766.108" gradientTransform="matrix(1 0 0 1 219.01 -681.6)">
		<stop  offset="0.46" style="stop-color:#F7C7B1"/>
		<stop  offset="1" style="stop-color:#F59F1D"/>
	</linearGradient>
	<path style="opacity:0.6;fill:url(#SVGID_00000049213696090050963310000010442831730901588625_);enable-background:new    ;" d="
		M47,62.9c-0.3,0.1-0.6,0.3-0.9,0.4c-0.6,0.2-1.2,0.4-1.8,0.6c-1,0.3-6,2.3-7.4,2.9C35,67.6,33,68.2,31.1,69
		c-0.8,0.3-4.7,1.6-4.6,1.6c1.1-1,2.6-1.4,3.9-2.2c-0.2,0-0.4,0.1-0.6,0.1c-4,1.3-7.8,3.4-11.7,4.8c-0.1,0,1.7-1.1,2.5-1.6
		c-0.8,0.3-1.6,0.5-2.3,0.9c-0.7,0.3-2.3,0.8-2.2,0.8c1.4-0.6,2.8-1.3,4.1-2.1c-1.3,0.4-2.5,0.8-3.7,1.2c-2.3,0.8-4.7,1.5-7,2.3
		c-1.9,0.7-3.9,1.4-5.4,2.7c-1.6,1.3-2.4,3.1-2.3,5.2c0.1,1.8,1.1,3.5,2.3,4.9c1.2,1.3,2.7,2.4,4.4,3c4.2,1.6,7,1,10.4-1.4
		c1.2-0.9,3.9-3.3,5-4.3c0.4-0.4,0.9-0.8,1.3-1.1c1.3-1.3,2.7-2.7,3.9-4.2c-1.6,1.1-4.7,3.5-4.7,3.4c0.5-0.7,1.2-1.2,1.8-1.7
		c0.7-0.6,1.4-1.3,2.1-1.9c0.6-0.6,1.3-1.2,2-1.8c0.6-0.5,1.2-1,1.8-1.6c-1.8,1-6.6,3.8-6.5,3.8c0.3-0.3,0.7-0.5,1.1-0.8
		c1.2-0.9,2.5-1.8,3.7-2.7c1.5-1.2,3-2.4,4.5-3.6c2.3-1.8,4.6-3.5,6.8-5.4c-2.4,1.5-7.4,4.3-7.3,4.3c2.8-2,5.5-4.2,8.5-6
		C44.1,64.6,45.6,63.8,47,62.9L47,62.9z M37.8,68c-3.1,2-6.3,3.9-9.4,6.1c-2.3,1.7-4.7,3.4-6.7,5.4c0.2-0.1,0.4-0.3,0.6-0.5
		c0-0.1,0-0.1,0-0.2s0.1-0.1,0.1,0l0,0c3.6-2.6,7-5.5,10.8-7.7c0.1,0,0.1,0,0.1,0.1c-1.6,1.9-3.6,3.5-5.5,5.2
		c-0.9,0.9-1.8,1.8-2.7,2.7c-0.8,0.8-1.6,1.5-2.4,2.4c1.2-0.7,2.4-1.3,3.7-1.9c0.1,0,0.1,0.1,0.1,0.1c-0.9,0.7-2,1.3-2.9,2
		c-0.7,0.6-1.3,1.3-2.1,1.6c0,0-0.1,0-0.1-0.1c0-0.3,0.1-0.6,0.1-0.9c-0.5,1-1.2,1.9-2,2.6c-0.1,0-0.1,0-0.1-0.1
		c0.3-0.6,0.5-1.1,0.7-1.7c-0.4,0.6-0.8,1.1-1.2,1.6c-0.7,0.8-1.4,1.7-2.3,2.4c-0.7,0.6-1.4,1.1-2.2,1.5c-0.7,0.3-1.5,0.6-2.3,0.3
		v-0.1c0.3-0.3,0.6-0.5,0.9-0.7c-2.8,0.8-6.1,0.3-7.8-2.2c0.2,0.5,0.4,1,0.6,1.5c0,0,0,0.1-0.1,0.1c-2.1-1.1-3.3-4.4-1.8-6.3H4
		c0.1,0.5,0.1,1,0.1,1.5C4.5,82,4.7,81,5.2,80.2c0.5-1,1.2-1.8,2.1-2.5c1.5-1.3,3.3-2.6,5.2-3c0.1,0,0.1,0,0.1,0.1
		c-0.6,0.8-1.4,1.6-1.7,2.6c0.9-0.9,1.8-1.8,2.9-2.3l0,0c0.1,0,0.1,0.1,0.1,0.1c-1.5,1.1-2.7,2.6-3.5,4.3c0.7-1.1,1.7-2.1,2.7-3
		c1.4-1.1,2.9-2,4.6-2.6c0.1,0,0.1,0.1,0.1,0.1c-1.3,0.8-2,2.3-2.5,3.8c0.3-0.2,0.6-0.5,0.9-0.7c1.4-1,2.7-2,4.2-2.8
		s2.9-1.6,4.3-2.6c0.1,0,0.1,0,0.1,0.1c-0.8,1.1-1.7,2-2.6,3l0,0c0.4-0.2,0.7-0.5,1.1-0.7c1.7-1.1,3.4-2.2,5.3-3
		c0.1,0,0.1,0.1,0.1,0.1c-1.6,0.9-3,2.2-4.3,3.5c0.9-0.6,1.9-1.2,2.8-1.8c3.4-2,7.1-3.6,10.7-5.1C37.9,67.8,37.9,67.9,37.8,68
		L37.8,68z"/>
	
		<linearGradient id="SVGID_00000026165505694041065010000001572830612479852207_" gradientUnits="userSpaceOnUse" x1="-190.494" y1="756.3986" x2="-212.3584" y2="765.8489" gradientTransform="matrix(1 0 0 1 219.01 -681.6)">
		<stop  offset="0.46" style="stop-color:#F7C7B1"/>
		<stop  offset="1" style="stop-color:#583600"/>
	</linearGradient>
	<path style="opacity:0.7;fill:url(#SVGID_00000026165505694041065010000001572830612479852207_);enable-background:new    ;" d="
		M27.1,74c-2.1,1-4.3,2-6.4,3.3c0.6-0.6,1.1-1.1,1.7-1.7c0.1-0.1-0.1-0.2-0.2-0.1c-0.3,0.1-0.5,0.3-0.7,0.4
		c-0.4,0.2-0.7,0.5-1.1,0.7c-0.3,0.2-0.7,0.5-1,0.7c0.4-0.4,0.8-0.8,1.2-1.3c0.1-0.2-0.1-0.2-0.2-0.2c-0.5,0.1-0.9,0.4-1.3,0.6
		c-0.5,0.3-1,0.6-1.6,0.9c-1,0.6-2,1.3-3,2.1c-1,0.7-1.8,1.5-2.7,2.3l0,0c0-0.1,0-0.1,0.1-0.2c0.2-0.7,0.6-1.3,0.9-1.9
		c0.3-0.6,0.7-1.2,1.1-1.8c0.2-0.3,0.4-0.6,0.6-0.9c0.2-0.2,0.4-0.4,0.5-0.7c0.1-0.1-0.2-0.1-0.2-0.1c-0.6,0.3-1.2,0.7-1.7,1.1
		c-0.7,0.5-1.2,1-1.8,1.5c-0.6,0.6-1.2,1.2-1.8,1.8c-0.3,0.3-0.5,0.6-0.7,0.9c0-0.1,0.1-0.2,0.1-0.2c0.1-0.5,0.3-0.9,0.5-1.4
		c0.3-0.9,0.8-1.7,1.2-2.5c0-0.1-0.1-0.1-0.2-0.1c-0.6,0.3-1.1,0.9-1.5,1.4c-0.2,0.3-0.5,0.6-0.7,0.9c-0.1,0.2-0.3,0.4-0.4,0.6
		C8,80.2,8,80.1,8,80c0.1-0.4,0.3-0.7,0.4-1.1c0.3-0.7,0.7-1.2,1-1.8C9.5,77,9.3,77,9.2,77c-0.3,0.1-0.5,0.3-0.8,0.5
		S7.8,78,7.5,78.3c-0.4,0.5-0.8,1-1.1,1.6c-0.1,0.1-0.2,0.2-0.2,0.4c-0.4,0.7-0.5,1.5-0.5,2.3c0,1.5,0.6,2.7,1.8,3.5
		c2.3,1.6,5.3,1.1,7.7-0.1c-0.2,0.2-0.5,0.4-0.7,0.7v0.1c0.3,0.1,0.5,0,0.7-0.1c0.4-0.2,0.8-0.4,1.2-0.6c0.8-0.5,1.6-1.1,2.3-1.8
		c1.6-1.5,3.2-3.1,4.7-4.7c0.1-0.1-0.2-0.2-0.2-0.1c-0.5,0.4-1.2,0.7-1.7,1c-0.6,0.4-1.3,0.7-2,1c-0.1,0.1-0.2,0.1-0.4,0.2
		c0.4-0.4,0.7-0.8,1.1-1.2c0.7-0.8,1.5-1.6,2.3-2.3c0.8-0.7,1.6-1.4,2.4-2.1c0.4-0.3,0.8-0.7,1.2-1c0.4-0.3,0.7-0.7,1.2-0.8
		C27.5,74.1,27.3,73.9,27.1,74L27.1,74z"/>
	<path class="st21" d="M4,86.8c-0.5-0.9-1.2-1.7-1.4-2.8c-0.2-1-0.3-1.9-0.1-2.9C2.7,80,3.3,78.9,4,78c0.4-0.4,0.8-0.8,1.2-1.2
		C5.5,76.5,6,76.3,6.3,76l0,0c-0.4,0.3-0.9,0.5-1.3,0.8c-0.5,0.3-0.9,0.7-1.2,1.1c-0.8,1-1.3,2.1-1.6,3.2C1.7,83.1,2.7,85.3,4,86.8
		C4,86.9,4,86.9,4,86.8L4,86.8z"/>
	<path class="st21" d="M17.3,89.4c-1.6,0.7-3.3,1-5.1,1.1c-0.8,0-1.7,0-2.5-0.2C8.8,90,7.9,89.8,7,89.5l0,0c0.8,0.3,1.6,0.8,2.4,1
		c0.9,0.2,1.8,0.2,2.7,0.2C13.9,90.7,15.7,90.2,17.3,89.4L17.3,89.4L17.3,89.4z"/>
	<path class="st1" d="M10,72.8c-0.7,0.2-1.3,0.3-2,0.5c-0.6,0.2-1.3,0.4-1.9,0.7c-1.2,0.5-2.3,1.3-3.3,2.2c-1,0.9-1.8,1.9-2.2,3.2
		C0.2,80.6,0,82,0.2,83.2h0.1c-0.2-2.5,1.2-5.1,3-6.8c0.9-0.8,2-1.6,3.1-2.2C7.6,73.6,8.8,73.3,10,72.8C10.1,72.8,10.1,72.8,10,72.8
		L10,72.8z"/>
	<path class="st1" d="M8.9,91.9c-0.6-0.1-1.3-0.2-1.9-0.5c-0.6-0.2-1.2-0.6-1.8-1c-1-0.8-1.9-1.7-2.6-2.8c-0.7-1-1.2-2.2-1.5-3.4
		c-0.2-0.6-0.3-1.2-0.3-1.8c0-0.6,0.1-1.3,0.1-1.9H0.8c-0.3,1.3-0.5,2.5-0.2,3.8c0.2,1.2,0.8,2.4,1.5,3.5s1.8,2,2.8,2.7
		C6.2,91.3,7.5,91.9,8.9,91.9C9,91.9,9,91.9,8.9,91.9L8.9,91.9z"/>
	<path class="st1" d="M20.8,88.9c-0.3,0.2-0.6,0.4-0.9,0.5c-0.3,0.2-0.7,0.4-1,0.6c-0.7,0.3-1.4,0.6-2.1,0.9c-1.3,0.6-2.8,1-4.2,1.2
		c-0.1,0-0.1,0.1,0,0.1c0.7,0,1.5,0,2.2-0.1c0.8-0.2,1.5-0.5,2.2-0.8c0.8-0.3,1.5-0.7,2.2-1.1c0.3-0.2,0.6-0.5,0.9-0.7
		C20.4,89.4,20.7,89.2,20.8,88.9C20.9,88.9,20.8,88.9,20.8,88.9L20.8,88.9z"/>
	<path class="st1" d="M16.6,71.9c-0.7,0.3-1.5,0.3-2.2,0.5c-0.9,0.2-1.7,0.4-2.5,0.6c-1.7,0.4-3.4,0.9-4.9,1.7
		c-0.1,0.1,0,0.1,0.1,0.1c0.8-0.2,1.6-0.5,2.4-0.8c0.8-0.3,1.7-0.5,2.5-0.7s1.7-0.4,2.5-0.7C15.2,72.4,16,72.2,16.6,71.9
		C16.7,71.9,16.6,71.9,16.6,71.9z"/>
	<path class="st1" d="M25.5,83.8c-2.2,1.9-4.5,3.6-6.6,5.5c-0.1,0.1,0.1,0.1,0.1,0.1c1.3-0.6,2.3-1.7,3.3-2.6
		C23.5,85.9,24.6,84.9,25.5,83.8C25.6,83.8,25.5,83.8,25.5,83.8L25.5,83.8z"/>
	<path class="st1" d="M37.7,71.2c-0.9,0.8-1.9,1.6-2.8,2.4c-0.9,0.8-1.7,1.7-2.5,2.6c-1.8,1.9-3.4,3.8-5,5.8c-0.1,0.1,0.1,0.1,0.1,0
		c1.8-1.8,3.4-3.7,5.1-5.5c0.8-0.9,1.6-1.8,2.5-2.6C36,73,36.9,72.1,37.7,71.2C37.8,71.2,37.7,71.2,37.7,71.2L37.7,71.2z"/>
	<path class="st1" d="M43.7,65.9c-2,1.3-4,2.6-5.9,4.1c-0.9,0.7-1.8,1.4-2.7,2.2c-0.8,0.7-1.7,1.5-2.3,2.4c-0.1,0.1,0.1,0.1,0.1,0
		C36.3,71.6,40,68.7,43.7,65.9C43.8,65.9,43.7,65.9,43.7,65.9L43.7,65.9z"/>
	<path class="st1" d="M43.3,63c-0.5,0.1-0.9,0.2-1.4,0.4s-1.1,0.3-1.6,0.5c-1,0.3-2.1,0.7-3.1,1.2c-1,0.4-2,0.8-2.9,1.2
		c-1.1,0.5-2.1,1-3.1,1.6c-0.1,0.1,0,0.2,0.1,0.1c1-0.3,2-0.7,3-1.1c0.9-0.5,1.9-0.8,2.9-1.3s2-0.9,3.1-1.3c0.5-0.2,1-0.3,1.4-0.5
		C42.2,63.6,42.8,63.3,43.3,63C43.4,63.1,43.4,63,43.3,63L43.3,63z"/>
	<path class="st1" d="M37.4,64.7c-0.5,0.2-1.1,0.3-1.7,0.5c-0.7,0.2-1.3,0.4-2,0.6c-1.3,0.4-2.7,0.9-4,1.3s-2.6,0.9-3.9,1.4
		s-2.5,1.1-3.8,1.7v0.1c1.3-0.5,2.6-0.9,3.9-1.4s2.7-1,4-1.5s2.6-0.9,3.9-1.4c0.6-0.2,1.3-0.5,1.9-0.7C36.3,65.2,36.9,65,37.4,64.7
		C37.5,64.7,37.4,64.7,37.4,64.7L37.4,64.7z"/>
	<path class="st1" d="M27.7,67.5c-0.3,0.1-0.6,0.2-0.9,0.3c-0.3,0.1-0.6,0.1-0.9,0.2c-0.7,0.1-1.4,0.3-2.1,0.5
		c-1.4,0.4-2.9,0.8-4.3,1.2c-2.8,0.8-5.6,1.5-8.3,2.6c-0.1,0,0,0.1,0,0.1c2.9-0.7,5.7-1.6,8.5-2.4c1.4-0.4,2.9-0.8,4.3-1.2
		c0.7-0.2,1.4-0.4,2.2-0.6C26.7,67.9,27.3,67.8,27.7,67.5C27.8,67.5,27.7,67.4,27.7,67.5L27.7,67.5z"/>
</g>
</svg>
