<?xml version="1.0" encoding="utf-8"?>
<!-- Generator: Adobe Illustrator 27.9.0, SVG Export Plug-In . SVG Version: 6.00 Build 0)  -->
<svg version="1.1" id="Laag_1" xmlns="http://www.w3.org/2000/svg" xmlns:xlink="http://www.w3.org/1999/xlink" x="0px" y="0px"
	 viewBox="0 0 335.5 296" style="enable-background:new 0 0 335.5 296;" xml:space="preserve">
<style type="text/css">
	.st0{fill:url(#SVGID_1_);}
	.st1{fill:url(#SVGID_00000060029684703545814970000007434257398105421724_);}
	.st2{opacity:0.7;fill:#FFFFFF;}
	.st3{fill:#737678;}
	.st4{fill:#A1A3A6;}
	.st5{opacity:0.4;fill:#A1A3A6;}
	.st6{fill:url(#SVGID_00000018230248053120971150000006379484881039835555_);}
	.st7{opacity:0.2;}
	.st8{fill:#764747;}
	.st9{fill:url(#SVGID_00000160153321550124955910000001160674194382492563_);}
	.st10{opacity:0.6;}
	.st11{fill:#E1CCCC;}
	.st12{fill:#AD7676;}
	.st13{fill:url(#SVGID_00000168115891624883208620000016707735270561311366_);}
	.st14{opacity:0.5;}
	.st15{fill:#311D1D;}
	.st16{fill:#452A2A;}
	.st17{fill:#9B5D5D;}
	.st18{fill:url(#SVGID_00000089540577636990642640000010033341907726931109_);}
	.st19{opacity:0.7;fill:#311D1D;enable-background:new    ;}
	.st20{opacity:0.7;fill:#190F0F;enable-background:new    ;}
	.st21{opacity:0.7;}
	.st22{fill:url(#SVGID_00000169528838304476967870000018070619353473708426_);}
	.st23{fill:#576065;}
	.st24{fill:#B3E4FA;}
	.st25{opacity:0.7;fill:#22292C;enable-background:new    ;}
	.st26{opacity:0.7;fill:#0F1619;enable-background:new    ;}
	.st27{fill:#22292C;}
</style>
<g>
	<g>
		
			<radialGradient id="SVGID_1_" cx="-123.913" cy="-2305.502" r="410.6199" gradientTransform="matrix(0.5785 1.400000e-03 -1.400000e-03 0.5785 213.635 1392.1294)" gradientUnits="userSpaceOnUse">
			<stop  offset="0" style="stop-color:#E3F3FC"/>
			<stop  offset="0.2199" style="stop-color:#AEB7BD"/>
			<stop  offset="0.6059" style="stop-color:#8CA4AF"/>
			<stop  offset="1" style="stop-color:#393B3D"/>
		</radialGradient>
		<path class="st0" d="M337.5,127.3c-0.2,70.3-57.3,127.1-127.5,126.9C139.7,254.1,82.9,197,83.1,126.7
			C83.3,56.5,140.4-0.4,210.6-0.2C280.9,0,337.7,57.1,337.5,127.3z"/>
		
			<radialGradient id="SVGID_00000173161151981512148160000016213176143988730558_" cx="-37.5872" cy="-2192.9353" r="314.5265" gradientTransform="matrix(0.5785 1.400000e-03 -1.400000e-03 0.5785 213.635 1392.1294)" gradientUnits="userSpaceOnUse">
			<stop  offset="0" style="stop-color:#E3F3FC"/>
			<stop  offset="0.3049" style="stop-color:#FFFFFF"/>
			<stop  offset="0.9808" style="stop-color:#67686B"/>
		</radialGradient>
		<path style="fill:url(#SVGID_00000173161151981512148160000016213176143988730558_);" d="M210.6-0.2
			C140.4-0.4,83.3,56.5,83.1,126.7C82.9,197,139.7,254.1,210,254.3c70.3,0.2,127.4-56.6,127.5-126.9C337.7,57.1,280.9,0,210.6-0.2z
			 M200.6,219.8c-58.1-0.1-105.2-47.4-105-105.5C95.7,56.1,143,9.1,201.1,9.2c58.1,0.1,105.2,47.4,105,105.5
			C306,172.9,258.7,220,200.6,219.8z"/>
		<path class="st2" d="M112.8,194c-17.1-27.2-23-51-24.1-69.2c0-0.1,0-0.1,0-0.2c-0.7-5.8-1-11.6-0.8-17.4c-3.4,19-3.6,49,15.5,82.2
			c32.2,55.9,92.5,64.9,122.9,59.8C226.2,249.2,152.5,257.3,112.8,194z"/>
	</g>
	<g>
		<path class="st3" d="M161.1,33.9c0.2-0.2,0.1-0.4-0.2-0.3c-3,1.7-7.6,2.4-11.1,1.3c-0.7-1-2-1.4-4.2-0.9c-0.4,0.1-0.7,0.2-1.1,0.3
			c-3.1,1-5.9,3.4-8.1,5.7c-2.5,2.5-5.6,6.7-7.3,10.5c-0.5,0.9-0.9,1.8-1.3,2.7c-0.7,1.6-1.8,4.7-1.1,6.7c0.1,2.1,1,4.2,1,6.4
			c0,2.7,0.6,5.5,0.1,8.2c-0.1,0.3,0.4,0.1,0.4-0.1c0.8-2.4,0.8-5,0.7-7.5c0-2.1-0.4-3.7-1-5.4c1.8,1.5,4.2,0.9,6.6-0.7
			c0.4,0.7,0.8,1.3,1.2,2.1c0.5,1.1,1.3,2.7,1.1,4c0,0.3,0.3,0.1,0.3-0.1c0.3-1.3-0.2-2.7-0.6-3.9c-0.2-0.8-0.5-2-1.1-2.7
			c0.1-0.1,0.3-0.2,0.4-0.3c0.2,0.3,0.5,0.6,0.6,0.9c0.4,0.6,0.6,1.2,0.9,1.8c0.1,0.2,0.5-0.1,0.5-0.3c-0.2-0.6-0.4-1.2-0.6-1.8
			c-0.1-0.4-0.3-0.9-0.6-1.2c4.3-3.6,8.4-9.2,9.6-11c0.5-0.7,1.1-1.7,1.7-2.8c0.2,0.1,0.5,0.2,0.7,0.3c0.7,0.2,1.2,0.5,1.9,0.6
			c0.2,0,0.5-0.4,0.2-0.4c-0.5-0.1-1-0.3-1.4-0.6c-0.2-0.1-0.4-0.2-0.6-0.3c-0.1-0.1-0.3-0.2-0.4-0.3c0.1-0.3,0.3-0.6,0.4-0.9
			c0.7,0.5,2,0.6,2.7,0.7c1.4,0.2,3.2,0.1,4.6-0.2c0.2-0.1,0.5-0.6,0.2-0.5c-2.1,0.4-5.2,0.1-7.1-0.9c0.3-0.8,0.6-1.7,0.9-2.5
			c0.1-0.2,0.3-0.3,0.3-0.5c0-0.2,0-0.4,0-0.6c0-0.1,0-0.1,0-0.2c0.1,0,0.3,0,0.4-0.1c0.4-0.1,0.9-0.2,1.3-0.3
			c0.1,0,0.3-0.3,0.1-0.3c-0.4,0.1-1.2,0.2-1.7,0.1c0.2-1.1,0.1-2.2-0.2-3C153.7,36.8,158.5,35.9,161.1,33.9z M137,44.6
			c-0.4,0.4-1,1.2-1.7,2.1c-1.7,2-3,4.3-3.9,6.7c-0.7,1.7-1.2,3.3-1.1,4.6c0,1.1,0.1,2.2,0.7,2.7c-0.7,0.1-1.3,0.1-1.9-0.2
			c-3.8-1.7-0.2-7.6,1.1-9.8c3.1-5,6.7-10.6,11.6-14c1.3-0.9,4-2.2,5.7-1.7c0.4,0.1,0.7,0.3,1,0.5c0.8,0.6,1,1.5,1,2.6
			C147.3,36.8,138.1,43.4,137,44.6z"/>
	</g>
	<g>
		<path class="st4" d="M203.4,231.4c-0.3,0-0.4,0.3-0.1,0.4c4,0.8,8.7,3.7,10.9,7.5c-0.1,1.4,0.8,2.8,3.1,4.1
			c0.4,0.2,0.8,0.4,1.2,0.6c3.6,1.5,7.9,1.5,11.6,1.2c4.2-0.4,10.1-1.6,14.6-3.8c1.1-0.4,2.2-0.9,3.3-1.4c1.9-0.9,5.3-2.8,6.1-5.2
			c1.6-1.9,2.4-4.5,4-6.5c2-2.4,3.7-5.4,6.2-7.4c0.3-0.2-0.2-0.4-0.4-0.3c-2.6,1.6-4.5,3.9-6.4,6.2c-1.6,1.9-2.4,3.6-3.3,5.6
			c-0.5-2.7-3.1-4-6.5-4.5c0.1-0.9,0.3-1.8,0.5-2.7c0.4-1.4,0.9-3.4,2.1-4.4c0.2-0.2-0.2-0.3-0.4-0.2c-1.3,0.9-1.9,2.5-2.5,3.9
			c-0.4,0.9-1.1,2.2-1.1,3.3c-0.2,0-0.4,0-0.7,0c0.1-0.4,0.1-0.9,0.1-1.3c0.1-0.8,0.4-1.6,0.6-2.3c0.1-0.3-0.5-0.3-0.6-0.1
			c-0.3,0.7-0.6,1.4-0.9,2.1c-0.2,0.4-0.4,1-0.4,1.6c-6.6-0.1-14.6,1.8-17.1,2.4c-1,0.2-2.3,0.6-3.7,1.2c-0.1-0.3-0.2-0.5-0.4-0.8
			c-0.5-0.7-0.6-1.4-1.3-2c-0.2-0.1-0.7,0-0.5,0.2c0.4,0.5,0.6,1,0.8,1.6c0.1,0.3,0.2,0.5,0.3,0.7c0.1,0.2,0.1,0.4,0.1,0.5
			c-0.3,0.1-0.7,0.3-1,0.5c-0.2-1-1.3-2.1-1.9-2.8c-1.1-1.2-2.8-2.6-4.3-3.3c-0.2-0.1-0.9,0.1-0.5,0.3c2.2,1.3,4.7,3.9,5.7,6.3
			c-0.9,0.5-1.9,1-2.7,1.6c-0.2,0-0.5,0.1-0.6,0.2c-0.2,0.2-0.3,0.4-0.4,0.5c0,0-0.1,0.1-0.1,0.1c-0.1-0.1-0.3-0.2-0.4-0.2
			c-0.5-0.2-0.9-0.5-1.4-0.7c-0.1-0.1-0.5,0.1-0.3,0.2c0.4,0.3,1.2,0.7,1.6,1.2c-1,0.9-1.8,1.8-2.2,2.8
			C212.3,234.5,207.4,231.7,203.4,231.4z M233.2,240.5c0.6-0.1,1.8-0.3,3.1-0.6c3-0.4,5.9-1.5,8.7-3c2-1,3.6-2.1,4.5-3.3
			c0.9-1,1.6-2,1.4-3c0.7,0.4,1.2,1,1.6,1.7c2.1,4.4-5.7,7-8.5,7.9c-6.6,2.1-14.2,4.4-21.2,3.5c-1.9-0.2-5.3-1.1-6.4-2.9
			c-0.2-0.4-0.4-0.8-0.5-1.3c-0.2-1.2,0.2-2.2,1.1-3.1C218,239.5,231.3,240.7,233.2,240.5z"/>
	</g>
	<path class="st4" d="M280.2,74.4c-2.9-5.2-9.9-3.1-12.9,0.8c-0.8,1.1-1.3,2.6-1.2,4.2c-1.3,4.8,4,7.8,8.2,6.1
		C277.8,84,282.5,78.5,280.2,74.4z"/>
	<path class="st4" d="M317.7,82.2c-0.1,0-0.3,0-0.4,0c-0.9-0.5-2.3,0.4-3,1.2c-1.5,1.5-1.9,3.9-0.5,5.6c1.7,2,4.7,0.5,5.8-1.3
		C320.7,85.8,320.7,82.1,317.7,82.2z"/>
	<path class="st4" d="M281.7,167c-0.1,0-0.3,0-0.4,0c-0.9-0.5-2.3,0.4-3,1.2c-1.5,1.5-1.9,3.9-0.5,5.6c1.7,2,4.7,0.5,5.8-1.3
		C284.7,170.6,284.7,166.9,281.7,167z"/>
	<path class="st4" d="M106,89.6c-0.1,0-0.3,0-0.4,0c-0.9-0.5-2.3,0.4-3,1.2c-1.5,1.5-1.9,3.9-0.5,5.6c1.7,2,4.7,0.5,5.8-1.3
		C109,93.2,109,89.5,106,89.6z"/>
	<path class="st4" d="M103.6,114.5c-0.1,0-0.2,0-0.3,0c-0.6-0.3-1.4,0.3-1.9,0.7c-0.9,0.9-1.1,2.4-0.3,3.4c1,1.2,2.9,0.3,3.5-0.8
		C105.4,116.7,105.4,114.5,103.6,114.5z"/>
	<path class="st4" d="M114,67c-0.1,0-0.2,0-0.3,0c-0.6-0.3-1.4,0.3-1.9,0.7c-0.9,0.9-1.1,2.4-0.3,3.4c1,1.2,2.9,0.3,3.5-0.8
		C115.8,69.2,115.8,66.9,114,67z"/>
	<path class="st4" d="M232.6,15.4c-0.1,0-0.2,0-0.3,0c-0.6-0.3-1.4,0.3-1.9,0.7c-0.9,0.9-1.1,2.4-0.3,3.4c1,1.2,2.9,0.3,3.5-0.8
		C234.4,17.7,234.4,15.4,232.6,15.4z"/>
	<path class="st4" d="M299.2,52.2c-0.1,0-0.2,0-0.3,0c-0.6-0.3-1.4,0.3-1.9,0.7c-0.9,0.9-1.1,2.4-0.3,3.4c1,1.2,2.9,0.3,3.5-0.8
		C301,54.4,301,52.1,299.2,52.2z"/>
	<path class="st4" d="M301.4,70.4c-0.1,0-0.2,0-0.3,0c-0.6-0.3-1.4,0.3-1.9,0.7c-0.9,0.9-1.1,2.4-0.3,3.4c1,1.2,2.9,0.3,3.5-0.8
		C303.2,72.6,303.2,70.4,301.4,70.4z"/>
	<path class="st4" d="M189.3,25.8c-0.1,0-0.3,0-0.4,0c-0.9-0.5-2.3,0.4-3,1.2c-1.5,1.5-1.9,3.9-0.5,5.6c1.7,2,4.7,0.5,5.8-1.3
		C192.3,29.4,192.3,25.7,189.3,25.8z"/>
	<path class="st4" d="M256.6,128.2c0,0,0-0.1-0.1-0.1c0,0-0.1,0-0.1,0c-0.1-0.1-0.2-0.1-0.3-0.1c-0.1,0-0.1,0-0.2,0c0,0,0,0,0,0
		c-0.6-0.1-1,0.2-1.4,0.6c-0.5,0.4-0.8,1-0.6,1.5c0,0,0,0,0,0c0,0.5,0,1,0.4,1.3c0.6,0.5,1.5,0.1,2-0.5c0.4-0.5,0.7-1.2,0.7-1.9
		C256.9,128.7,256.8,128.4,256.6,128.2z"/>
	<path class="st4" d="M191.4,188.9c-1.1,1.1-2.7,1.8-4.1,2.6c-0.5,0.3-1.2,0.6-1.8,0.9c-0.4-1.1-0.9-2.2-1.5-3.3
		c0.6-0.5,1-1.1,1.4-1.6c0.7-1.2,1.9-1.9,2.4-3.2c0.1-0.4-0.4-0.2-0.5,0c-0.6,1-1.6,1.7-2.4,2.5c-0.4,0.3-0.6,0.8-1,1.1
		c-0.1,0.1-0.2,0.2-0.4,0.3c-2.8-4.7-7.2-8.6-12.3-10.9c-0.3-0.1-0.6-0.2-0.9-0.4c0.2-0.4,0.4-0.8,0.5-1.1c0.4-0.8,0.7-1.7,0.8-2.7
		c0-0.3-0.4,0-0.4,0.1c-0.2,1-0.7,1.9-1.2,2.7c-0.1,0.2-0.3,0.4-0.5,0.7c-4.5-1.5-9.2-1.6-13.2-0.3c0-0.9-0.7-1.7-1.1-2.4
		c-1-1.6-1.6-3.5-2.6-5.1c-0.1-0.2-0.5,0.1-0.4,0.3c0.7,1.5,1.3,3.1,1.8,4.7c0.2,0.7,0.6,1.3,0.8,2c0.1,0.3,0.2,0.6,0.3,1
		c-0.9,0.4-1.8,0.9-2.6,1.5c-1.3-2.1-2.7-4.2-4.4-5.9c-0.2-0.2-0.6,0.2-0.5,0.4c1.5,2,2.4,4.4,3.6,6.5c-2.2,2-3.7,4.7-4,8.1
		c-0.5,1.9-0.6,3.9-0.5,5.8c-0.1,0-0.2,0-0.3,0c-0.8,0-1.6,0.1-2.4-0.2c-0.3-0.1-0.8,0.4-0.5,0.6c0.9,0.6,2.1,0.8,3.3,0.7
		c0.4,2.6,1.3,5.1,2.8,7.4c2.7,4.3,7,8.7,12,11.4c-0.1,0.3-0.2,0.5-0.2,0.8c-0.1,0.2-0.1,0.5-0.2,0.7c0,0.1-0.1,0.2-0.1,0.3
		c-0.1,0.2-0.2,0.2,0.1,0.1c-0.2,0.1-0.5,0.6-0.1,0.5c0.4-0.1,0.7-0.7,0.9-1c0.2-0.3,0.4-0.6,0.5-0.9c3.5,1.8,7.3,2.7,10.9,2.2
		c0,0.7,0.2,1.4,0.3,2c0.3,1.1,0.7,2.2,0.8,3.3c0,0,0,0,0,0.1c0,0.1,0,0.1,0.1,0.2c0.1,0.3,0.6-0.1,0.6-0.2c0.3-1.2,0.3-2.2,0.2-3.4
		c0-0.7-0.3-1.5-0.2-2.3c1.9-0.6,3.8-1.6,5.5-3.2c0.1,0.4,0.3,0.7,0.6,1c1.1,1.4,2.1,2.9,3.1,4.3c0.2,0.3,0.7-0.2,0.6-0.5
		c-0.5-1.2-1-2.4-1.6-3.6c-0.4-0.9-1-1.5-1.3-2.4c0-0.1-0.1-0.2-0.1-0.2c0.1-0.1,0.2-0.2,0.3-0.4c0.1-0.1,0.2-0.2,0.3-0.4
		c0.2,0.3,0.5,0.5,0.7,0.8c0.5,0.4,1,0.8,1.5,1.1c0.2,0.1,0.7-0.3,0.5-0.5c-0.4-0.4-0.8-0.9-1.1-1.3c-0.2-0.3-0.4-0.8-0.8-1.1
		c3.4-4.9,3.9-10.4,2.5-15.5c0.1-0.1,0.3-0.2,0.4-0.3c0.6-0.4,1.2-0.7,1.7-1.1c1.3-1,2.7-1.8,3.7-3.1
		C192.1,188.9,191.7,188.7,191.4,188.9z M183.5,204.6c-3.7,14.2-20.4,8.4-27.7,1.7c-3.8-3.4-6.4-7.9-7.2-12.4c0.1-0.2,0.2-0.4,0-0.5
		c0,0,0,0-0.1,0c-1.2-7.2,2-14.1,12.1-15.7C172.2,178.3,187,190.8,183.5,204.6z"/>
	<path class="st4" d="M294.6,192.1c0.4-0.5,0.8-1,1.2-1.5c0.2-0.2-0.1-0.3-0.2-0.1c-0.4,0.4-0.8,0.9-1.2,1.3
		c-0.4,0.4-0.8,0.8-1.1,1.2c-0.2-0.2-0.4-0.4-0.6-0.6c-1-0.8-2.3-0.9-3.6-0.7c0-0.6,0-1.1-0.2-1.7c-0.1-0.2-0.3,0-0.3,0.2
		c0.2,0.5,0.1,1,0.1,1.5c-0.9,0.2-1.7,0.5-2.5,0.8c-0.1-0.1-0.1-0.3-0.2-0.4c-0.1-0.3-0.2-0.7-0.2-1.1c0-0.2-0.3,0-0.3,0.1
		c0,0.5,0.1,1.1,0.3,1.6c-0.1,0-0.1,0.1-0.2,0.1c-0.2-0.3-0.3-0.6-0.5-0.9c-0.1-0.2-0.4,0-0.3,0.2c0.1,0.3,0.3,0.6,0.4,0.9
		c-0.7,0.4-1.3,0.9-1.9,1.5c-0.8-0.7-1.5-1.4-2.1-2.2c-0.1-0.1-0.3,0.1-0.2,0.2c0.4,0.6,1,1.1,1.4,1.7c0.2,0.2,0.4,0.5,0.6,0.6
		c-1.1,1.1-2,2.5-2.7,3.9c-0.4-0.2-0.8-0.3-1.2-0.5c-0.6-0.3-1.2-0.5-1.9-0.8c-0.2-0.1-0.5,0.2-0.3,0.3c0.6,0.3,1.1,0.7,1.7,1
		c0.4,0.3,0.8,0.6,1.3,0.7c-0.5,1.2-0.8,2.3-0.9,3.3c-0.1,0.4-0.1,0.7,0,1.1c-0.3,0.1-0.6,0.2-0.8,0.1c-0.2,0-0.5,0.2-0.3,0.3
		c0.3,0.1,0.7,0.1,1,0.1c0.1,0,0.2,0,0.2,0c0.1,0.2,0.1,0.5,0.2,0.7c0,0,0,0,0,0c-0.5,0.2-1,0.5-1.5,0.5c-0.2,0-0.4,0.3-0.2,0.3
		c0.5,0.1,1,0,1.4-0.2c0.2-0.1,0.3-0.1,0.5-0.2c0.5,1,1.4,1.7,2.5,1.9c0.3,0,0.7,0.1,1,0.1c-0.3,0.5-0.9,1.8-0.4,1.9
		c0.1,0,0.2,0,0.2-0.1c0-0.1,0-0.3,0-0.4c0.1-0.2,0.2-0.4,0.3-0.6c0.1-0.3,0.3-0.5,0.4-0.8c1.1-0.1,2.2-0.4,3.2-0.9
		c-0.2,0.7-0.3,1.6,0.2,2.1c0.2,0.2,0.5-0.2,0.4-0.4c-0.2-0.4-0.2-0.8-0.1-1.2c0.1-0.3,0.1-0.6,0-0.8c0.6-0.3,1.2-0.7,1.7-1.2
		c1.1-0.9,2.4-2.3,3.4-3.9c0.1,0.1,0.3,0.1,0.4,0.2c0.4,0.2,0.8,0.6,1.3,0.8c0.2,0,0.5-0.2,0.3-0.3c-0.4-0.2-0.6-0.7-1-1
		c-0.2-0.1-0.3-0.3-0.5-0.4c0.6-1,1-2,1.3-3c0.3,0,0.8-0.2,1-0.2c0.1,0,0.4-0.4,0.2-0.4c-0.2,0-0.4,0-0.6,0.1c-0.2,0-0.3,0-0.5,0
		c0-0.2,0.1-0.3,0.1-0.5c0.3,0,0.6-0.1,1-0.2c0.1,0,0.4-0.4,0.2-0.4c-0.4,0-0.7,0-1.1,0.1c0-1-0.2-2-0.8-2.8
		C293.9,193,294.3,192.5,294.6,192.1z M288.8,203.8c-2.7,2.4-8.3,3.8-8.2-1.4c0-1.1,0.3-2.3,0.9-3.6c1.9-3.1,6.4-8.1,10.3-4.7
		C294.5,196.6,290.7,202.2,288.8,203.8z"/>
	<path class="st4" d="M298.5,95.3c0.1-0.4,0.1-0.8,0.2-1.2c0-0.2-0.1-0.1-0.2,0c-0.1,0.4-0.2,0.7-0.3,1.1c-0.1,0.3-0.2,0.7-0.2,1
		c-0.2-0.1-0.3-0.1-0.5-0.1c-0.8-0.1-1.6,0.2-2.2,0.7c-0.2-0.3-0.3-0.6-0.6-0.9c-0.1-0.1-0.2,0.1-0.1,0.2c0.3,0.2,0.4,0.5,0.5,0.8
		c-0.4,0.4-0.8,0.8-1.1,1.2c-0.1-0.1-0.2-0.1-0.2-0.2c-0.2-0.2-0.3-0.3-0.5-0.5c-0.1-0.1-0.2,0.1-0.1,0.2c0.2,0.3,0.4,0.6,0.7,0.8
		c0,0,0,0.1-0.1,0.1c-0.2-0.1-0.4-0.2-0.6-0.4c-0.1-0.1-0.2,0.1-0.1,0.2c0.2,0.1,0.4,0.3,0.5,0.4c-0.3,0.5-0.4,1-0.6,1.5
		c-0.6-0.1-1.3-0.3-1.9-0.5c-0.1,0-0.1,0.2-0.1,0.2c0.4,0.2,0.9,0.3,1.3,0.5c0.2,0.1,0.3,0.1,0.5,0.2c-0.3,1-0.3,2-0.2,3.1
		c-0.3,0-0.5,0.1-0.8,0.1c-0.4,0-0.9,0.1-1.3,0.2c-0.1,0-0.2,0.3,0,0.3c0.4,0,0.8,0,1.3,0c0.3,0,0.6,0,0.9,0
		c0.1,0.8,0.3,1.5,0.5,2.1c0.1,0.2,0.2,0.4,0.3,0.6c-0.1,0.1-0.3,0.3-0.4,0.3c-0.1,0-0.2,0.3,0,0.3c0.2,0,0.4-0.2,0.6-0.3
		c0,0,0.1-0.1,0.1-0.1c0.1,0.1,0.2,0.2,0.3,0.3c0,0,0,0,0,0c-0.2,0.3-0.4,0.6-0.7,0.7c-0.1,0-0.1,0.3,0,0.2c0.3-0.1,0.5-0.3,0.7-0.6
		c0.1-0.1,0.2-0.2,0.2-0.3c0.6,0.4,1.3,0.5,2,0.2c0.2-0.1,0.4-0.2,0.6-0.3c0,0.4,0.1,1.3,0.4,1.2c0.1,0,0.1-0.1,0.1-0.2
		c0-0.1-0.1-0.1-0.1-0.2c0-0.1,0-0.3,0-0.4c0-0.2,0-0.4,0-0.5c0.6-0.4,1.1-0.9,1.5-1.5c0.1,0.5,0.3,1,0.8,1.1
		c0.1,0.1,0.2-0.3,0.1-0.3c-0.3-0.1-0.4-0.4-0.5-0.6c-0.1-0.2-0.1-0.4-0.2-0.5c0.2-0.4,0.4-0.8,0.6-1.2c0.3-0.8,0.6-2,0.6-3.3
		c0.1,0,0.2,0,0.3,0c0.3,0,0.7,0.1,1,0c0.1,0,0.2-0.3,0-0.3c-0.3,0-0.6-0.2-0.9-0.2c-0.1,0-0.3,0-0.4,0c0-0.7-0.1-1.4-0.3-2.1
		c0.2-0.1,0.4-0.3,0.5-0.4c0.1-0.1,0.1-0.3,0-0.3c-0.1,0.1-0.2,0.1-0.3,0.2c-0.1,0.1-0.2,0.1-0.3,0.1c0-0.1-0.1-0.2-0.1-0.3
		c0.2-0.1,0.3-0.3,0.5-0.4c0.1-0.1,0.1-0.3,0-0.3c-0.2,0.1-0.4,0.2-0.6,0.4c-0.3-0.6-0.8-1-1.4-1.3C298.4,96,298.5,95.6,298.5,95.3z
		 M299.1,103.7c-0.7,2.2-3.4,4.8-5,1.8c-0.3-0.6-0.6-1.4-0.7-2.3c0.1-2.4,1-6.6,4.2-5.9C299.9,97.8,299.6,102.2,299.1,103.7z"/>
	<path class="st4" d="M323.2,134.9c0.3-0.8,0.5-1.5,0.8-2.3c0.1-0.3-0.2-0.3-0.3,0c-0.3,0.7-0.5,1.4-0.8,2.1
		c-0.3,0.6-0.6,1.2-0.8,1.9c-0.3-0.1-0.6-0.3-0.9-0.4c-1.5-0.5-3.1,0-4.5,0.8c-0.2-0.7-0.5-1.3-0.9-1.8c-0.1-0.2-0.4,0.2-0.3,0.3
		c0.4,0.5,0.6,1.1,0.8,1.7c-0.9,0.6-1.8,1.3-2.5,2c-0.1-0.1-0.3-0.3-0.4-0.4c-0.3-0.3-0.5-0.7-0.7-1.1c-0.1-0.2-0.4,0.1-0.3,0.3
		c0.2,0.6,0.6,1.2,1.1,1.7c0,0.1-0.1,0.1-0.1,0.2c-0.3-0.3-0.7-0.6-1-0.9c-0.1-0.2-0.4,0.2-0.3,0.3c0.3,0.3,0.6,0.6,0.9,0.9
		c-0.6,0.8-1.1,1.7-1.5,2.6c-1.2-0.4-2.4-0.9-3.4-1.6c-0.1-0.1-0.3,0.3-0.2,0.4c0.8,0.5,1.6,0.9,2.4,1.3c0.3,0.2,0.6,0.4,0.9,0.5
		c-0.8,1.7-1.2,3.8-1.4,5.7c-0.5-0.1-1.1,0-1.6-0.1c-0.8,0-1.7-0.1-2.5-0.1c-0.2,0-0.4,0.5-0.2,0.5c0.8,0.1,1.6,0.3,2.4,0.4
		c0.6,0.1,1.2,0.3,1.8,0.3c0,1.5,0.1,3,0.4,4.2c0.1,0.5,0.3,0.9,0.5,1.3c-0.3,0.2-0.6,0.5-0.9,0.5c-0.2,0-0.4,0.5-0.2,0.5
		c0.4,0,0.8-0.2,1.1-0.4c0.1,0,0.2-0.1,0.3-0.1c0.2,0.3,0.3,0.5,0.5,0.7c0,0,0,0,0,0c-0.5,0.5-0.9,1-1.6,1.2
		c-0.2,0.1-0.3,0.5-0.1,0.5c0.6-0.1,1.1-0.5,1.6-0.9c0.2-0.1,0.3-0.3,0.5-0.4c1,0.9,2.3,1.4,3.8,1c0.4-0.1,0.8-0.2,1.2-0.4
		c-0.1,0.8-0.2,2.4,0.4,2.4c0.1,0,0.2-0.2,0.2-0.3c0-0.2-0.1-0.3-0.1-0.5c0-0.3,0-0.6,0-0.9c0-0.4,0.1-0.7,0.1-1.1
		c1.2-0.6,2.3-1.5,3.2-2.5c0.1,0.9,0.4,1.9,1.2,2.4c0.3,0.1,0.5-0.4,0.3-0.6c-0.4-0.3-0.6-0.8-0.7-1.4c-0.1-0.3-0.1-0.7-0.3-1
		c0.5-0.7,1-1.4,1.5-2.1c0.8-1.5,1.7-3.7,2.2-6.1c0.2,0,0.4,0,0.5,0.1c0.6,0.1,1.3,0.4,1.9,0.3c0.2,0,0.4-0.5,0.2-0.5
		c-0.6-0.1-1-0.5-1.6-0.6c-0.3-0.1-0.5-0.1-0.8-0.2c0.2-1.4,0.3-2.8,0.1-4c0.4-0.1,0.8-0.5,1.1-0.7c0.2-0.1,0.3-0.6,0-0.5
		c-0.2,0.1-0.4,0.2-0.6,0.3c-0.2,0.1-0.4,0.1-0.6,0.2c0-0.2-0.1-0.4-0.1-0.6c0.4-0.2,0.7-0.5,1-0.6c0.1-0.1,0.3-0.6,0-0.5
		c-0.4,0.1-0.8,0.3-1.2,0.6c-0.4-1.2-1.1-2.2-2.2-2.9C322.7,136.2,322.9,135.5,323.2,134.9z M321.7,151c-2,3.9-7.9,8.1-10.2,2
		c-0.5-1.2-0.7-2.8-0.6-4.5c0.8-4.5,3.8-12.3,9.8-10.1C325.1,140,323.1,148.3,321.7,151z"/>
	<path class="st4" d="M129.2,146.9c-2.1-4.8-8.1-4.8-11.8-2.1c-1.7,1.2-2.8,3-3.4,4.8c-0.4,0.9-0.7,1.8-0.8,2.8
		c-0.4,2.9,1.2,5.6,3.6,7.1c2.2,1.7,5.2,2.4,7.6,0.9c0.4-0.3,0.9-0.6,1.2-1C129.5,156.6,131.2,151.5,129.2,146.9z"/>
	<path class="st4" d="M135.4,161.9c-0.6-0.1-1,0.1-1.4,0.4c-0.3,0.1-0.6,0.3-0.9,0.7c-0.2,0.3-0.2,0.7-0.1,1.1c0,0,0,0.1,0,0.1
		c-0.1,0.5,0.1,0.9,0.3,1.3c0.3,0.4,0.7,0.5,1.2,0.4c0.2,0.1,0.4,0.2,0.6,0.2c1.1,0.1,1.9-1,2-2C137.2,163,136.4,162,135.4,161.9z"
		/>
	<path class="st4" d="M158.4,141.8c-1.1-2-3.5-1.8-5.2-0.8c-1.2,0.4-2.4,1.1-3,2c-1.6,2.2-1.4,5.5,0.5,7.5c0.2,0.2,0.4,0.4,0.6,0.5
		c0.4,0.3,0.8,0.5,1.3,0.6c1.8,0.4,3.9-0.5,5.1-2C159.3,147.4,159.7,144.2,158.4,141.8z"/>
	<path class="st4" d="M130.9,115.1c-1.5-0.3-2.7,0.3-3.5,1.4c-1.9,1.5-2.8,4.2-2.2,6.7c0.5,2,2.3,3.8,4.3,4.4
		c0.2,0.1,0.3,0.2,0.5,0.2c4,1.6,8.2-1.9,8.1-6.2C138,117.3,135.1,114.8,130.9,115.1z"/>
	<path class="st5" d="M218.8,193.5c-1.6-3.6-6.1-3.7-9-1.6c-1.3,0.9-2.1,2.2-2.6,3.7c-0.3,0.7-0.5,1.4-0.6,2.1
		c-0.3,2.2,0.9,4.2,2.7,5.4c1.6,1.3,3.9,1.8,5.8,0.7c0.3-0.2,0.6-0.5,0.9-0.8C219,200.9,220.3,197,218.8,193.5z"/>
	<path class="st5" d="M241,189.6c-0.9-1.5-2.6-1.4-4-0.6c-0.9,0.3-1.8,0.8-2.3,1.5c-1.2,1.7-1.1,4.2,0.4,5.7
		c0.2,0.2,0.3,0.3,0.5,0.4c0.3,0.2,0.6,0.4,1,0.4c1.4,0.3,3-0.4,3.9-1.5C241.7,193.9,242,191.4,241,189.6z"/>
	<path class="st5" d="M220.1,169.4c-1.1-0.2-2,0.2-2.7,1c-1.4,1.2-2.1,3.2-1.6,5.1c0.4,1.6,1.7,2.9,3.3,3.4c0.1,0.1,0.2,0.1,0.4,0.2
		c3.1,1.2,6.2-1.5,6.1-4.7C225.5,171,223.3,169.1,220.1,169.4z"/>
	<path class="st4" d="M283.9,45c-0.1-0.1-0.2-0.1-0.2-0.2c-0.2-0.4-0.5-0.8-0.8-1.2c-3.3-3.7-8.5-1.9-11.1,1.5
		c-2.5,3.2-2.2,7.9,1.2,10.2c3,2,7.2,1,9.8-1.1C285.5,52.1,286.4,47.7,283.9,45z"/>
</g>
<g>
	
		<radialGradient id="SVGID_00000098187802469122829160000000393438289642085797_" cx="-993.1031" cy="-1.756" r="1" gradientTransform="matrix(114.0335 -59.3355 58.7858 112.9769 113331.375 -58553.8164)" gradientUnits="userSpaceOnUse">
		<stop  offset="0" style="stop-color:#F3ECEC"/>
		<stop  offset="0.22" style="stop-color:#C8A3A3"/>
		<stop  offset="0.61" style="stop-color:#B68585"/>
		<stop  offset="1" style="stop-color:#4A2C2C"/>
	</radialGradient>
	<path style="fill:url(#SVGID_00000098187802469122829160000000393438289642085797_);" d="M0.9,268.4c-0.3,0.8-0.6,1.5-0.9,2.3
		c-0.3,1.7-0.5,3.4-0.2,5c0.5,2.7,2,4.8,4,6.5c2.1,1.8,4.3,3.4,5.9,5.7c1.6,2.3,3,5.2,5.6,6.7c4.1,2.4,8.8,1.3,12.8-0.9
		c3.7-2.1,6.7-4.9,10-7.5c3.6-2.8,7.5-5.1,11.7-7c4.5-2,9.1-3.6,13.8-5c4.9-1.5,9.9-2.7,14.5-5c4.8-2.4,8.8-5.8,11.1-10.7
		c2.2-4.6,3.4-9.5,4.8-14.3c0.5-1.9,1.3-3.7,1.5-5.7c0-1-0.1-2-0.2-2.9c-0.1-1.1-0.3-2.1-0.5-3.1c-0.2-0.6-0.5-1.3-0.8-1.9
		c-1.2-2.5-2.6-4.8-3.7-7.3c-0.9-1.3-2-2.5-3.1-3.8c-2.4-2.7-5.1-5.3-7.4-8c-5.6-6.3-8.6-9.4-17.6-8.3c-4.6,0.6-9.3,0.6-14,0.1
		c-4.1-0.4-8.2-1.5-12.3-0.7c-3.9,0.9-7.8,3.4-11.1,5.5c-3.6,2.3-7,5-10.2,7.9c-2.8,2.6-5.4,5.5-7.5,8.8c-2.3,3.4-3.5,7.2-4.7,11.1
		C0.8,241.2,3.1,246,4.2,251C5.7,257.2,3.3,262.8,0.9,268.4z"/>
	<g class="st7">
		<path class="st8" d="M90.4,223.3c-0.9-1.3-2-2.5-3.1-3.8c-2.4-2.7-5.1-5.3-7.4-8c-5.6-6.3-8.6-9.4-17.6-8.3
			c-4.6,0.6-9.3,0.6-14,0.1c-4.1-0.4-8.2-1.5-12.3-0.7c-3.9,0.9-7.8,3.4-11.1,5.5c-3.6,2.3-7,5-10.2,7.9c-2.8,2.6-5.4,5.5-7.5,8.8
			c-2.3,3.4-3.5,7.2-4.7,11.1C0.9,241.2,3.2,246,4.3,251c1.3,6.1-1.1,11.6-3.4,17.2c-0.3,0.8-0.6,1.5-0.9,2.3
			c-0.3,1.7-0.5,3.4-0.2,5c0.5,2.7,2,4.8,4,6.5c2.1,1.8,4.3,3.4,5.9,5.7c1.6,2.3,3,5.2,5.6,6.7c4.1,2.4,8.8,1.2,12.8-0.9
			c3.7-2.1,6.7-4.9,10-7.5c3.6-2.8,7.5-5.1,11.7-7c4.5-2,9.1-3.6,13.8-5c4.9-1.5,9.9-2.7,14.5-5c4.8-2.4,8.8-5.8,11.1-10.7
			c2.2-4.6,3.4-9.5,4.8-14.3c0.5-1.9,1.3-3.7,1.5-5.7c0-1-0.1-2-0.2-2.9c-0.1-1.1-0.3-2.1-0.5-3.1c-0.2-0.6-0.5-1.3-0.8-1.9
			C93,228.1,91.6,225.8,90.4,223.3z M81.5,219.8c-0.6,0.4-2.9,0.9-2.5,2.1c0.2,0.7,0.6,1.3,0.9,2c0.9,1.7,1.5,3.6,2.2,5.4
			c0.1,0.3-0.2,0.6-0.5,0.5c-1.2-0.6-2.2-1.3-3.4-2c0.7,0.9,1.6,1.7,2.2,2.7c0.1,0.1,0,0.4-0.1,0.5c-2.1,0.9-4.6,0.9-6.5,2.2
			c-1.5,1,1.5,4,2,5c1.7,3.3-1.2,6.5-1.1,10c0,0.4-0.5,0.5-0.7,0.2c-1.4-2.9-1.5-6-1.3-9.2c-1.6,1.7-1.9,4.3-2.5,6.4
			c-0.1,0.3-0.4,0.3-0.6,0.1c-0.9-0.8-1.5-1.7-2.1-2.8c0,1.4,0.1,2.8-0.1,4.1c0,0.3-0.3,0.4-0.5,0.3c-0.8-0.4-1.4-1-2-1.6
			c-0.3,0.9-0.4,1.8-0.8,2.6c-0.3,0.8,0.4,1.2,0.8,1.8c0.6,1-0.1,2-0.6,2.9c-0.7,1.3-1.3,2.1-2.9,2.2c-0.7,0.1-1.5-0.1-2.2-0.4
			c0.1,0.1,0.2,0.3,0.2,0.4c0.1,0.2,0,0.5-0.2,0.5c-0.3,0-0.6,0.1-0.8,0.2c0.8,1.1,1.8,2.1,2.5,3.3c0.1,0.2,0,0.4-0.1,0.5
			c-1.3,0.6-2.7,0.9-4.1,1.4c2,0,4.6,0.2,4.8,2c0.1,0.8-0.2,1.5-0.2,2.3c0,0.7,0.2,1.4,0,2.1c-0.3,1.2-1.4,1.9-2.5,2.3
			c-3.7,1.4-7.9,2.2-11.7,2.9c-2.3,0.4-4.6,0.8-6.9,1.4c-0.8,0.2-1.9,0.7-2.7,0.1c-1.2-1-1.4-2.1-1.8-3.5c-0.3-0.8-0.6-2.1-1.8-1.8
			c-0.3,0.1-0.7,0.2-1,0.2c-0.5,0-1,0-1.6-0.2c-2-0.6,0.2-3.3-0.2-4.4c-0.6-1.7-3.6-1.3-4.6-2.8c-0.2-0.4-0.4-0.6-0.5-1
			c-0.2-0.6-0.2-1.3-0.5-1c-0.5,0.3-1.1,0.6-1.6,1c-0.6,0.3-1.8,1.3-2.5,1.1c-0.8-0.3-1-1.1-1.4-1.7c-0.5,0.2-1,0.5-1.5,0.9
			c-2.8,2.3-4.2,5-4.5,8.6c-0.1,1.7-0.6,2.4-1.9,3.2c1.2,1.3,1.9,3.1,3.4,4.1c0.1,0.1,0.2,0.2,0.1,0.4c-0.2,0.6-0.5,1.2-0.7,1.9
			c-0.1,0.5-0.1,0.8,0.1,1c0.9,0.3,2.4-0.2,3.3-0.4c0.2,0,0.4,0,0.6,0c0.4-0.1,0.9-0.2,1.4-0.2c0.3-0.2,0.6-0.5,0.9-0.8
			c0.2-0.1,0.5-0.1,0.6,0.1c0.1,0.3,0.2,0.5,0.3,0.8c0.8-0.5,1.6-1,2.4-1.7c0.2-0.2,0.5-0.1,0.6,0.2c0.7,2,0.7,4.2,0.1,6.2
			c-0.5,1.9-0.5,4-1.5,5.7c-0.1,0.2-0.4,0.2-0.6,0.1c-1.8-2.4-3.7-5-6.4-6.3c-1.4-0.7-4.9-2-5.4,0.4c-0.2,1-0.1,2.1-0.2,3.1
			c0,0.2-0.3,0.4-0.5,0.3c-1-0.8-1.8-1.8-2.5-2.8c-1.1-1.6-2.3-2.9-3.5-4.4c-1.7-2-3.3-4.3-2.8-7c0.1-0.7,0.3-1.4,0.5-2.1
			c0.3-1.2,0.8-2.3,1.4-3.4c0.2-0.4,0.3-0.7,0.5-1.1c0.3-0.7,0.7-1.6,1.2-2.4c0.9-2.1,1.4-4.4,1.5-6.6c-0.1-2.4-0.5-4.7-1-7.1
			c-0.8-3.6-2.4-7.8-1.9-11.6c0.1-2.7,1.2-5.5,2.4-7.9c2-4,4.6-7.7,7.8-10.8s6.7-6.8,10.9-8.5c0.4-0.2,0.7,0.3,0.4,0.6
			c-1.7,1.9-3.6,3.7-5,5.8c-1.6,2.5-2.4,5.2-2.7,8.1c-0.1,1.3-0.1,2.5-0.1,3.8c0,0.4,0.1,1.3-0.3,1.6c-0.7,0.6-1,0.9-1.1,1.9
			c0,0.4,0,0.7-0.1,1.1c-0.3,1.3-1.1,4.4,1.5,4c1.1-0.2,2.5-0.4,3.1,0.8c0.4,0.8,0.6,1.7,0.9,2.6c0.3,1,0.8,1.7,1.3,2.6
			c0.8,1.2,1.5,2.5,0.7,3.9c-0.8,1.6-2.5,2.9-3,4.6c1.5-0.2,3-0.5,4.5-0.8c1.9-0.6,3.7-1.4,5.6-1.9c0.2-0.1,0.4,0.1,0.4,0.3
			c0.2,1.2,2.2,0,3,0.7c0.6,0.5,0.7,1.3,0.8,2.1c1.5-1.3,3.4-2.9,4.9-0.6c0.5,0.8,0.9,1.6,1.3,2.4c0.1,0.2,0.9,1.8,1.2,0.7
			c0.1-0.3,0.1-0.6,0.1-1c-0.1-1.1-0.4-2.1,0.1-3.1c0.4-0.9,1.7-1.3,2.6-1.6c0.7-0.2,1.5-0.9,2.3-0.7c2.6,0.7,3,4.7,4.4,6.8
			c1-2.6,0.3-5.5,0.6-8.3v-0.1c-0.2-1.7,0.3-2.9,1.2-4.4c1.1-1.9,2-4.6,3.8-6c1.6-1.3,3.5-1.3,5.4-1.2c-0.5-0.8-1.1-1.5-1.6-2.3
			c-0.1-0.2,0-0.5,0.2-0.5c1.2-0.2,6.2-1,5.6-2.9c-0.3-1-1-2.7-2.1-3c-0.8-0.2-1.7-0.1-2.5-0.3c-2.8-0.7-1.9-5.9-2.3-8.1
			c0-0.1,0-0.3,0.2-0.4c1.4-0.6,2.4-1.5,2.6-3.1c0.1-1.1,0.1-2.2,0.3-3.2c0.1-0.5,0.3-1.1,0.3-1.6c0-0.9-1.5-0.3-1.9-0.2
			c-1,0.2-2,0.4-2.9,0.4c-4.3,0-0.1-4.5,1.7-5.3c0.6-0.3,1.4-0.2,2-0.1c1.2,0.2,2.4,0.5,3.7,0.5c2,0.1,4.2,0.1,6.1,0.9
			c2,0.9,2.7,3.3,3.8,4.9c1.7,2.5,4.2,4.4,5.8,7C81.8,219.5,81.7,219.7,81.5,219.8L81.5,219.8z"/>
	</g>
	
		<radialGradient id="SVGID_00000039836325756621316880000018343394325297526711_" cx="-989.9706" cy="4.0021" r="1" gradientTransform="matrix(59.3258 -30.8693 30.5833 58.7762 58684.0078 -30551.9512)" gradientUnits="userSpaceOnUse">
		<stop  offset="0" style="stop-color:#F3ECEC"/>
		<stop  offset="0.22" style="stop-color:#C8A3A3"/>
		<stop  offset="0.61" style="stop-color:#B68585"/>
		<stop  offset="1" style="stop-color:#4A2C2C"/>
	</radialGradient>
	<path style="fill:url(#SVGID_00000039836325756621316880000018343394325297526711_);" d="M60,214c-1.6-0.3-3.2-0.2-4.8-0.1
		c-0.9,0-1.8,0.1-2.7,0.2c-0.8,0.1-2.1-1.8-2.7-2.3c-0.5-0.4-1.3-0.5-1.9-0.6c-1.6-0.5-1.4-3.2-1.2-4.4c0.1-0.8,0.4-1.8,0.1-2.6
		c-0.1-0.2-0.3-0.1-0.4,0c-1.2,1.4-2.4,5.5-4.3,5.4c-1.4,0-2.6,0-4,0.3c-1.3,0.3-2.6,0.8-3.6-0.4c-0.7-0.8-1.3,0.2-1.3,0.9
		c0,0.1,0,0.9,0,1.2l0,0c-0.4-0.3-0.8-0.8-1.1-1.1c-0.5-0.5-0.7-1.5-1.6-1.5c-0.1,0-0.2,0.1-0.3,0.2c-0.3,0.5-0.2,1.1-0.2,1.7
		c0.1,0.6,0.2,1.1,0.3,1.6c0,0.2,0,0.4-0.2,0.7c-1.3,0.8-2.5,1.7-3.6,2.6c-1,0.5-1.9,0.6-2.4,1.7c-0.4,0.7-1.4-0.1-2.2,0.1
		c-0.1,0-0.2,0.2-0.2,0.4c-0.2,0.7,0,1.5,0.2,2.3c-0.1,0.2-0.3,0.3-0.4,0.5c-0.3-0.1-0.6-0.1-0.9-0.2c-0.5-0.2-1.6-0.4-1.7-0.4
		c0,0,0,0-0.1,0c-0.3-0.1-0.5,0.4-0.3,0.6c0.5,0.6,1.1,1.2,1.7,1.7c-1.3,2.2-2,4.7-1.9,7.4c0.1,1.4,0.3,2.8,0.8,4.2
		c-1.6,0.8-3.7,1.9-4,2.5c-0.1,0.2,3.5,0.4,5.2,0.8c0.1,0,0.2,0,0.2,0.1c0.5,0.9,1,1.7,1.6,2.4c0.2,0.8,0.4,1.7,0.8,2.3
		c0.4,0.5,1.7,0.3,1.1,1.5c-0.2,0.4-0.4,0.9-0.3,1.3c0.2,0.9,1.1,1,2,0.9c-0.9,1.8-2.6,3.5-2.8,5.5c-0.1,1.5,7.3-2.1,8.6-2.9
		c1.3-0.9,1.1,0.1,1.5,0.7c0.2,0.3,0.9-0.2,1.1-0.3c0.4-0.2,0.4,1.6,0.5,1.9c0,0.1,0.1,0.1,0.2,0.1c0.8,0,1.3-0.8,1.9-1.3
		c0.9-0.8,1.1-0.4,1.9,0.4c0.5,0.5,0.8,1.1,1.3,1.6c0.2,0.2,0.4,0,0.5-0.2c0.7-1,1.1-2.2,1.4-3.4c2-0.5,3.9-1.5,5.7-2.7
		c0.4,0.5,0.7,1.1,0.8,1.3c0.6,0.9,1.2,1.8,1.8,2.6c0.2,0.3,0.6-0.4,0.6-0.5c0-1.3-0.3-2.6-0.6-3.9c-0.1-0.6,0-1.1,0.2-1.6
		c0.7-0.7,1.5-1.4,2.1-2.1c0.6-0.6,1.2-1.3,1.7-2c0.1-0.1,0.2-0.2,0.3-0.3c0.8-0.7,1.7-1.7,1.9-2.7c0.1-0.4,0.1-0.8,0.1-1.2
		c0.1-0.2,0.2-0.5,0.3-0.7c0.7-0.2,2.2,0.2,2.6,0.2c0.3,0,0.5-0.7,0.3-0.9c-0.7-0.7-1.4-1.3-2.1-2c2.2-0.3,4.4-0.2,6.6-0.4
		c0.3,0,0.6-0.7,0.3-0.9c-1-0.7-2.7-1.1-3.9-1.3c-0.9-0.1-1.7-0.2-2.5-0.5c-0.1,0-0.2-0.1-0.2-0.2c0-0.1,0-0.3,0-0.4
		c0-0.5,0-1-0.1-1.4c0-0.8-0.1-1.6-0.2-2.4c0.1-1.1,0.5-2.6-0.1-3.4c-0.1-0.1-0.6-0.2-1-0.3c-0.1-0.1-0.1-0.3-0.2-0.4
		c0.7-0.6,1.7-1.1,2.5-1.6c0.2-0.1,0.4-0.7,0.1-0.8c-1.2-0.3-2.5-0.4-3.8-0.4c1.4-0.9,3-1.5,4.5-2.3C60,214.7,60.4,214.1,60,214
		L60,214z"/>
	<g class="st10">
		<path class="st11" d="M45.3,206.1c-0.4,0.7-0.7,1.4-1.2,2c-0.2,0.3-0.5,0.6-0.7,0.9c-0.3,0.3-0.6,0.5-1,0.5h-0.3h-0.3h-0.6
			c-0.4,0-0.8,0-1.2,0s-0.8,0.1-1.2,0.1c-0.4,0.1-0.8,0.1-1.1,0.2c-0.4,0.1-0.7,0.2-1.1,0.2c-0.4,0-0.7,0.1-1.1,0
			c-0.3-0.1-0.7-0.3-0.9-0.6c-0.1-0.1-0.1-0.1-0.2-0.2s-0.2-0.1-0.3-0.2c-0.2-0.1-0.5,0.1-0.6,0.2c-0.3,0.3-0.4,0.7-0.4,1.1v0.9
			c-0.1-0.1-0.1-0.1-0.2-0.2c-0.1-0.1-0.2-0.2-0.3-0.4l-0.3-0.4c-0.1-0.1-0.2-0.3-0.3-0.4c-0.1-0.1-0.2-0.3-0.3-0.4
			c0-0.1-0.1-0.1-0.2-0.2c-0.1-0.1-0.1-0.1-0.2-0.2c-0.1-0.1-0.1-0.1-0.2-0.2c-0.1,0-0.2-0.1-0.3-0.1h-0.1h-0.1l0,0l0,0l0,0
			c0,0-0.1,0.1-0.2,0.1l-0.1,0.1c-0.1,0.1-0.1,0.2-0.1,0.3s-0.1,0.2-0.1,0.3c0,0.2-0.1,0.4-0.1,0.6c0,0.2,0,0.4,0,0.5s0,0.2,0,0.3
			v0.3c0.1,0.3,0.1,0.7,0.2,1l0.1,0.3v0.1l0,0v0.1c0,0.1-0.1,0.2-0.1,0.4l-1.8,1.2l-1.8,1.3l-0.4,0.2l-0.5,0.2
			c-0.2,0.1-0.3,0.1-0.5,0.2c-0.1,0.1-0.3,0.2-0.4,0.3c-0.2,0.1-0.3,0.2-0.4,0.4c-0.1,0.1-0.2,0.3-0.3,0.4l-0.1,0.1l0,0
			c0,0-0.1,0-0.2,0.1c-0.1,0-0.3,0-0.4,0c-0.3-0.1-0.6-0.2-1-0.2c-0.2,0-0.4,0-0.6,0.3c-0.1,0.1-0.1,0.2-0.1,0.3v0.2v0.2
			c0,0.1,0,0.2,0,0.3c0,0.2,0,0.4,0.1,0.5c0,0.3,0.1,0.6,0.2,0.9l-0.3,0.3l-0.8-0.2l0,0l-0.4-0.1c-0.1-0.1-0.3-0.1-0.4-0.1
			s-0.3-0.1-0.4-0.1h-0.2h-0.1h-0.1h0.1h-0.1l0,0l0,0l0,0c0,0,0,0-0.1,0h-0.1c-0.1,0-0.1,0.1-0.1,0.1l-0.1,0.1
			c0,0.1-0.1,0.2-0.1,0.3s0,0.2,0.1,0.3c0,0.1,0.1,0.1,0.1,0.1l0.1,0.1l0.1,0.1l0.3,0.3c0.2,0.2,0.4,0.4,0.6,0.6l0.5,0.5L20,223
			c-0.1,0.2-0.2,0.5-0.3,0.7c-0.1,0.2-0.2,0.5-0.3,0.7c-0.1,0.2-0.2,0.5-0.3,0.7l-0.2,0.7l-0.2,0.8c-0.1,0.2-0.1,0.5-0.1,0.8
			s-0.1,0.5-0.1,0.8l-0.1,0.8v0.8c0,0.3,0,0.5,0,0.8s0,0.5,0.1,0.8l0.1,0.8c0,0.3,0.1,0.5,0.2,0.7c0,0.3,0.1,0.5,0.2,0.7l0.2,0.6
			c-0.7,0.4-1.4,0.7-2.1,1.1c-0.4,0.2-0.8,0.4-1.1,0.7c-0.1,0.1-0.2,0.1-0.3,0.2c-0.1,0.1-0.2,0.1-0.3,0.2l-0.1,0.1l0,0l0,0l0,0
			c0,0.1,0-0.1,0,0.1l0,0l0,0c0,0.1,0.1,0.1,0.1,0.1h0.1c0.1,0,0.2,0.1,0.4,0.1c0.9,0.1,1.7,0.2,2.6,0.3c0.4,0,0.9,0.1,1.3,0.2
			c0.2,0,0.4,0.1,0.6,0.1l0.3,0.1c0.1,0,0.1,0,0.2,0.1l0.7,1.2l0.8,1.2c0.2,0.7,0.3,1.4,0.6,2c0,0.1,0.1,0.2,0.2,0.2v0.1
			c0,0,0,0,0.1,0.1l0.1,0.1c0.2,0.1,0.4,0.2,0.5,0.3c0.2,0.1,0.3,0.1,0.4,0.2c0.1,0.1,0.1,0.2,0.1,0.3s-0.1,0.3-0.1,0.5
			c-0.1,0.2-0.1,0.3-0.2,0.5c0,0.1,0,0.2-0.1,0.3c0,0.1,0,0.2,0,0.3s0,0.2,0,0.3l0.1,0.2c0,0.1,0.1,0.2,0.2,0.3s0.2,0.1,0.2,0.2
			c0.2,0.1,0.4,0.2,0.5,0.2s0.2,0,0.3,0.1c0.1,0,0.2,0,0.3,0c0.1,0,0.2,0,0.2,0c-0.1,0.2-0.2,0.3-0.3,0.5c-0.2,0.3-0.3,0.5-0.5,0.7
			c-0.3,0.5-0.7,1-1,1.5c-0.2,0.3-0.3,0.5-0.4,0.8s-0.2,0.6-0.3,0.8c-0.1,0.1-0.1,0.3-0.1,0.4c0,0.2-0.1,0.3-0.1,0.5v0.1
			c0,0,0,0.1,0.1,0.2c0.1,0.1,0.2,0.1,0.3,0.2c0.2,0,0.3,0,0.5,0c0.6-0.1,1.2-0.2,1.8-0.4c0.6-0.2,1.1-0.4,1.7-0.6
			c1.1-0.5,2.2-1,3.2-1.5c0.5-0.3,1.1-0.6,1.5-0.9c0.2-0.1,0.5-0.3,0.7-0.1s0.2,0.5,0.4,0.8c0,0.1,0.1,0.1,0.1,0.2l0,0h0.1h0.1
			c0.2,0,0.3-0.1,0.5-0.1c0.1-0.1,0.3-0.1,0.4-0.2l0.1-0.1h0.1l0.1,0.1c0.2,0.5,0.2,1.1,0.3,1.7c0,0,0,0,0,0.1l0,0l0.1,0.1h0.1h0.1
			c0.1,0,0.3-0.1,0.4-0.1c0.3-0.1,0.5-0.3,0.7-0.5l0.6-0.6c0.2-0.2,0.4-0.4,0.7-0.4s0.5,0.2,0.7,0.4s0.4,0.4,0.6,0.7
			c0.4,0.5,0.7,0.9,1.1,1.3c-0.4-0.4-0.8-0.9-1.1-1.4c-0.2-0.2-0.4-0.5-0.6-0.7c-0.2-0.2-0.4-0.5-0.7-0.5s-0.6,0.2-0.8,0.4l-0.6,0.6
			c-0.2,0.2-0.5,0.4-0.7,0.5c-0.1,0-0.3,0.1-0.4,0.1c-0.2,0-0.2,0-0.3-0.1c-0.1-0.6-0.1-1.2-0.3-1.8c0,0,0-0.1-0.1-0.1l-0.1-0.1
			c-0.1,0-0.1,0-0.1,0l-0.1,0.1c-0.1,0.1-0.3,0.2-0.4,0.2c-0.1,0.1-0.3,0.1-0.4,0.1c-0.1,0-0.2-0.1-0.2-0.2
			c-0.1-0.2-0.2-0.5-0.4-0.8c-0.1-0.1-0.4-0.2-0.5-0.1c-0.2,0-0.3,0.1-0.4,0.2c-0.5,0.3-1,0.6-1.5,0.9c-1.1,0.5-2.1,1-3.2,1.5
			c-0.5,0.2-1.1,0.4-1.7,0.6c-0.6,0.2-1.1,0.4-1.7,0.4c-0.1,0-0.3,0-0.4,0s-0.1,0-0.1-0.1l0,0v-0.1c0-0.1,0.1-0.3,0.1-0.4
			c0-0.1,0-0.3,0.1-0.4c0.1-0.3,0.2-0.5,0.3-0.8c0.1-0.3,0.3-0.5,0.4-0.8c0.3-0.5,0.6-1,1-1.5c0.2-0.2,0.3-0.5,0.5-0.8
			s0.3-0.5,0.4-0.8v-0.1c0-0.1-0.1-0.2-0.2-0.2l0,0c-0.2,0-0.3,0-0.5,0c-0.1,0-0.2,0-0.2,0c-0.1,0-0.2,0-0.2,0
			c-0.2,0-0.3-0.1-0.4-0.2c-0.1-0.1-0.1-0.1-0.2-0.1c0-0.1-0.1-0.1-0.1-0.2l-0.1-0.3c0,0,0-0.1,0-0.2c0-0.1,0-0.2,0-0.2
			c0-0.1,0-0.2,0.1-0.2c0-0.2,0.1-0.3,0.2-0.5s0.1-0.4,0.2-0.6c0-0.2-0.1-0.5-0.2-0.6c-0.2-0.1-0.4-0.2-0.5-0.3
			c-0.2-0.1-0.3-0.1-0.4-0.2c0,0-0.1,0-0.1-0.1l0,0l0,0c-0.1-0.1-0.1-0.1-0.1-0.2c-0.3-0.6-0.4-1.3-0.6-1.9c0,0,0,0,0-0.1l-0.8-1.2
			l-0.7-1.2l-0.1-0.1c-0.1,0-0.2-0.1-0.3-0.1l-0.3-0.1c-0.2,0-0.4-0.1-0.6-0.1c-0.4-0.1-0.9-0.1-1.3-0.2c-0.9-0.1-1.7-0.2-2.5-0.3
			l0,0c0.1,0,0.1-0.1,0.2-0.1c0.1-0.1,0.2-0.1,0.2-0.2c0.3-0.2,0.7-0.5,1.1-0.7c0.7-0.4,1.5-0.8,2.3-1.2c0.1,0,0.1-0.2,0.1-0.2
			l-0.2-0.7c-0.1-0.2-0.1-0.5-0.2-0.7c0-0.2-0.1-0.5-0.1-0.7l-0.1-0.7c0-0.2,0-0.5-0.1-0.7c0-0.3-0.1-0.5,0-0.7v-0.7l0.1-0.7
			c0-0.2,0.1-0.5,0.1-0.7s0.1-0.5,0.1-0.7l0.2-0.7l0.2-0.7c0.1-0.2,0.2-0.5,0.3-0.7c0.1-0.2,0.2-0.5,0.3-0.7
			c0.1-0.2,0.2-0.5,0.3-0.7l0.4-0.7c0-0.1,0-0.2,0-0.3l-0.6-0.6c-0.2-0.2-0.4-0.4-0.6-0.6L20,221l-0.1-0.1l-0.1-0.1
			c0,0-0.1-0.1,0-0.1c0,0,0,0,0-0.1v-0.1c0,0,0.1-0.1,0-0.1l0,0l0,0l0,0l0,0l0,0h0.1c0,0,0,0,0.1,0h0.1h0.2c0.1,0,0.3,0.1,0.4,0.1
			s0.3,0.1,0.4,0.1l0.4,0.1l0,0l0.9,0.2c0.1,0,0.1,0,0.2-0.1l0.4-0.5c0,0,0.1-0.1,0-0.2c-0.1-0.3-0.2-0.6-0.2-1c0-0.2,0-0.3,0-0.5
			c0-0.1,0-0.2,0-0.2v-0.2V218c0,0,0-0.1,0.1-0.2l0,0l0,0l0,0c0.1,0,0.1,0,0.2,0c0.3,0,0.6,0.1,0.9,0.2c0.2,0,0.4,0.1,0.6,0.1
			c0.1,0,0.2-0.1,0.3-0.1l0.1-0.1l0.1-0.1c0.1-0.2,0.2-0.3,0.3-0.4c0.1-0.1,0.2-0.2,0.3-0.3c0.1-0.1,0.3-0.2,0.4-0.3
			s0.3-0.1,0.4-0.2l0.5-0.2l0.5-0.2l0,0l0,0l1.8-1.3l1.8-1.2l0,0l0,0c0.1-0.2,0.2-0.3,0.2-0.6c0-0.1,0-0.1,0-0.1s0,0,0-0.1v-0.1
			l-0.1-0.3c-0.1-0.3-0.2-0.7-0.2-1v-0.3V211c0-0.2,0-0.3,0-0.5s0-0.3,0-0.5c0-0.1,0-0.1,0.1-0.2c0-0.1,0.1-0.2,0.1-0.2s0,0,0.1-0.1
			l0,0l0,0l0,0l0,0h0.1h0.1c0.1,0,0.1,0,0.2,0.1c0.1,0,0.1,0.1,0.2,0.1s0.1,0.1,0.2,0.2c0.1,0.1,0.1,0.1,0.2,0.2
			c0.1,0.1,0.2,0.3,0.3,0.4c0.1,0.2,0.2,0.3,0.3,0.4l0.3,0.4c0.1,0.1,0.2,0.3,0.4,0.4c0.1,0.1,0.3,0.2,0.4,0.4h0.1l0,0l0,0l0.1-0.1
			v-1.1c0-0.3,0.1-0.7,0.3-1c0.1-0.1,0.3-0.2,0.4-0.2c0.1,0,0.1,0,0.2,0.1c0.1,0,0.1,0.1,0.2,0.2c0.3,0.3,0.6,0.5,1,0.6
			s0.8,0.1,1.2,0s0.8-0.2,1.1-0.2c0.4-0.1,0.7-0.2,1.1-0.2c0.4-0.1,0.8-0.1,1.1-0.1c0.4,0,0.8-0.1,1.1-0.1h0.6h0.3h0.3
			c0.4-0.1,0.7-0.3,1-0.6s0.5-0.6,0.7-0.9c0.4-0.6,0.8-1.3,1.1-2c0.4-0.7,0.7-1.4,1.2-2C46,204.7,45.7,205.4,45.3,206.1L45.3,206.1z
			"/>
	</g>
	<g>
		<path class="st12" d="M56.5,226.6c-2.7-0.1-5.5,0.4-8.6,1.1c-1.9,0.4-3.8,0.5-5.7,0.7c0-0.2-0.1-0.4-0.1-0.6
			c3.3-1.6,6.4-3.5,9.6-5.3c0.1-0.1,0.2-0.4,0-0.3c-3.3,1.6-6.6,3.3-9.9,4.9c0-0.1-0.1-0.1-0.1-0.2c0.7-0.7,1.5-1.3,1.9-1.9
			c1.4-1.6,2.7-3.2,4-4.9c0.1-0.1,0-0.3-0.1-0.2c-1.8,2.2-3.7,4.4-5.8,6.4c-0.1,0.1-0.2,0.2-0.3,0.2c-0.1-0.1-0.2-0.2-0.3-0.3
			c2-4.3,4.3-8.6,5.6-13.2c0.1-0.2-0.2-0.2-0.2,0c-1,2.7-2.5,5.4-3.7,8.1c-0.6,1.4-1.4,2.8-2.2,4.2c0-0.3,0.1-0.5,0.1-0.8
			c0.6-3,1.4-6,1.9-9.1c0-0.2-0.1-0.1-0.2,0c-0.9,3-1.8,6.1-2.7,9.1c0,0.1-0.1,0.2-0.1,0.4c0-0.8,0-1.7,0-2.5c0-2.4,0.4-4.8,0.4-7.1
			c0-0.2-0.2,0-0.2,0.1c-0.1,2.2-0.5,4.4-0.8,6.6c0,0.3-0.1,0.6-0.1,0.9c-0.2-1.2-0.4-2.5-0.7-3.7c-0.5-2.9-0.7-5.8-1.2-8.6
			c0-0.2-0.2,0-0.2,0.2c0.5,4.8,0.6,9.6,1.4,14.3c-0.4-0.7-0.7-1.3-1.1-2c-1.1-2.2-2.1-4.4-3.2-6.6c-0.1-0.1-0.2,0.1-0.2,0.2
			c1,2.3,1.9,4.7,2.9,7c0.4,0.9,0.8,1.8,1.2,2.6c-0.1,0.1-0.2,0.1-0.3,0.2c-0.5-0.5-1-1-1.4-1.5c-1.8-2-3.5-4.1-5.4-6
			c-0.1-0.1-0.2,0.2-0.1,0.2c1.7,1.9,3.1,3.9,4.6,5.9c0.3,0.4,0.6,0.8,1,1.2c-2.8-2-5.7-3.9-8.6-5.6c-0.1-0.1-0.3,0.2-0.2,0.3
			c3,2,5.9,4.4,8.9,6.5c-1.3-0.3-2.5-0.5-3.8-0.8c-2.6-0.6-5.1-1.5-7.7-2.2c-0.1,0-0.2,0.2-0.1,0.2c2.5,0.9,5,1.9,7.6,2.6
			c0.3,0.1,2.2,0.5,3.9,0.8c0,0.1,0,0.1-0.1,0.2c-3.8-0.5-7.8-0.5-11.6-0.9c-0.1,0-0.2,0.2-0.1,0.3c3.6,0.6,7.3,1.1,11,1.6
			c-0.5,0.1-1,0.1-1.4,0.2c-2.2,0-4.4,0.5-6.6,0.1c-0.1,0-0.2,0.3-0.1,0.3c1.6,0.4,3.5,0.3,5.1,0.3c1.1,0,2.4-0.2,3.6-0.3
			c0,0.2,0.1,0.4,0.1,0.5c-3.5,1.1-7,2.2-10.5,3.2c-0.1,0-0.1,0.2,0,0.2c3.5-0.7,7.1-1.5,10.6-2.6c-1.3,0.9-2.6,2-3.8,3
			c-2.5,1.8-4.9,3.7-7.4,5.6c-0.1,0.1-0.1,0.3,0,0.2c3.9-2.7,7.8-5.5,11.7-8.3c-0.6,0.7-1.2,1.3-1.7,2c-1.1,1.3-2.2,2.7-3.3,4
			c-0.7,0.9-1.5,2.5-2.5,3.1c-0.1,0-0.1,0.3,0,0.2c0.6-0.2,1-0.8,1.4-1.3c1.2-1.3,2.4-2.6,3.7-3.9c1.1-1.2,2.3-2.4,3.4-3.6
			c0.1,0,0.2,0.1,0.4,0.1c-2.6,4.6-4.7,9.5-7.6,14c-0.1,0.1,0,0.2,0.1,0.1c3.1-4.4,5.5-9.4,8.2-14c-0.2,0.7-0.4,1.3-0.6,1.9
			c-0.5,1.8-0.7,4-1.5,5.7c-0.1,0.1,0.1,0.2,0.2,0.1c0.8-1.6,1.1-3.5,1.7-5.2c0.2-0.5,0.4-1.1,0.6-1.6c0,0.2,0,0.3,0,0.4
			c0,1.6,0,3.2,0,4.9c0,2.7,0.4,5.4,0.3,8c0,0.2,0.2,0,0.2-0.1c0.3-2.4,0-4.9,0.1-7.4c0.1-1.9,0.3-3.8,0.4-5.7
			c1,4.3,2.3,8.6,3.6,12.7c0,0.2,0.2,0,0.2-0.1c-1.2-4.8-2.3-9.6-3.4-14.4l0.1-0.1c2.8,3.8,5.7,7.6,8.2,11.7
			c0.1,0.1,0.2-0.1,0.1-0.2c-1.6-2.9-3.4-5.6-5.2-8.3c-0.7-1.1-1.5-2.2-2.3-3.2c-0.1-0.2-0.2-0.3-0.4-0.5c0.3,0.2,0.6,0.4,1,0.5
			c1.4,0.8,2.8,1.6,4.3,2.3c0.1,0.1,0.2-0.2,0.1-0.2c-1.2-0.9-2.5-1.6-3.7-2.5c-0.4-0.3-0.9-0.5-1.3-0.8c0,0,0-0.1,0.1-0.1
			c0.8,0.3,1.6,0.5,2.4,0.9c1.9,0.8,4,1.7,6,2.1c0.1,0,0.2-0.2,0.1-0.2c-1.8-0.5-3.5-1.5-5.3-2.3c-0.8-0.4-1.7-0.7-2.5-1.1
			c2.3,0.5,4.8,0.7,7.1,0.9c0.1,0,0.2-0.2,0.1-0.3c-2-0.4-4.1-0.9-6.1-1.3c4.4-0.7,8.6-2.1,13-2.3C56.5,227,56.6,226.6,56.5,226.6
			L56.5,226.6z"/>
	</g>
	
		<radialGradient id="SVGID_00000179636488218176530710000004221748680213564548_" cx="-977.3709" cy="27.1624" r="1" gradientTransform="matrix(20.2499 -10.5367 10.4391 20.0623 19540.9688 -10564.1348)" gradientUnits="userSpaceOnUse">
		<stop  offset="0" style="stop-color:#F3ECEC"/>
		<stop  offset="0.22" style="stop-color:#C8A3A3"/>
		<stop  offset="0.61" style="stop-color:#B68585"/>
		<stop  offset="1" style="stop-color:#4A2C2C"/>
	</radialGradient>
	<path style="fill:url(#SVGID_00000179636488218176530710000004221748680213564548_);" d="M30.1,264.1c-0.6-0.1-1.2-0.1-1.8-0.1
		c-0.3,0-0.7,0.1-1,0.1s-0.8-0.7-1-0.9c-0.2-0.1-0.5-0.2-0.7-0.2c-0.6-0.2-0.5-1.2-0.4-1.7c0.1-0.3,0.2-0.7,0-1c0-0.1-0.1,0-0.1,0
		c-0.5,0.5-0.9,2.1-1.7,2.1c-0.5,0-1,0-1.5,0.1s-1,0.3-1.4-0.1c-0.3-0.3-0.5,0.1-0.5,0.4v0.4l0,0c-0.2-0.1-0.3-0.3-0.4-0.4
		c-0.2-0.2-0.3-0.6-0.6-0.6c0,0-0.1,0-0.1,0.1c-0.1,0.2-0.1,0.4-0.1,0.7c0,0.2,0.1,0.4,0.1,0.6c0,0.1,0,0.2-0.1,0.3
		c-0.5,0.3-1,0.6-1.4,1c-0.4,0.2-0.7,0.2-0.9,0.6c-0.2,0.3-0.5-0.1-0.8,0c-0.1,0-0.1,0.1-0.1,0.1c-0.1,0.3,0,0.6,0.1,0.9
		c-0.1,0.1-0.1,0.1-0.2,0.2c-0.1,0-0.2-0.1-0.3-0.1c-0.2-0.1-0.6-0.2-0.6-0.2l0,0c-0.1,0-0.2,0.2-0.1,0.2c0.2,0.2,0.4,0.5,0.7,0.7
		c-0.5,0.8-0.8,1.8-0.7,2.8c0,0.5,0.1,1.1,0.3,1.6c-0.6,0.3-1.4,0.7-1.5,0.9c0,0.1,1.4,0.1,2,0.3h0.1c0.2,0.3,0.4,0.6,0.6,0.9
		c0.1,0.3,0.1,0.7,0.3,0.9c0.2,0.2,0.6,0.1,0.4,0.6c-0.1,0.1-0.1,0.3-0.1,0.5c0.1,0.4,0.4,0.4,0.8,0.4c-0.3,0.7-1,1.3-1.1,2.1
		c0,0.6,2.8-0.8,3.3-1.1c0.5-0.3,0.4,0,0.6,0.3c0.1,0.1,0.4-0.1,0.4-0.1c0.2-0.1,0.2,0.6,0.2,0.7c0,0,0,0.1,0.1,0
		c0.3,0,0.5-0.3,0.7-0.5c0.3-0.3,0.4-0.2,0.7,0.2c0.2,0.2,0.3,0.4,0.5,0.6c0.1,0.1,0.1,0,0.2-0.1c0.3-0.4,0.4-0.8,0.5-1.3
		c0.8-0.2,1.5-0.6,2.2-1c0.1,0.2,0.3,0.4,0.3,0.5c0.2,0.3,0.4,0.7,0.7,1c0.1,0.1,0.2-0.1,0.2-0.2c0-0.5-0.1-1-0.2-1.5
		c0-0.2,0-0.4,0.1-0.6c0.3-0.3,0.6-0.5,0.8-0.8c0.2-0.2,0.5-0.5,0.7-0.8l0.1-0.1c0.3-0.3,0.6-0.6,0.7-1c0-0.2,0-0.3,0.1-0.5
		c0-0.1,0.1-0.2,0.1-0.3c0.3-0.1,0.8,0.1,1,0.1c0.1,0,0.2-0.3,0.1-0.3c-0.3-0.3-0.5-0.5-0.8-0.8c0.8-0.1,1.7-0.1,2.5-0.1
		c0.1,0,0.2-0.2,0.1-0.3c-0.4-0.3-1-0.4-1.5-0.5c-0.3,0-0.7-0.1-1-0.2c0,0-0.1,0-0.1-0.1s0-0.1,0-0.2c0-0.2,0-0.4,0-0.5
		c0-0.3,0-0.6-0.1-0.9c0-0.4,0.2-1-0.1-1.3c0,0-0.2-0.1-0.4-0.1c0,0-0.1-0.1-0.1-0.2c0.3-0.2,0.6-0.4,0.9-0.6c0.1,0,0.2-0.3,0-0.3
		c-0.4-0.1-1-0.2-1.4-0.1c0.5-0.3,1.1-0.6,1.7-0.9C30.1,264.4,30.3,264.2,30.1,264.1L30.1,264.1z"/>
	<g class="st10">
		<path class="st11" d="M24.9,260.4c-0.1,0.1-0.1,0.1-0.1,0.2c-0.1,0.1-0.2,0.3-0.2,0.4c-0.1,0.3-0.3,0.5-0.4,0.8
			c-0.2,0.2-0.3,0.5-0.6,0.6c-0.1,0.1-0.3,0-0.4,0h-0.4c-0.2,0-0.3,0-0.5,0c-0.1,0-0.3,0-0.5,0.1c-0.3,0.1-0.6,0.1-0.9,0.1
			c-0.1,0-0.2-0.1-0.3-0.2c-0.1-0.1-0.1-0.1-0.2-0.2s-0.2,0-0.3,0.1c-0.1,0.1-0.2,0.3-0.2,0.5v0.2l-0.1-0.1l-0.1-0.1
			c0,0-0.1-0.1-0.1-0.2c-0.1-0.1-0.1-0.2-0.3-0.3c-0.1-0.1-0.1-0.1-0.2-0.1H19h-0.1c0,0,0,0,0,0.1s-0.1,0.1-0.1,0.2s0,0.2,0,0.2
			c0,0.1,0,0.1,0,0.2s0,0.1,0,0.2l0.1,0.4c0,0.1,0,0.1,0,0.2v0.1l-1.3,0.9l-0.2,0.1l-0.2,0.1c-0.1,0.1-0.2,0.1-0.4,0.2
			c-0.1,0-0.1,0.1-0.2,0.2c0,0,0,0.1-0.1,0.1l0,0l0,0l-0.1,0.1l0,0c0,0,0,0-0.1,0h-0.1c-0.1,0-0.2-0.1-0.4-0.1c-0.1,0-0.2,0-0.3,0.2
			v0.1v0.1c0,0.1,0,0.1,0,0.2s0,0.1,0,0.2s0,0.2,0.1,0.3l-0.1,0.1l-0.2-0.1l0,0l-0.3-0.1c-0.1,0-0.3-0.1-0.4-0.1h0.1l0,0l0,0l0,0
			l0,0c0,0,0,0-0.1,0s-0.1,0.1-0.1,0.1v0.1c0,0,0,0.1,0,0.2l0,0l0,0l0.1,0.1l0.1,0.1l0.4,0.4l-0.2,0.4c-0.1,0.2-0.1,0.4-0.2,0.5
			l-0.1,0.3c0,0.1,0,0.2-0.1,0.3c0,0.2-0.1,0.4-0.1,0.6v0.6v0.1v0.1v0.1v0.3v0.3c0,0.1,0,0.2,0.1,0.3l0.1,0.4
			c-0.3,0.1-0.5,0.3-0.8,0.4c-0.1,0.1-0.3,0.2-0.4,0.3c-0.1,0.1-0.1,0.1-0.2,0.2l-0.1,0.1l0,0l0,0c0,0,0-0.1,0,0.1l0,0
			c0,0,0,0.1,0.1,0.1l0,0c0.1,0,0.1,0,0.1,0c0.3,0,0.7,0.1,1,0.1l0.5,0.1H15h0.1c0,0,0,0,0.1,0l0.6,0.9c0,0.1,0.1,0.2,0.1,0.4
			c0,0.1,0,0.1,0.1,0.2c0,0.1,0.1,0.1,0.1,0.2l0.1,0.1l0,0l0,0l0,0c0.1,0,0.2,0.1,0.2,0.1c0.1,0,0.1,0,0.1,0.1l0,0l0,0v0.1
			c0,0.1-0.1,0.1-0.1,0.2s0,0.1,0,0.2v0.1v0.1c0,0.1,0.1,0.2,0.2,0.2c0.1,0.1,0.2,0.1,0.2,0.1c0.1,0,0.1,0,0.2,0
			c-0.1,0.1-0.1,0.3-0.2,0.4c-0.1,0.2-0.3,0.4-0.4,0.6s-0.2,0.4-0.3,0.6c0,0.1,0,0.2-0.1,0.4c0,0.1,0,0,0,0.1v0.1l0.1,0.1
			c0.1,0,0.1,0,0.2,0c0.2,0,0.5-0.1,0.7-0.2s0.4-0.2,0.6-0.2c0.4-0.2,0.8-0.4,1.2-0.6c0.2-0.1,0.4-0.2,0.6-0.4
			c0.1-0.1,0.2-0.1,0.2-0.1c0.1,0,0.1,0.2,0.1,0.3c0.2,0.3,0.6-0.1,0.6,0c0.1,0.2,0.1,0.4,0.1,0.7l0,0l0,0l0,0c0,0,0,0,0.1,0l0,0
			c0.1,0,0.1,0,0.2-0.1s0.2-0.1,0.3-0.2l0.2-0.2c0.1-0.1,0.2-0.2,0.3-0.2c0.1,0,0.2,0.1,0.3,0.2c0.1,0.1,0.1,0.2,0.2,0.2
			c0.1,0.2,0.3,0.3,0.4,0.5c-0.1-0.2-0.3-0.3-0.4-0.5c-0.1-0.1-0.1-0.2-0.2-0.3c-0.1-0.1-0.2-0.2-0.3-0.2c-0.3,0.1-0.4,0.3-0.6,0.4
			c-0.1,0.1-0.2,0.1-0.3,0.2h-0.1l0,0l0,0l0,0l0,0c0-0.2,0-0.4-0.1-0.7c0,0,0-0.1-0.1-0.1c0,0,0,0-0.1,0l0,0l-0.1,0.1H20
			c0,0,0,0-0.1,0l0,0c0-0.1-0.1-0.2-0.2-0.3c-0.1-0.1-0.3,0-0.4,0c-0.2,0.1-0.4,0.2-0.6,0.3c-0.4,0.2-0.8,0.4-1.2,0.6
			c-0.2,0.1-0.4,0.2-0.6,0.2c-0.2,0.1-0.4,0.1-0.6,0.2h-0.1l0,0l0,0c0-0.1,0-0.2,0.1-0.3c0.1-0.2,0.2-0.4,0.3-0.6
			c0.2-0.4,0.5-0.7,0.7-1.1c0,0,0,0,0-0.1s-0.1-0.1-0.1-0.1c-0.1,0-0.2,0-0.4,0c-0.1,0-0.1,0-0.1-0.1l-0.1-0.1v-0.1c0,0,0,0,0-0.1
			c0,0,0-0.1,0-0.2s0-0.1,0.1-0.2c0-0.1,0.1-0.1,0.1-0.2s0-0.1,0-0.2l-0.1-0.1c-0.1-0.1-0.2-0.1-0.2-0.1c-0.1,0-0.1,0-0.1-0.1l0,0
			l0,0v-0.1c0,0-0.1-0.1-0.1-0.2s0-0.1-0.1-0.2c0-0.1-0.1-0.3-0.1-0.4l0,0l0,0l-0.6-0.9l-0.1-0.1h-0.1h-0.1H15l-0.5-0.1
			c-0.3,0-0.5-0.1-0.8-0.1l0,0c0.1-0.1,0.3-0.2,0.4-0.2c0.3-0.2,0.6-0.3,0.9-0.5c0.1,0,0.1-0.1,0.1-0.2l-0.1-0.5
			c0-0.1,0-0.2-0.1-0.3v-0.3v-0.3v-0.1v-0.1v-0.1v-0.6c0-0.2,0.1-0.4,0.1-0.6c0-0.1,0-0.2,0.1-0.3l0.1-0.3c0.1-0.2,0.1-0.4,0.2-0.5
			l0.3-0.5l0,0c0-0.1,0-0.1,0-0.2l-0.4-0.4l-0.1-0.1l-0.1-0.1l0,0l0,0c0.1,0,0.1,0,0.2,0.1l0.3,0.1l0,0l0.3,0.1H16l0.2-0.2v-0.1
			c0-0.1-0.1-0.2-0.1-0.4c0-0.1,0-0.1,0-0.2c0,0,0-0.1,0-0.2V265l0,0l0,0c0.1,0,0.2,0,0.3,0.1h0.1h0.1c0.1,0,0.1,0,0.2-0.1l0.1-0.1
			v-0.1l0,0v-0.1l0.1-0.1c0.1-0.1,0.2-0.1,0.3-0.2l0.2-0.1l0.2-0.1l0,0l0,0l1.4-1l0,0l0,0c0-0.1,0.1-0.1,0.1-0.3c0-0.1,0-0.1,0-0.2
			l-0.1-0.4c0-0.1,0-0.1,0-0.2s0-0.1,0-0.2s0-0.1,0-0.2c0,0,0.1-0.1,0.1-0.2l0,0l0,0c0.1,0,0.1,0,0.1,0.1c0.1,0.1,0.1,0.2,0.2,0.3
			c0,0.1,0.1,0.1,0.1,0.2l0.1,0.2c0.1,0.1,0.2,0.2,0.3,0.3h0.1l0,0c0,0,0.1,0,0.1-0.1V262c0-0.1,0-0.3,0.1-0.3h0.1
			c0,0,0.1,0.1,0.2,0.1c0.1,0.1,0.3,0.2,0.4,0.2c0.3,0.1,0.6,0,0.9-0.1c0.1,0,0.3-0.1,0.4-0.1s0.3-0.1,0.4-0.1h0.5
			c0.1,0,0.3,0,0.5-0.1c0.3-0.1,0.5-0.4,0.6-0.7c0.2-0.3,0.3-0.5,0.4-0.8c0.1-0.1,0.1-0.3,0.2-0.4C24.9,260.6,24.9,260.5,24.9,260.4
			L24.9,260.4z M16.2,278.4L16.2,278.4L16.2,278.4z M14.5,266.6L14.5,266.6L14.5,266.6z M15.7,265.6L15.7,265.6L15.7,265.6
			L15.7,265.6z M18.9,262.3C18.9,262.4,18.9,262.3,18.9,262.3L18.9,262.3z"/>
	</g>
	<g class="st14">
		<path class="st12" d="M29.1,268.8c-1.1,0-2.4,0.2-3.7,0.5c-0.8,0.2-1.6,0.2-2.5,0.3c0-0.1,0-0.2,0-0.3c1.4-0.7,2.8-1.5,4.2-2.3
			c0,0,0.1-0.2,0-0.1c-1.4,0.7-2.9,1.4-4.3,2.1c0,0,0-0.1-0.1-0.1c0.3-0.3,0.6-0.6,0.8-0.8c0.6-0.7,1.2-1.4,1.7-2.1v-0.1
			c-0.8,0.9-1.6,1.9-2.5,2.8l-0.1,0.1l-0.1-0.1c0.9-1.9,1.8-3.7,2.4-5.7c0-0.1-0.1-0.1-0.1,0c-0.4,1.2-1.1,2.4-1.6,3.5
			c-0.3,0.6-0.6,1.2-0.9,1.8c0-0.1,0-0.2,0.1-0.3c0.3-1.3,0.6-2.6,0.8-3.9c0-0.1-0.1-0.1-0.1,0c-0.4,1.3-0.8,2.6-1.2,3.9
			c0,0.1,0,0.1,0,0.2c0-0.4,0-0.7,0-1.1c0-1,0.2-2.1,0.2-3.1c0-0.1-0.1,0-0.1,0c0,1-0.2,1.9-0.3,2.9c0,0.1,0,0.3,0,0.4
			c-0.1-0.5-0.2-1.1-0.3-1.6c-0.2-1.2-0.3-2.5-0.5-3.7c0-0.1-0.1,0-0.1,0.1c0.2,2.1,0.3,4.1,0.6,6.2c-0.2-0.3-0.3-0.6-0.5-0.9
			c-0.5-0.9-0.9-1.9-1.4-2.9c0-0.1-0.1,0-0.1,0.1c0.4,1,0.8,2,1.3,3c0.2,0.4,0.3,0.8,0.5,1.1c0,0-0.1,0-0.1,0.1
			c-0.2-0.2-0.4-0.4-0.6-0.6c-0.8-0.9-1.5-1.8-2.3-2.6l-0.1,0.1c0.7,0.8,1.3,1.7,2,2.6c0.1,0.2,0.3,0.3,0.4,0.5
			c-1.2-0.8-2.5-1.7-3.7-2.4c-0.1,0-0.1,0.1-0.1,0.1c1.3,0.9,2.5,1.9,3.8,2.8c-0.5-0.1-1.1-0.2-1.6-0.3c-1.1-0.3-2.2-0.7-3.4-1
			c0,0-0.1,0.1,0,0.1c1.1,0.4,2.2,0.8,3.3,1.1c0.1,0,1,0.2,1.7,0.4v0.1c-1.7-0.2-3.4-0.2-5-0.4c0,0-0.1,0.1,0,0.1
			c1.6,0.3,3.2,0.5,4.7,0.7c-0.2,0-0.4,0.1-0.6,0.1c-0.9,0-1.9,0.2-2.9,0.1c0,0-0.1,0.1,0,0.1c0.7,0.2,1.5,0.1,2.2,0.1
			c0.5,0,1-0.1,1.6-0.1c0,0.1,0,0.2,0.1,0.2c-1.5,0.5-3,1-4.6,1.4c0,0-0.1,0.1,0,0.1c1.5-0.3,3.1-0.7,4.6-1.1
			c-0.6,0.4-1.1,0.9-1.7,1.3c-1.1,0.8-2.1,1.6-3.2,2.4v0.1c1.7-1.2,3.4-2.4,5.1-3.6c-0.3,0.3-0.5,0.6-0.8,0.9
			c-0.5,0.6-1,1.1-1.4,1.7c-0.3,0.4-0.6,1.1-1.1,1.3c0,0-0.1,0.1,0,0.1c0.3-0.1,0.4-0.3,0.6-0.5c0.5-0.6,1.1-1.1,1.6-1.7
			c0.5-0.5,1-1,1.5-1.6c0,0,0.1,0,0.2,0c-1.1,2-2.1,4.1-3.3,6.1c0,0,0,0.1,0,0c1.3-1.9,2.4-4.1,3.6-6.1c-0.1,0.3-0.2,0.6-0.3,0.8
			c-0.2,0.8-0.3,1.7-0.6,2.5c0,0.1,0,0.1,0.1,0c0.4-0.7,0.5-1.5,0.7-2.2c0.1-0.2,0.2-0.5,0.3-0.7c0,0.1,0,0.1,0,0.2
			c0,0.7,0,1.4,0,2.1c0,1.2,0.2,2.3,0.1,3.5c0,0.1,0.1,0,0.1,0c0.1-1.1,0-2.1,0.1-3.2c0-0.8,0.1-1.6,0.2-2.5c0.4,1.9,1,3.7,1.6,5.5
			c0,0.1,0.1,0,0.1-0.1c-0.5-2.1-1-4.1-1.5-6.2l0,0c1.2,1.7,2.5,3.3,3.6,5.1c0,0,0.1,0,0.1-0.1c-0.7-1.2-1.5-2.4-2.3-3.6
			c-0.3-0.5-0.6-0.9-1-1.4c-0.1-0.1-0.1-0.1-0.2-0.2c0.1,0.1,0.3,0.2,0.4,0.2c0.6,0.3,1.2,0.7,1.9,1c0,0,0.1-0.1,0-0.1
			c-0.5-0.4-1.1-0.7-1.6-1.1c-0.2-0.1-0.4-0.2-0.6-0.3l0,0c0.3,0.1,0.7,0.2,1,0.4c0.8,0.3,1.7,0.8,2.6,0.9c0,0,0.1-0.1,0-0.1
			c-0.8-0.2-1.5-0.7-2.3-1c-0.4-0.2-0.7-0.3-1.1-0.5c1,0.2,2.1,0.3,3,0.4c0,0,0.1-0.1,0-0.1c-0.9-0.2-1.8-0.4-2.6-0.5
			c1.9-0.3,3.7-0.9,5.6-1C29.2,268.9,29.2,268.8,29.1,268.8L29.1,268.8z"/>
	</g>
	<path class="st15" d="M72.2,241.8c0.1-0.2-0.2-0.2-0.2,0c-0.6,1.9-1,4.9,0,7c-0.6,0-1.3,0.1-1.9,0.4v-0.1c-0.1-0.2-0.2-0.4-0.3-0.6
		c-0.5-1.4-0.9-2.6-0.9-4.2c0-0.1-0.1,0-0.1,0c0,0.1,0,0.2,0,0.2l-0.1,0.1c-0.1,0.7-0.1,1.5,0,2.3c0,0.1,0,0.1,0.1,0.2l0,0
		c0.1,0.5,0.2,1,0.4,1.5c0,0.1,0,0.1,0,0.2l0,0c0.1,0.2,0.2,0.4,0.3,0.6c0,0-0.1,0.1-0.2,0.1c-0.1-0.2-0.3-0.4-0.4-0.6
		c-0.3-0.5-0.5-1.1-0.7-1.7c0-0.1-0.2,0.1-0.2,0.1c0,0.7,0.1,1.4,0.4,2.1c0.1,0.2,0.1,0.4,0.2,0.6c-0.3,0.2-0.5,0.4-0.8,0.6
		c-0.2-0.3-0.5-0.5-0.8-0.7c-0.5-0.5-0.9-1-1.2-1.6c-0.1-0.2-0.3,0.1-0.2,0.3c0.4,0.8,1.1,1.8,1.9,2.4c0,0,0,0-0.1,0.1
		c-1.6,1.3-2.8,3.3-3.4,5.3c-0.3-0.1-0.5-0.1-0.8-0.2c-0.8-0.3-1.6-0.6-2.4-0.9c-0.1-0.1-0.2,0.2-0.1,0.3c0.8,0.4,1.6,0.7,2.4,1.1
		c0.3,0.1,0.5,0.2,0.8,0.3c-0.1,0.5-0.2,0.9-0.3,1.3c0,0.4-0.1,0.7-0.1,1.1c-1.3,0.1-2.5,0.4-3.7,0.6c-0.1,0-0.2,0.3-0.1,0.3
		c1.3-0.3,2.5-0.4,3.7-0.5c0,0.7,0,1.4,0.1,2.1c-0.1,0-0.2,0.1-0.3,0.1c-0.3,0.1-0.6,0.1-0.8,0.1c-0.1,0-0.2,0.3-0.1,0.3
		c0.4,0,0.9-0.1,1.3-0.2c0,0.2,0.1,0.3,0.1,0.5c-1.1,0.3-2.1,1.1-2.9,1.9c-0.1,0.1,0,0.3,0.1,0.2c0.8-0.7,1.8-1.5,2.9-1.8
		c0.3,0.7,0.7,1.3,1.3,1.8c-0.9,0.7-1.5,1.8-2,2.8c-0.1,0.2,0.1,0.2,0.2,0.1c0.5-1.1,1.2-1.9,2.1-2.7c0.6,0.3,1.3,0.4,2.2,0.4
		c4.7-0.3,8.9-6.7,8.3-11c-0.3-2-1-4.5-3-5.1c-0.2-1-0.6-1.9-0.8-3C71.7,244.5,71.9,243.1,72.2,241.8L72.2,241.8z M74.5,252
		c1.9,4.2-1.3,10-5.4,11.7c-1.5,0.6-3.2,0.5-4.3-0.5c0-0.1,0.1-0.2,0-0.2c0-0.1-0.1-0.2-0.1-0.3c1.2,0,2.2-1.6,2.8-2.4
		c1.5-2.1,2.3-4.7,2.4-7.2c0-0.5-0.2-2.2-0.7-2.7C71.2,249.4,73.3,249.5,74.5,252L74.5,252z"/>
	<path class="st15" d="M90.5,230.7c-0.2,0.3-0.7,0.5-1,0.7l0,0c-0.3-1.2-0.8-2.2-1.7-2.7c0-0.3,0-0.6,0-0.9c0.1-0.5,0.2-0.9,0.4-1.3
		c0.1-0.2-0.1-0.3-0.2-0.1c-0.2,0.5-0.5,1-0.6,1.6c0,0.1-0.1,0.3-0.1,0.5c-0.4-0.1-0.8-0.2-1.3-0.1c-0.1-0.1-0.1-0.3-0.1-0.4
		c-0.1-0.3,0-0.6-0.1-0.9l-1.1-2.8c-0.1-0.1-0.2,0.1-0.2,0.2c0.3,1.1,0.9,2.3,0.9,3.5c0,0.2,0,0.4,0.1,0.6h-0.1
		c-0.4,0.1-0.7,0.3-1,0.6c-0.1-0.1-0.1-0.1-0.2-0.2c-0.6-0.7-1.2-1.2-1.7-2c-0.1-0.2-0.3,0.1-0.3,0.3c0.3,0.6,0.8,1.1,1.3,1.7
		c0.2,0.2,0.3,0.4,0.5,0.6c-0.8,0.9-1.1,2.2-1.2,3.5c-0.1,0-0.2,0-0.3-0.1c-0.2,0-0.4-0.1-0.6-0.2c-0.1,0-0.2,0.2-0.1,0.2
		c0.2,0.1,0.4,0.2,0.6,0.2c0.1,0,0.3,0.1,0.4,0.1c0,0.4,0,0.8,0.1,1.2c0,0.2,0,0.4,0,0.7c-0.3,0.1-0.8,0.2-1,0.1
		c-0.1-0.1-0.2,0.2-0.1,0.3c0.2,0.2,0.6,0.1,0.8,0.1c0.1,0,0.2,0,0.4-0.1c0,0.4,0.1,0.7,0.1,1.1c-0.2,0.1-0.4,0.2-0.5,0.3
		c-0.5,0.3-0.9,0.8-1.4,1.1c-0.1,0.1-0.1,0.3,0,0.3c0.6-0.3,1-0.7,1.5-1c0.1-0.1,0.3-0.1,0.4-0.2c0.2,0.7,0.5,1.4,0.9,1.9
		c0.1,0.1,0.1,0.2,0.2,0.2c-0.2,0.2-0.5,0.5-0.7,0.6c-0.1,0-0.1,0.3,0,0.2c0.3-0.2,0.6-0.4,0.9-0.7c0.1,0.1,0.3,0.2,0.5,0.3
		c-0.3,0.3-0.7,0.7-1,1.1c-0.5,0.8-0.8,1.7-1.1,2.5c-0.1,0.2,0.1,0.2,0.2,0.1c0.3-0.7,0.7-1.4,1.1-2.1c0.3-0.6,1-0.9,1.3-1.4
		c0.2,0,0.3,0,0.5,0c-0.7,0.7-1.1,1.9-1.1,2.7c0,0.1,0.1,0.1,0.1,0c0.1-1.2,0.9-1.9,1.6-2.8c0.4-0.1,0.8-0.4,1.1-0.7
		c0.9-0.9,1.5-2.1,1.9-3.3c0.2,0.1,0.5,0.2,0.7,0.2c0.3,0.1,0.6,0.2,0.9,0.3c0.2,0.1,0.5,0.3,0.7,0.2c0.1,0,0.3-0.4,0.1-0.4
		c-0.2,0-0.4-0.4-0.6-0.5s-0.4-0.3-0.6-0.4c-0.3-0.2-0.6-0.3-0.9-0.4c0,0-0.1,0-0.1-0.1c0-0.2,0.1-0.4,0.1-0.7c0-0.6,0-1.3-0.1-1.9
		c0.4-0.3,0.9-0.6,1.1-1C90.8,230.9,90.7,230.5,90.5,230.7L90.5,230.7z M88.4,232c0.2,0.5,0.3,1.1,0.3,1.7c-0.1,0-0.2-0.1-0.4-0.1
		c-0.1-0.1-0.2,0.2-0.1,0.3c0.2,0,0.3,0.1,0.5,0.1c0,0.8-0.1,1.5-0.4,2.2c-0.2-0.1-0.4-0.2-0.6-0.4c-0.1-0.1-0.2,0.2-0.1,0.2
		c0.2,0.2,0.4,0.3,0.6,0.4c-0.1,0.3-0.3,0.6-0.5,0.8c-0.1-0.1-0.2-0.2-0.4-0.3c-0.3-0.2-0.5-0.5-0.8-0.6c-0.1,0-0.1,0.1-0.1,0.2
		c0.2,0.3,0.5,0.5,0.7,0.8c0.1,0.1,0.2,0.2,0.3,0.3c-0.3,0.3-0.6,0.6-1,0.9c-0.8,0.4-1.4,0.2-2-0.4c0.1-0.2,0.2-0.3,0.2-0.5
		c1.7-1.8,1.9-5.1,0.6-7.2c0.1-0.1,0.1-0.3,0.1-0.4c0-0.1,0-0.2-0.1-0.2c0.5-0.2,1-0.2,1.5,0C87.7,230.1,88.2,231.2,88.4,232
		L88.4,232z"/>
	<path class="st16" d="M18.2,285.2c-0.4-0.3-0.8-0.5-1.2-0.7c-1.4-0.6-3.5-0.7-3.9,1c-0.4,1.8,1.8,2.7,3.1,3.2c1.1,0.4,3,0.5,3.3-1
		C19.8,286.7,19.1,285.8,18.2,285.2z"/>
	<g class="st10">
		<path class="st11" d="M8.8,228.8c-1.8,3.3-3.8,6.7-4,10.6c-0.3,4.8,1.6,9.3,2.8,13.9c0.7,2.7,1,5.4,0,8.1
			c-0.8,2.2-1.9,4.3-2.9,6.4c-0.3,0.7-0.7,1.7-1,2.6c-0.6,1.3-1,2.6-0.9,4.2c0.2,2.8,2.9,6.1,5,7.7c0.1,0.1,0.2-0.2,0.2-0.2
			c-1.2-2-2.4-4.1-3.2-6.3c-0.7-2.2-0.3-4.1,0.6-6.3c1.9-4.7,4.5-9.5,3.7-14.8c-0.6-4.4-2.7-8.5-3.3-13C5.1,237,7,232.9,8.8,228.8
			C8.9,228.7,8.9,228.7,8.8,228.8L8.8,228.8z"/>
	</g>
	<g class="st10">
		<path class="st17" d="M68.1,220.6c0-0.1,0-0.3-0.1-0.4c0,0,0,0,0-0.1c-0.1-0.3-0.2-0.9-0.6-1h-0.1c-0.3-0.1-0.6-0.1-0.9,0.1
			c-0.6,0.4-0.7,1.2-0.5,1.8c0.2,0.4,0.5,0.8,0.9,1.1c0.6,0.4,1.1-0.4,1.2-0.9c0-0.1,0-0.2,0-0.4v-0.1
			C68.1,220.7,68.1,220.6,68.1,220.6L68.1,220.6z"/>
	</g>
	<g class="st10">
		<path class="st17" d="M70.7,222.4c-0.1,0-0.2,0-0.3,0.1c-0.2,0.2-0.3,0.4-0.4,0.7c-0.1,0.2-0.2,0.3-0.2,0.5c0,0.4,0.4,0.8,0.9,0.7
			s0.6-0.7,0.6-1.1C71.2,222.9,71,222.6,70.7,222.4L70.7,222.4z"/>
	</g>
	<g class="st10">
		<path class="st17" d="M71.9,217.1C71.9,217.1,71.8,217.1,71.9,217.1C71.8,217.1,71.8,217.1,71.9,217.1c-0.1,0-0.1,0-0.1-0.1
			c-0.1-0.1-0.2-0.1-0.3,0c-0.1,0.1-0.1,0.2-0.1,0.4c-0.1,0.1-0.1,0.3-0.1,0.4v0.1c0,0.3,0.4,0.3,0.5,0.1c0.1-0.1,0.2-0.3,0.2-0.4
			C72.1,217.4,72.1,217.2,71.9,217.1z"/>
	</g>
	<g class="st10">
		<path class="st17" d="M14.1,252.2c-0.9-0.7-1.7,0.4-1.9,1.2c-0.3,1,0.2,2.5,1,3.1c0.4,0.3,0.9,0.1,1.1-0.3c0.4-0.4,0.6-1,0.7-1.5
			C15.1,253.8,14.8,252.7,14.1,252.2z"/>
	</g>
	<g class="st10">
		<path class="st17" d="M16.6,250.2c0,0-0.1,0-0.1,0.1c-0.1,0-0.1,0.1-0.1,0.2c0,0.1,0.1,0.2,0.1,0.3c0,0.2,0.2,0.1,0.3,0
			c0.1-0.2,0.1-0.3,0-0.5C16.7,250.3,16.7,250.2,16.6,250.2z"/>
	</g>
	<g class="st10">
		<path class="st17" d="M18.6,254.7c-0.1-0.1-0.2-0.1-0.3,0c-0.3,0.2-0.4,0.5-0.4,0.9c-0.2,0.8,0.1,1.8,0.8,1.9
			c0.6,0,0.7-0.9,0.6-1.4C19.1,255.7,18.9,254.9,18.6,254.7L18.6,254.7z"/>
	</g>
	<path class="st15" d="M32.4,282.7c-0.6,0.8-1,2.1-0.5,3c0.2,0.4,0.7,0.6,1.2,0.4c0.3-0.1,0.5-0.3,0.7-0.5c0,0,0.1,0,0.1-0.1
		c0.7-0.6,1.1-2,0.7-2.8C34.3,281.7,33.1,281.9,32.4,282.7L32.4,282.7z"/>
	<path class="st15" d="M35.4,278.6C35.4,278.6,35.3,278.5,35.4,278.6c-0.5-0.2-0.7,0.5-0.8,0.8c0,0.3,0.1,0.8,0.5,0.7
		c0.3-0.1,0.3-0.4,0.4-0.7c0-0.2,0.1-0.4,0-0.6C35.5,278.7,35.4,278.6,35.4,278.6L35.4,278.6z"/>
	<path class="st15" d="M32.5,277.4c-0.7-0.3-1.2,0.6-1.3,1.1c-0.1,0.6-0.1,1.3,0.1,1.8c0.1,0.3,0.3,0.4,0.5,0.4
		c0.1,0.1,0.2,0.1,0.4,0s0.4-0.3,0.5-0.6c0-0.1,0.1-0.2,0.1-0.2c0.1-0.3,0.2-0.6,0.2-0.8C33.1,278.5,33.1,277.6,32.5,277.4z"/>
	<path class="st15" d="M83.5,259.1c-1-0.9-2.8,0.6-3.3,1.4c-0.4,0.7-0.9,2.2-0.2,2.9c0.1,0.1,0.2,0.2,0.3,0.3c1,0.9,2.3-0.4,2.8-1.2
		C83.7,261.6,84.5,259.9,83.5,259.1L83.5,259.1z"/>
	<path class="st15" d="M84.8,254L84.8,254c-0.1,0-0.3-0.1-0.4,0c-0.6,0.3-0.8,0.9-0.8,1.5c0,0.2,0.1,0.5,0.3,0.5c0.6,0,1-0.7,1-1.2
		c0-0.1,0-0.2-0.1-0.3l0.1-0.1C85.1,254.2,85.1,253.8,84.8,254L84.8,254z"/>
</g>
<g>
	
		<radialGradient id="SVGID_00000122703846794321786610000010633483392664237236_" cx="-986.9294" cy="-6.3681" r="1" gradientTransform="matrix(85.3647 37.939 -38.3415 86.2704 84232.3203 38025.6367)" gradientUnits="userSpaceOnUse">
		<stop  offset="0" style="stop-color:#F3ECEC"/>
		<stop  offset="0.22" style="stop-color:#C8A3A3"/>
		<stop  offset="0.61" style="stop-color:#B68585"/>
		<stop  offset="1" style="stop-color:#4A2C2C"/>
	</radialGradient>
	<path style="fill:url(#SVGID_00000122703846794321786610000010633483392664237236_);" d="M241.4,114.9c2.1-4.5,5.7-8.4,6.3-13.4
		c0.5-4.2-1.2-8.6-3.7-11.9c-2.9-3.9-7.5-5.5-10.5-9.2c-1.4-1.8-2.1-4-3.2-5.9c-1.2-2-2.6-3.6-4.5-4.9c-3.2-2.2-7.4-3.2-11.2-3.1
		c-2.2,0.1-4.4,0.2-6.7,0.1c-2.2-0.1-4.4-0.7-6.6-0.9c-3.6-0.2-7.3,0.7-10.5,2.5c-1.5,0.8-2.3,2.3-3.2,3.7c-0.2,0.3-0.3,0.5-0.5,0.8
		c-3.4,2.2-7.3,3.3-10.7,5.5c-4.1,2.6-6.5,7-8,11.6s-0.2,9.8,1.4,14.2c0.9,2.4,1.5,4.9,2.5,7.2c0.9,2.2,0.8,4.8,1.2,7.1
		c0.7,4.6,4.1,7.2,8.5,7.9c2.3,0.3,4.6,0.3,6.9,0.5c3.1,0.3,5.6,1.9,8.1,3.6c4.3,3.1,8.7,5.1,13.9,6.1c4.3,0.8,9,1.3,13.3,0.5
		C234.7,135.1,237.6,122.9,241.4,114.9L241.4,114.9z"/>
	<g class="st7">
		<path class="st8" d="M241.3,115.1c2.1-4.5,5.7-8.4,6.4-13.4c0.6-4.2-1.2-8.6-3.6-11.9c-2.8-3.9-7.5-5.6-10.4-9.3
			c-1.4-1.8-2-4-3.2-5.9c-1.2-2-2.6-3.6-4.4-4.9c-3.1-2.3-7.3-3.2-11.2-3.2c-2.2,0-4.4,0.2-6.7,0.1c-2.2-0.1-4.3-0.7-6.5-0.9
			c-3.6-0.3-7.3,0.7-10.5,2.4c-1.5,0.8-2.3,2.3-3.2,3.7c-0.2,0.3-0.3,0.5-0.5,0.8c-3.4,2.2-7.3,3.3-10.8,5.4c-4.1,2.6-6.6,7-8,11.5
			c-1.5,4.6-0.2,9.8,1.3,14.3c0.8,2.4,1.5,4.9,2.4,7.3c0.9,2.2,0.8,4.8,1.2,7.1c0.7,4.6,4,7.2,8.4,7.9c2.3,0.4,4.6,0.3,6.9,0.5
			c3.1,0.3,5.6,1.9,8.1,3.7c4.3,3.1,8.7,5.2,13.9,6.1c4.2,0.8,9,1.3,13.3,0.6C234.5,135.2,237.5,123.1,241.3,115.1z M232.1,93.5
			c-1,0.7-2.4,0.7-3.6,0.7c-1.8,0-3.3,0.3-4.9,1.3c-1.6,1-3,2.3-4.5,3.4c-1.1,0.9-2.4,2-3.8,2.2c-0.9,0.2-1.8,0.1-2.7,0.3
			c-1.3,0.2-1.7,1.1-2.4,2c-0.8,1.1-1.7,1.3-2.9,1c-3.6-0.7-7.5-0.2-10.2,2.5c2.6,0,5.4-0.2,7.5,1.7c0.2,0.2,0.1,0.5-0.2,0.5
			c-3.3-0.4-7.6,1.8-9.7,4.5c-0.9,1.1-2.6,4.9-4.7,3.7c-1.2-0.7-1.9-1.9-3-2.8c-1.4-1.2-3.1-2.3-5-2.3c-1,0-2.2,0.5-3,0
			c-1.1-0.7-0.4-2.6-1.8-3.2c-1-0.4-2.1-0.5-2.6-1.6c-0.6-1.1-0.9-2.2-1.3-3.3c-1.1-2.9-2.6-5.7-3.2-8.7c-0.9-3.9,0.4-8.2,2.5-11.5
			c0.6-1,1.3-1.9,2.1-2.7c1.9-2,4.4-3.3,6.9-4.3c1.3-0.5,2.8-0.6,4.1-0.9c2.1-0.4,2.5-2,3.3-3.7c0.1-0.2,0.5-0.2,0.5,0
			c0.3,1.3,0.1,2.6-0.2,3.9c1.4-2,3-4.3,5.5-4.4c0.7,0,2.3-0.2,2.8,0.3c0.7,0.7,0.9,1.8,1.3,2.7c0.2-1.3,0.2-2.7,0.4-4
			c0-0.2,0.2-0.3,0.3-0.2c1.3,0.1,2.4-1.2,3.7-1c0.5,0.1,1,0.2,1.4,0.5c-0.1-0.4-0.2-0.7-0.4-1.1c-0.1-0.2,0.1-0.4,0.3-0.4
			c0.9,0,1.8,0.2,2.6,0c-0.5-0.2-0.9-0.4-1.4-0.6c-0.3-0.1-0.1-0.6,0.2-0.5c4.9,0.1,9.8-0.9,14.6,0.9c1.6,0.6,3.5,1.6,3.8,3.5
			c0.2,1.3-1.4,3.3-2.2,4.1c-0.2,0.2-0.6,0.1-0.5-0.2c0.2-0.8,0.5-1.6,0.8-2.4c-0.5,0.7-1.1,1.4-1.8,2c-0.1,0.1-0.3,0.1-0.4-0.1
			c-0.7-0.9-1.3-1.8-1.9-2.7c0,0.2,0,0.5,0,0.7c0,0.3-0.4,0.5-0.5,0.2c-0.6-1.1-2.6-3.1-4-2.4c-1.3,0.7-0.3,2.9-0.3,4.1
			c0,0.1-0.1,0.2-0.3,0.2c-1.9,0.1-4.4-0.8-6,0.5c1.5,1.4,3.7,1.9,5.6,2.4c0.9,0.2,1.8,0.4,2.7,0.6c0.4,0.1,1.1,0.2,1.4,0.6
			c0.7,1-0.8,2.4-1.5,2.9c-1.1,0.7-2.2,1.4-3.1,2.3c-0.1,0.1-0.1,0.2-0.1,0.2c2.2,0.1,4.2-1.4,6.3-1.8c0.2,0,0.3,0.2,0.3,0.3
			c-0.1,0.5-0.3,1-0.4,1.4c-0.1,0.3-0.3,0.7-0.3,1c-0.1,0.6,0.4,0.6,0.7,0.3c0.7-0.8,1.3-1.8,2.2-2.5c0.4-0.3,1-0.6,1.5-0.1
			c0.7,0.8,0.9,1.8,1.8,2.3c0.1-0.6-0.1-1.2-0.3-1.8c-0.1-0.4,0.4-0.5,0.5-0.2c1,2.2,2.3,4.2,4.1,5.8c1.3,1.2,2.8,2.2,3.7,3.8
			C232.3,93.2,232.3,93.4,232.1,93.5L232.1,93.5z"/>
	</g>
	<g class="st10">
		<path class="st11" d="M187.6,75.8c-1.6,0.4-3,1.1-4.7,1.5c-1.3,0.3-2.6,0.7-3.8,1.3c-2.9,1.3-5,3.6-6.5,6.3
			c-1.6,2.9-2.1,6.3-1.6,9.5c0.3,1.8,0.9,3.5,1.5,5.2c0.5,1.3,0.8,2.8,1.5,4c0.1,0.1,0.3,0,0.3-0.1c-1.9-5.7-3.8-11.4-1.4-17.3
			c1.3-3.2,3.6-5.6,6.6-7.2c1.3-0.7,2.7-1.1,4.1-1.5c1.4-0.4,2.7-1.2,4.1-1.6C187.7,75.9,187.7,75.8,187.6,75.8L187.6,75.8z"/>
	</g>
	<path class="st19" d="M205.9,67.9c-0.3,0-1.1-0.5-1.7-0.6c0-0.5-1.1-0.6-1.5-0.6c-2-0.1-4-0.2-6,0.1c-1,0.1-1.8,0.4-2.6,0.7
		c-1.2,0.4-2.6,1-3.1,1.9l0,0c-0.1,0.2-0.2,0.4-0.3,0.6c-0.1,0.3-0.3,0.6-0.4,0.9c0,0.1,0.3,0.1,0.3,0c0.1-0.3,0.4-0.5,0.6-0.8
		c0.1-0.1,0.1-0.1,0.1-0.2c0.3,0.1,0.8,0.2,1.2,0.2c0,0.1-0.1,0.2-0.1,0.3c-0.1,0.3-0.2,0.6-0.3,1c-0.1,0.3-0.2,0.8-0.4,1.1
		c-0.1,0.2,0.2,0.2,0.2,0.1c0.4-0.3,0.6-0.9,0.8-1.3c0.2-0.3,0.3-0.5,0.4-0.8c0-0.1,0.1-0.2,0.1-0.3c1.3,0,2.6-0.2,3.9-0.4v0.1
		c0,0.3,0.1,0.6,0.1,0.9c0,0.1,0.3,0.1,0.3,0c0-0.3,0-0.6,0-0.9c0-0.1,0-0.2,0-0.2c0.1,0,0.2,0,0.2,0c0,0.3,0.1,0.6,0.1,0.8
		c0,0.6,0,1.3,0.1,1.9c0,0.1,0.3,0,0.3-0.1c0.1-0.7,0.3-1.3,0.3-1.9c0-0.2,0-0.6,0-0.9c0.3-0.1,0.6-0.1,0.9-0.2
		c0.3-0.1,0.5-0.1,0.8-0.2c0.7-0.2,1.5-0.4,2.2-0.6c0.1,0,0.1,0,0.2-0.1c0.1,0.1,0.3,0.2,0.4,0.2c0.3,0.2,0.6,0.5,0.9,0.7
		c0.1,0.1,0.3,0,0.3-0.2c-0.3-0.3-0.6-0.8-1-1.1h0.1c0,0,0.1,0,0.2,0.1c0.3,0.1,0.5,0.3,0.7,0.4c0,0,0.2,0,0.1-0.1
		c-0.2-0.2-0.3-0.4-0.5-0.5c0.7,0.1,1.4,0.4,2,0.3C206,68.1,206.1,67.9,205.9,67.9L205.9,67.9z M203.2,67.5c-0.1,0-0.1,0-0.1,0.1
		c0-0.3-6,0.3-6.4,0.4c-1.4,0.3-3,0.5-4.3,1.1c0.1-0.1,0.1-0.3,0.2-0.5l0,0c2.4-1.1,4.7-1.7,7.4-1.6c0.9,0,1.8,0.1,2.7,0.1
		C203.5,67.2,203.5,67.3,203.2,67.5L203.2,67.5z"/>
	<path class="st19" d="M184.8,120.9c0.4-2.1-1.2-5-3.3-5.4l0,0c-0.9-0.5-1.8-0.7-2.3,0.1c-1,1.8,1.3,4.7,2.6,5.8
		C183,122.4,184.4,122.7,184.8,120.9L184.8,120.9z"/>
	<path class="st19" d="M234,104c-3.2-0.1-7.3,1.1-9,4.1c0-0.2-0.1-0.4-0.1-0.6c0.4-0.8,0.8-1.6,1.4-2.3c0.1-0.1-0.1-0.1-0.2,0
		c-0.6,0.6-1.1,1.2-1.5,2c-0.4-0.6-1-1-1.8-1.4c-0.6-0.3-1.1-0.5-1.7-0.6c0.1-0.6,0.2-1.1,0.5-1.7c0.4-0.8,1.2-2.3,2.1-2.7
		c0.1-0.1,0-0.2-0.1-0.1c-1,0.3-1.8,1.6-2.4,2.4c-0.2,0.4-0.7,1.2-0.9,1.9c-1-0.1-2-0.1-3,0.1c-1.4,0.2-2.7,0.4-4.1,0.8
		c0-0.1-0.1-0.2-0.1-0.3c-0.1-0.3-0.2-0.5-0.3-0.8s-0.2-0.6-0.3-0.8c-0.1-0.2-0.3-0.4-0.4-0.7c0-0.1-0.3,0-0.2,0.1
		c0.1,0.2,0.2,0.4,0.2,0.6c0.1,0.3,0.2,0.6,0.3,1c0.1,0.3,0.2,0.6,0.2,0.9c0,0.1,0,0.1,0,0.2c-0.1,0-0.3,0.1-0.4,0.1
		c0-0.1-0.1-0.2-0.1-0.3c-0.1-0.2-0.2-0.5-0.3-0.7c0-0.1-0.2,0-0.2,0.1c0.1,0.2,0.1,0.5,0.2,0.8c0,0.1,0,0.1,0.1,0.2
		c-0.5,0.2-1.1,0.4-1.6,0.7c-0.6-0.6-1.6-0.9-2.2-1.2c-1.6-0.6-3-0.8-4.7-0.7c-0.1,0-0.1,0.1,0,0.1c1.7,0.1,3.2,0.4,4.8,1.1
		c0.5,0.2,1,0.6,1.4,0.9c0,0-0.1,0-0.1,0.1c-1.4,0.8-2.9,1.9-3.8,3.3c-0.9-0.2-2-0.1-2.7,0.1s-1.4,0.5-2,0.9c-0.5,0.3-1,1-1.5,1.2
		c-0.1,0-0.1,0.1,0,0.1c0.7,0,1.6-0.9,2.1-1.2c1.3-0.6,2.5-0.7,3.8-0.6c-0.1,0.2-0.2,0.4-0.3,0.6c-0.2,0.4-0.2,0.8-0.2,1.2
		c-0.3,0-0.6,0.1-0.8,0.2c-0.4,0.2-0.8,0.5-1.3,0.7c-0.1,0.1,0,0.2,0.1,0.2c0.3-0.1,0.6-0.3,0.9-0.4c0.2-0.1,0.4-0.1,0.6-0.2
		c0.2-0.1,0.4,0,0.5,0c0.1,0.4,0.2,0.7,0.4,1c-0.2,0-0.5,0.1-0.6,0.3c-0.1,0.1-0.2,0.1-0.2,0.2c-0.1,0-0.1,0.1-0.1,0.1l0,0
		c0.1,0,0.3-0.1,0.4-0.2c0.2-0.1,0.4-0.2,0.7-0.3c0.6,0.8,1.5,1.4,2.4,1.8c1.7,0.7,3.6,1.4,5.6,1.6c-0.1,0.2-0.1,0.5,0,0.8
		c0,0.4,0,0.8,0.1,1.2c0,0.1,0.3,0,0.3-0.1c0-0.4,0.1-0.7,0.2-1.1c0-0.2,0-0.4,0.1-0.6V118c2.6,0.2,5.1-0.2,7.1-2
		c1-1,1.9-2.1,2.5-3.4c0.1,0,0.2,0,0.4,0s0.3,0.1,0.5,0.1c0.1,0,0.3-0.1,0.1-0.2c-0.3-0.1-0.6-0.2-0.9-0.2c0.2-0.4,0.4-0.8,0.5-1.3
		c0.3-0.1,0.7-0.1,1.1-0.1c0.2,0,0.5,0,0.7,0c0.1,0,0.3,0,0.4,0c-0.1,0,0.8,0.1,0.4,0.1c0,0-0.1,0,0,0c0.2,0,0.1,0,0.4,0
		c0,0,0.1,0,0.1-0.1c-0.4-0.5-1.5-0.5-2-0.5c-0.2,0-0.5,0-0.8,0c0.1-0.4,0.2-0.8,0.3-1.2c0-0.1,0-0.2,0.1-0.3
		c1.1-1.3,2.1-2.6,3.6-3.6c1.7-1,3.5-1.1,5.3-1.4C234,104.1,234.2,103.9,234,104L234,104z M220.9,115.4c-3,3.4-8.1,1.9-11.8,0.6
		c-2-0.7-3.7-2.1-3-4.3c0,0,0,0.1,0.1,0.1c0.4,1.2,2.4,2.3,3.4,2.8c1.6,0.8,3.7,0.6,5.4,0.3c1.7-0.2,4-0.4,5.5-1.4
		c1-0.6,1.6-1.5,2.3-2.4c0.5-0.7,0.9-1.6,1.4-2.4c0,0.3-0.1,0.6-0.1,0.9C223.6,111.7,222.3,113.7,220.9,115.4L220.9,115.4z"/>
	<path class="st19" d="M244.8,98.4c0.4-0.8,0.1-2.1,0-2.7c-0.2-2-0.9-4-2.2-5.6c-0.5-0.6-1.6-1.6-2.5-1.7c-0.6-0.3-1.4-0.3-2.1-0.5
		c-1-0.3-1.9-0.9-2.9-1.4c0,0-0.2,0-0.1,0.1c0.7,1.3,2.6,1.8,4.1,2c-0.3,0.2-0.4,0.5-0.5,0.9c-0.7-0.1-1.5,0-2.2-0.2
		c-0.1,0-0.2,0.1-0.1,0.1c0.7,0.3,1.5,0.4,2.3,0.5c0,0.7,0.1,1.4,0.2,1.8c0.1,0.4,0.2,0.9,0.4,1.3c-0.1,0-0.1,0.1-0.2,0.1h-0.1
		c0,0-0.1,0,0,0c0,0-0.1,0-0.1,0.1s0.3,0.1,0.5,0c0,0.1,0.1,0.1,0.1,0.2c-0.2,0-0.3,0.1-0.5,0.1c-0.1,0-0.2,0.2-0.1,0.2
		c0.2,0,0.4,0,0.6-0.1c0.1,0.2,0.1,0.4,0.2,0.5c-0.4,0-0.7,0.1-1.1,0.2c-0.3,0.1-0.7,0.2-1,0.3c-0.3,0.1-0.7,0.3-1,0.4l-0.1,0.1
		c0.1,0.1,0.1,0,0.3,0c0.4-0.2,0.9-0.3,1.3-0.4c0.6-0.1,1.1-0.2,1.7-0.2c0.2,0.4,0.4,0.7,0.6,1.1c-0.1,0-0.1,0.1-0.2,0.1
		c-0.6,0.3-1.2,0.7-1.8,1c-0.1,0.1,0,0.1,0.1,0.1c0.5-0.3,1.1-0.6,1.6-0.8c0.1-0.1,0.3-0.1,0.4-0.2c0.2,0.4,0.5,0.8,0.8,1.1
		c-0.4,0.3-0.8,0.7-1.1,1c-0.1,0.1,0.1,0.1,0.1,0.1c0.3-0.2,0.5-0.4,0.8-0.6c0.1-0.1,0.2-0.2,0.4-0.2c0.2,0.2,0.3,0.4,0.5,0.6
		c0.2,0.3,0.5,0.6,0.9,0.9c-0.8,0.4-1.5,1.3-2,2c-0.1,0.1,0.2,0.1,0.2,0c0.3-0.4,0.7-0.7,1.1-1.1c0.3-0.2,0.7-0.5,0.9-0.8
		c0.2,0.1,0.4,0.2,0.6,0.3c-0.8,0.9-1.3,2.1-1.7,3.1c-0.1,0.1,0.2,0.1,0.2,0c0.7-1.4,1.7-2.4,2.7-3.6
		C244.8,98.5,244.8,98.5,244.8,98.4L244.8,98.4z M243.5,98.3c0-0.1,0.1-0.1,0.1-0.1v-0.1l0,0c0.4-0.8-1-4.6-1.2-4.9
		c-0.3-0.5-2-3.5-2.8-3.4c0.2-0.4,0.5-0.6,1.1-0.2c1,0.7,1.7,1.6,2.2,2.6c0.9,1.7,1.2,3.7,1.2,5.6C244.2,98.4,243.9,98.5,243.5,98.3
		L243.5,98.3z"/>
	<path class="st19" d="M227.9,84.8c-1.3-1.3-2.5-2.6-3.8-3.8c0.2-0.3,0.2-0.7,0-1.1c0.1,0,0.2,0,0.3,0c1.3,0.2,2.6,0.6,3.9,0.8
		c0.1,0,0.3-0.1,0.1-0.2c-1.1-0.2-2.2-0.6-3.3-0.9c-0.4-0.1-0.8-0.2-1.2-0.3c-0.2-0.4-0.5-0.8-0.7-1c0.2,0,0.4-0.1,0.5-0.1
		c0.5-0.1,1.1-0.1,1.5-0.3c0.1,0,0.1-0.2,0-0.1c-0.7,0.2-1.5,0.1-2.2,0.3c-0.1-0.1-0.2-0.2-0.3-0.3c0,0,0.1,0,0.1-0.1
		c0.2-0.1,0.5-0.2,0.7-0.3c0.1-0.1,0-0.2-0.1-0.1c-0.3,0.1-0.5,0.3-0.8,0.4c-0.1-0.1-0.2-0.2-0.4-0.3c-0.3-0.3-0.6-0.6-1-0.9
		c0.2-0.4,0.3-0.9,0.5-1.3c0.3-0.9,0.8-1.7,1-2.7c0-0.1-0.2,0-0.2,0c-0.2,0.8-0.7,1.6-1.1,2.3c-0.2,0.4-0.4,0.9-0.6,1.3
		c-0.3-0.2-0.5-0.3-0.8-0.5c0.1-0.4,0-0.8,0-1.1c0-0.1-0.2-0.1-0.2,0c0,0.2,0,0.4,0,0.6c0,0.1,0,0.2,0,0.4c-0.6-0.3-1.2-0.5-1.7-0.6
		c-0.1-0.1-0.1-0.3-0.2-0.4c-0.3-0.5-0.9-1.1-0.9-1.7c0-0.1-0.2-0.1-0.2,0c-0.1,0.5,0.3,1.2,0.6,1.7c0,0.1,0.1,0.2,0.1,0.3
		c-0.2,0-0.4,0-0.5,0.1c-0.2-0.2-0.5-0.3-0.7-0.5c-0.5-0.4-1.1-0.7-1.5-1.1c-0.1,0-0.2,0-0.1,0.1c0.4,0.3,0.7,0.6,1.1,0.9
		c0.3,0.2,0.6,0.5,0.9,0.8c-0.4,0.3-0.1,1,0.2,1.6c-0.1,0-0.1,0-0.2,0c-0.3,0-0.6,0-0.9,0.1c-0.1,0-0.1,0.1,0,0.1
		c0.4,0,0.8,0,1.3,0.1c0.1,0.1,0.1,0.2,0.2,0.2c-0.5,0-1.1,0-1.6,0c-1.1-0.1-2.5,0.1-3.5-0.2c-0.1,0-0.2,0.1-0.1,0.1
		c0.8,0.2,1.8,0.2,2.6,0.3c1,0.1,2,0.2,3,0.2c0.1,0.1,0.2,0.2,0.2,0.3c0.5,0.5,1,0.9,1.5,1.3c-0.2,0.2-0.3,0.4-0.4,0.5
		c-0.4,0.5-0.8,1-1.2,1.6c-0.1,0.1,0.2,0.1,0.3,0c0.5-0.7,1.1-1.3,1.7-1.9c0.5,0.3,1.1,0.6,1.6,0.9c0,0.2,0.1,0.4,0.1,0.6
		c0,0.1,0.2,0,0.2,0c0-0.1,0-0.2,0-0.4c0,0,0.1,0,0.1,0.1c0.1,0,0.1,0.1,0.2,0.1c0,0.1,0.1,0.2,0.1,0.3c0.1,0.3,0.3,0.7,0.4,1
		c0.1,0.1,0.3,0,0.3-0.1c-0.1-0.3-0.2-0.6-0.2-0.9c0.3,0.1,0.7,0.3,1,0.3c0.5,0.4,1.1,0.8,1.6,1.2c0.9,0.8,1.8,1.7,2.8,2.4
		C227.8,85,228,84.9,227.9,84.8L227.9,84.8z"/>
	<path class="st20" d="M222,132.2c-1.2-0.1-2.4,0-3.7,0c-1.2,0.1-2.6,0.1-3.9,0.4c-0.9,0-2,0.2-2.6,0.8c-1.1,0.9,0.8,1.6,1.4,1.8
		c2.1,0.7,4.5,0.7,6.7,0.5c1.6-0.1,4.2-0.5,5.5-1.5C227.6,132.5,222.7,132.2,222,132.2z"/>
	<g class="st21">
		<path class="st15" d="M189.6,88.3c-1.4-0.2-3.2-0.6-4.5-1.2c-0.9-0.4-1.8-0.9-2.7-1.3c0.4-1,0.7-2.1,0.6-3.2
			c0.4,0.1,0.8,0.2,1.2,0.3c0.5,0.1,1,0.2,1.5,0.3c0.1,0,0.3-0.1,0.1-0.2c-0.5-0.1-1-0.2-1.6-0.4c-0.4-0.1-0.8-0.3-1.2-0.2
			c0-0.1,0-0.1,0-0.2c0.1,0,0.2,0.1,0.4,0.1s0.4,0.1,0.6,0c0.1,0,0.2-0.2,0-0.2c-0.3,0-0.5,0-0.8-0.1c-0.1,0-0.2-0.1-0.2-0.1
			c0-0.2-0.1-0.3-0.1-0.4c0.1,0,0.2,0.1,0.3,0.1c0.5,0.1,1,0,1.5,0c0.8,0,1.6-0.2,2.2-0.7c0.1-0.1-0.1-0.1-0.1-0.1
			c-0.8,0.5-2.6,0.4-3.4,0c-0.5-0.3-0.9-0.4-1.4-0.2c-0.2-0.1-0.5-0.1-0.8,0.1c-0.8,0.4-1.5,0.9-2.1,1.6c-2.7,2-5,5.6-5.7,8.6
			c-0.2,0.7-0.5,2.4,0.4,2.8c0.2,0.4,0.8,0.8,0.9,1c0.4,0.5,0.8,0.9,1.2,1.4c0.6,0.7,0.6,1.5,0.8,2.3c0,0.1,0.2,0,0.2,0
			c0.1-0.6,0.1-1.1,0-1.7c-0.1-0.5-0.6-1-0.9-1.4c-0.4-0.5-0.9-0.9-1.3-1.4c0,0-0.1-0.1-0.2-0.1c0.7,0,1.5-0.4,2.1-0.9
			c0.2,0.2,0.4,0.3,0.5,0.5c0.4,0.4,0.6,0.8,1,1.2c0.1,0.1,0.3,0,0.2-0.1c-0.3-0.4-0.5-0.9-0.8-1.3c-0.2-0.2-0.3-0.4-0.5-0.6
			c0.3-0.2,0.5-0.4,0.8-0.6c0.1-0.1,0.2-0.1,0.2-0.2c0.2,0.2,0.5,0.4,0.7,0.5c0.7,0.5,1.5,1.2,2.2,1.6c0.1,0.1,0.4-0.1,0.2-0.2
			c-0.4-0.3-0.7-0.7-1-1s-0.7-0.5-1-0.8c-0.2-0.2-0.5-0.4-0.7-0.6c0.7-0.7,1.4-1.5,2.1-2.4c0.1,0,0.2-0.1,0.1-0.1l0,0
			c0.3-0.5,0.6-1,0.9-1.5c0.2,0.1,0.5,0.2,0.7,0.3c0.4,0.2,0.8,0.5,1.2,0.8c0.1,0,0.3-0.1,0.2-0.1c-0.4-0.2-0.7-0.6-1.1-0.8
			c-0.2-0.2-0.5-0.3-0.8-0.4c0.1-0.2,0.2-0.4,0.3-0.6c0.1,0.1,0.3,0.2,0.5,0.3c0.7,0.4,1.4,0.8,2.2,1.1c1.3,0.5,3.3,0.6,4.7,0.6
			C189.6,88.5,189.7,88.3,189.6,88.3L189.6,88.3z M182.4,82.8c-1.6,1.4-3.3,2.6-4.6,4.3c-1.1,1.6-1.8,3.8-2.2,5.7
			c-0.8,0.3-1.5,0.2-1.5-1c0-0.9,0.3-1.8,0.7-2.6h0.1c0.2,0.1,0.5,0.2,0.6,0.2s0.2,0,0.3-0.1v-0.1c-0.2-0.2-0.6-0.3-0.7-0.5l0,0
			c0.1-0.3,0.3-0.6,0.4-0.9c0.2,0.1,0.5,0.1,0.7,0.1c0.1,0,0.3-0.2,0.1-0.2s-0.4,0-0.6-0.1c0.5-0.9,1-1.9,1.6-2.8
			c0,0.1,0.1,0.1,0.1,0c0.9-1.1,1.8-2,2.8-2.9C181.7,80.4,182.3,81.6,182.4,82.8C182.5,82.8,182.4,82.8,182.4,82.8L182.4,82.8z"/>
		<path class="st15" d="M177.3,86.4c-0.1,0-0.2-0.1-0.3-0.1c-0.1-0.1-0.1-0.1-0.2-0.2c-0.1-0.1-0.2,0-0.2,0
			c-0.3,0.3,0.4,0.4,0.6,0.5C177.2,86.6,177.4,86.5,177.3,86.4L177.3,86.4z"/>
	</g>
	<path class="st19" d="M191.3,122.4c0.3-0.9-0.8-2.1-1.8-1.5c-0.4,0.2-0.4,0.6-0.3,1c0,0.4,0.2,0.7,0.4,1c0.4,0.4,1.1,0.4,1.4,0
		c0.1-0.1,0.1-0.2,0.2-0.2C191.3,122.5,191.3,122.5,191.3,122.4L191.3,122.4z"/>
	<path class="st19" d="M177.6,112.9c-0.3-0.7-0.4-1.6-1.3-1.7c-0.6-0.1-1,0.3-1,0.8c-0.1,0.1-0.1,0.2-0.1,0.3c0.1,0.9,1,2.3,2,2
		C177.9,114.1,177.8,113.4,177.6,112.9z"/>
	<path class="st19" d="M228.4,120.5c-0.3-0.1-0.7,0-1,0.1s-0.6,0.3-0.8,0.6c0,0.1,0,0.2,0,0.2c0.2,0.2,0.5,0.2,0.8,0.2
		c0.2,0,0.7-0.2,0.8-0.5c0.1-0.1,0.2-0.2,0.2-0.2C228.6,120.7,228.6,120.5,228.4,120.5z"/>
	<path class="st20" d="M238.7,113.8c-0.1-0.8-0.9-1.1-1.6-0.8c-0.6,0.2-1,0.6-1.4,1c-0.7,0.5-1.3,1.1-1.5,1.5
		c-0.2,0.3-0.4,0.8-0.4,1.2c0,0.1,0,0.1-0.1,0.2c-0.2,0.8,0.4,1.6,1.2,1.5c0.6,0.1,1.1,0,1.7-0.3C238,117.3,238.9,115.3,238.7,113.8
		L238.7,113.8z"/>
	<path class="st19" d="M239,108.9c0-0.1-0.1-0.2-0.3-0.2s-0.5,0-0.5,0.3c0,0.1-0.1,0.1-0.1,0.2c-0.1,0.1,0,0.2,0.1,0.2
		s0.3,0,0.4-0.1l0,0h0.1C238.8,109.2,239,109.1,239,108.9L239,108.9z"/>
	<path class="st19" d="M232.2,87.7c-0.2-0.5-0.7-0.8-1.2-0.6c0,0-0.2,0-0.2,0.1l0,0c-0.2,0.1-0.2,0.3-0.1,0.5c0,0.1,0.1,0.1,0.2,0.2
		c0.1,0.2,0.2,0.4,0.5,0.6C231.8,88.6,232.3,88.2,232.2,87.7L232.2,87.7z"/>
	<g class="st10">
		<path class="st11" d="M223.3,70.5c-4.1-3.1-9.7-3.1-14.7-2.7c-0.1,0-0.2,0.2-0.1,0.2c2.4,0.2,4.8,0.1,7.2,0.4
			c2.7,0.3,5,0.9,7.4,2.3C223.2,70.6,223.4,70.5,223.3,70.5L223.3,70.5z"/>
	</g>
</g>
<g>
	
		<radialGradient id="SVGID_00000112598221289117643600000003170755737162996132_" cx="-987.7369" cy="0.9846" r="1" gradientTransform="matrix(70.599 -15.0708 15.1098 70.7818 69990.625 -14742.0615)" gradientUnits="userSpaceOnUse">
		<stop  offset="0" style="stop-color:#E3F3FC"/>
		<stop  offset="0.22" style="stop-color:#AEB7BD"/>
		<stop  offset="0.61" style="stop-color:#8CA4AF"/>
		<stop  offset="1" style="stop-color:#393B3D"/>
	</radialGradient>
	<path style="fill:url(#SVGID_00000112598221289117643600000003170755737162996132_);" d="M317.8,258.1c-0.7-3.7-0.3-7.8-2.2-11.2
		c-1.6-2.9-4.6-4.8-7.7-5.7c-3.5-1.1-7.2,0-10.7-1c-1.7-0.4-3.1-1.6-4.7-2.2c-1.6-0.7-3.2-1-5-1c-3,0-6.1,1.3-8.4,3.1
		c-1.4,1-2.7,2.2-4.1,3.1c-1.4,0.9-3,1.5-4.5,2.4c-2.4,1.5-4.2,3.7-5.4,6.3c-0.6,1.1-0.4,2.5-0.3,3.7c0,0.2,0,0.5,0,0.7
		c-1.1,2.9-3.1,5.4-4.2,8.3c-1.4,3.5-0.9,7.3,0.3,10.8c1.2,3.5,4.4,6.2,7.3,8.2c1.6,1.1,3.1,2.4,4.8,3.4c1.6,1,2.7,2.6,4,3.9
		c2.5,2.5,5.8,2.6,8.9,1c1.6-0.8,3-1.9,4.6-2.8c2.1-1.2,4.4-1.4,6.7-1.4c4.1,0,7.8-0.8,11.5-2.5c3-1.4,6.2-3.3,8.5-5.7
		C322.8,273.6,319.1,264.7,317.8,258.1L317.8,258.1z"/>
	<g class="st7">
		<path class="st23" d="M317.9,258.2c-0.7-3.7-0.2-7.8-2.1-11.2c-1.6-2.9-4.6-4.8-7.7-5.7c-3.5-1.1-7.2-0.1-10.7-1
			c-1.7-0.5-3.1-1.6-4.7-2.2c-1.6-0.7-3.2-1.1-5-1c-3,0-6.1,1.3-8.4,3.1c-1.4,1-2.7,2.1-4.1,3.1c-1.4,0.9-3.1,1.5-4.5,2.4
			c-2.4,1.5-4.2,3.7-5.5,6.2c-0.6,1.1-0.4,2.5-0.3,3.7c0,0.2,0,0.5,0,0.7c-1.1,2.9-3.1,5.3-4.3,8.2c-1.4,3.4-0.9,7.3,0.2,10.8
			c1.2,3.5,4.3,6.2,7.3,8.2c1.6,1.1,3.1,2.4,4.8,3.4c1.6,1,2.7,2.6,4,3.9c2.5,2.5,5.8,2.7,8.9,1.1c1.6-0.8,3-1.9,4.6-2.8
			c2.1-1.2,4.4-1.4,6.7-1.4c4.1,0,7.8-0.7,11.5-2.5c3-1.4,6.2-3.2,8.6-5.6C322.8,273.8,319.1,264.9,317.9,258.2z M302.4,249
			c-0.3,0.9-1.2,1.5-1.9,2c-1.1,0.8-2,1.7-2.5,3s-0.8,2.8-1.2,4.1c-0.3,1-0.6,2.3-1.4,3.1c-0.5,0.5-1.1,0.9-1.5,1.4
			c-0.7,0.7-0.6,1.4-0.6,2.3c0,1-0.5,1.6-1.4,2c-2.6,1.2-4.8,3.3-5.3,6.1c1.6-1.2,3.3-2.6,5.4-2.4c0.2,0,0.3,0.3,0.1,0.4
			c-2.2,1.3-3.9,4.6-4,7.1c0,1.1,0.6,4.2-1.2,4.4c-1.1,0.1-2.1-0.3-3.1-0.4c-1.4-0.1-3,0-4.2,0.8c-0.6,0.4-1.1,1.3-1.9,1.4
			c-1,0.1-1.4-1.4-2.5-1.2c-0.8,0.2-1.5,0.6-2.4,0.2c-0.8-0.4-1.6-1-2.3-1.5c-2-1.3-4.2-2.4-6-4c-2.3-2-3.4-5.3-3.7-8.3
			c-0.1-0.9-0.1-1.8,0.1-2.6c0.2-2.1,1.2-4,2.4-5.8c0.6-0.9,1.5-1.6,2.2-2.4c1.1-1.2,0.7-2.3,0.4-3.8c0-0.2,0.2-0.4,0.3-0.2
			c0.8,0.7,1.2,1.6,1.7,2.5c0-1.9-0.1-4,1.4-5.2c0.4-0.3,1.3-1.2,1.9-1.1c0.8,0.1,1.4,0.7,2,1.1c-0.5-0.9-1.1-1.7-1.5-2.6
			c-0.1-0.1,0-0.2,0.1-0.3c0.9-0.5,1-1.8,1.8-2.3c0.3-0.2,0.7-0.3,1.1-0.3c-0.2-0.2-0.5-0.3-0.7-0.5c-0.2-0.1-0.1-0.3,0-0.4
			c0.6-0.4,1.2-0.7,1.7-1.2c-0.4,0.1-0.8,0.2-1.2,0.3c-0.3,0.1-0.3-0.3-0.1-0.4c3.1-2.2,5.8-5,9.5-6c1.3-0.4,2.9-0.6,4,0.5
			c0.7,0.7,0.6,2.6,0.5,3.6c0,0.2-0.3,0.3-0.4,0.1c-0.2-0.6-0.4-1.2-0.6-1.9c0,0.7,0,1.3-0.2,2c0,0.1-0.2,0.2-0.3,0.1
			c-0.8-0.3-1.6-0.5-2.5-0.8c0.1,0.2,0.2,0.3,0.3,0.5c0.1,0.2,0,0.5-0.2,0.4c-0.9-0.4-3-0.7-3.6,0.4c-0.5,1,1.1,2,1.6,2.7
			c0,0.1,0,0.2,0,0.3c-1.2,0.9-3.1,1.5-3.5,3c1.5,0.2,3.2-0.5,4.6-1.1c0.7-0.3,1.3-0.5,2-0.8c0.3-0.1,0.7-0.4,1.1-0.3
			c0.9,0.3,0.6,1.8,0.3,2.5c-0.3,1-0.7,1.9-0.9,2.8c0,0.1,0,0.1,0,0.2c1.5-0.9,2-2.7,3.1-4c0.1-0.1,0.3-0.1,0.3,0.1
			c0.2,0.3,0.3,0.7,0.4,1.1c0.1,0.3,0.1,0.5,0.2,0.8c0.2,0.4,0.5,0.2,0.6-0.2c0.1-0.8,0-1.7,0.2-2.5c0.1-0.4,0.4-0.9,0.9-0.8
			c0.8,0.2,1.3,0.7,2.2,0.6c-0.2-0.4-0.6-0.7-1-1c-0.2-0.2,0-0.5,0.2-0.4c1.6,0.9,3.4,1.5,5.2,1.7c1.4,0.1,2.8,0.1,4,0.7
			C302.4,248.8,302.4,248.9,302.4,249L302.4,249z"/>
	</g>
	<g class="st10">
		<path class="st24" d="M266.5,258.2c-0.8,1-1.4,2.1-2.2,3c-0.7,0.8-1.3,1.6-1.8,2.6c-1.2,2.1-1.5,4.5-1.2,6.8
			c0.3,2.5,1.5,4.8,3.3,6.6c1,1,2.1,1.7,3.3,2.5c0.9,0.6,1.7,1.4,2.8,1.8c0.1,0,0.2-0.1,0.1-0.2c-3.8-2.7-7.5-5.4-8.7-10.1
			c-0.6-2.5-0.3-5.1,0.9-7.4c0.5-1,1.2-1.9,1.9-2.8C265.4,260.2,265.9,259.1,266.5,258.2C266.6,258.1,266.5,258.1,266.5,258.2
			L266.5,258.2z"/>
	</g>
	<path class="st25" d="M274.4,245c-0.2,0.1-0.9,0.2-1.4,0.4c-0.2-0.3-0.9,0.2-1.2,0.3c-1.3,0.8-2.6,1.7-3.7,2.8
		c-0.5,0.5-0.9,1.1-1.3,1.6c-0.6,0.8-1.2,1.8-1.1,2.6l0,0c0,0.2,0.1,0.4,0.1,0.5c0.1,0.2,0,0.5,0.2,0.7c0.1,0.1,0.2-0.1,0.2-0.1
		c0-0.2,0-0.5,0-0.8c0-0.1,0-0.1,0-0.2c0.3-0.1,0.6-0.2,0.8-0.4c0,0.1,0.1,0.1,0.1,0.2c0.1,0.2,0.2,0.5,0.3,0.7
		c0.1,0.2,0.3,0.6,0.2,0.8c0,0.2,0.2,0,0.2,0c0.1-0.4,0-0.8-0.1-1.2c0-0.2-0.1-0.5-0.1-0.7c0-0.1,0-0.1,0-0.2c0.8-0.6,1.5-1.3,2.2-2
		c0,0,0,0.1,0.1,0.1c0.2,0.2,0.3,0.4,0.5,0.5c0.1,0.1,0.2-0.1,0.2-0.1c-0.1-0.2-0.2-0.4-0.4-0.6l-0.1-0.1l0.1-0.1
		c0.1,0.2,0.3,0.3,0.4,0.5c0.3,0.4,0.6,0.8,1,1.1c0.1,0.1,0.2-0.1,0.1-0.2c-0.2-0.4-0.4-0.9-0.7-1.3c-0.1-0.2-0.2-0.4-0.4-0.6
		c0.2-0.2,0.3-0.4,0.5-0.5c0.1-0.2,0.3-0.3,0.4-0.5c0.4-0.4,0.8-0.9,1.1-1.4c0,0,0-0.1,0.1-0.1s0.3,0,0.4,0c0.3,0,0.6,0,0.9,0
		c0.1,0,0.2-0.2,0.1-0.2c-0.3-0.1-0.8-0.2-1.1-0.2c0,0,0,0,0-0.1h0.1c0.2-0.1,0.4,0,0.6,0c0,0,0.1-0.1,0-0.1c-0.2,0-0.4-0.1-0.6-0.1
		c0.5-0.2,1-0.4,1.4-0.8C274.5,245,274.5,244.9,274.4,245L274.4,245z M272.5,246l-0.1,0.1c-0.2-0.2-3.6,2.9-3.8,3.1
		c-0.7,0.8-1.6,1.7-2.2,2.6c0-0.1-0.1-0.2-0.1-0.4l0,0c1-1.8,2.2-3.2,3.9-4.3c0.6-0.4,1.2-0.8,1.8-1.1
		C272.5,245.6,272.6,245.7,272.5,246L272.5,246z"/>
	<path class="st25" d="M285.2,287.3c-0.7-1.5-3.1-2.6-4.5-1.8l0,0c-0.8,0.1-1.5,0.4-1.4,1.1c0.2,1.6,3,2.3,4.2,2.4
		C284.8,289.1,285.8,288.7,285.2,287.3L285.2,287.3z"/>
	<path class="st25" d="M308.3,254.6c-2,1.4-4.1,3.9-3.8,6.6c-0.1-0.1-0.2-0.2-0.3-0.3c-0.1-0.7-0.2-1.4-0.2-2.1c0-0.1-0.1,0-0.1,0
		c-0.1,0.6-0.1,1.2,0,1.9c-0.5-0.2-1.1-0.2-1.8,0c-0.5,0.1-0.9,0.2-1.4,0.4c-0.2-0.4-0.4-0.8-0.4-1.2c-0.1-0.7-0.3-2,0.1-2.6
		c0.1-0.1-0.1-0.1-0.1,0c-0.5,0.7-0.4,1.8-0.4,2.6c0,0.3,0.1,1,0.3,1.6c-0.7,0.4-1.3,0.9-1.9,1.4c-0.8,0.7-1.5,1.5-2.2,2.3
		c-0.1,0-0.1-0.1-0.2-0.1c-0.2-0.1-0.4-0.2-0.6-0.4c-0.2-0.1-0.4-0.3-0.6-0.4s-0.4-0.1-0.6-0.2c-0.1,0-0.2,0.1-0.1,0.2
		s0.3,0.2,0.4,0.2c0.2,0.1,0.4,0.3,0.6,0.5s0.4,0.3,0.6,0.5l0.1,0.1c-0.1,0.1-0.1,0.2-0.2,0.3c-0.1,0-0.1-0.1-0.2-0.1
		c-0.2-0.1-0.3-0.2-0.5-0.3c-0.1,0-0.1,0.1-0.1,0.1c0.2,0.1,0.3,0.3,0.5,0.4l0.1,0.1c-0.2,0.4-0.5,0.7-0.7,1.1
		c-0.6-0.1-1.4,0.1-1.9,0.3c-1.3,0.3-2.2,0.9-3.2,1.7v0.1c1.1-0.7,2.2-1.2,3.5-1.5c0.4-0.1,0.9-0.1,1.3-0.1c0,0,0,0,0,0.1
		c-0.5,1.1-0.9,2.5-0.9,3.8c-0.6,0.3-1.3,0.8-1.6,1.3c-0.4,0.5-0.6,0.9-0.9,1.5c-0.2,0.4-0.2,1.1-0.4,1.5v0.1
		c0.4-0.3,0.6-1.3,0.8-1.7c0.5-1,1.3-1.6,2.1-2.1c0,0.2,0.1,0.3,0.1,0.5c0.1,0.3,0.2,0.6,0.4,0.8c-0.2,0.1-0.3,0.3-0.4,0.5
		c-0.2,0.3-0.3,0.7-0.5,1c-0.1,0.1,0.1,0.1,0.1,0.1c0.1-0.2,0.3-0.5,0.4-0.7c0.1-0.1,0.2-0.3,0.3-0.4c0.1-0.1,0.2-0.2,0.3-0.3
		c0.2,0.2,0.5,0.3,0.7,0.4c-0.1,0.1-0.2,0.3-0.3,0.5c0,0.1,0,0.1-0.1,0.2c0,0-0.1,0.1,0,0.1l0,0c0.1,0,0.1-0.2,0.2-0.3
		c0.1-0.2,0.2-0.3,0.3-0.5c0.7,0.2,1.6,0.2,2.3,0c1.4-0.3,2.9-0.8,4.3-1.5c0.1,0.2,0.2,0.3,0.3,0.5c0.2,0.2,0.3,0.5,0.6,0.7
		c0.1,0,0.2-0.1,0.1-0.2c-0.2-0.2-0.3-0.5-0.4-0.7c-0.1-0.1-0.2-0.3-0.2-0.4v-0.1c1.7-1,3.1-2.5,3.5-4.5c0.2-1.1,0.2-2.2,0-3.2
		c0.1-0.1,0.1-0.1,0.2-0.2s0.2-0.1,0.4-0.2c0.1,0,0.1-0.2,0-0.2c-0.2,0.1-0.5,0.1-0.6,0.3c-0.1-0.3-0.1-0.7-0.2-1
		c0.2-0.2,0.4-0.4,0.6-0.6c0.2-0.1,0.3-0.2,0.5-0.3c0.1-0.1,0.2-0.1,0.2-0.2c-0.1,0,0.6-0.3,0.3-0.1c0,0,0,0.1,0,0
		c0.1-0.1,0.1-0.1,0.2-0.2v-0.1c-0.5-0.2-1.1,0.4-1.5,0.6c-0.1,0.1-0.3,0.2-0.5,0.4c-0.1-0.3-0.2-0.6-0.3-0.9c0-0.1-0.1-0.1-0.1-0.2
		c0.1-1.3,0.1-2.6,0.7-3.8c0.6-1.4,1.7-2.3,2.7-3.3C308.4,254.7,308.4,254.5,308.3,254.6L308.3,254.6z M305.3,267.6
		c-0.3,3.5-4.2,4.8-7.1,5.7c-1.5,0.5-3.3,0.4-3.8-1.3h0.1c0.8,0.6,2.6,0.3,3.4,0.2c1.4-0.2,2.5-1.3,3.5-2.2c0.9-0.9,2.3-2.1,2.8-3.3
		c0.3-0.8,0.3-1.6,0.3-2.5c0-0.7-0.2-1.4-0.2-2.1c0.1,0.2,0.2,0.4,0.3,0.6C305.3,264.2,305.4,265.9,305.3,267.6L305.3,267.6z"/>
	<path class="st25" d="M312.6,246.3c-0.1-0.6-0.9-1.3-1.3-1.7c-1-1.1-2.4-2.1-3.9-2.5c-0.6-0.2-1.7-0.3-2.3,0.1
		c-0.5,0.1-1.1,0.4-1.5,0.6c-0.8,0.3-1.6,0.3-2.4,0.4l-0.1,0.1c1,0.5,2.4,0,3.5-0.6c-0.1,0.2,0,0.5,0.1,0.7c-0.5,0.3-1,0.7-1.5,0.9
		c0,0-0.1,0.1,0,0.1c0.6-0.1,1.1-0.4,1.7-0.7c0.3,0.4,0.7,0.8,1,1s0.5,0.5,0.8,0.7l-0.1,0.1c0,0,0,0-0.1,0.1c0,0-0.1,0.1,0,0
		c0,0,0,0,0,0.1s0.2-0.1,0.3-0.2c0.1,0,0.1,0.1,0.2,0.1c-0.1,0.1-0.2,0.2-0.3,0.3c-0.1,0-0.1,0.2,0,0.1c0.1-0.1,0.2-0.2,0.4-0.3
		c0.1,0.1,0.3,0.2,0.4,0.2c-0.2,0.2-0.4,0.4-0.6,0.6c-0.2,0.2-0.3,0.4-0.5,0.6c-0.1,0.2-0.3,0.5-0.5,0.7v0.1c0.1,0,0.1,0,0.2-0.1
		c0.2-0.3,0.4-0.6,0.7-0.8c0.3-0.3,0.6-0.6,1-0.9c0.3,0.1,0.6,0.3,0.8,0.4l-0.1,0.1c-0.3,0.5-0.5,1-0.7,1.5c0,0.1,0.1,0.1,0.1,0
		c0.2-0.4,0.4-0.8,0.6-1.2c0.1-0.1,0.1-0.2,0.2-0.3c0.3,0.1,0.7,0.3,1,0.4c-0.1,0.4-0.2,0.8-0.3,1.1c0,0.1,0.1,0.1,0.1,0
		c0.1-0.2,0.2-0.5,0.2-0.7c0-0.1,0.1-0.2,0.1-0.3c0.2,0.1,0.4,0.1,0.6,0.2c0.3,0.1,0.6,0.1,0.9,0.1c-0.4,0.6-0.4,1.5-0.3,2.1
		c0,0.1,0.1,0,0.2-0.1c0-0.4,0.1-0.8,0.2-1.2c0.1-0.3,0.2-0.6,0.2-0.9c0.2,0,0.3,0,0.5-0.1c-0.1,0.9,0.1,1.9,0.3,2.7
		c0,0.1,0.2,0,0.2-0.1C312.4,248.7,312.6,247.6,312.6,246.3C312.6,246.4,312.6,246.3,312.6,246.3L312.6,246.3z M311.7,246.8v-0.1
		c0,0,0-0.1-0.1-0.1l0,0c-0.1-0.7-2.7-2.4-3-2.5c-0.4-0.2-2.9-1.3-3.3-0.8c-0.1-0.3,0-0.6,0.6-0.6c0.9,0,1.8,0.2,2.6,0.6
		c1.3,0.6,2.4,1.8,3.3,2.9C312.2,246.6,312,246.7,311.7,246.8L311.7,246.8z"/>
	<path class="st25" d="M295.8,245.5c-1.4-0.2-2.7-0.5-4.1-0.6c0-0.3-0.2-0.5-0.5-0.7c0.1,0,0.1-0.1,0.2-0.1c0.9-0.4,1.9-0.8,2.8-1.3
		c0.1,0,0.1-0.2,0-0.2c-0.8,0.4-1.6,0.6-2.4,1c-0.3,0.1-0.6,0.2-0.9,0.4c-0.3-0.2-0.7-0.3-0.9-0.3c0.1-0.1,0.2-0.2,0.3-0.3
		c0.3-0.3,0.6-0.6,0.8-0.9c0-0.1,0-0.1-0.1-0.1c-0.4,0.5-0.9,0.8-1.3,1.2c-0.1,0-0.2,0-0.3,0v-0.1c0.1-0.2,0.2-0.3,0.3-0.5
		c0.1-0.1-0.1-0.1-0.1,0c-0.1,0.2-0.2,0.4-0.3,0.6c-0.1,0-0.2,0-0.4,0c-0.3-0.1-0.7-0.1-1-0.1c-0.1-0.4-0.2-0.7-0.3-1
		c-0.2-0.7-0.3-1.4-0.6-2.1c0-0.1-0.1,0.1-0.1,0.1c0.2,0.6,0.3,1.3,0.4,1.9c0,0.4,0.1,0.7,0.2,1.1c-0.2,0-0.5,0-0.7,0.1
		c-0.1-0.3-0.4-0.5-0.5-0.7c-0.1-0.1-0.2,0.1-0.1,0.1c0.1,0.1,0.2,0.3,0.2,0.4c0,0.1,0.1,0.2,0.1,0.2c-0.5,0.1-1,0.2-1.3,0.4
		c-0.1,0-0.2-0.1-0.3-0.1c-0.4-0.2-1-0.3-1.3-0.6c-0.1-0.1-0.2,0.1-0.1,0.1c0.2,0.4,0.7,0.6,1.1,0.8c0.1,0,0.1,0.1,0.2,0.1
		c-0.1,0.1-0.2,0.2-0.3,0.3c-0.2,0-0.5,0-0.7,0c-0.5,0-1,0.1-1.4,0l-0.1,0.1c0.4,0.1,0.7,0.1,1.1,0.1c0.3,0,0.6,0,0.9,0
		c-0.1,0.4,0.3,0.7,0.8,0.9l-0.1,0.1c-0.2,0.1-0.4,0.2-0.5,0.4c0,0.1,0,0.1,0.1,0.1c0.3-0.2,0.5-0.3,0.8-0.5c0.1,0,0.1,0.1,0.2,0.1
		c-0.3,0.2-0.7,0.5-1,0.7c-0.7,0.5-1.5,1.2-2.3,1.5c-0.1,0-0.1,0.2,0,0.1c0.6-0.2,1.2-0.7,1.8-1c0.7-0.4,1.4-0.8,2-1.2
		c0.1,0,0.2,0,0.3,0.1c0.5,0.1,1,0.2,1.5,0.1c0,0.2,0,0.4,0,0.5c0,0.5,0,1,0,1.5c0,0.1,0.2,0,0.2-0.1c0-0.7,0.1-1.3,0.2-2
		c0.5,0,1-0.1,1.4-0.2c0.1,0.1,0.2,0.2,0.3,0.3c0,0.1,0.2-0.1,0.1-0.1c-0.1-0.1-0.1-0.2-0.2-0.2h0.1c0,0,0.1,0,0.2,0
		s0.1,0.1,0.2,0.1c0.2,0.1,0.5,0.3,0.7,0.4c0.1,0,0.2-0.1,0.1-0.2c-0.2-0.1-0.4-0.3-0.6-0.4c0.3-0.1,0.5-0.1,0.7-0.3
		c0.5,0,1,0,1.5,0c0.9,0.1,1.9,0.2,2.8,0.2C295.8,245.7,295.9,245.6,295.8,245.5L295.8,245.5z"/>
	<path class="st26" d="M313.6,277.5c-0.8,0.5-1.5,1.1-2.3,1.7c-0.7,0.6-1.6,1.2-2.3,2c-0.6,0.4-1.1,1-1.3,1.7
		c-0.3,1,1.2,0.6,1.7,0.5c1.6-0.5,3.1-1.6,4.4-2.7c1-0.8,2.4-2.2,2.8-3.4C317.2,275.2,314.1,277.2,313.6,277.5z"/>
	<g class="st21">
		<path class="st27" d="M273.4,265c-1,0.5-2.3,1.1-3.4,1.3c-0.8,0.1-1.5,0.2-2.3,0.4c-0.2-0.8-0.5-1.6-1-2.2
			c0.3-0.1,0.6-0.2,0.9-0.3c0.4-0.1,0.7-0.3,1-0.5c0.1,0,0.1-0.2,0-0.2c-0.4,0.1-0.8,0.3-1.2,0.5c-0.3,0.1-0.6,0.2-0.9,0.4l-0.1-0.1
			c0.1,0,0.2-0.1,0.3-0.1c0.1-0.1,0.3-0.1,0.4-0.3c0.1-0.1,0-0.2-0.1-0.1c-0.2,0.1-0.4,0.2-0.5,0.3c-0.1,0-0.1,0-0.2,0.1
			c-0.1-0.1-0.2-0.2-0.3-0.2c0.1,0,0.2,0,0.2-0.1c0.4-0.1,0.6-0.5,1-0.7c0.5-0.4,0.9-0.9,1-1.5c0-0.1-0.1,0-0.1,0
			c-0.3,0.6-1.5,1.5-2.2,1.5c-0.4,0.1-0.7,0.2-0.9,0.5c-0.2,0.1-0.4,0.2-0.5,0.4c-0.3,0.6-0.5,1.2-0.6,1.9c-0.8,2.5-0.5,5.7,0.4,7.9
			c0.2,0.5,0.8,1.7,1.5,1.5c0.3,0.1,0.9,0.2,1,0.2c0.5,0.1,0.9,0.2,1.4,0.3c0.7,0.2,1,0.7,1.5,1.1c0.1,0,0.1-0.1,0.1-0.1
			c-0.2-0.4-0.4-0.7-0.7-1c-0.2-0.3-0.9-0.3-1.2-0.4c-0.5-0.1-1-0.2-1.4-0.2c0,0-0.1,0-0.2,0c0.4-0.3,0.7-0.9,0.9-1.5
			c0.2,0,0.4,0,0.6,0.1c0.4,0,0.8,0.2,1.1,0.3c0.1,0,0.2-0.1,0.1-0.2c-0.4-0.1-0.7-0.3-1.1-0.4c-0.2,0-0.4-0.1-0.6-0.1
			c0.1-0.3,0.1-0.5,0.2-0.7c0-0.1,0-0.2,0.1-0.2c0.2,0,0.5,0,0.7,0c0.7,0,1.5,0.1,2.1,0c0.1,0,0.2-0.2,0.1-0.2
			c-0.4,0-0.7-0.1-1.1-0.2c-0.3,0-0.7,0-1,0c-0.2,0-0.5-0.1-0.7-0.1c0.1-0.8,0.2-1.6,0.2-2.4c0,0,0.1-0.1,0-0.1l0,0
			c0-0.4,0-0.9-0.1-1.3c0.2,0,0.4-0.1,0.6-0.1c0.4,0,0.7,0,1.1-0.1c0.1,0,0.2-0.2,0.1-0.2c-0.4,0-0.7,0-1.1,0c-0.2,0-0.5,0-0.7,0.1
			c0-0.2-0.1-0.3-0.1-0.5c0.1,0,0.3,0,0.5-0.1c0.6-0.1,1.3-0.1,1.9-0.3c1.1-0.3,2.3-1.1,3.2-1.7C273.5,265.1,273.5,264.9,273.4,265
			L273.4,265z M266.4,264.8c-0.3,1.6-0.9,3.1-0.9,4.8c0,1.5,0.6,3.2,1.2,4.5c-0.3,0.5-0.8,0.8-1.4,0c-0.4-0.5-0.6-1.2-0.7-1.9
			c0,0,0,0,0.1,0c0.2,0,0.4-0.1,0.5-0.2c0.1,0,0.1-0.1,0.1-0.2c0,0,0-0.1-0.1-0.1c-0.2,0-0.5,0.1-0.7,0l0,0
			c-0.1-0.2-0.1-0.5-0.1-0.7c0.2-0.1,0.3-0.2,0.4-0.3c0.1-0.1,0.1-0.3,0-0.2c-0.1,0.1-0.3,0.2-0.4,0.2c-0.1-0.8-0.2-1.6-0.2-2.5
			c0,0,0.1,0,0.1-0.1c0.1-1,0.2-2,0.4-3.1C264.9,263.7,265.8,264.1,266.4,264.8C266.5,264.8,266.5,264.8,266.4,264.8L266.4,264.8z"
			/>
		<path class="st27" d="M264.8,269.4c-0.1,0-0.2,0-0.3,0.1c-0.1,0-0.2,0-0.3,0c-0.1,0-0.1,0.1-0.1,0.1c0,0.3,0.5,0.1,0.6,0.1
			C264.9,269.6,264.9,269.4,264.8,269.4L264.8,269.4z"/>
	</g>
	<path class="st25" d="M289.9,285.4c-0.2-0.7-1.5-0.9-1.8-0.1c-0.1,0.3,0,0.6,0.3,0.7c0.2,0.2,0.5,0.4,0.7,0.4
		c0.4,0.1,0.8-0.3,0.9-0.7C290,285.6,290,285.5,289.9,285.4C290,285.4,290,285.4,289.9,285.4L289.9,285.4z"/>
	<path class="st25" d="M277.1,285.6c-0.5-0.3-1-0.8-1.6-0.5c-0.4,0.2-0.5,0.6-0.3,1c0,0.1,0,0.2,0.1,0.2c0.4,0.5,1.7,1,2.2,0.3
		C277.8,286.3,277.4,285.9,277.1,285.6z"/>
	<path class="st25" d="M312.3,267.4c-0.2,0.1-0.4,0.3-0.6,0.5c-0.1,0.2-0.3,0.5-0.2,0.7c0,0.1,0.1,0.1,0.1,0.1
		c0.2,0,0.4-0.1,0.6-0.2c0.1-0.1,0.4-0.5,0.3-0.7c0-0.1,0-0.2,0-0.2C312.5,267.4,312.4,267.3,312.3,267.4z"/>
	<path class="st26" d="M315.7,258.6c-0.4-0.4-1.1-0.2-1.4,0.2c-0.3,0.4-0.4,0.8-0.5,1.2c-0.2,0.6-0.3,1.3-0.3,1.6
		c0,0.3,0.1,0.6,0.3,0.9c0,0.1,0,0.1,0.1,0.1c0.2,0.6,1,0.8,1.4,0.4c0.4-0.2,0.7-0.5,0.9-0.9C316.9,261.1,316.5,259.4,315.7,258.6
		L315.7,258.6z"/>
	<path class="st25" d="M313.7,255.5c-0.1-0.1-0.2-0.1-0.3,0c-0.1,0.1-0.3,0.2-0.2,0.4c0,0.1,0,0.1,0,0.2s0.1,0.1,0.2,0.1
		s0.2-0.1,0.2-0.2l0,0c0,0,0,0,0.1,0C313.7,255.7,313.8,255.6,313.7,255.5L313.7,255.5z"/>
	<path class="st25" d="M299.8,245.4c-0.3-0.2-0.8-0.2-1,0.1l-0.1,0.1l0,0c0,0.1,0,0.3,0.2,0.4c0.1,0,0.1,0,0.2,0
		c0.2,0.1,0.4,0.2,0.6,0.1C300,246.1,300.1,245.6,299.8,245.4L299.8,245.4z"/>
	<g class="st10">
		<path class="st24" d="M286.4,238.7c-4-0.1-7.5,2.5-10.4,5c-0.1,0.1-0.1,0.2,0,0.1c1.6-0.9,3.1-2.1,4.7-3c1.8-1,3.6-1.7,5.6-1.9
			C286.4,238.8,286.5,238.7,286.4,238.7z"/>
	</g>
</g>
</svg>
