<?xml version="1.0" encoding="utf-8"?>
<!-- Generator: Adobe Illustrator 27.9.0, SVG Export Plug-In . SVG Version: 6.00 Build 0)  -->
<svg version="1.1" id="Laag_1" xmlns="http://www.w3.org/2000/svg" xmlns:xlink="http://www.w3.org/1999/xlink" x="0px" y="0px"
	 viewBox="0 0 292.5 293" style="enable-background:new 0 0 292.5 293;" xml:space="preserve">
<style type="text/css">
	.st0{fill:url(#SVGID_1_);}
	.st1{fill:#E7CAC1;}
	.st2{fill:#E28481;}
	.st3{fill:#E6B3A9;}
	.st4{fill:#E9C69C;}
	.st5{fill:#E5A79E;}
	.st6{opacity:0.6;fill:#E7CAC1;enable-background:new    ;}
</style>
<linearGradient id="SVGID_1_" gradientUnits="userSpaceOnUse" x1="-72.0119" y1="1141.1705" x2="119.4314" y2="850.7996" gradientTransform="matrix(-2.500000e-03 1 1 2.500000e-03 -857.1424 125.4975)">
	<stop  offset="4.755260e-02" style="stop-color:#CF9D8B"/>
	<stop  offset="0.1917" style="stop-color:#C7572F"/>
	<stop  offset="0.357" style="stop-color:#C99080"/>
	<stop  offset="0.4896" style="stop-color:#CA8A79"/>
	<stop  offset="0.6824" style="stop-color:#CC7966"/>
	<stop  offset="0.8921" style="stop-color:#CF6049"/>
	<stop  offset="0.9018" style="stop-color:#C45841"/>
	<stop  offset="0.9457" style="stop-color:#993922"/>
	<stop  offset="0.9799" style="stop-color:#7E260E"/>
	<stop  offset="1" style="stop-color:#741F07"/>
</linearGradient>
<path class="st0" d="M146,292.6C65.4,292.4,0.3,226.9,0.5,146.4C0.7,65.8,66.1,0.7,146.7,0.9c80.5,0.2,145.7,65.7,145.5,146.2
	C292,227.7,226.5,292.8,146,292.6z"/>
<path class="st1" d="M113.2,54.6c16.8,13,33.4,25.6,45.1,43.7c9.9,15.2,16.2,31.7,20.8,49.2c5.1,19.2,8.8,39.2,17.4,57.4
	c8.8,18.8,25,33,37.6,49.2c1.5,1.9,2.9,3.9,4.3,5.9c15-12.2,27.5-27.2,36.6-44.3c-1.8-2.7-3.6-5.3-5.4-8
	c-3.6-5.4-6.8-11.1-10.6-16.4c-11.3-15.6-26.6-27.8-39.6-41.9c-12.9-14-22.4-29.8-28.6-47.7c-3.4-9.7-5.9-19.6-9.1-29.3
	c-3.2-9.8-7.6-18.9-12.8-27.8c-8.3-14.1-18.1-28-23.8-43.5C120.9,1.1,98,7.2,78,17.9C85.3,33,100.3,44.7,113.2,54.6z"/>
<g>
	<path class="st2" d="M196.8,31.2c3.7,9,5.8,18.2,7.8,27.7c1.8,8.9,3.8,17.9,7.3,26.3c6.9,16.9,19.9,30.3,32.9,42.7
		c15.5,14.9,32,29,45,45.9c1.3-6.7,2.1-13.5,2.4-20.5c-5.1-7.9-12.3-14.3-19.3-20.6s-14.2-12.6-20.4-19.7
		c-5.5-6.4-10.4-13.4-15.3-20.3c-10.5-14.9-20.2-30.6-27.3-47.5c-4.6-10.9-8.3-22.3-9.7-34c-4.2-1.7-8.5-3.1-12.9-4.4
		C189.7,15,193.4,23,196.8,31.2z"/>
	<path class="st1" d="M270,144c-6.1-6.4-13.2-11.5-19.8-17.3c-6.6-5.8-12.9-12.2-18.4-19.2c-5.3-6.8-9.7-14-12.8-22.1
		c-3.6-9.4-6.9-18.9-10.3-28.3c-5.9-16-13.2-31.8-16-48.7c-1.8-0.6-3.7-1.2-5.5-1.7c2.6,8.4,6.3,16.4,9.7,24.5
		c3.7,9,5.8,18.2,7.8,27.7c1.8,8.9,3.8,17.9,7.3,26.3c6.9,16.9,19.9,30.3,32.9,42.7c15.5,14.9,32,29,45,45.9c0.1-0.3,0.1-0.7,0.2-1
		C283.3,163.1,278.1,152.5,270,144z"/>
	<path class="st2" d="M148.5,20.3c5,7.4,9.2,15.2,14.3,22.6c4.7,6.8,10.3,14.8,18.2,18c0.2-15.1-3.3-29.9-10-43.5
		c-2.7-5.4-5.8-10.7-9.1-15.7c-5-0.5-10.1-0.8-15.3-0.8c-4.4,0-8.8,0.2-13.2,0.6c0.1,0.1,0.1,0.2,0.2,0.3
		C138.7,7.8,144.1,13.8,148.5,20.3z"/>
	<path class="st2" d="M242.6,156.7c-0.4,11.1,5,21.8,10.1,31.3s11.2,18.7,14.8,28.9c0.8,2.3,1.7,4.7,2.5,7c5.2-8.3,9.5-17.1,13-26.3
		C268.1,185.9,258.7,167.3,242.6,156.7z"/>
	<path class="st3" d="M222.5,222.6c-15.2-19.8-23.3-43-29.7-66.8c-2.5-9.3-4.8-18.7-7.4-28c-2.6-9.1-5.5-17.8-10.6-25.8
		c-9.3-14.4-22.4-25.5-32.8-38.9c-8-10.4-13.6-22.3-20.6-33.4c-4.6-7.3-10.4-16.6-18-22.2c-12.8,4-24.9,9.6-36,16.8
		c6.4,15.4,21,26.7,36.8,32c17.7,6,31.2,18.9,40.2,35.1c8.1,14.6,12.9,30.7,15.4,47.1c2.7,17.9,3.5,37.2,12.1,53.5
		c9.4,17.7,26.7,28.7,39.5,43.6c7.8,9.1,13.9,19.7,18.3,30.9c7-4.9,13.6-10.4,19.7-16.5C239.9,241.3,230.3,232.8,222.5,222.6z"/>
	<path class="st2" d="M107.3,31.5c6.7,9.6,16.8,15.6,24.5,24.3c7.6,8.6,13.5,18.4,20.1,27.7c6.3,8.9,14.4,16.4,20.3,25.6
		c9.4,14.7,12.8,31.1,17.1,47.7c5.4,20.3,13.2,40,23.7,58.3c2.7,4.7,5.5,9.5,9,13.7c2.9,3.4,6.1,6.6,9.2,9.8c5,5,9.7,10.2,12.9,16.4
		c1.7-1.6,3.4-3.2,5.1-4.8c-9.4-8.7-19-17.3-26.8-27.4c-15.2-19.8-23.3-43-29.7-66.8c-2.5-9.3-4.8-18.7-7.4-28
		c-2.6-9.1-5.5-17.8-10.6-25.8c-9.3-14.4-22.4-25.5-32.8-38.9c-8-10.4-13.6-22.3-20.6-33.4c-4.6-7.3-10.4-16.6-18-22.2
		c-3,0.9-5.9,1.9-8.8,3C99.3,17.1,102.6,24.7,107.3,31.5z"/>
	<path class="st1" d="M234.2,258.8c-2.9-2.7-5-5.6-6.8-9.1c-4.3-8.1-9-16-13.8-23.8c-5-8.1-10.7-15.2-17-22.3
		c-5.7-6.4-11.9-12.8-16.7-19.9c-5.2-7.8-8.2-16.6-10.2-25.7c-2.1-9.6-4.2-19.2-6.9-28.6c-5.4-18.7-12.9-38.4-26.1-53.1
		c-6.2-6.9-13.5-12.7-20.9-18.2c-6.3-4.7-12.7-9.1-18.2-14.8C90.8,36,83.5,26.8,80.1,16.8c-4.4,2.2-8.7,4.7-12.8,7.4
		c6.4,15.4,21,26.7,36.8,32c17.7,6,31.2,18.9,40.2,35.1c8.1,14.6,12.9,30.7,15.4,47.1c2.7,17.9,3.5,37.2,12.1,53.5
		c9.4,17.7,26.7,28.7,39.5,43.6c7.8,9.1,13.9,19.7,18.3,30.9c2.5-1.7,4.9-3.5,7.2-5.4C235.9,260.3,235.1,259.5,234.2,258.8z"/>
	<path class="st4" d="M172.3,220c-0.6,4.4,1.3,9,2.6,13.1c1.4,4.3,2.8,8.5,4.5,12.7c3.8,9.5,8,18.8,9.8,28.8
		c0.7,3.5,1.1,7.3,1.6,10.9c10.2-3.3,20-7.7,29.1-13c-5.2-7.7-10.4-15.5-16-22.9C195.2,238.2,185.3,226.8,172.3,220z"/>
	<path class="st1" d="M60,64.4c0.7,11-3.8,20.9-6.3,31.3c-4.5,18.7-5.2,38.9,3,56.7c7.5,16.1,21.4,31,38.1,37.4
		c14.6,5.6,32.9,6.9,41.6,21.7c4.4,7.4,7.1,15.8,10.5,23.6c4.1,9.2,8.3,18.5,11.1,28.2c2.4,8.4,3.2,17.2,5.1,25.8
		c0.2,0.9,0.4,1.7,0.7,2.6c3.4-0.4,6.7-0.9,10-1.5c-3.1-9.1-5.2-18.5-7.4-27.1c-1.6-6.4-3.2-12.8-5.4-19c-2.7-7.5-6.2-14.7-9.9-21.8
		c-3.6-6.9-7.9-13.6-10.2-21.1c-2-6.4-2.8-13-2.6-19.7c0.2-9.3,1.8-18.4,2.4-27.6c0.6-9.4,0.3-18.9-1.6-28.1
		c-3.4-15.7-11.2-30.1-23.2-40.9c-11.9-10.9-27-16.7-39.2-27C67.8,50.5,60.9,41.4,58,30.7c-2.5,1.9-5,4-7.4,6.1
		C54,45.9,59.3,54.5,60,64.4z"/>
	<path class="st4" d="M163.4,274.2c-3.6-11.7-6.3-23.7-10.5-35.3c-4.5-12.2-11.4-22.3-18.3-33.2c-5-7.9-9.3-16.8-16.5-23.1
		c-7.2-6.2-16.4-9.7-24.3-15c-7.3-4.9-13.1-10.9-17.4-18.6c-4.2-7.7-7.2-16.1-8.9-24.8c-1.6-8.7-2.3-17.6-1.7-26.5
		c0.7-9.9,1.9-19.7-0.2-29.5c-2-9.3-6.2-17.1-10.9-25.2c-1.2-2.2-2.5-4.4-3.7-6.7c-0.1,0.1-0.3,0.2-0.4,0.3
		c3.4,9.1,8.7,17.7,9.3,27.6c0.7,11-3.8,20.9-6.3,31.3c-4.5,18.7-5.2,38.9,3,56.7c7.5,16.1,21.4,31,38.1,37.4
		c14.6,5.6,32.9,6.9,41.6,21.7c4.4,7.4,7.1,15.8,10.5,23.6c4.1,9.2,8.3,18.5,11.1,28.2c2.4,8.4,3.2,17.2,5.1,25.8
		c0.2,0.9,0.4,1.7,0.7,2.6c1.8-0.2,3.6-0.5,5.3-0.7C166.9,285.4,165.1,279.8,163.4,274.2z"/>
	<path class="st5" d="M169.1,290.8c-1.6-9-2.9-17.8-5.9-26.6c-6.7-19.7-13.3-39.5-22.1-58.3c-4.2-8.9-9.5-17.2-13.4-26.3
		c-3.6-8.5-4.2-17.4-4.4-26.6c-0.3-19.2,0.5-39.1-10.9-55.7c-9.9-14.5-26.9-20.2-38.8-32.4c-5.9-6-10.7-13.3-13.3-21.4
		c-0.8-2.6-1.3-8.3-3.1-12.2c-1.2,1-2.4,1.9-3.6,2.9c3.9,8,8.2,16,10.6,24.6c2.7,10,1.8,19.6-0.4,29.6c-2.4,10.8-5.7,22-4.3,33.2
		c1.2,9.7,4.5,19.3,9.2,27.8c4.4,8,10,15.8,17.2,21.5c7,5.6,15.4,8.5,23.8,11.5c14.8,5.3,24,18.6,31,31.9
		c8.9,17,15.9,34.3,21.8,52.5c2.5,7.7,3.8,16,5.6,24C168.4,290.9,168.7,290.9,169.1,290.8z"/>
	<path class="st5" d="M13.5,102.4c7.2,7.8,8.1,16.9,8.2,27.2c0.2,10.9-0.3,21.9,2.5,32.5c2.1,8,5.3,15.7,10.1,22.6
		c4.5,6.6,10.1,12.4,16.2,17.5c6.5,5.5,13.6,10.9,21.3,14.7c7.5,3.6,16,6.5,22.3,12.2c6.4,5.8,9.1,14.3,12.7,21.9
		c4.5,9.5,9.8,18.4,15.7,27.1c3.2,4.8,7.1,9.2,10.6,13.9c3.4,0.3,6.8,0.5,10.3,0.6c-1.5-2.3-3.1-4.4-4.8-6.6
		c-3.5-4.4-7.2-8.6-10.7-13c-10.8-13.8-12.2-32.7-22.2-47c-5.2-7.4-12.5-11.9-20.3-16c-8.1-4.2-15.8-8.8-22.6-14.9
		c-14.4-12.7-25.8-28.5-29.2-47.7c-3.1-17.8-0.7-36.1,3.8-53.4c3.6-14.3,9-31.6,0.8-44.9c-12.7,14.1-22.8,30.7-29.3,49
		C10.4,99.4,12,100.8,13.5,102.4z"/>
	<path class="st2" d="M75.5,259.6c-8.6-15.3-25-23.7-35.9-37.1C28,208.2,20.1,191.3,14.2,174c-3.4-9.9-5.3-19.9-7.5-30.2
		c-1.2-5.4-2.6-10.5-5.2-15.4c-0.7,5.9-1.1,11.9-1.1,18c-0.1,57.4,32.9,107.2,81.1,131.1C80.1,271.3,78.6,265.1,75.5,259.6z"/>
</g>
<path class="st1" d="M120.9,177.5c-0.7-2.8-1.9-5.4-2.5-8.2c-1.5-6.5-2.3-12.1-2.5-18.7c-0.3-9.9-1.8-20.1-4.5-29.6
	c-2.5-8.9-6-17.9-11.9-25.2c-3.1-3.8-6.6-7-10.4-10.1c-0.8-0.6-1.7-1.3-2.7-2c-0.1-0.1-0.1-0.2-0.2-0.3c-3.6-3.2-6.8-6.7-10.3-10
	l-0.1-0.1c-1-1-2.1-1.9-3.2-2.8c-0.2-0.2-0.6-0.3-0.8-0.1c-1.3,1.2,0.2,5.2,0.6,6.6c2.2,7.8,2.1,16.1,2.3,24.3
	c0.3,11.7,0.2,21.7,4.8,32.6c3.8,9,10,17.1,17.6,23.2c4.9,4,9.9,7,14.1,11.9c2.8,3.3,5.4,6.8,9.2,8.9
	C120.6,178,120.9,177.9,120.9,177.5z"/>
<path class="st5" d="M110.4,156.5c0.5-3.8-1-8.1-2.1-12.1c-1.6-11.4-3.1-22.9-7.6-33.6c-2.1-4.9-5.1-9.1-8.8-13
	c-2.9-3.1-5.5-7.1-9.1-9.4c-0.3-0.2-0.9-0.2-0.9,0.3c-0.6,5.2,1.7,11,2.6,16.1c1.2,6.5,1.1,13.2,3.1,19.6c1.8,5.8,5.1,10.8,8.8,15.6
	c4.2,5.4,7.9,11.2,12.1,16.5C108.8,157.1,110.3,157.7,110.4,156.5z M91.1,128.4c-2.4-4.9-3-11-3.7-16.3c-0.8-5.5-2-10.8-3.2-16.2
	c0.6,0.7,1.4,1.4,2.4,2.2c7.5,6,11.1,15.4,14.7,24c0.1,0.3,0.2,0.6,0.2,0.9c1.2,5.2,2,10.4,3.2,15.5c0.6,2.9,1,5.8,1.6,8.7
	c0.3,1.4,0.9,3.1,1.3,4.8c-1.8-2.7-3.4-5.6-5.5-8.1C98.1,139.1,93.9,134.1,91.1,128.4z"/>
<path class="st6" d="M248.2,209.2c1.1-4.8-4.7-11.6-6.7-15.5c-1.9-3.7-4.1-7.1-6.6-10.3c0,0,0-0.1-0.1-0.1c-1.2-1.5-2.4-3.1-3.6-4.6
	c-1.9-2.6-3.5-5.3-6.2-7.1c-1-0.9-1.9-1.8-2.9-2.6c-0.8-0.6-2.1-0.7-1.9,0.6c0.8,7,3,15.3,7.4,20.9c3.3,4.2,7.2,7.8,10.8,11.7
	c2.6,2.8,4.6,5.7,8,7.6C247.2,210.3,248,210.2,248.2,209.2z"/>
<path class="st6" d="M162.9,60.8c-1.4-3.8-4.5-7.2-6.9-10.4c-1.7-2.3-3.5-4.6-5.3-6.9c-0.4-0.6-0.8-1.1-1.1-1.6
	c-2.2-3.3-4.9-8.1-8.7-9.8c-0.8-0.3-1.5,0.4-1.4,1.2c0.9,4.6,3.2,9.7,6.1,13.4c4.2,5.4,10.5,8.8,14.4,14.3
	C160.9,62.4,163.8,63.2,162.9,60.8z M150.7,47.6c-1.2-1.2-2.4-2.6-3.3-3.9C148.5,45,149.7,46.3,150.7,47.6z"/>
<path class="st6" d="M143.5,243.1c-1.9-5-3.6-10.1-6.1-14.8c-0.5-0.9-1-1.8-1.6-2.8c-2-4.2-4.6-8-8.2-11.5c-0.5-0.5-2.6-1.7-2.6-0.1
	c-0.1,4.4,2.4,8.8,4.4,12.6c3,6,7.7,12.3,12.3,17.1C142.4,244.4,144.1,244.6,143.5,243.1z"/>
<path class="st6" d="M131.7,118.6c-0.2-8.5-5.5-16.2-9.9-23.1c-2.2-3.4-5.1-6.3-8.1-9c-2.6-2.3-6.2-4.1-9.3-6.2
	c-0.8-0.8-1.6-1.5-2.3-2.4c-1.2-1.4-3.3-0.6-2.1,1.1c4.1,6,9.9,11.4,14.9,16.7c6.5,6.7,9.6,15,14.8,22.5
	C130,118.7,131.8,119.9,131.7,118.6z M121.7,100c2.4,3.6,4.5,7.5,6,11.3C125.7,107.5,124,103.6,121.7,100L121.7,100z"/>
<path class="st6" d="M93.2,164.7c-4.1-3-6.6-8.2-9.6-12.2c-3.4-4.7-6.2-9-8.5-14.4c-2-4.9-4.3-8.7-4.4-14.3c-0.1-3.8-2.2-8-3.7-11.4
	c-0.1-0.3-0.8-0.6-0.7-0.1c1.1,5.2-1,10.4,0.3,15.5c1.3,4.9,4,10.1,6.3,14.6c2.5,5,5.8,9.2,9.6,13.3c3.2,3.4,6.2,7.6,10.4,9.6
	C93.6,165.6,93.5,164.9,93.2,164.7z"/>
<path class="st6" d="M114,221.7c1.9-0.6,1-3.6,0.3-4.8c-0.7-1.4-2.1-2.8-3.6-3.5c-0.5-0.6-1.1-1.2-1.7-1.6c-0.4-0.2-1-0.3-1.2,0.2
	c-1.1,2.3,0.2,4.8,1.6,6.6C110.3,219.8,112.2,222.3,114,221.7z"/>
<path class="st6" d="M123.1,240.6c0.5-0.5,0.6-1,0.5-1.6c0.1-0.5-0.1-1.1-0.4-1.4c-0.4-0.4-0.8-0.7-1.3-0.8
	c-0.3-0.3-0.6-0.7-1.1-0.9c-0.4-0.3-0.9-0.2-1.1,0.4c-0.3,1.3,0.8,2.5,1.4,3.6C121.4,240.3,122.5,241.2,123.1,240.6z"/>
<path class="st6" d="M219.9,194.3c1.4-0.4,1-2.4,0.6-3.3c-0.6-1.4-1.8-3-3.3-3.7c-0.1,0-0.2-0.1-0.3-0.1c-0.5-0.5-1.2-0.8-1.9-1
	c-0.2-0.1-0.7-0.1-0.8,0.1c-1.4,1.9-0.2,4.1,1.1,5.7C216.2,193.3,218,194.7,219.9,194.3z"/>
<path class="st6" d="M235.7,219.6c-0.2-1.6-1.1-3.3-2-4.7c-0.3-0.6-0.6-1.1-0.8-1.6c-0.9-1.5-2.1-3.2-3.6-4.1
	c-1.5-0.8-3.2,0.2-3.2,2c0,2,1.1,4,2,5.7c1,1.8,2.4,3.8,4.4,4.7C234.3,222.4,236,221.7,235.7,219.6z"/>
<path class="st6" d="M135.9,37.9c0.2-2.2-1.6-4.9-3.7-5.4c-0.1,0-0.1,0-0.2,0c-0.5-0.5-1.2-0.9-1.6-0.3c-0.5,0.7-0.4,1.6-0.3,2.4
	c0.1,1.1,0.7,2.2,1.4,3C132.4,38.8,135.6,40.5,135.9,37.9z"/>
<path class="st6" d="M144.9,119.9c0.1-0.6,0.1-1.4,0-2.2c0-0.8-0.3-1.7-0.6-2.4c0-0.1,0-0.1-0.1-0.2c0-0.1-0.1-0.2-0.1-0.3
	c-0.7-1.6-1.6-3.2-2.6-4.6c-0.3-0.4-1.2-1-1.8-0.5c-1.5,1.4-0.7,4.3-0.2,5.9c0.6,2.1,2.1,4.8,4.6,5
	C144.5,120.7,144.8,120.3,144.9,119.9z"/>
<path class="st6" d="M113.1,77.8c-0.1-0.2-0.2-0.5-0.4-0.7c0.2-0.1-0.1-0.5-0.3-0.6c-0.1,0-0.3,0-0.4,0c-0.3-0.2-0.7-0.4-1.2-0.4
	l0,0c-0.2,0-0.4,0-0.4,0.3c0,0.4,0.4,1,0.8,1.1c0.2,0.1,0.2,0.1,0.1-0.1c0.1,0.2,0.2,0.3,0.3,0.5c0.2,0.3,0.5,0.4,0.8,0.5
	C112.8,78.6,113.3,78.4,113.1,77.8z"/>
</svg>
