<?xml version="1.0" encoding="utf-8"?>
<!-- Generator: Adobe Illustrator 27.9.0, SVG Export Plug-In . SVG Version: 6.00 Build 0)  -->
<svg version="1.1" id="Laag_1" xmlns="http://www.w3.org/2000/svg" xmlns:xlink="http://www.w3.org/1999/xlink" x="0px" y="0px"
	 viewBox="0 0 466.5 293" style="enable-background:new 0 0 466.5 293;" xml:space="preserve">
<style type="text/css">
	.st0{fill:url(#SVGID_1_);}
	.st1{opacity:0.4;fill:#FFDBB2;enable-background:new    ;}
	.st2{opacity:0.6;}
	.st3{fill:#E28481;}
	.st4{opacity:0.4;}
	.st5{fill:#FCD7B8;}
	.st6{fill:url(#SVGID_00000147186423293417803560000013692130377772756152_);}
	.st7{fill:url(#SVGID_00000070116269247792656060000017277953589055200445_);}
	.st8{fill:url(#SVGID_00000101069631467734664830000015014964844702877323_);}
	.st9{fill:#FCD1C2;}
</style>
<g>
	
		<linearGradient id="SVGID_1_" gradientUnits="userSpaceOnUse" x1="-46.7763" y1="499.9966" x2="68.3927" y2="772.234" gradientTransform="matrix(1 0 0 1 219.01 -495.6)">
		<stop  offset="5.000000e-02" style="stop-color:#CF9D8B"/>
		<stop  offset="0.2" style="stop-color:#EFB072"/>
		<stop  offset="0.46" style="stop-color:#C99080"/>
		<stop  offset="0.5" style="stop-color:#CC9686"/>
		<stop  offset="0.55" style="stop-color:#D6AA97"/>
		<stop  offset="0.61" style="stop-color:#E6C9B2"/>
		<stop  offset="0.62" style="stop-color:#EAD1B9"/>
		<stop  offset="0.66" style="stop-color:#D7B59D"/>
		<stop  offset="0.71" style="stop-color:#B98870"/>
		<stop  offset="0.77" style="stop-color:#A0624A"/>
		<stop  offset="0.83" style="stop-color:#8D442C"/>
		<stop  offset="0.89" style="stop-color:#7F2F17"/>
		<stop  offset="0.95" style="stop-color:#76230B"/>
		<stop  offset="1" style="stop-color:#741F07"/>
	</linearGradient>
	<path class="st0" d="M379,146.9c-0.2,80.9-66,146.3-147,146.1S85.5,227,85.7,146.1S151.7-0.3,232.7,0C313.7,0.2,379.2,66,379,146.9
		L379,146.9z"/>
	<path class="st1" d="M273.2,5.8c-3.4,4.8-6.8,9.7-10.1,14.6c-5,7.3-10.2,13.9-17.4,19.4s-15.2,9.9-23.2,14.1
		c-8.7,4.5-17.3,9.1-26.1,13.3C165.3,82.1,131,93.5,96.3,91.8c-1.8,4.6-3.5,9.2-4.9,14c19.5,6,41.4,3.8,61-0.1
		c35.9-7.3,70.3-21,100.4-41.8c14.2-9.8,27.8-20.6,40.5-32.3c4-3.7,8.3-7.6,12.3-12C295.5,13.8,284.6,9.1,273.2,5.8L273.2,5.8z"/>
	<path class="st1" d="M143.1,74c9.9-2.6,19.1-7,28.7-10.5c8.1-3,16.6-4.9,24.8-7.7c27.1-9.3,55.9-25.4,68.7-51.9
		C254.9,1.4,243.9,0,232.7,0c-55.6-0.1-104,30.7-129,76.2C116.9,76.3,130.4,77.3,143.1,74L143.1,74z"/>
	<path class="st1" d="M127.8,134.2c15.3,0.1,29.8-3.3,44.2-8.1c9.7-3.2,19.2-6.8,28.8-10.4c9.3-3.5,18.8-6.5,27.9-10.4
		c16.5-7.1,32-16,46.5-26.6c18.3-13.4,34.7-29,50.5-45.2c-3.3-2.7-6.6-5.2-10.1-7.6c-1.8,1.6-3.7,3.2-5.6,4.7
		c-11.1,9.2-22.4,18.3-33.8,27.2C256,73.7,233.7,86,210,95.9c-23.2,9.6-47.1,18.3-71.8,23.4c-11.8,2.5-24.1,4.4-36.2,3.4
		c-4.7-0.4-9.4-1.3-13.8-3c-0.9,4.7-1.5,9.5-1.9,14.4C100,132.4,113.9,134.2,127.8,134.2L127.8,134.2z"/>
	<path class="st1" d="M98.1,192.4c9.3-0.1,18.6-1.3,27.7-2.7c8.4-1.3,16.7-2.9,25.1-4.5c9.5-1.8,18.7-2.9,28.4-3
		c10.4-0.1,20.8-0.6,30.6-4.2c9.6-3.5,18.6-8.8,27.3-14.1c17-10.3,34.7-19.4,51.5-30.1c16.7-10.7,33.9-22,45.5-38.4
		c7.1-10,12.8-20.9,19.3-31.2c-2.7-4-5.6-7.9-8.7-11.5c-0.2,0.5-0.4,1-0.5,1.5c-2.6,8.1-5,16.9-10,23.9
		c-10.2,14.5-26.1,24.2-41,33.1c-16.2,9.7-32.2,19.9-48.6,29.2c-16.8,9.5-34.7,18.4-53.8,22c-21.7,4.1-43.9,5.6-65.9,7.3
		c-10.2,0.8-20.1,2.5-30.2,4.2c-2.1,0.4-4.2,0.7-6.3,0.9c1.2,6.1,2.8,12,4.7,17.8C94.9,192.5,96.6,192.5,98.1,192.4L98.1,192.4z"/>
	<path class="st1" d="M160.9,245.3c10.5,0.6,21,1.5,31.5,0.4c9.1-0.9,18-2.9,26.7-5.7c8.8-2.8,17.4-6.3,26-9.7
		c8.7-3.4,17.5-6.4,26.1-9.9c15.9-6.4,31.4-13.9,46-22.9c23.4-14.2,45.9-32.1,61.6-54.8c-0.1-5.5-0.6-11-1.3-16.4
		c-4.4,7.8-9.8,14.9-16.6,21.1c-20.9,18.9-46,32-70.1,46.4c-16.4,9.8-32.7,20-50.3,27.5c-18.8,8-38.5,11.5-58.7,14.4
		c-19.6,2.8-40.6,4.7-60-0.1c-2.6-0.6-5.1-1.4-7.6-2.2c2.9,4,6.1,7.8,9.4,11.5C136,244.1,148.5,244.6,160.9,245.3z"/>
	<path class="st1" d="M357.8,208.6c-22.6,30-58.3,45.8-92.9,57.9c-9.9,3.5-19.7,6.4-30.1,7.8c-10.7,1.4-21.6,1.5-32.3,0.9
		c-16.7-1-33.3-3.6-49.9-5.7c22.9,14.9,50.1,23.5,79.4,23.6c67.6,0.2,124.7-45.4,141.8-107.6C368.5,193.2,363.4,201.1,357.8,208.6
		L357.8,208.6z"/>
	<g class="st2">
		<path class="st3" d="M232.7,0c-81-0.2-146.8,65.2-147,146.1C85.5,227.1,151,292.9,232,293c81,0.2,146.8-65.2,147-146.1
			S313.7,0.2,232.7,0z M221.1,253.4c-67-0.2-121.2-54.6-121-121.5c0.2-67,54.6-121.1,121.7-120.9c67,0.2,121.2,54.6,121,121.5
			C342.6,199.4,288.1,253.5,221.1,253.4z"/>
	</g>
	<g class="st4">
		<path class="st5" d="M119.9,223.7C100.1,192.3,93.4,165,92.1,144c0-0.1,0-0.1,0-0.2c-0.8-6.7-1.1-13.4-0.9-20
			c-3.9,21.9-4.2,56.5,17.8,94.6c37.1,64.4,106.6,74.7,141.7,68.8C250.7,287.1,165.8,296.5,119.9,223.7L119.9,223.7z"/>
	</g>
	
		<linearGradient id="SVGID_00000160897372285070353100000012724452050116264361_" gradientUnits="userSpaceOnUse" x1="55.8568" y1="770.0717" x2="6.5948" y2="609.8288" gradientTransform="matrix(1 0 0 1 219.01 -495.6)">
		<stop  offset="0" style="stop-color:#C5937B"/>
		<stop  offset="2.000000e-02" style="stop-color:#C79881"/>
		<stop  offset="0.29" style="stop-color:#E5E0DF"/>
		<stop  offset="1" style="stop-color:#8CA99C"/>
	</linearGradient>
	<path style="fill:url(#SVGID_00000160897372285070353100000012724452050116264361_);" d="M464.9,53.3c-8.9-23.9-61.6-28-133.3-14.6
		c2.8,2.6,5.6,5.3,8.2,8.2c47.3-7.4,80.4-4.2,86.1,11C431.2,72,411.6,93.7,376,117c-31.9,20.9-76.8,43-128,62
		c-54.5,20.2-105.9,32.9-144.7,37.2c-38.2,4.2-64.3,0.1-69.2-13.2c-5.3-14.4,15-36.6,51.7-60.3c0.1-4,0.4-7.9,0.8-11.7
		c-59.1,35.2-93.5,70.9-85,93.9c8.3,22.3,55,27.4,119.5,17c40.2-6.5,87.4-19,136.5-37.2c46.2-17.1,87.8-36.8,121.4-56.8
		C438.6,112.5,473.5,76.5,464.9,53.3z"/>
	
		<linearGradient id="SVGID_00000106861665897663640950000013251117975608976524_" gradientUnits="userSpaceOnUse" x1="-157.2787" y1="678.3773" x2="-184.675" y2="603.0803" gradientTransform="matrix(1 0 0 1 219.01 -495.6)">
		<stop  offset="0" style="stop-color:#E5E0DF"/>
		<stop  offset="1" style="stop-color:#8CA99C"/>
	</linearGradient>
	<path style="fill:url(#SVGID_00000106861665897663640950000013251117975608976524_);" d="M44.5,161.2
		c-8.8,10.3-26.8,31.3-17.3,45.7c8.5,12.9,29.2,11.4,42.6,11.1c2.3-0.1,4.6-0.2,7-0.3c-23.5-0.1-39-4.8-42.7-14.8
		c-5.3-14.4,15-36.6,51.7-60.3c0.1-4,0.4-7.9,0.8-11.8c-12.6,7.5-24.1,15-34.3,22.5C49.5,155.9,46.9,158.5,44.5,161.2L44.5,161.2z"
		/>
	
		<linearGradient id="SVGID_00000064338213793485012550000002770827860847827866_" gradientUnits="userSpaceOnUse" x1="170.2382" y1="559.223" x2="142.8422" y2="483.9257" gradientTransform="matrix(1 0 0 1 219.01 -495.6)">
		<stop  offset="0" style="stop-color:#E5E0DF"/>
		<stop  offset="1" style="stop-color:#8CA99C"/>
	</linearGradient>
	<path style="fill:url(#SVGID_00000064338213793485012550000002770827860847827866_);" d="M339.9,46.9c47.3-7.4,80.4-4.2,86.1,11
		c4.4,12-9,29.4-34.8,48.6c5.9-3,11.7-6.3,17.5-9.7c7.4-4.3,16.2-9.3,20.9-16.8c4.6-7.3,9.4-17.6,4.5-25.9
		C427,42,411.4,38.4,398.6,35.9c-8.4-1.6-17-2.5-25.6-3.2c-12.9,1.3-26.7,3.3-41.4,6C334.5,41.3,337.2,44,339.9,46.9L339.9,46.9z"/>
	<g>
		<path class="st9" d="M66.4,150.3c0,0-68.5,37.1-58.2,68.2s91.8,27.8,212.1-7.1c0,0-134.6,34.6-180.5,18.4
			C-6.3,213.6,23.8,179.6,66.4,150.3L66.4,150.3z"/>
	</g>
	<g>
		<path class="st9" d="M442.6,48.7C420.3,31.6,382.8,38,382.8,38s67.7,1.1,54.3,30c-11.2,24.1-41.7,47.2-67.3,62.8
			c2-0.8,3.9-1.7,5.8-2.6C410.3,107.7,468,68.1,442.6,48.7z"/>
	</g>
</g>
</svg>
