<?xml version="1.0" encoding="utf-8"?>
<!-- Generator: Adobe Illustrator 27.9.0, SVG Export Plug-In . SVG Version: 6.00 Build 0)  -->
<svg version="1.1" id="Laag_1" xmlns="http://www.w3.org/2000/svg" xmlns:xlink="http://www.w3.org/1999/xlink" x="0px" y="0px"
	 viewBox="0 0 360.5 360" style="enable-background:new 0 0 360.5 360;" xml:space="preserve">
<style type="text/css">
	.st0{fill:url(#SVGID_1_);}
	.st1{fill:url(#SVGID_00000123436885848812793900000000224591644869635223_);}
	.st2{opacity:0.3;fill:#96D4B3;enable-background:new    ;}
	.st3{fill:url(#SVGID_00000153704767311813211850000009157433558921467270_);}
	.st4{opacity:0.3;fill:#75C79B;enable-background:new    ;}
	.st5{opacity:0.5;fill:#2A6646;enable-background:new    ;}
	.st6{opacity:0.5;}
	.st7{fill:#337E56;}
	.st8{opacity:0.7;}
	.st9{fill:#6DC395;}
	.st10{opacity:0.5;fill:#1B432E;enable-background:new    ;}
</style>
<radialGradient id="SVGID_1_" cx="-524.847" cy="668.7015" r="1" gradientTransform="matrix(469.9866 1.1484 1.1484 -469.9866 245997.7344 314884.2188)" gradientUnits="userSpaceOnUse">
	<stop  offset="0" style="stop-color:#A2D9BB"/>
	<stop  offset="0.42" style="stop-color:#43A470"/>
	<stop  offset="0.76" style="stop-color:#358259"/>
</radialGradient>
<path class="st0" d="M360.1,180.9c-0.3,99.4-81,179.8-180.4,179.5C80.2,360.2-0.2,279.4,0.1,180C0.3,80.6,81.1,0.2,180.5,0.4
	C279.9,0.7,360.3,81.5,360.1,180.9z"/>
<radialGradient id="SVGID_00000122708745415702477260000014713862469240259992_" cx="-524.6492" cy="668.611" r="1" gradientTransform="matrix(360.7009 0.8814 0.8814 -360.7009 188861.1406 241902.375)" gradientUnits="userSpaceOnUse">
	<stop  offset="0" style="stop-color:#A2D9BB"/>
	<stop  offset="0.42" style="stop-color:#43A470"/>
	<stop  offset="0.76" style="stop-color:#358259"/>
</radialGradient>
<path style="fill:url(#SVGID_00000122708745415702477260000014713862469240259992_);" d="M306,141.4c-0.6,0.3-1.1,0.2-1.5-0.1
	c-2,2.3-3,5.9-0.4,7.7c2,1.4,4.2,1.7,5.7-0.6c1.1-1.8,1.7-4.2,1-6.3C309.9,139.6,307.7,140.4,306,141.4z"/>
<path class="st2" d="M316.8,186.7c0.3-7.5,14-8,19-8.3c6.1-0.5,12.2-0.6,18.4-0.8c1.8-0.1,3.9,0,5.9-0.1c-0.4-22.8-5-44.5-13.1-64.4
	c-10.4,3.1-23.7,6.8-30.2-0.1c-5.3-5.6-3.1-13.9-1.2-20.4c2.4-8.2,2.5-16.5,5.1-24.3c-1.7-2.2-3.5-4.3-5.3-6.3
	c-0.6,0.8-1.2,1.7-1.7,2.8c-2.3,5.2-2.3,11.1-2.2,16.7c0.1,11.3,1,22.7-8.6,30.4c-3,2.4-6.7,4.3-9.2,7.3c-4.3,5.3-2.4,10.5-0.6,16.2
	c2.2,6.8,3.1,12.3,0.9,19.3c-3.1,9.7-9.8,16.3-20.1,17.8c-9.6,1.5-19.4-0.3-29,1.4c-5,0.9-10.3,2.8-13.1,7.3c-3.7,6-1.4,11.8-3.4,18
	c-3.7,11.5-21.5,16.9-32.1,17.4c-11,0.6-23-2.2-33.7,1.4c-6.7,2.3-12.7,5.8-18,10.4c-8.7,7.5-15.9,17-25.8,23
	c-10.7,6.5-23.2,7.7-35.2,4.6c-13.6-3.5-25.1-11.3-37.5-17.3c-12.8-6.2-25.1-8.3-37.7-4.1c13.3,42.5,42,78.2,79.6,100.7
	c1.2-0.4,2.5-0.6,3.4-0.8c6.9-1.4,13.8-2.4,19.2-7.4c6.3-5.7,8.2-13.7,8.4-22c0.1-4.9-0.1-9.3,2.7-13.6
	c7.1-10.8,25.8-13.7,37.2-17.1c10.6-3.1,22.6-1.8,32.8-5.8c13.6-5.3,11.5-21,16.9-31.9c2.5-5,6.4-8.4,10.9-11.5
	c7.5-5.1,13.1-10.1,18.6-17.2c4.8-6.2,9.6-11.1,16.7-14.5c7.8-3.7,16.3-4.9,24-8.9c4.7-2.4,9.7-5.9,15.2-5.4
	c4.4,0.4,8.3,4.9,10.4,8.5c1.9,3.3,2.4,6.9,3.9,10.4c2.9,7.4,9.3,7.8,16,7.7c6.4-0.2,11.8,0.6,16.5,5.3c3.7,3.7,7.2,8.3,12.7,9.5
	c0.7,0.1,1.4,0.3,2.1,0.4c0.6-2.7,1.2-5.4,1.7-8.1c-3.8-2.6-7-6.1-10.9-8.5C338.6,199.5,316.2,200.3,316.8,186.7L316.8,186.7z
	 M103.2,321.1c-0.8,0.6-1.7,1-2.7,1.3c-0.3,0.1-0.5,0.1-0.8,0c-6,1.7-12.7,0.4-12.3-5.1c0.4-6.7,8.8-16.5,15.8-11.5
	c0.6,0.5,1.2,1,1.7,1.5c0.4-0.2,0.9-0.1,1.4,0.3c1,1,2,2.3,2.4,3.7C110,315.8,107.2,319.2,103.2,321.1L103.2,321.1z M105.4,294.1
	c-6.3-1.2-17.8-7-13.9-15.3c2.1-4.5,6.9-5.8,12-6.3c2.9-0.6,6-0.9,8.9-0.5c0.6,0,1.2-0.1,1.8-0.2c0.8-0.1,1.4,0.4,1.6,1.1
	c3,1.2,5.4,3.3,6.3,7C124.2,289.2,113.8,295.6,105.4,294.1z M152.5,239c-2.3,1.8-10.9,5.4-11.5,0c-0.4-3.3,3.2-7.1,5.7-8.8
	c0.5-0.4,1-0.3,1.4,0c2-1.8,4.4-2.7,6.3-0.6C157,232.4,155.2,237,152.5,239L152.5,239z M195.8,258.1c-5.1,6.7-18.4,8.7-26,5.9
	c-8.7-3.2-2.8-13.2,2.7-16.1c3.2-1.7,8.2-3.6,13-4.2c0-0.5,0.3-0.9,1-1c3.8-0.6,9.8-0.8,11.7,3.6
	C199.9,250.4,198.4,254.6,195.8,258.1L195.8,258.1z M311,151.1c-3,2.9-8.2,1.8-10.3-1.8c-2.6-4.5,1.2-11.4,6-12.6
	c0.9-0.3,1.5,0.4,1.7,1.2c2.2-0.2,4.3,0.7,5.1,3.5C314.2,144.5,313.4,148.7,311,151.1z"/>
<radialGradient id="SVGID_00000172398158503009200600000013312903767865903267_" cx="-524.6492" cy="668.6111" r="1" gradientTransform="matrix(360.7429 0.8815 0.8815 -360.7429 188883.1406 241930.5469)" gradientUnits="userSpaceOnUse">
	<stop  offset="0" style="stop-color:#A2D9BB"/>
	<stop  offset="0.42" style="stop-color:#43A470"/>
	<stop  offset="0.76" style="stop-color:#358259"/>
</radialGradient>
<path style="fill:url(#SVGID_00000172398158503009200600000013312903767865903267_);" d="M321.7,112.6c7.8,2.2,16.1-0.1,24.1-2.4
	c-6-14.1-13.8-27.4-23-39.4c-1.5,6-1.7,12.1-3.4,18.4C317.6,95.6,311.9,109.9,321.7,112.6L321.7,112.6z"/>
<path class="st2" d="M49,199.1c5.9-1.3,11.5-2.2,15-7.5c1.8-2.6,3.3-5.2,5.9-7.2c5.9-4.6,14.6,1.3,21.2-1.2
	c6.2-2.3,4.7-7.2,5.3-11.9c0.1-0.5,0.7-3-0.3-3.5c-4.5-2.4-9.7-4.1-14.8-3.6c-3.6,0.3-7.9,1.7-11.5,0.7c-5.8-1.6-10.8-5-17-3.5
	c-7.6,1.7-10.3,0-15.8-5c-6.2-5.7-15-2.6-22.5-1.9c-2.4,0.2-5.6,0.6-7.9-0.5c-1.6,0.3-3.2,0.7-4.8,1c-1.1,8.2-1.8,16.5-1.8,25
	c0,8.6,0.6,17,1.7,25.3c2.8-0.9,5.7-1.7,8.6-2.3c11.3-2.5,22.8-2.4,34.3-3C46.1,199.7,47.5,199.4,49,199.1z"/>
<path class="st4" d="M196.1,132.7c-0.5,0.3-1,0.5-1.5,0.8c-0.8,0.4-1.6,0.6-2.5,0.6c-4.4-0.3-7.8-2.3-12.2-0.1
	c-3.3,1.7-9.1,2.8-10.8,6.6c-0.4,0.9-0.6,1.8-0.9,2.7c3,3.4,6.3,4.6,11.3,4.4c1.5-0.1,3.2-0.3,4.7,0.1c2.2,0.6,3.1,0.3,3.5-1.8
	c0.4-2.1,0.9-3.4,2.9-4.2c2.3-1,6.6,0.1,8.8-1.8c0.3-0.6,0.5-1.2,0.7-1.9c0.2-0.7,0.4-1.4,0.5-2.1c-0.3-2.3-1.9-4.5-4.5-3.2V132.7z"
	/>
<path class="st5" d="M135.2,158.9c-0.1,0.2-0.4,0.4-0.7,0.4c-3.4,0.1-6.7,1.2-9.5,3.2c-1.7,1.2-5.3,3.2-2.4,4.8
	c3,1.6,6.3,2.5,9.7,2.6c7.2,0.2,14.1-2.8,14.8-10.5C143.3,159.2,139.2,158.8,135.2,158.9L135.2,158.9z"/>
<path class="st5" d="M227.9,108c-1.5,1.9-2.8,3.8-3.8,5.9c13.8,3.4,28.4-4.8,28.5-19.8C243.5,95.8,234.1,101.1,227.9,108z"/>
<path class="st5" d="M108.8,236.5c-0.2-0.1-0.4-0.1-0.6-0.3c-0.2,0-0.3-0.1-0.5-0.1c-5.4,0.5-11.3,1.2-16.3,3.4
	c-1,0.9-1.8,1.9-2.2,3.1c1.6,1,3.5,1.7,4.6,2.1c3.1,0.9,5.5,1,8.6,0c1.5-0.5,11.3-2.6,9.4-5.2C111,238.2,109.9,237.3,108.8,236.5
	L108.8,236.5z"/>
<path class="st4" d="M180.9,11.1c8.1,2.4,16.2,5.4,23.7,9.2c3.5,1.8,7.6,3.5,10.5,6c3.6,3.1,7,6.3,10.7,9.3
	c8.2,6.8,20.1,14.5,31,8.7c7.7-4.1,13.4-11.3,21.4-14.8c-28.1-18.3-61.6-29-97.7-29.1c-14.1,0-27.9,1.5-41.1,4.6
	C153.4,5.1,167.5,7.1,180.9,11.1L180.9,11.1z"/>
<path class="st5" d="M119.9,141.4c-0.9,0.1-1.9,0.2-2.8,0.3c-0.6,0-1.3,0-1.8-0.3c-2.5-1.1-4.4-3.1-7.1-3.7c-4.1-1-8.8-0.8-10.7,1.9
	c-0.4,0.9-0.4,1.9-0.2,2.9c0.9,3.4,4.7,4.9,7.8,5.4c5.1,1,10.8,0.8,15.8-0.7c0.9-0.3,2.2-0.7,3.2-1.4
	C123.7,144.4,122.3,142.9,119.9,141.4z"/>
<path class="st5" d="M186.2,313.1c-0.5,0-1,0.1-1.5,0.1c-2.8,1.3-5.5,2.7-8.2,4.2c-0.6,0.3-1.1-0.1-1.2-0.5
	c-4.2,2.8-7.8,6.7-10.4,10.7c12,4.2,25.7-4.5,26.1-17.4c-1.3,0.6-2.7,1.3-4,1.9C187,312.6,186.8,313.1,186.2,313.1L186.2,313.1z"/>
<g class="st6">
	<path class="st7" d="M180.5,0.4C81.1,0.2,0.3,80.6,0.1,180c-0.3,99.4,80.1,180.2,179.5,180.4c99.4,0.3,180.2-80.1,180.4-179.5
		C360.3,81.5,279.9,0.7,180.5,0.4z M166.3,311.7c-82.3-0.2-148.8-67.1-148.6-149.3C17.9,80.1,84.8,13.6,167,13.8
		c82.3,0.2,148.8,67.1,148.6,149.3C315.4,245.4,248.5,311.9,166.3,311.7L166.3,311.7z"/>
</g>
<g class="st8">
	<path class="st9" d="M42,275.2c-24.3-38.5-32.5-72.1-34.1-98c0-0.1,0-0.2,0-0.3c-1-8.2-1.4-16.5-1.1-24.6
		c-4.8,26.9-5.1,69.4,21.9,116.2c45.6,79.2,130.9,91.8,173.9,84.6C202.6,353.2,98.4,364.7,42,275.2L42,275.2z"/>
</g>
<path class="st10" d="M93.2,89.6c-6.7-3.5-14.4-1.2-21.2,0.5c-3.3,0.8-7.2,1.8-9.8,4.2c-2.2,2.1-6.3,5.2-6.4,8.6
	c-0.1,3.1,5.4,5.6,7.2,7.7c2.2,2.5,4.6,3.9,8.1,3.5c3.5-0.4,6.9-1.7,9.7-3.7c2.1-1.1,4-2.6,5.7-4.4c1-1.1,1.7-2.4,2.4-3.6
	c1.7-2.7,3.6-4.8,5.5-7.4C95.8,93.2,95.3,90.7,93.2,89.6z"/>
<path class="st10" d="M117.7,103.9c-1.4-0.6-3.3-0.1-4.7,0.8c-0.1,0.1-0.3,0.1-0.4,0.2c-0.2,0.1-0.4,0.3-0.6,0.4
	c-0.7,0.6-1.3,1.5-1.2,2.4c0,0.1,0,0.2,0,0.3c0.1,1.1,1.1,1.9,2.1,2.3c2.2,0.8,4.6-0.6,5.7-2.4C119.5,106.5,119.3,104.7,117.7,103.9
	L117.7,103.9z"/>
<path class="st5" d="M285.6,201.9c-1.9-3.1-14.8,1.5-17,3c-3.1,2.2-6,3.9-8.6,5.7c-1.8,0.7-3.5,1.6-5.3,2.7
	c-4.2,2.6-6.8,7.2-10.9,9.8c-2.3,1.4-5.3,2.8-6.6,5.3c-2.1,3.9-0.9,9.3,4.6,8.7c5.5-0.6,9.7-4,15.5-3c4,0.7,8.1,0.8,12.1-0.1
	c6.2-1.4,10.7-8.7,13.2-13.9c1.7-3.5,1.6-7.2,1.7-10.9C284.4,206.1,287.3,204.7,285.6,201.9L285.6,201.9z"/>
</svg>
