<?xml version="1.0" encoding="utf-8"?>
<!-- Generator: Adobe Illustrator 27.9.0, SVG Export Plug-In . SVG Version: 6.00 Build 0)  -->
<svg version="1.1" id="Laag_1" xmlns="http://www.w3.org/2000/svg" xmlns:xlink="http://www.w3.org/1999/xlink" x="0px" y="0px"
	 viewBox="0 0 195.5 125" style="enable-background:new 0 0 195.5 125;" xml:space="preserve">
<style type="text/css">
	.st0{fill:#ED1C24;}
	.st1{opacity:0.6;fill:#F1E10A;enable-background:new    ;}
	.st2{opacity:0.6;fill:#F3E235;enable-background:new    ;}
	.st3{fill:#EAC076;}
	.st4{fill:#E7F6FD;}
	.st5{fill:#626467;}
	.st6{fill:url(#SVGID_1_);}
	.st7{fill:#3A3C3F;}
	.st8{opacity:0.9;}
	.st9{fill:#B3B5B8;}
	.st10{fill:url(#SVGID_00000089531864714238340310000016057390594112670872_);}
	.st11{fill:#008ED0;}
	.st12{fill:#FFFFFF;}
	.st13{fill:#083879;}
	.st14{fill:#C2C4C6;}
	.st15{fill:url(#SVGID_00000085969858607940085580000003217595125082573222_);}
	.st16{fill:#FF0026;}
	.st17{fill:#ECB020;}
	.st18{opacity:0.7;}
	.st19{fill:#C9E9EB;}
	.st20{fill:url(#SVGID_00000059270942877926507040000008278254852032221117_);}
	.st21{fill:url(#SVGID_00000144339028996591854650000012890117174342379904_);}
	.st22{fill:url(#SVGID_00000034069233119851175340000005405102023215821959_);}
	.st23{fill:#DEDFE0;}
	.st24{opacity:0.5;fill:#FFF2BB;enable-background:new    ;}
</style>
<g>
	<path class="st0" d="M14.4,117.4c0.7-0.4,1.4-0.8,2.2-1.2c1.3-0.7,2.8-1.3,4.2-2c2.3-1.2,13.9-7.2,17.3-9c4.4-2.4,9-4.6,13.5-6.9
		c1.9-1,10.9-5.3,10.8-5.2c-2.8,2.4-6.2,4-9.2,6.1c0.4-0.2,0.9-0.4,1.3-0.6c9.3-4.4,18.1-10.2,27.4-14.8c0.2-0.1-4,2.9-6,4.3
		c1.8-0.9,3.6-1.8,5.4-2.8c1.7-1,5.3-2.7,5.2-2.6c-3.2,1.9-6.5,3.8-9.6,5.9c2.9-1.3,5.8-2.7,8.7-4.2c5.4-2.7,10.9-5.1,16.3-7.8
		c4.4-2.2,9-4.6,12.7-7.7c3.8-3.2,6-7,6.1-10.8c0.3-9.9-10.6-17-22.5-12.3c-3.9,1.5-11.5,6-14.8,8.6c-2.8,2.2-9.3,8.1-12,10.4
		c-1.1,0.9-2.1,1.9-3.2,2.8c-3.3,3.2-6.7,6.3-9.6,9.7c3.8-2.8,11.3-8.8,11.1-8.7c-1.3,1.5-2.9,2.8-4.5,4.2c-1.8,1.5-3.4,3.1-5.1,4.7
		c-1.6,1.5-3.1,3-4.8,4.4c-1.5,1.3-3,2.5-4.4,3.9C55,82.9,66.2,75.3,66,75.4c-0.8,0.7-1.7,1.3-2.5,2c-3,2.3-5.9,4.5-8.8,6.9
		c-3.7,2.9-7.2,6-10.8,9c-5.4,4.5-10.9,8.9-16.3,13.4c5.7-3.9,17.5-11.8,17.3-11.6c-6.7,5.1-13.2,10.5-20.2,15.3
		C21.3,112.6,17.8,115,14.4,117.4L14.4,117.4z"/>
	<path class="st1" d="M115.4,50.3c1,1.4,2.3,2.7,2.5,4.5c0.2,1.7,0.3,3.5-0.4,5.4c-0.7,2.2-2.2,4.5-4,6.5c-0.9,1-1.9,2-3,2.9
		c-0.8,0.7-1.8,1.3-2.6,2c0,0,0,0,0.1,0c1-0.8,2.1-1.3,3.1-2.1c1.1-0.8,2.1-1.8,3-2.7c1.9-2,3.3-4.3,4.2-6.5
		C120,56.2,118.1,52.7,115.4,50.3C115.5,50.2,115.4,50.3,115.4,50.3L115.4,50.3z"/>
	<path class="st1" d="M104,45.3c-1,0.2-2.1,0.4-3.1,0.6c-4,1-8.2,2.7-11.9,5c-0.1,0,0,0.1,0,0c3.7-2.1,7.7-3.6,11.6-4.5
		c1.9-0.4,3.8-0.8,5.7-0.9c1,0,1.9,0,2.9,0C107.5,45.3,105.8,45.2,104,45.3L104,45.3z"/>
	<path class="st1" d="M99.8,80.6c1.5-0.6,3.1-1.2,4.6-1.9c1.5-0.6,2.9-1.5,4.4-2.3c2.8-1.6,5.5-3.6,7.9-5.7c2.4-2.2,4.4-4.5,5.6-7.2
		c1.1-2.5,1.8-5.1,1.6-7.4c0-0.1-0.2,0-0.2,0.1c-0.1,4.7-3.6,10.2-8,14.2c-2.2,2-4.7,4-7.3,5.6c-2.8,1.7-5.6,3-8.6,4.4
		C99.7,80.5,99.7,80.6,99.8,80.6L99.8,80.6z"/>
	<path class="st1" d="M114.1,44.2c1.2,0.7,2.2,1.5,3.2,2.4c0.9,0.7,1.6,1.5,2.3,2.4c0.3,0.4,0.5,0.7,0.7,1.1
		c0.5,0.7,0.9,1.4,1.1,2.3c0.1,0.5,0.2,1.1,0.3,1.7c0-2.1-0.2-4-1.1-5.8c-1-1.8-2.9-3.2-4.8-4.3c-2-1.2-4.7-1.6-7.4-1.7
		c-0.7,0-1.3,0-2,0C109.3,42.3,112,43,114.1,44.2L114.1,44.2z"/>
	<path class="st1" d="M82.1,52.6c0.6-0.5,1.4-1,2.1-1.4c0.8-0.5,1.5-1.1,2.4-1.6c1.6-1,3.2-1.9,4.9-2.7c3.2-1.7,6.4-3.2,9.7-4.4
		c0.1,0,0.3-0.2,0.1-0.2c-1.6,0.3-3.3,0.7-5,1.3c-1.8,0.7-3.5,1.6-5.2,2.6c-1.8,1-3.4,2-5.1,3.2c-0.8,0.5-1.5,1.2-2.2,1.8
		c-0.6,0.5-1.3,1-1.9,1.5C81.8,52.6,82,52.6,82.1,52.6L82.1,52.6z"/>
	<path class="st1" d="M84.7,85.3c1.6-0.8,3.4-1.4,5-2c2-0.8,3.9-1.6,5.9-2.4c3.9-1.6,7.8-3.3,11.4-5.5c0.3-0.2,0.1-0.3-0.1-0.2
		c-1.9,0.8-3.8,1.8-5.6,2.6c-1.9,0.9-3.9,1.8-5.8,2.6c-1.9,0.8-3.9,1.7-5.8,2.5C88,83.7,86.3,84.3,84.7,85.3
		C84.6,85.3,84.6,85.4,84.7,85.3L84.7,85.3z"/>
	<path class="st1" d="M66.9,67.4c5.3-4.6,10.8-8.9,15.9-13.6c0.2-0.2-0.2-0.2-0.3-0.1c-3,1.8-5.5,4.2-8,6.5
		C71.8,62.5,69.2,64.9,66.9,67.4C66.7,67.5,66.9,67.4,66.9,67.4z"/>
	<path class="st1" d="M40.2,93.4c2.2-2,4.5-3.9,6.7-5.9s4.2-4.1,6.2-6.1c1.2-1.2,2.4-2.5,3.6-3.7c-2.1,1.8-4.1,3.6-6.1,5.4
		c-1.4,1.4-2.8,2.9-4.2,4.2c-2.1,2-4.3,4.1-6.4,6.1C40,93.5,40.2,93.4,40.2,93.4L40.2,93.4z"/>
	<path class="st1" d="M13.2,114.8c4.8-3.5,9.6-6.9,14.1-10.7c2.2-1.8,4.4-3.6,6.6-5.5c2-1.8,4.1-3.6,5.7-5.7c0.2-0.2-0.2-0.1-0.3,0
		C31,100.5,22,107.7,13.2,114.8C13,114.8,13.1,114.8,13.2,114.8z"/>
	<path class="st1" d="M31.7,109.7c-1.7,1-3.5,1.9-5.2,2.9c-1.1,0.6-2.1,1.2-3.2,1.8c-1.9,1.2-3.9,2.4-5.8,3.6c0.5-0.2,1-0.4,1.5-0.7
		c2.4-1.2,4.8-2.4,7.2-3.7c2.3-1.3,4.6-2.5,6.8-3.8c1.6-1,3.3-2,4.9-3C35.8,107.7,33.7,108.6,31.7,109.7L31.7,109.7z"/>
	<path class="st1" d="M36.6,109.1c1.3-0.7,2.6-1.2,4-1.8c1.5-0.7,3-1.4,4.5-2.1c3.1-1.5,6.2-3,9.3-4.5s6.1-3,9.1-4.6
		c3-1.6,5.9-3.4,8.9-5.1c0.1-0.1,0-0.2-0.1-0.1c-3,1.6-6.1,2.9-9.1,4.5c-3.1,1.6-6.2,3.2-9.3,4.7c-3,1.5-6.1,3-9.1,4.6
		c-1.5,0.8-2.9,1.6-4.4,2.3C39.1,107.7,37.8,108.2,36.6,109.1C36.4,109.1,36.5,109.1,36.6,109.1L36.6,109.1z"/>
	<path class="st1" d="M58.9,99.1c0.7-0.4,1.5-0.7,2.2-1s1.4-0.6,2.1-0.9c1.6-0.6,3.2-1.3,4.7-1.9c3.3-1.4,6.6-2.9,9.9-4.3
		c6.4-2.8,12.9-5.6,19.2-8.9c0.2-0.1,0.1-0.2-0.1-0.1c-6.6,2.8-13.1,5.7-19.6,8.6c-3.3,1.5-6.6,2.9-9.9,4.4c-1.7,0.7-3.3,1.4-5,2.2
		c-1.2,0.5-2.6,1.1-3.7,1.9C58.7,99.2,58.8,99.2,58.9,99.1L58.9,99.1z"/>
	<path class="st1" d="M0.7,124.4c1.2-0.9,2.1-1.9,3.2-2.9c1.2-1.1,2.4-2.2,3.7-3.3c2.6-2.2,5.2-4.5,7.8-6.7s5.2-4.3,7.8-6.5
		c2.6-2.1,5.5-4,8.2-6.1c0.1-0.1,0.2,0,0.1,0.1c-2.6,2.2-5.1,4.4-7.7,6.5c-2.7,2.2-5.4,4.4-8,6.6s-5.2,4.3-7.8,6.4
		c-1.3,1-2.6,2-3.9,3.1c-1.1,0.9-2.2,1.9-3.4,2.7C0.6,124.6,0.6,124.5,0.7,124.4L0.7,124.4z"/>
	<path class="st1" d="M37.8,92.9c0.6-0.5,1.2-1.1,1.7-1.6c0.6-0.5,1.1-1.1,1.6-1.6c1.2-1.2,2.4-2.4,3.6-3.6c2.6-2.5,5.2-4.9,7.8-7.4
		c5-4.8,10.1-9.6,15.5-14.1c0.2-0.2,0.2,0,0.1,0.1c-5,4.9-10.2,9.7-15.4,14.6c-2.6,2.5-5.2,4.9-7.8,7.4c-1,1-2.3,2.2-3.9,3.7
		C40.1,91.2,39,92.3,37.8,92.9C37.8,93.1,37.8,92.9,37.8,92.9L37.8,92.9z"/>
	<path class="st1" d="M114.4,39.5c-3.1-0.6-6.3-0.9-9.9-0.4c-3.9,0.5-8.1,2-12,3.9c-4.1,2-8,5.4-11.5,8.3c-3.7,3.1-7.2,6.5-11,9.5
		c-0.1,0.1,0.1,0.1,0.1,0.1c3.1-2.3,5.8-4.9,8.7-7.3c3.6-3.1,7.6-5.9,11.8-8.3c7.9-4.6,16.1-6.4,23.7-5.5
		C114.4,39.7,114.5,39.6,114.4,39.5L114.4,39.5z"/>
	<path class="st1" d="M122.2,67.8C122.2,67.8,122.3,67.7,122.2,67.8c3.1-4.5,5.1-9.8,4.4-14c-0.3-1.9-0.9-3.9-1.8-5.5
		c-1-1.7-2.6-3.4-4.5-4.4c-0.1,0-0.3,0-0.2,0.1c3.3,2.4,5.8,6.5,5.7,10.8c-0.1,4.7-1.7,9.3-5.2,13.9c-3.4,4.5-8.3,7.8-13.2,11
		c-5.1,3.4-10.7,6-16.2,8.6c-0.1,0,0,0.1,0.1,0.1c6.1-2.8,12.1-5.8,17.8-9.5C114.2,75.9,119.1,72.2,122.2,67.8L122.2,67.8z"/>
	<path class="st2" d="M95.4,75.9c-0.7,0.5-1.5,1.1-2.2,1.6c-1.7,1.2-3.8,2.2-5.5,3.5c1.3-0.5,2.7-0.9,4-1.3
		c6.9-3.4,13.9-6.6,20.2-11.3c3.2-2.4,6.1-5.3,7.3-8.5c1.2-3.1,0.7-5.6-0.4-8c-2.1-4.6-7.8-6.9-14.3-6.2c-3.2,0.3-7.5,1.8-10.6,3.4
		c-1.7,0.9-3.7,1.9-5.5,3.2c-1.9,1.2-3.7,2.5-5.1,3.9c-0.3,0.3,0.3,0.3,0.5,0.3c1.8-0.7,3.5-1.8,5.2-2.5c1.5-0.6,3.1-1.2,4.6-1.6
		c-1,0.4-2.1,0.8-3.1,1.3c-1.7,0.9-3.4,1.8-5,2.8c-3.1,1.9-6.5,4.1-9.1,6.6c-0.3,0.3,0.3,0.3,0.5,0.3c1.4-0.5,3-1.7,4.5-2.4
		s3.2-1.6,4.9-2.3c-1.8,0.9-3.6,1.9-5.3,3c-2.4,1.6-4.7,3.3-6.9,5c-2.3,1.8-4.4,3.7-6.7,5.5c-1.3,1-3.2,2.3-3.9,3.7
		c-0.1,0.3,0.3,0.3,0.5,0.2c1.4-0.4,3.2-1.8,4.6-2.6c2.6-1.5,5.3-2.8,8-3.9c0.2-0.1,0.5-0.2,0.7-0.3c-0.3,0.2-0.7,0.5-1,0.7
		c-3.2,2.3-6.2,5-9.3,7.5c-3.5,2.9-7,5.9-10.4,8.9c-1.7,1.5-3.3,2.9-4.9,4.4c-0.9,0.8-2.2,1.8-2.7,2.8c-0.2,0.3,0.4,0.3,0.6,0.2
		c1-0.3,1.9-0.8,2.8-1.4c1.4-0.9,2.9-1.6,4.3-2.3c3.3-1.7,6.6-3.2,9.8-5.1c1.3-0.7,2.5-1.5,3.7-2.2c-1,0.7-1.9,1.4-2.9,2.1
		c-1.3,1-3.3,2-4.3,3.2c-0.1,0.1,0,0.2,0.1,0.3c0.9,0.2,2.4-0.9,3.3-1.4c1.6-0.9,3.3-1.7,5.1-2.5c-2.8,1.8-5.6,3.7-8.3,5.6
		c1.3-0.5,2.6-1,3.9-1.5c1.7-0.9,3.4-1.9,5.1-2.8c1.6-0.8,3.1-1.5,4.6-2.3c-1.2,0.8-2.4,1.5-3.6,2.3c-1.4,0.9-3.1,1.8-4.4,2.9
		c3.2-1.4,6.4-2.9,9.6-4.2c2.5-1.2,5-2.2,7.4-3.4c3.1-1.4,5.9-2.9,8.9-4.6C95.1,76.1,95.2,76,95.4,75.9L95.4,75.9z"/>
	<g>
		<path class="st3" d="M111.2,66.5c3.7-2.6,5.6-5.9,6.3-9.3c0.2-0.9,0.2-1.7,0-2.5c0.1,0.1,0.1,0.3,0.2,0.4c0,0,0.2,0,0.2-0.1
			c-0.4-0.8-0.3-1.6-0.9-2.4c-0.7-1-1.6-1.9-2.4-2.7c-0.6-0.6-1.2-1.1-1.9-1.5c-0.7-0.4-1.4-0.8-2.1-1.1c-3.5-0.4-7.3-0.4-11,0.8
			c-1.4,0.6-2.7,1.3-4,2.1c2.5-0.8,5.5-0.9,7.9-0.5c-2,0.1-4.3,0.6-6.3,1.2C97,51,96.8,51,96.7,51.1c-3,1.2-5.8,3.1-8.3,5.4
			c2-0.8,4-1.6,6.1-2.2c2.4-0.7,5.8-1.5,8.2-1.3c-0.7,0.2-1.3,0.2-2,0.4c-1.2,0.3-2.4,0.7-3.6,1.2c-2.9,1-5.5,2.6-8.1,4.4
			c-0.1,0.1-0.2,0.2-0.4,0.3c-3.8,3.1-7.4,6.3-10.6,9.9c0.1,0,0.2,0,0.2-0.1c1.7-1,3.3-2.1,5.1-2.9c1.6-0.7,3.4-1.3,5-2.2
			c0.3-0.2,1-0.4,1.2-0.5c-0.8,0.6-1.9,1-2.7,1.5c-1.8,1-3.6,2.2-5.3,3.5c-3.1,2.3-6.1,4.8-8.8,7.4c-0.7,0.7-4.5,3.6-4.3,4.5
			c0,0.1,0.1,0.2,0.3,0.2c1.2,0,3.1-1,4.3-1.5c3.1-1.3,6.3-2.5,9.4-3.8c1.9-0.8,3.9-1.6,5.8-2.5c-0.1,0.1-0.2,0.1-0.3,0.2
			c-1.2,0.8-2.3,1.7-3.4,2.5c-1.2,0.9-2.5,1.7-3.6,2.7c-0.1,0.1-0.1,0.2,0,0.2c0.9-0.2,1.8-0.4,2.8-0.7c1.2-0.5,2.5-1.2,3.6-1.7
			c2.9-1.3,5.8-2.5,8.7-4c2.2-1.1,4.4-2.4,6.5-3.8c-1.5,1.5-3.1,3-4.6,4.6c0.8-0.2,1.7-0.4,2.5-0.6c1.1-0.4,2.1-0.8,3.2-1.3
			C106.3,69.7,108.9,68.2,111.2,66.5L111.2,66.5z"/>
	</g>
	<g>
		<path class="st4" d="M116.1,59.3c0.7-2.4,0.6-4.8-0.5-6.5c-0.2-0.3-0.4-0.6-0.7-0.9c-0.2-0.3-0.4-0.5-0.6-0.7
			c-0.9-0.9-2-1.7-3.3-2.2c-0.4-0.2-0.9-0.3-1.3-0.5c-0.9-0.2-1.8-0.4-2.7-0.4c2.8,0.5,5.3,1.9,6.5,3.7c1.3,1.9,2,4.3,1.5,7
			c-0.2,1.5-0.7,3-1.7,4.5c0,0.1,0.1,0.1,0.2,0c0.9-1.1,1.9-2.4,2.6-3.7C116.1,59.4,116.1,59.4,116.1,59.3L116.1,59.3z"/>
	</g>
	<path class="st5" d="M128.8,54.3l-2.1-3.3c0,0-6.6-0.2-13.4,4.3c0,0,0.4,2.4,2.2,5.1c1.7,2.7,3.7,4.1,3.7,4.1
		C126.2,60.3,128.8,54.3,128.8,54.3z"/>
	
		<linearGradient id="SVGID_1_" gradientUnits="userSpaceOnUse" x1="-88.414" y1="732.3555" x2="-106.317" y2="747.0237" gradientTransform="matrix(1 0 0 1 219.01 -682.6)">
		<stop  offset="0.46" style="stop-color:#E5E0DF"/>
		<stop  offset="1" style="stop-color:#8CA99C"/>
	</linearGradient>
	<path class="st6" d="M126.6,57.9c1.6-2,2.2-3.5,2.2-3.5l-2.1-3.3c0,0-1.7,0-4.3,0.5C123.1,53.1,124.3,55.4,126.6,57.9L126.6,57.9z"
		/>
	<path class="st7" d="M114.7,54.5c-0.2,0.1-0.4,0.2-0.6,0.3c0.2,0.9,0.8,2.6,2.1,4.6c0.9,1.4,2.1,3,3.8,4.6c0.2-0.1,0.4-0.3,0.6-0.4
		C116.3,59.7,115,55.8,114.7,54.5z"/>
	<path class="st7" d="M116.5,53.5c-0.2,0.1-0.4,0.2-0.6,0.3c0.3,0.9,0.9,2.5,2.1,4.5c0.9,1.4,2.1,2.9,3.7,4.5
		c0.2-0.1,0.3-0.3,0.5-0.4C118.3,58.6,116.9,54.9,116.5,53.5z"/>
	<path class="st7" d="M124.8,60c0.1-0.2,0.3-0.3,0.4-0.5c-2.9-3-4.3-5.9-4.9-7.5c-0.2,0.1-0.4,0.1-0.6,0.2c0.3,0.9,0.9,2.3,1.9,3.8
		C122.4,57.2,123.5,58.6,124.8,60L124.8,60z"/>
	<path class="st7" d="M118.4,52.7c-0.2,0.1-0.4,0.2-0.6,0.3c0.3,1,0.9,2.5,2,4.2c0.8,1.3,2,2.8,3.5,4.3c0.2-0.1,0.3-0.3,0.5-0.4
		C120.3,57.5,118.9,54.3,118.4,52.7z"/>
	<path class="st7" d="M126.2,58.4c0.1-0.2,0.3-0.3,0.4-0.5c-2.3-2.5-3.5-4.8-4.2-6.4c-0.2,0-0.4,0.1-0.6,0.1c0.4,0.9,0.9,2,1.7,3.2
		C124.2,56,125.1,57.2,126.2,58.4L126.2,58.4z"/>
	<g class="st8">
		<path class="st9" d="M128.8,54.3l-2.1-3.3c0,0-6.6-0.2-13.4,4.3c0,0,0,0.2,0.1,0.5c1.5-1.1,3.4-1.7,5.2-2.5c1.2-0.5,3.9-1.6,4.8,0
			c1,1.8-6.3,5.9-7.9,7l0,0c1.7,2.7,3.7,4.1,3.7,4.1C126.2,60.3,128.8,54.3,128.8,54.3L128.8,54.3z"/>
	</g>
	<g class="st8">
		<path class="st9" d="M128.8,54.3l-1.1-1.7c-2.6,4.1-6.4,7.5-10.4,10.2c1,1.1,1.8,1.7,1.8,1.7C126.2,60.3,128.8,54.3,128.8,54.3z"
			/>
	</g>
	<path class="st5" d="M121.5,42.9l-2.1-3.3c0,0-6.6-0.2-13.4,4.3c0,0,0.4,2.4,2.2,5.1c1.7,2.7,3.7,4.1,3.7,4.1
		C118.9,48.9,121.5,42.9,121.5,42.9z"/>
	
		<linearGradient id="SVGID_00000168114561097810928660000006938462961126092186_" gradientUnits="userSpaceOnUse" x1="-95.7308" y1="720.8756" x2="-113.6418" y2="735.5316" gradientTransform="matrix(1 0 0 1 219.01 -682.6)">
		<stop  offset="0.46" style="stop-color:#E5E0DF"/>
		<stop  offset="1" style="stop-color:#8CA99C"/>
	</linearGradient>
	<path style="fill:url(#SVGID_00000168114561097810928660000006938462961126092186_);" d="M119.3,46.4c1.6-2,2.2-3.5,2.2-3.5
		l-2.1-3.3c0,0-1.7,0-4.3,0.5C115.8,41.6,117,44,119.3,46.4L119.3,46.4z"/>
	<path class="st7" d="M107.4,43.1c-0.2,0.1-0.4,0.2-0.6,0.3c0.2,0.9,0.8,2.6,2.1,4.6c0.9,1.4,2.1,3,3.8,4.6c0.2-0.1,0.4-0.3,0.6-0.4
		C109.1,48.2,107.7,44.4,107.4,43.1z"/>
	<path class="st7" d="M109.2,42.1c-0.2,0.1-0.4,0.2-0.6,0.3c0.3,0.9,0.9,2.5,2.1,4.5c0.9,1.4,2.1,2.9,3.7,4.5
		c0.2-0.1,0.3-0.3,0.5-0.4C111,47.1,109.7,43.5,109.2,42.1z"/>
	<path class="st7" d="M117.6,48.5c0.2-0.2,0.3-0.3,0.4-0.5c-2.9-3-4.3-5.9-4.9-7.5c-0.2,0.1-0.4,0.1-0.6,0.2
		c0.3,0.9,0.9,2.3,1.9,3.8C115.2,45.8,116.2,47.2,117.6,48.5L117.6,48.5z"/>
	<path class="st7" d="M111.2,41.2c-0.2,0.1-0.4,0.2-0.6,0.3c0.3,1,0.9,2.5,2,4.2c0.8,1.3,2,2.8,3.5,4.3c0.2-0.1,0.3-0.3,0.5-0.4
		C113,46.1,111.6,42.8,111.2,41.2z"/>
	<path class="st7" d="M118.9,47c0.1-0.2,0.3-0.3,0.4-0.5c-2.3-2.5-3.5-4.8-4.2-6.4c-0.2,0-0.4,0.1-0.6,0.1c0.4,0.9,0.9,2,1.7,3.2
		C116.9,44.5,117.8,45.7,118.9,47L118.9,47z"/>
	<g class="st8">
		<path class="st9" d="M121.5,42.9l-2.1-3.3c0,0-6.6-0.2-13.4,4.3c0,0,0,0.2,0.1,0.5c1.5-1.1,3.4-1.7,5.2-2.5c1.2-0.5,3.9-1.6,4.8,0
			c1,1.8-6.3,5.9-7.9,7l0,0c1.7,2.7,3.7,4.1,3.7,4.1C118.9,48.9,121.6,42.9,121.5,42.9L121.5,42.9z"/>
	</g>
	<g class="st8">
		<path class="st9" d="M121.5,42.9l-1.1-1.7c-2.6,4.1-6.4,7.5-10.4,10.2c1,1.1,1.8,1.7,1.8,1.7C118.9,48.9,121.5,42.9,121.5,42.9z"
			/>
	</g>
	<path class="st11" d="M131.6,21.9c0,0-5-4.2-10.8-1s-17.7,22-15,21.2c2.7-0.8,15-7.9,15-7.9L131.6,21.9z"/>
	<g>
		<path class="st11" d="M128.8,21.8c0.2,0.1,0.2,0.4-0.1,0.4c-5.5,1.3-10.2,5.3-14.2,9c-3.5,3.2-6.5,6.8-9,10.8c0.1,0,0.1,0,0.2,0
			c2.7-0.8,15-7.9,15-7.9l10.8-12.3c0,0-5-4.2-10.8-1c-0.3,0.2-0.6,0.4-1,0.6C122.6,20.4,125.9,20.3,128.8,21.8L128.8,21.8z"/>
	</g>
	<g>
		<path class="st12" d="M112.5,32c1.4-1.7,2.8-3.3,4-5.1c1-1.4,1.7-2.9,2.5-4.4l0,0c-4,3.8-9.1,11.1-11.5,15.5
			C109.1,36,110.8,34,112.5,32L112.5,32z"/>
	</g>
	<path class="st13" d="M149.9,50.8c0,0,1.7,6.2-3.7,10.2c-5.4,3.9-27.5,6.6-25.6,4.5s13.6-10.2,13.6-10.2L149.9,50.8L149.9,50.8z"/>
	<g>
		<path class="st11" d="M120.6,65.8c0.2-0.1,0.3-0.1,0.5-0.2c1.4-0.6,2.7-1.3,4.1-1.9c2.4-1.2,4.8-2.3,7.2-3.4
			c4.9-2.1,10-4.2,15.2-5.1c0.1,0,0.2,0.1,0.3,0.2c-0.1,2.5-1.1,4.5-2.7,6.2c0.4-0.2,0.8-0.4,1.1-0.7c5.4-3.9,3.7-10.2,3.7-10.2
			l-15.7,4.5c0,0-11.7,8.1-13.6,10.2C120.5,65.6,120.5,65.7,120.6,65.8L120.6,65.8z"/>
	</g>
	<path class="st14" d="M168.9,40.6c7.2-4.9,9.8-7.4,10.3-8c5.9-5,15.8-26.7,16.3-28.3c0.3-1.3-0.2-2.1-0.4-2.5
		c-0.2-0.3-0.8-1.2-2.1-1.4c-1.6-0.3-25.5-0.6-32.6,2.6c-0.7,0.2-4.1,1.5-11.6,5.9c-8.6,5-28.8,20.6-33.2,29.5c0,0,1.3,4.3,5.3,10.3
		c3.7,6.2,7,9.2,7,9.2C137.9,57.7,160.6,46.2,168.9,40.6L168.9,40.6z"/>
	<path class="st13" d="M142.3,37.8c0-0.4-0.1-0.9-0.2-1.2l-1.1-1.7c-0.2-0.3-0.5-0.5-0.8-0.7c-1-0.4-3.5-0.7-8.4,2.7
		c-5.4,3.7-20,16.9-18.9,16.9c-0.4,1,17.8-6.3,23.4-9.8C140.9,41.1,142.1,39,142.3,37.8z"/>
	<path class="st11" d="M140,36.5c0-0.2,0.1-0.5,0-0.7l-0.5-0.8c-0.1-0.1-0.3-0.2-0.4-0.3c-0.6-0.1-2.2-0.1-5.8,2.3
		c-3.9,2.6-14.8,11.5-14.1,11.4c-0.4,0.6,12.3-5.3,16.3-7.8C138.8,38.4,139.7,37.2,140,36.5z"/>
	<path class="st12" d="M129.5,40.8c2.9-1.9,5.6-4.2,8.7-5.9c-0.9,0.2-2.4,0.8-4.4,2.2c-1.9,1.3-5.4,4-8.5,6.5
		C126.7,42.7,128.1,41.8,129.5,40.8z"/>
	
		<linearGradient id="SVGID_00000114758883518386458020000011644107495926229921_" gradientUnits="userSpaceOnUse" x1="-52.9651" y1="668.298" x2="-21.9341" y2="717.4307" gradientTransform="matrix(1 0 0 1 219.01 -682.6)">
		<stop  offset="0.46" style="stop-color:#E5E0DF"/>
		<stop  offset="1" style="stop-color:#8CA99C"/>
	</linearGradient>
	<path style="fill:url(#SVGID_00000114758883518386458020000011644107495926229921_);" d="M195,1.9c-0.2-0.3-0.8-1.2-2.1-1.4
		c-1.6-0.3-24.3-0.6-32,2.3c1.5,5.2,3.9,10.6,7.3,16c3.4,5.3,7.3,9.9,11.4,13.4c6-5.7,15.4-26.3,15.8-27.8
		C195.7,3.1,195.3,2.2,195,1.9z"/>
	<path class="st16" d="M195,1.9c-0.2-0.3-0.8-1.2-2.1-1.4c-1.6-0.3-24.3-0.6-32,2.3c1.5,5.2,3.9,10.6,7.3,16
		c3.4,5.3,7.3,9.9,11.4,13.4c6-5.7,15.4-26.3,15.8-27.8C195.7,3.1,195.3,2.2,195,1.9z"/>
	<path class="st12" d="M160.6,5.7c-0.4,0.2-0.8,0.1-1.1-0.2c-0.2-0.4-0.1-0.8,0.2-1.1s0.8-0.1,1.1,0.2C161,5,160.9,5.5,160.6,5.7z"
		/>
	<path class="st12" d="M167.2,20.4c-0.4,0.2-0.8,0.1-1.1-0.2c-0.2-0.4-0.1-0.8,0.2-1.1s0.8-0.1,1.1,0.2
		C167.7,19.7,167.6,20.2,167.2,20.4z"/>
	<path class="st12" d="M177.9,32.5c-0.4,0.2-0.8,0.1-1.1-0.2c-0.2-0.4-0.1-0.8,0.2-1.1c0.4-0.2,0.8-0.1,1.1,0.2
		C178.3,31.8,178.2,32.3,177.9,32.5z"/>
	<path class="st12" d="M171.9,26.9c-0.4,0.2-0.8,0.1-1.1-0.2c-0.2-0.4-0.1-0.8,0.2-1.1c0.4-0.2,0.8-0.1,1.1,0.2
		C172.4,26.2,172.3,26.6,171.9,26.9z"/>
	<path class="st12" d="M163.3,13.4c-0.4,0.2-0.8,0.1-1.1-0.2c-0.2-0.4-0.1-0.8,0.2-1.1s0.8-0.1,1.1,0.2
		C163.8,12.7,163.7,13.2,163.3,13.4z"/>
	<path class="st17" d="M159.4,34.5c-3.7,2.3-8.5,1.2-10.9-2.4c-2.3-3.7-1.2-8.5,2.4-10.8c3.7-2.3,8.5-1.2,10.9,2.4
		C164.1,27.3,163,32.2,159.4,34.5z"/>
	<g class="st18">
		<path class="st19" d="M158.5,33.6c-3.1,2-7.2,1-9.2-2.1s-1.1-7.2,2.1-9.2c3.1-2,7.2-1,9.2,2.1C162.5,27.6,161.6,31.7,158.5,33.6z"
			/>
	</g>
	
		<radialGradient id="SVGID_00000093893817144623973480000016125722252197989773_" cx="-997.0896" cy="-40.1811" r="1" gradientTransform="matrix(5.268 8.2792 -8.2855 5.272 5039.188 8615.3398)" gradientUnits="userSpaceOnUse">
		<stop  offset="0.15" style="stop-color:#21687E"/>
		<stop  offset="0.49" style="stop-color:#023F5F"/>
		<stop  offset="0.98" style="stop-color:#000000"/>
	</radialGradient>
	<path style="fill:url(#SVGID_00000093893817144623973480000016125722252197989773_);" d="M158.3,33c-2.8,1.8-6.5,0.9-8.3-1.8
		c-1.8-2.8-0.9-6.5,1.8-8.3c2.8-1.8,6.5-0.9,8.3,1.8C162,27.5,161.1,31.2,158.3,33z"/>
	<g>
		
			<radialGradient id="SVGID_00000149350446405331251830000008110329799474527111_" cx="-991.3317" cy="-42.3487" r="1" gradientTransform="matrix(4.9951 7.8504 -7.8564 4.999 4737.0693 8140.0537)" gradientUnits="userSpaceOnUse">
			<stop  offset="0.29" style="stop-color:#FFFFFF"/>
			<stop  offset="0.69" style="stop-color:#6B6B6B"/>
			<stop  offset="1" style="stop-color:#000000"/>
		</radialGradient>
		<path style="fill:url(#SVGID_00000149350446405331251830000008110329799474527111_);" d="M152.1,24.8c-0.1-0.3-0.3-0.6-0.4-0.9
			c-1.2,1-1.9,2.4-1.9,3.9C150.2,26.6,150.9,25.6,152.1,24.8C152.1,24.9,152.1,24.9,152.1,24.8z"/>
		
			<radialGradient id="SVGID_00000031894235559935021650000007598945355661756077_" cx="-991.3318" cy="-42.3489" r="1" gradientTransform="matrix(4.9951 7.8504 -7.8564 4.9989 4737.0615 8140.1055)" gradientUnits="userSpaceOnUse">
			<stop  offset="0.29" style="stop-color:#FFFFFF"/>
			<stop  offset="0.69" style="stop-color:#6B6B6B"/>
			<stop  offset="1" style="stop-color:#000000"/>
		</radialGradient>
		<path style="fill:url(#SVGID_00000031894235559935021650000007598945355661756077_);" d="M159.7,25.1c-1.5-2.4-4.6-3.2-7.1-1.9
			c0.1,0.4,0.3,0.7,0.5,1.1c2.3-0.8,5,0,6.4,2.2c0.6,0.9,0.9,2,0.8,3C160.8,28.1,160.6,26.5,159.7,25.1L159.7,25.1z"/>
	</g>
	<g>
		<path class="st12" d="M144.8,61c0,0-10.8,4.8-21.7,4.7C123.1,65.7,135,64.2,144.8,61z"/>
	</g>
	<g class="st18">
		<path class="st19" d="M163.1,11.5c-0.2-0.3-0.3-0.6-0.4-1c-0.4-1.1-0.8-2.1-1.2-3.2c-3.9,1.6-7.6,3.5-11.2,5.9
			c-11.6,7.5-21.5,17.2-31.7,26.4c0.3,0.8,0.8,1.7,1.4,2.8c10-7.7,19.7-15.9,30.1-23.1C154.3,16.5,158.6,13.8,163.1,11.5L163.1,11.5
			z"/>
	</g>
	<g>
		<path class="st23" d="M168.9,40.6c7.2-4.9,9.8-7.4,10.3-8c5.9-5,15.8-26.7,16.3-28.3c0.3-1.3-0.2-2.1-0.4-2.5c0,0,0,0,0-0.1
			c-2.1,3-4.5,5.9-6.9,8.7c-17.1,19.4-39.7,33.2-62.9,44.3c1.7,2.1,2.8,3.1,2.8,3.1C137.9,57.7,160.6,46.2,168.9,40.6z"/>
	</g>
	<path class="st24" d="M164.2,9.3c0.2,0.5,0.4,0.9,0.6,1.3c1.6-0.8,3.2-1.5,4.9-2.2c5.5-2.3,11.2-4.2,16.8-6.1
		c-5.8,0.5-11.6,1.1-17.3,2.5c-2.1,0.5-4.1,1.1-6,1.8C163.6,7.5,163.8,8.4,164.2,9.3z"/>
</g>
</svg>
