<?xml version="1.0" encoding="utf-8"?>
<!-- Generator: Adobe Illustrator 27.9.0, SVG Export Plug-In . SVG Version: 6.00 Build 0)  -->
<svg version="1.1" id="Laag_1" xmlns="http://www.w3.org/2000/svg" xmlns:xlink="http://www.w3.org/1999/xlink" x="0px" y="0px"
	 viewBox="0 0 69.5 83" style="enable-background:new 0 0 69.5 83;" xml:space="preserve">
<style type="text/css">
	.st0{fill:url(#SVGID_1_);}
	.st1{fill:#737679;}
	.st2{opacity:0.5;}
	.st3{fill:url(#SVGID_00000167391518539923836880000004545085186184366252_);}
	.st4{fill:#B1B3B6;}
	.st5{fill:#FFFFFF;}
	.st6{fill:url(#SVGID_00000016057713435860351020000004199750608245235372_);}
	.st7{fill:#CFD1D2;}
	.st8{fill:url(#SVGID_00000069398348377110182970000018151841248523731370_);}
	.st9{opacity:0.6;}
	.st10{fill:#648199;}
	.st11{fill:url(#SVGID_00000093899612732218551500000009055288890044288919_);}
	.st12{fill:#4A6174;}
	.st13{fill:url(#SVGID_00000080909336921773439170000001319176646024609717_);}
	.st14{opacity:0.4;fill:url(#SVGID_00000121253427260601400400000003457199505556686222_);enable-background:new    ;}
	.st15{fill:#696768;}
	.st16{fill:#151515;}
	.st17{fill:url(#SVGID_00000134228947303303373760000001405882092957148319_);}
	.st18{fill:#494C4E;}
	.st19{fill:#36393B;}
	.st20{fill:url(#SVGID_00000052783383401827011330000012501639393856838551_);}
	.st21{fill:#007B9C;}
	.st22{fill:url(#SVGID_00000170977266652757337190000001711600646725693360_);}
	.st23{fill:url(#SVGID_00000024689116786649941280000012491772086111383727_);}
	.st24{fill:url(#SVGID_00000146471514398407088000000006465486776666176389_);}
	.st25{fill:url(#SVGID_00000026162940780633711190000011992779509840162719_);}
	.st26{fill:url(#SVGID_00000021826928455932106720000006781099443162009791_);}
	.st27{fill:url(#SVGID_00000110468219273515272400000013055835821052988832_);}
	.st28{fill:url(#SVGID_00000092451094892695113980000001218105881299878829_);}
	.st29{fill:url(#SVGID_00000011740871460641228280000001564553573621276596_);}
	.st30{fill:url(#SVGID_00000080195427389642768450000002168009338272776870_);}
	.st31{fill:url(#SVGID_00000094601463573739297460000010658577742528346242_);}
	.st32{fill:url(#SVGID_00000048474418156042692260000012207369149539822243_);}
	.st33{fill:#71C0EB;}
	.st34{opacity:0.3;}
	.st35{fill:#008BB8;}
	.st36{fill:#828487;}
	.st37{fill:#C0C2C4;}
	.st38{fill:#1A1C1E;}
	.st39{fill:#45484A;}
	.st40{fill:#F8A344;}
	.st41{fill:url(#SVGID_00000082327213129141776190000013944548259667239574_);}
	.st42{fill:url(#SVGID_00000156587925726285813540000005599624793040807602_);}
	.st43{fill:url(#SVGID_00000117644830279516905230000013143223570178744494_);}
	.st44{fill:url(#SVGID_00000010308234509614901140000002078254482347342726_);}
	.st45{fill:url(#SVGID_00000013871986089484260810000013080852767459173037_);}
	.st46{fill:url(#SVGID_00000057133898819697235640000005400486107123160206_);}
	.st47{fill:url(#SVGID_00000007428690772634026890000002244868607082232243_);}
	.st48{fill:url(#SVGID_00000026155488876340259070000001442178456545210811_);}
	.st49{fill:url(#SVGID_00000183243674633134940760000002107650564711045310_);}
	.st50{fill:url(#SVGID_00000109000817145728590270000007733957081900637838_);}
	.st51{fill:url(#SVGID_00000013896968907483490120000001154367908175745201_);}
	.st52{fill:url(#SVGID_00000059310232630464357330000001618192110642310305_);}
</style>
<g>
	
		<linearGradient id="SVGID_1_" gradientUnits="userSpaceOnUse" x1="-165.8571" y1="814.7227" x2="-141.2072" y2="778.8402" gradientTransform="matrix(1 0 0 1 219.01 -743.6)">
		<stop  offset="0.46" style="stop-color:#E5E0DF"/>
		<stop  offset="1" style="stop-color:#8CA99C"/>
	</linearGradient>
	<path class="st0" d="M68.1,53.1c-0.1-0.1-4.8-4.3-4.8-4.3l-4.2,1.9l-2.5,13.2c0,0,6.7,0.3,6.8,0.3l0,0h0.7c1.6-0.2,3.2-1.3,4.5-4.1
		C70,57.1,69.5,54.4,68.1,53.1z"/>
	<path class="st1" d="M68.1,53.1c-0.1-0.1-4.8-4.3-4.8-4.3l-4.2,1.9l-2.5,13.2c0,0,6.7,0.3,6.8,0.3l0,0h0.7c1.6-0.2,3.2-1.3,4.5-4.1
		C70,57.1,69.5,54.4,68.1,53.1z"/>
	<g class="st2">
		<path class="st1" d="M65,60.9c1.5-2.7,2.5-5.7,2.2-8.7c-1.4-1.2-3.9-3.4-3.9-3.4l-4.2,1.9l-2.5,13.2c0,0,3.2,0.1,5.2,0.2
			C62.9,63.3,64.3,62.1,65,60.9z"/>
	</g>
	<g class="st2">
		<path class="st1" d="M66,53.5c1.1,0.9,2.3,1.8,3.5,2.7c-0.1-1.3-0.5-2.4-1.3-3.1c-0.1-0.1-4.8-4.3-4.8-4.3l-2.1,0.9
			C62.8,51,64.4,52.2,66,53.5z"/>
	</g>
	<g class="st2">
		<path class="st1" d="M57.1,61.3l-0.5,2.5c0,0,6.7,0.3,6.8,0.3l0,0h0.7c0.8-0.1,1.5-0.4,2.2-1C63.3,62.8,60.2,62,57.1,61.3
			L57.1,61.3z"/>
	</g>
	
		<radialGradient id="SVGID_00000048501732869273857880000002629220915585158577_" cx="-1212.2133" cy="31.364" r="1" gradientTransform="matrix(32.8167 8.005876e-02 -7.993117e-02 32.7644 39831.0859 -884.4798)" gradientUnits="userSpaceOnUse">
		<stop  offset="0" style="stop-color:#00A5BC"/>
		<stop  offset="0.28" style="stop-color:#21687E"/>
		<stop  offset="0.51" style="stop-color:#0D3B59"/>
		<stop  offset="0.59" style="stop-color:#05294A"/>
		<stop  offset="0.71" style="stop-color:#031A30"/>
		<stop  offset="0.9" style="stop-color:#00070D"/>
		<stop  offset="1" style="stop-color:#000000"/>
	</radialGradient>
	<path style="fill:url(#SVGID_00000048501732869273857880000002629220915585158577_);" d="M63.3,46c-0.1-0.1-8.7-7.6-8.7-7.6
		l-7.5,3.4l-4.4,23.6c0,0,12.1,0.6,12.2,0.6l0,0l1.3-0.1c2.9-0.4,5.8-2.3,8-7.4C66.6,53.2,65.8,48.5,63.3,46L63.3,46z"/>
	<g>
		<path class="st4" d="M57.1,46.9c2.2,1.5,4.9,4.9,8.1,8.7c1-4.1,0.1-7.6-2-9.5c-0.1-0.1-8.7-7.6-8.7-7.6L47,41.9l-0.2,1
			C48.5,44.4,55,45.5,57.1,46.9L57.1,46.9z"/>
	</g>
	<g class="st2">
		<path class="st5" d="M54.3,56.2c-2.2-0.7-3.6-1.3-5.7-1.9c-1.2-0.3-2.5-0.7-3.6-1.1l-0.6,3.3c6.4,1.3,12.8,2.4,19.2,3.4
			c0.1-0.2,0.2-0.5,0.4-0.7C60.9,58.3,57.3,57.1,54.3,56.2L54.3,56.2z"/>
	</g>
	<g>
		<path class="st4" d="M46.2,63.9c-1.1-0.1-3.5,1.5-3.5,1.5s12,0.6,12.1,0.6l0,0l1.3-0.1c0.9-0.1,1.7-0.4,2.6-0.8
			C56.6,64.9,48.1,64.1,46.2,63.9L46.2,63.9z"/>
	</g>
	
		<linearGradient id="SVGID_00000043427164464345982020000000999379321973875636_" gradientUnits="userSpaceOnUse" x1="-201.0962" y1="822.4719" x2="-145.8109" y2="741.9896" gradientTransform="matrix(1 0 0 1 219.01 -743.6)">
		<stop  offset="0.46" style="stop-color:#E5E0DF"/>
		<stop  offset="1" style="stop-color:#8CA99C"/>
	</linearGradient>
	<path style="fill:url(#SVGID_00000043427164464345982020000000999379321973875636_);" d="M53.5,37.7c-0.2-0.1-0.4-0.1-0.5-0.2
		L30.4,30l0.5,1.2L17.7,57.1l23.7,8.1c0.1,0.1,0.3,0.1,0.4,0.1h0.1c4.2,1.1,9.9-3.3,13.1-10.5C58.4,47.3,57.7,39.6,53.5,37.7
		L53.5,37.7z"/>
	<g>
		<path class="st7" d="M28.8,35.3c5,2.1,9.8,4.5,14.8,6.4c4.5,1.7,9,3.4,13.4,5.2c0.3-4.4-0.9-8-3.6-9.2c-0.2-0.1-0.4-0.1-0.5-0.2
			L30.4,30l0.5,1.2L28.8,35.3z"/>
	</g>
	<g>
		<path class="st7" d="M19.5,53.5L17.7,57l23.7,8.1c0.1,0.1,0.3,0.1,0.4,0.1h0.1c1.8,0.5,3.9-0.1,5.9-1.4
			C38.3,60.5,28.9,57,19.5,53.5z"/>
	</g>
	<g class="st2">
		<path class="st5" d="M23.6,45.4l-1,2c5.2,2.5,10.6,4.3,16.1,6.3c4.8,1.7,9.7,3,14.4,4.6c0.4-0.7,0.8-1.3,1.2-2.1
			C44,52.8,33.5,50,23.6,45.4L23.6,45.4z"/>
	</g>
	
		<radialGradient id="SVGID_00000098904196513199885510000007293749599082657671_" cx="-1212.2133" cy="31.364" r="1" gradientTransform="matrix(32.8167 8.005876e-02 -7.993117e-02 32.7644 39831.0898 -884.4798)" gradientUnits="userSpaceOnUse">
		<stop  offset="0" style="stop-color:#00A5BC"/>
		<stop  offset="0.28" style="stop-color:#21687E"/>
		<stop  offset="0.51" style="stop-color:#0D3B59"/>
		<stop  offset="0.59" style="stop-color:#05294A"/>
		<stop  offset="0.71" style="stop-color:#031A30"/>
		<stop  offset="0.9" style="stop-color:#00070D"/>
		<stop  offset="1" style="stop-color:#000000"/>
	</radialGradient>
	<path style="fill:url(#SVGID_00000098904196513199885510000007293749599082657671_);" d="M40.3,33.2c-0.7-0.2-1.5-0.5-2.3-0.7
		c2.7,3.2,2.6,10.1-0.5,16.9C35,55,31,59.1,27.4,60.5c0.7,0.2,1.3,0.5,2,0.8c3.6-1.9,7.1-6,9.5-11.2C41.9,43.5,42.3,37.2,40.3,33.2z
		"/>
	<path class="st1" d="M31.5,46.8c-3.4,7.5-9.6,12.1-13.8,10.2s-4.9-9.6-1.5-17.1c3.4-7.6,9.6-12.1,13.8-10.2S34.8,39.3,31.5,46.8z"
		/>
	<g class="st9">
		<path class="st5" d="M31,45.7c-3.3,7.2-9.2,11.7-13.3,9.8c-2.2-1-3.4-3.7-3.5-7.1c-0.1,3.9,1.1,6.9,3.5,8c4.1,1.8,10-2.6,13.3-9.8
			c1.5-3.3,2.1-6.6,2.1-9.4C32.9,39.9,32.3,42.8,31,45.7L31,45.7z"/>
	</g>
	<g>
		<path class="st1" d="M28.3,45.4c-2,4.4-5.6,7.1-8.1,6s-2.9-5.6-0.9-10.1c2-4.4,5.6-7.1,8.1-6C29.9,36.5,30.3,41,28.3,45.4z"/>
	</g>
	<path class="st1" d="M36.7,45.6c-0.6,2.1-2.7,8.1-7.9,12.5l-3.4-1.5c-0.4,0.3-0.6,0.5-0.6,0.5l4.1,1.7c6.4-5.3,8.6-13,8.6-13
		L36.7,45.6z"/>
	<path class="st5" d="M36.7,45.6l-3.1-1.1c-2.1,6.3-6.6,10.7-8.3,12.1l3.4,1.5C34,53.7,36.1,47.7,36.7,45.6z"/>
	<g>
		<path class="st1" d="M35.1,47.6c0.1,0,0.1,0,0.2,0.1c0.2-0.4,0.3-0.8,0.3-1L34,46.1c-0.1,0.3-0.2,0.6-0.3,0.9
			C34.2,47.2,34.6,47.4,35.1,47.6L35.1,47.6z"/>
	</g>
	<g>
		<path class="st1" d="M34.4,48.9c0.1,0,0.2,0,0.2,0.1c0.2-0.3,0.3-0.6,0.4-0.9c-0.5-0.2-1.1-0.5-1.6-0.6c-0.1,0.3-0.3,0.6-0.5,0.9
			C33.5,48.5,33.9,48.7,34.4,48.9L34.4,48.9z"/>
	</g>
	<path class="st10" d="M33.9,50.3c0.2-0.3,0.4-0.6,0.5-0.9c-0.1,0-0.3-0.1-0.4-0.1c-0.4-0.1-0.9-0.3-1.3-0.5
		c-0.2,0.3-0.4,0.6-0.6,0.9C32.7,49.8,33.3,50.1,33.9,50.3L33.9,50.3z"/>
	
		<linearGradient id="SVGID_00000080190614821049999110000010985570228632883630_" gradientUnits="userSpaceOnUse" x1="-175.1686" y1="782.0403" x2="-167.1687" y2="782.0599" gradientTransform="matrix(1 0 0 1 219.01 -743.6)">
		<stop  offset="0.46" style="stop-color:#E5E0DF"/>
		<stop  offset="1" style="stop-color:#8CA99C"/>
	</linearGradient>
	<path style="fill:url(#SVGID_00000080190614821049999110000010985570228632883630_);" d="M44.9,39.1c-0.8-0.3-1.3-1.2-1-2
		s1.2-1.3,2-1l4.8,1.7c0.8,0.3,1.3,1.2,1,2s-1.2,1.3-2,1L44.9,39.1z"/>
	<path class="st1" d="M50.8,37.8L46,36.1c-0.8-0.3-1.7,0.1-2,1c0,0.1-0.1,0.3-0.1,0.4c0.3-0.7,1.2-1.1,1.9-0.8l4.8,1.7
		c0.7,0.2,1.1,0.9,1,1.6c0,0,0.1-0.1,0.1-0.2C52,39,51.6,38.1,50.8,37.8z"/>
	<path class="st5" d="M50.6,38.4l-4.8-1.7c-0.8-0.3-1.6,0.1-1.9,0.8c0,0.7,0.4,1.3,1,1.6l4.8,1.7c0.8,0.3,1.6-0.1,1.9-0.8
		C51.7,39.3,51.3,38.7,50.6,38.4z"/>
	<path class="st1" d="M47.9,34.9L46.2,38c0,0-0.3,0.3,0.2,0.9c0.4,0.5,2.8,1.3,2.8,1.3s0.7,0.4,1-0.1s1.5-3.4,1.5-3.4L47.9,34.9
		L47.9,34.9z"/>
	<g>
		<path class="st1" d="M48.6,39.5c0.3,0.3,0.6,0.5,1,0.8c0.2,0,0.5,0,0.6-0.3c0.3-0.5,1.5-3.4,1.5-3.4l-3.8-1.8l-1.4,2.6
			C47,38.2,47.9,38.9,48.6,39.5L48.6,39.5z"/>
	</g>
	<path class="st12" d="M46.4,36.6c6,7,14.1,10,18.1,6.6c3.9-3.4,2.2-11.8-3.8-18.8s-14.1-10-18.1-6.6S40.3,29.5,46.4,36.6z"/>
	
		<radialGradient id="SVGID_00000099657138796573681270000007833235395526683792_" cx="-1261.9879" cy="-13.816" r="1" gradientTransform="matrix(-40.6276 11.6928 -12.0013 -41.6997 -51388.1914 14221.293)" gradientUnits="userSpaceOnUse">
		<stop  offset="0.46" style="stop-color:#E5E0DF"/>
		<stop  offset="1" style="stop-color:#77787B"/>
	</radialGradient>
	<path style="fill:url(#SVGID_00000099657138796573681270000007833235395526683792_);" d="M46.7,36.3c6,7,14,10.1,17.9,6.8
		c3.8-3.3,2.1-11.7-4-18.7c-6-7-14-10.1-17.9-6.8C38.9,20.9,40.7,29.2,46.7,36.3z"/>
	
		<radialGradient id="SVGID_00000119095303319889378450000000263182457406213760_" cx="-1261.2881" cy="-13.9702" r="1" gradientTransform="matrix(-41.6525 12.3815 -12.365 -41.5969 -52674.5352 15089.2842)" gradientUnits="userSpaceOnUse">
		<stop  offset="0.46" style="stop-color:#E5E0DF"/>
		<stop  offset="1" style="stop-color:#77787B"/>
	</radialGradient>
	<path style="opacity:0.4;fill:url(#SVGID_00000119095303319889378450000000263182457406213760_);enable-background:new    ;" d="
		M60.6,38.6c-3.3-1.2-6.7-2.8-9.5-4.9c-2.9-2.2-5.5-4.7-7.4-7.8c-1.1-1.7-2.2-3.6-2.8-5.6c0.3-1,0.9-1.9,1.7-2.6
		c1.2-1,2.8-1.5,4.6-1.4c-0.7,2.6-0.7,5.3-0.3,8c0.6,3.3,1.8,7,4.7,9s6.8,2,10.2,1.4c1.3-0.2,2.8-0.3,4.3-0.7
		c0.6,2.3,0.7,4.3,0.2,6.1C64.3,39.9,62.3,39.2,60.6,38.6z"/>
	<path class="st15" d="M49.6,33.9c0.7,0.8,1.6,1.1,2.1,0.8c0.4-0.4,0.3-1.4-0.4-2.2s-1.6-1.1-2.1-0.8C48.7,32.2,48.9,33.1,49.6,33.9
		z"/>
	<path class="st16" d="M49.6,33.9c0.4,0.4,0.9,0.6,1.2,0.4c0.2-0.2,0.1-0.8-0.2-1.2s-0.9-0.6-1.2-0.4C49.1,33,49.2,33.5,49.6,33.9z"
		/>
	<path class="st7" d="M64.7,41.9c0.2,0,0.2-0.2,0.2-0.4l-3.6-13.8c0-0.2-0.2-0.3-0.4-0.2c-0.2,0-0.3,0.2-0.2,0.4l3.6,13.8
		C64.4,41.9,64.6,42,64.7,41.9L64.7,41.9z"/>
	<path class="st7" d="M58.5,24.8c0.1,0,0.1-0.1,0.2-0.1c0.1-0.1,0.1-0.4-0.1-0.5l-8.9-6.9c-0.1-0.1-0.3-0.1-0.5,0.1
		c-0.1,0.1-0.1,0.4,0.1,0.5l8.9,6.9C58.3,24.8,58.4,24.8,58.5,24.8z"/>
	<path class="st7" d="M45,33.8l13.8-7.5c0.1,0,0.2,0.1,0.2,0.2s0,0.2,0,0.3l-13.7,7.5c-0.1,0.1-0.3,0-0.4-0.1
		C44.8,34,44.9,33.9,45,33.8L45,33.8z"/>
	
		<linearGradient id="SVGID_00000014613542405997706330000005276802521144564389_" gradientUnits="userSpaceOnUse" x1="-158.2425" y1="768.7192" x2="-163.5884" y2="773.7773" gradientTransform="matrix(1 0 0 1 219.01 -743.6)">
		<stop  offset="0.46" style="stop-color:#E5E0DF"/>
		<stop  offset="1" style="stop-color:#77787B"/>
	</linearGradient>
	<path style="fill:url(#SVGID_00000014613542405997706330000005276802521144564389_);" d="M58.2,24.6l1.1-1l2.4,3.6L60.8,28
		l-0.1,0.1c-0.5,0.4-1.5-0.1-2.2-1.1C57.8,26.1,57.6,25,58.2,24.6L58.2,24.6z"/>
	<path class="st18" d="M59.5,26.2c0.7,1,1.7,1.4,2.2,1.1c0.5-0.4,0.4-1.5-0.3-2.4c-0.7-1-1.7-1.4-2.2-1.1S58.8,25.2,59.5,26.2z"/>
	<path class="st1" d="M50.1,48.2l-4.8-1.7c-0.8-0.3-1.7,0.1-2,1c0,0.1-0.1,0.3-0.1,0.4c0.3-0.7,1.2-1.1,1.9-0.8l4.8,1.7
		c0.7,0.2,1.1,0.9,1,1.6c0,0,0.1-0.1,0.1-0.2C51.4,49.4,51,48.4,50.1,48.2z"/>
	<path class="st5" d="M50,48.7L45.2,47c-0.8-0.3-1.6,0.1-1.9,0.8c0,0.7,0.4,1.3,1,1.6l4.8,1.7c0.8,0.3,1.6-0.1,1.9-0.8
		C51.1,49.6,50.7,49,50,48.7z"/>
	<path class="st19" d="M16.6,33.3c0.3,0.1,0.6,0.2,0.9,0.3l-1.8-16.4c0-0.2-0.3-0.4-0.5-0.4s-0.4,0.3-0.4,0.5L16.6,33.3
		C16.5,33.3,16.6,33.3,16.6,33.3L16.6,33.3z"/>
	
		<linearGradient id="SVGID_00000165929266345815175110000002091706403279042966_" gradientUnits="userSpaceOnUse" x1="-216.6524" y1="753.394" x2="-191.2695" y2="773.4922" gradientTransform="matrix(1 0 0 1 219.01 -743.6)">
		<stop  offset="0" style="stop-color:#E3F3FC"/>
		<stop  offset="0.28" style="stop-color:#3DB8C9"/>
		<stop  offset="0.36" style="stop-color:#36B1C5"/>
		<stop  offset="0.46" style="stop-color:#239EBA"/>
		<stop  offset="0.58" style="stop-color:#0480A9"/>
		<stop  offset="0.6" style="stop-color:#007CA7"/>
		<stop  offset="0.73" style="stop-color:#066690"/>
		<stop  offset="0.87" style="stop-color:#0F4D75"/>
	</linearGradient>
	<path style="fill:url(#SVGID_00000165929266345815175110000002091706403279042966_);" d="M11.6,8.9c0.6,4.8,2.1,15.9,3,21.9l2.4-1
		c-0.8-6.1-2.4-17.3-3-22.1L11.6,8.9L11.6,8.9z"/>
	<path class="st21" d="M14.5,31L14.5,31c-0.1,0-0.1-0.1-0.1-0.1L11.4,9c0-0.1,0-0.2,0.1-0.2l2.3-1.1h0.1v0.1l3,22.1
		c0,0.1,0,0.2-0.1,0.2L14.5,31C14.6,31,14.6,31,14.5,31L14.5,31z M11.7,9l2.9,21.6l2.2-0.9L13.8,8L11.7,9z"/>
	
		<linearGradient id="SVGID_00000021812327396887024770000018429245903144516233_" gradientUnits="userSpaceOnUse" x1="-217.3863" y1="755.8083" x2="-191.987" y2="775.9316" gradientTransform="matrix(1 0 0 1 219.01 -743.6)">
		<stop  offset="0" style="stop-color:#E3F3FC"/>
		<stop  offset="0.28" style="stop-color:#3DB8C9"/>
		<stop  offset="0.36" style="stop-color:#36B1C5"/>
		<stop  offset="0.46" style="stop-color:#239EBA"/>
		<stop  offset="0.58" style="stop-color:#0480A9"/>
		<stop  offset="0.6" style="stop-color:#007CA7"/>
		<stop  offset="0.73" style="stop-color:#066690"/>
		<stop  offset="0.87" style="stop-color:#0F4D75"/>
	</linearGradient>
	<path style="fill:url(#SVGID_00000021812327396887024770000018429245903144516233_);" d="M9.3,10c0.6,4.8,2.1,15.8,2.9,21.8l2.4-1
		c-0.8-6.1-2.3-17.1-3-21.9L9.3,10L9.3,10z"/>
	<path class="st21" d="M12.2,32C12.2,32,12.1,32,12.2,32c-0.1,0-0.1-0.1-0.1-0.1c-0.8-6-2.2-17-2.9-21.8c0-0.1,0-0.2,0.1-0.2
		l2.3-1.1h0.1v0.1l3,21.9c0,0.1,0,0.2-0.1,0.2L12.2,32L12.2,32L12.2,32z M9.4,10.1c0.6,4.9,2,15.5,2.8,21.5l2.2-0.9L11.5,9.1
		L9.4,10.1L9.4,10.1z"/>
	
		<linearGradient id="SVGID_00000170255358275032152920000013430430888662113437_" gradientUnits="userSpaceOnUse" x1="-218.1286" y1="758.2332" x2="-192.7043" y2="778.373" gradientTransform="matrix(1 0 0 1 219.01 -743.6)">
		<stop  offset="0" style="stop-color:#E3F3FC"/>
		<stop  offset="0.28" style="stop-color:#3DB8C9"/>
		<stop  offset="0.36" style="stop-color:#36B1C5"/>
		<stop  offset="0.46" style="stop-color:#239EBA"/>
		<stop  offset="0.58" style="stop-color:#0480A9"/>
		<stop  offset="0.6" style="stop-color:#007CA7"/>
		<stop  offset="0.73" style="stop-color:#066690"/>
		<stop  offset="0.87" style="stop-color:#0F4D75"/>
	</linearGradient>
	<path style="fill:url(#SVGID_00000170255358275032152920000013430430888662113437_);" d="M7,11.2C7.6,16,9,26.9,9.8,32.9l2.4-1
		c-0.8-6-2.2-17-2.9-21.8L7,11.2L7,11.2z"/>
	<path class="st21" d="M9.8,33L9.8,33c-0.1,0-0.1-0.1-0.1-0.1l-0.3-2.7c-0.8-6.2-1.9-14.8-2.5-19c0-0.1,0-0.2,0.1-0.2l2.3-1.1h0.1
		V10c0.6,4.8,2.1,15.8,2.9,21.8c0,0.1,0,0.2-0.1,0.2L9.8,33L9.8,33L9.8,33z M7.1,11.3c0.5,4.3,1.7,12.8,2.4,18.9l0.3,2.5l2.2-0.9
		c-0.8-6-2.2-16.6-2.8-21.4L7.1,11.3L7.1,11.3z"/>
	
		<linearGradient id="SVGID_00000136388585595671681360000010644291518696754867_" gradientUnits="userSpaceOnUse" x1="-218.812" y1="760.6024" x2="-193.3712" y2="780.7589" gradientTransform="matrix(1 0 0 1 219.01 -743.6)">
		<stop  offset="0" style="stop-color:#E3F3FC"/>
		<stop  offset="0.28" style="stop-color:#3DB8C9"/>
		<stop  offset="0.36" style="stop-color:#36B1C5"/>
		<stop  offset="0.46" style="stop-color:#239EBA"/>
		<stop  offset="0.58" style="stop-color:#0480A9"/>
		<stop  offset="0.6" style="stop-color:#007CA7"/>
		<stop  offset="0.73" style="stop-color:#066690"/>
		<stop  offset="0.87" style="stop-color:#0F4D75"/>
	</linearGradient>
	<path style="fill:url(#SVGID_00000136388585595671681360000010644291518696754867_);" d="M4.7,12.3c0.6,4.9,2,15.6,2.7,21.6l2.4-1
		C9,26.9,7.6,16,7,11.2L4.7,12.3L4.7,12.3z"/>
	<path class="st21" d="M7.4,34.1L7.4,34.1C7.3,34.1,7.3,34,7.4,34.1l-0.3-1.7c-0.8-6.1-2-15.5-2.5-20c0-0.1,0-0.2,0.1-0.2L6.9,11H7
		v0.1C7.5,15.3,8.7,24,9.5,30.2l0.3,2.6c0,0.1,0,0.2-0.1,0.2L7.4,34.1C7.5,34.1,7.4,34.1,7.4,34.1L7.4,34.1z M4.8,12.4
		C5.4,17,6.6,26.2,7.3,32.2l0.2,1.4l2.2-0.9l-0.3-2.4c-0.8-6.1-1.9-14.6-2.5-18.9L4.8,12.4z"/>
	
		<linearGradient id="SVGID_00000105385991286995464510000009033553987241044397_" gradientUnits="userSpaceOnUse" x1="-219.4571" y1="762.9232" x2="-193.9997" y2="783.0964" gradientTransform="matrix(1 0 0 1 219.01 -743.6)">
		<stop  offset="0" style="stop-color:#E3F3FC"/>
		<stop  offset="0.28" style="stop-color:#3DB8C9"/>
		<stop  offset="0.36" style="stop-color:#36B1C5"/>
		<stop  offset="0.46" style="stop-color:#239EBA"/>
		<stop  offset="0.58" style="stop-color:#0480A9"/>
		<stop  offset="0.6" style="stop-color:#007CA7"/>
		<stop  offset="0.73" style="stop-color:#066690"/>
		<stop  offset="0.87" style="stop-color:#0F4D75"/>
	</linearGradient>
	<path style="fill:url(#SVGID_00000105385991286995464510000009033553987241044397_);" d="M2.4,13.4C3,18.3,4.3,29,5.1,34.9l2.4-1
		c-0.8-6-2.1-16.7-2.7-21.6L2.4,13.4z"/>
	<path class="st21" d="M5.1,35.1C5.1,35.1,5,35.1,5.1,35.1C5,35,5,35,4.9,34.9c-0.7-6-2.1-16.6-2.7-21.5c0-0.1,0-0.2,0.1-0.2
		l2.3-1.1h0.1v0.1c0.7,4.5,1.8,13.8,2.6,20l0.2,1.7c0,0.1,0,0.2-0.1,0.2L5.1,35.1L5.1,35.1L5.1,35.1z M2.5,13.6
		c0.6,4.9,1.9,15.2,2.6,21.1l2.2-0.9l-0.2-1.5c-0.8-6.1-1.9-15.2-2.5-19.7L2.5,13.6z"/>
	
		<linearGradient id="SVGID_00000075157110684039814550000009407350918653919651_" gradientUnits="userSpaceOnUse" x1="-220.2268" y1="765.1457" x2="-194.4376" y2="785.5854" gradientTransform="matrix(1 0 0 1 219.01 -743.6)">
		<stop  offset="0" style="stop-color:#E3F3FC"/>
		<stop  offset="0.28" style="stop-color:#3DB8C9"/>
		<stop  offset="0.36" style="stop-color:#36B1C5"/>
		<stop  offset="0.46" style="stop-color:#239EBA"/>
		<stop  offset="0.58" style="stop-color:#0480A9"/>
		<stop  offset="0.6" style="stop-color:#007CA7"/>
		<stop  offset="0.73" style="stop-color:#066690"/>
		<stop  offset="0.87" style="stop-color:#0F4D75"/>
	</linearGradient>
	<path style="fill:url(#SVGID_00000075157110684039814550000009407350918653919651_);" d="M0.6,14.4L3,35.9L5.1,35
		C4.3,29,3,18.3,2.4,13.4L0.6,14.4z"/>
	<path class="st21" d="M2.9,36L2.9,36c-0.1-0.1-0.1-0.1-0.1-0.2L0.5,14.4c0-0.1,0-0.2,0.1-0.2l1.8-0.9h0.1v0.1
		c0.6,4.9,1.9,15.5,2.7,21.5c0,0.1,0,0.2-0.1,0.2L2.9,36L2.9,36z M0.7,14.5L3,35.6l1.9-0.8c-0.7-5.9-2-16.2-2.6-21.1L0.7,14.5z"/>
	
		<linearGradient id="SVGID_00000119083229545135120140000000098194857435128982_" gradientUnits="userSpaceOnUse" x1="-215.2909" y1="748.721" x2="-189.9579" y2="768.7943" gradientTransform="matrix(1 0 0 1 219.01 -743.6)">
		<stop  offset="0" style="stop-color:#E3F3FC"/>
		<stop  offset="0.28" style="stop-color:#3DB8C9"/>
		<stop  offset="0.36" style="stop-color:#36B1C5"/>
		<stop  offset="0.46" style="stop-color:#239EBA"/>
		<stop  offset="0.58" style="stop-color:#0480A9"/>
		<stop  offset="0.6" style="stop-color:#007CA7"/>
		<stop  offset="0.73" style="stop-color:#066690"/>
		<stop  offset="0.87" style="stop-color:#0F4D75"/>
	</linearGradient>
	<path style="fill:url(#SVGID_00000119083229545135120140000000098194857435128982_);" d="M16.2,6.6c0.7,4.7,2.2,16.1,3.1,22.2
		l2.4-1c-0.9-6.1-2.5-17.6-3.2-22.3L16.2,6.6L16.2,6.6z"/>
	<path class="st21" d="M19.3,28.9C19.3,28.9,19.2,28.9,19.3,28.9c-0.1,0-0.1-0.1-0.1-0.1L16.1,6.6c0-0.1,0-0.2,0.1-0.2l2.3-1.1h0.1
		v0.1l3.2,22.3c0,0.1,0,0.2-0.1,0.2L19.3,28.9L19.3,28.9L19.3,28.9z M16.3,6.7l3,21.8l2.2-0.9L18.4,5.7L16.3,6.7L16.3,6.7z"/>
	
		<linearGradient id="SVGID_00000147220955511764924640000017789332822404193201_" gradientUnits="userSpaceOnUse" x1="-215.9901" y1="751.0807" x2="-190.6322" y2="771.1707" gradientTransform="matrix(1 0 0 1 219.01 -743.6)">
		<stop  offset="0" style="stop-color:#E3F3FC"/>
		<stop  offset="0.28" style="stop-color:#3DB8C9"/>
		<stop  offset="0.36" style="stop-color:#36B1C5"/>
		<stop  offset="0.46" style="stop-color:#239EBA"/>
		<stop  offset="0.58" style="stop-color:#0480A9"/>
		<stop  offset="0.6" style="stop-color:#007CA7"/>
		<stop  offset="0.73" style="stop-color:#066690"/>
		<stop  offset="0.87" style="stop-color:#0F4D75"/>
	</linearGradient>
	<path style="fill:url(#SVGID_00000147220955511764924640000017789332822404193201_);" d="M13.9,7.7c0.7,4.8,2.2,16,3,22.1l2.4-1
		c-0.8-6.1-2.4-17.4-3.1-22.2L13.9,7.7z"/>
	<path class="st21" d="M16.9,30L16.9,30c-0.1,0-0.1-0.1-0.1-0.1l-3-22.1c0-0.1,0-0.2,0.1-0.2l2.3-1.1h0.1v0.1l3.1,22.2
		c0,0.1,0,0.2-0.1,0.2L16.9,30L16.9,30L16.9,30z M14,7.9l3,21.7l2.2-0.9l-3-21.8L14,7.9z"/>
	
		<linearGradient id="SVGID_00000021839042031311961240000004783500738220519054_" gradientUnits="userSpaceOnUse" x1="-212.3359" y1="739.1694" x2="-187.1107" y2="759.1511" gradientTransform="matrix(1 0 0 1 219.01 -743.6)">
		<stop  offset="0" style="stop-color:#E3F3FC"/>
		<stop  offset="0.28" style="stop-color:#3DB8C9"/>
		<stop  offset="0.36" style="stop-color:#36B1C5"/>
		<stop  offset="0.46" style="stop-color:#239EBA"/>
		<stop  offset="0.58" style="stop-color:#0480A9"/>
		<stop  offset="0.6" style="stop-color:#007CA7"/>
		<stop  offset="0.73" style="stop-color:#066690"/>
		<stop  offset="0.87" style="stop-color:#0F4D75"/>
	</linearGradient>
	<path style="fill:url(#SVGID_00000021839042031311961240000004783500738220519054_);" d="M31.2,23.6L27.8,0.8L25.4,2l3.4,22.6
		L31.2,23.6z"/>
	<path class="st21" d="M28.8,24.8l-0.1-0.1L25.3,2c0-0.1,0-0.2,0.1-0.2l2.4-1.2h0.1v0.1l3.4,22.8v0.1c0,0,0,0.1-0.1,0.1L28.8,24.8
		L28.8,24.8L28.8,24.8z M25.5,2.1l3.3,22.3l2.2-1L27.7,1.1L25.5,2.1L25.5,2.1z"/>
	
		<linearGradient id="SVGID_00000132773153477505069510000007395750758054698653_" gradientUnits="userSpaceOnUse" x1="-213.1056" y1="741.5657" x2="-187.8306" y2="761.5807" gradientTransform="matrix(1 0 0 1 219.01 -743.6)">
		<stop  offset="0" style="stop-color:#E3F3FC"/>
		<stop  offset="0.28" style="stop-color:#3DB8C9"/>
		<stop  offset="0.36" style="stop-color:#36B1C5"/>
		<stop  offset="0.46" style="stop-color:#239EBA"/>
		<stop  offset="0.58" style="stop-color:#0480A9"/>
		<stop  offset="0.6" style="stop-color:#007CA7"/>
		<stop  offset="0.73" style="stop-color:#066690"/>
		<stop  offset="0.87" style="stop-color:#0F4D75"/>
	</linearGradient>
	<path style="fill:url(#SVGID_00000132773153477505069510000007395750758054698653_);" d="M25.4,2l-2.3,1.1
		c0.7,4.6,2.4,16.3,3.3,22.5l2.4-1L25.4,2z"/>
	<path class="st21" d="M26.4,25.9l-0.1-0.1L23,3.2C23,3.1,23,3,23.1,3l2.3-1.1h0.1V2l3.4,22.6v0.1c0,0,0,0.1-0.1,0.1L26.4,25.9
		L26.4,25.9L26.4,25.9z M23.2,3.3l3.3,22.2l2.2-0.9L25.3,2.2L23.2,3.3z"/>
	
		<linearGradient id="SVGID_00000151518048071618338110000008824257386738124693_" gradientUnits="userSpaceOnUse" x1="-214.5417" y1="746.3061" x2="-189.2336" y2="766.3544" gradientTransform="matrix(1 0 0 1 219.01 -743.6)">
		<stop  offset="0" style="stop-color:#E3F3FC"/>
		<stop  offset="0.28" style="stop-color:#3DB8C9"/>
		<stop  offset="0.36" style="stop-color:#36B1C5"/>
		<stop  offset="0.46" style="stop-color:#239EBA"/>
		<stop  offset="0.58" style="stop-color:#0480A9"/>
		<stop  offset="0.6" style="stop-color:#007CA7"/>
		<stop  offset="0.73" style="stop-color:#066690"/>
		<stop  offset="0.87" style="stop-color:#0F4D75"/>
	</linearGradient>
	<path style="fill:url(#SVGID_00000151518048071618338110000008824257386738124693_);" d="M18.5,5.4c0.7,4.7,2.3,16.2,3.2,22.3
		l2.4-1c-1-6.2-2.6-17.7-3.3-22.4L18.5,5.4L18.5,5.4z"/>
	<path class="st21" d="M21.7,27.9C21.7,27.9,21.6,27.9,21.7,27.9c-0.1,0-0.1-0.1-0.1-0.1L18.4,5.5c0-0.1,0-0.2,0.1-0.2l2.3-1.1h0.1
		v0.1l3.2,22.4c0,0.1,0,0.2-0.1,0.2L21.7,27.9L21.7,27.9L21.7,27.9z M18.6,5.6l3.1,21.9l2.2-0.9l-3.2-22L18.6,5.6z"/>
	
		<linearGradient id="SVGID_00000062875829183214332770000005502063420007204277_" gradientUnits="userSpaceOnUse" x1="-213.86" y1="743.9767" x2="-188.5684" y2="764.0083" gradientTransform="matrix(1 0 0 1 219.01 -743.6)">
		<stop  offset="0" style="stop-color:#E3F3FC"/>
		<stop  offset="0.28" style="stop-color:#3DB8C9"/>
		<stop  offset="0.36" style="stop-color:#36B1C5"/>
		<stop  offset="0.46" style="stop-color:#239EBA"/>
		<stop  offset="0.58" style="stop-color:#0480A9"/>
		<stop  offset="0.6" style="stop-color:#007CA7"/>
		<stop  offset="0.73" style="stop-color:#066690"/>
		<stop  offset="0.87" style="stop-color:#0F4D75"/>
	</linearGradient>
	<path style="fill:url(#SVGID_00000062875829183214332770000005502063420007204277_);" d="M20.8,4.3C21.5,9,23.1,20.5,24,26.7l2.4-1
		c-0.9-6.2-2.6-17.9-3.3-22.5L20.8,4.3L20.8,4.3z"/>
	<path class="st21" d="M24,26.9L24,26.9c-0.1,0-0.1-0.1-0.1-0.1L20.7,4.3c0-0.1,0-0.2,0.1-0.2L23.1,3h0.1v0.1l3.3,22.5v0.1
		c0,0,0,0.1-0.1,0.1L24,26.9C24.1,26.9,24,26.9,24,26.9L24,26.9z M20.9,4.4l3.2,22l2.2-0.9L23,3.4L20.9,4.4z"/>
	<g>
		<path class="st33" d="M2.3,30.4L2.4,31l28-12.4L30.3,18L2.3,30.4z"/>
		<path class="st33" d="M29.4,11.8l-27.7,13l0.1,0.5l27.7-13L29.4,11.8z"/>
		<path class="st33" d="M28.4,5.3L1,18.2v0.5L28.5,5.8L28.4,5.3z"/>
	</g>
	<g class="st34">
		<path class="st35" d="M27.8,0.8l3.4,22.8L2.9,35.8L27.8,0.8z"/>
	</g>
	<path class="st36" d="M26.5,36.4c-0.1,0-0.2-0.1-0.3-0.1L15,32.6l0.2,0.6L8.7,46.1l11.8,4c0.1,0,0.1,0.1,0.2,0.1l0,0
		c2.1,0.6,4.9-1.7,6.5-5.2C28.9,41.2,28.6,37.4,26.5,36.4L26.5,36.4z"/>
	<path class="st37" d="M23.3,39.7c0.7,0.3,1.5,0.6,2.2,0.9c0.1-1.6-0.1-3.2-0.7-4.7L15,32.6l0.2,0.6l-1.4,2.7
		C17,37.3,20.2,38.4,23.3,39.7z"/>
	<path class="st37" d="M26.5,36.4c-0.1,0-0.2-0.1-0.3-0.1L25.4,36c0.5,1.5,0.8,3.1,0.6,4.7c0.7,0.3,1.5,0.6,2.2,0.9
		C28.6,39.1,28,37.1,26.5,36.4z"/>
	<path class="st37" d="M22.1,47.1c0.9-0.8,1.6-1.8,2.1-2.7c0.6-1.1,1-2.2,1.2-3.4c-0.9-0.4-1.8-0.7-2.7-1.1
		c-3.1-1.2-6.1-2.3-9.1-3.6l-3.3,6.4c0.9,0.3,1.7,0.7,2.5,1c1.7,0.6,3.3,1.2,5,1.8C19.3,46.1,20.7,46.6,22.1,47.1L22.1,47.1z"/>
	<path class="st5" d="M26,41.2c-0.2,1.2-0.6,2.4-1.3,3.5c-0.6,0.9-1.3,1.8-2.1,2.6c0.8,0.3,1.7,0.6,2.5,0.9c0.8-0.9,1.6-2,2.2-3.3
		c0.4-1,0.7-1.9,0.9-2.9C27.4,41.8,26.7,41.5,26,41.2z"/>
	<path class="st37" d="M21.7,47.5c-1.5-0.6-3-1.1-4.4-1.6c-1.7-0.6-3.3-1.2-5-1.8c-0.7-0.3-1.5-0.6-2.2-0.8l-1.4,2.8l9.9,3.4
		C19.7,49,20.8,48.3,21.7,47.5z"/>
	<path class="st37" d="M19.3,49.7l1.2,0.4c0.1,0,0.1,0.1,0.2,0.1l0,0c1.2,0.3,2.7-0.3,4-1.5c-0.8-0.3-1.7-0.6-2.5-0.9
		C21.3,48.5,20.4,49.2,19.3,49.7L19.3,49.7z"/>
	<path class="st1" d="M15.5,41c-1.7,3.8-4.8,6-6.9,5.1s-2.4-4.8-0.7-8.5s4.8-6,6.9-5.1S17.2,37.2,15.5,41z"/>
	<path class="st1" d="M15.5,41c-1.7,3.8-4.8,6-6.9,5.1s-2.4-4.8-0.7-8.5s4.8-6,6.9-5.1S17.2,37.2,15.5,41z"/>
	<path class="st38" d="M14.5,40.6c-1.4,3.2-3.9,5.1-5.6,4.4c-1.7-0.7-1.9-3.9-0.4-7.1c1.4-3.2,3.9-5.1,5.6-4.4
		C15.8,34.3,16,37.4,14.5,40.6z"/>
	<path class="st39" d="M9.1,38.1c1.4-3.1,3.8-4.9,5.5-4.2c0,0,0.1,0,0.1,0.1c-0.2-0.2-0.4-0.3-0.6-0.4c-1.7-0.7-4.2,1.2-5.6,4.4
		s-1.2,6.3,0.4,7.1c0.3,0.1,0.7,0.2,1.1,0.1c-0.2,0-0.3-0.1-0.4-0.1C7.9,44.3,7.7,41.2,9.1,38.1L9.1,38.1z"/>
	<path class="st40" d="M12.6,35.6c-0.1,0.3-0.4,0.5-0.6,0.4c-0.2-0.1-0.2-0.4,0-0.7c0.1-0.3,0.4-0.5,0.6-0.4
		C12.7,34.9,12.7,35.3,12.6,35.6L12.6,35.6z"/>
	<path class="st5" d="M12.2,35.2c0,0.1-0.1,0.1-0.1,0.1s0-0.1,0-0.2c0-0.1,0.1-0.1,0.1-0.1C12.3,35.1,12.3,35.2,12.2,35.2z"/>
	<path class="st19" d="M22.2,75.9L19,47.4c-0.2-0.3-0.7-0.2-0.9,0L21.2,76c0,0.2,0.2,0.4,0.5,0.4l0,0C22,76.3,22.2,76.1,22.2,75.9
		L22.2,75.9z"/>
	
		<linearGradient id="SVGID_00000043430678165775077430000010094437041238516609_" gradientUnits="userSpaceOnUse" x1="-209.7007" y1="801.0279" x2="-184.3262" y2="821.1345" gradientTransform="matrix(1 0 0 1 219.01 -743.6)">
		<stop  offset="0" style="stop-color:#E3F3FC"/>
		<stop  offset="0.28" style="stop-color:#3DB8C9"/>
		<stop  offset="0.36" style="stop-color:#36B1C5"/>
		<stop  offset="0.46" style="stop-color:#239EBA"/>
		<stop  offset="0.58" style="stop-color:#0480A9"/>
		<stop  offset="0.6" style="stop-color:#007CA7"/>
		<stop  offset="0.73" style="stop-color:#066690"/>
		<stop  offset="0.87" style="stop-color:#0F4D75"/>
	</linearGradient>
	<path style="fill:url(#SVGID_00000043430678165775077430000010094437041238516609_);" d="M18.5,56.5c0.6,4.8,2.1,15.9,3,21.9l2.4-1
		c-0.8-6.1-2.4-17.3-3-22.1L18.5,56.5L18.5,56.5z"/>
	<path class="st21" d="M21.5,78.6L21.5,78.6c-0.1,0-0.1-0.1-0.1-0.1l-3-21.9c0-0.1,0-0.2,0.1-0.2l2.3-1.1h0.1v0.1l3,22.1
		c0,0.1,0,0.2-0.1,0.2L21.5,78.6L21.5,78.6z M18.7,56.6l2.9,21.6l2.2-0.9l-3-21.7L18.7,56.6L18.7,56.6z"/>
	
		<linearGradient id="SVGID_00000099638081346100143850000007377785285656066432_" gradientUnits="userSpaceOnUse" x1="-210.4409" y1="803.4477" x2="-185.0415" y2="823.5627" gradientTransform="matrix(1 0 0 1 219.01 -743.6)">
		<stop  offset="0" style="stop-color:#E3F3FC"/>
		<stop  offset="0.28" style="stop-color:#3DB8C9"/>
		<stop  offset="0.36" style="stop-color:#36B1C5"/>
		<stop  offset="0.46" style="stop-color:#239EBA"/>
		<stop  offset="0.58" style="stop-color:#0480A9"/>
		<stop  offset="0.6" style="stop-color:#007CA7"/>
		<stop  offset="0.73" style="stop-color:#066690"/>
		<stop  offset="0.87" style="stop-color:#0F4D75"/>
	</linearGradient>
	<path style="fill:url(#SVGID_00000099638081346100143850000007377785285656066432_);" d="M16.2,57.6c0.6,4.8,2.1,15.8,2.9,21.8
		l2.4-1c-0.8-6.1-2.3-17.1-3-21.9L16.2,57.6L16.2,57.6z"/>
	<path class="st21" d="M19.1,79.6L19.1,79.6c-0.1,0-0.1-0.1-0.1-0.1c-0.8-6-2.2-17-2.9-21.8c0-0.1,0-0.2,0.1-0.2l2.3-1.1h0.1v0.1
		l3,21.9c0,0.1,0,0.2-0.1,0.2L19.1,79.6C19.1,79.7,19.1,79.7,19.1,79.6L19.1,79.6z M16.4,57.8c0.6,4.9,2,15.5,2.8,21.5l2.2-0.9
		l-2.9-21.6L16.4,57.8L16.4,57.8z"/>
	
		<linearGradient id="SVGID_00000119838543136216093180000012689650313338258857_" gradientUnits="userSpaceOnUse" x1="-211.1754" y1="805.8731" x2="-185.7594" y2="826.013" gradientTransform="matrix(1 0 0 1 219.01 -743.6)">
		<stop  offset="0" style="stop-color:#E3F3FC"/>
		<stop  offset="0.28" style="stop-color:#3DB8C9"/>
		<stop  offset="0.36" style="stop-color:#36B1C5"/>
		<stop  offset="0.46" style="stop-color:#239EBA"/>
		<stop  offset="0.58" style="stop-color:#0480A9"/>
		<stop  offset="0.6" style="stop-color:#007CA7"/>
		<stop  offset="0.73" style="stop-color:#066690"/>
		<stop  offset="0.87" style="stop-color:#0F4D75"/>
	</linearGradient>
	<path style="fill:url(#SVGID_00000119838543136216093180000012689650313338258857_);" d="M13.9,58.8c0.6,4.8,2,15.7,2.8,21.7l2.4-1
		c-0.8-6-2.2-17-2.9-21.8L13.9,58.8L13.9,58.8z"/>
	<path class="st21" d="M16.7,80.7L16.7,80.7c-0.1,0-0.1-0.1-0.1-0.1l-0.3-2.7c-0.8-6.2-1.9-14.8-2.5-19c0-0.1,0-0.2,0.1-0.2l2.3-1.1
		h0.1v0.1c0.6,4.8,2.1,15.8,2.9,21.8c0,0.1,0,0.2-0.1,0.2L16.7,80.7C16.8,80.7,16.8,80.7,16.7,80.7z M14.1,58.9
		c0.5,4.3,1.7,12.8,2.4,18.8l0.3,2.5l2.2-0.9c-0.8-6-2.2-16.6-2.8-21.4L14.1,58.9z"/>
	
		<linearGradient id="SVGID_00000142856795607869336490000006802865723285622423_" gradientUnits="userSpaceOnUse" x1="-211.866" y1="808.2411" x2="-186.4251" y2="828.3893" gradientTransform="matrix(1 0 0 1 219.01 -743.6)">
		<stop  offset="0" style="stop-color:#E3F3FC"/>
		<stop  offset="0.28" style="stop-color:#3DB8C9"/>
		<stop  offset="0.36" style="stop-color:#36B1C5"/>
		<stop  offset="0.46" style="stop-color:#239EBA"/>
		<stop  offset="0.58" style="stop-color:#0480A9"/>
		<stop  offset="0.6" style="stop-color:#007CA7"/>
		<stop  offset="0.73" style="stop-color:#066690"/>
		<stop  offset="0.87" style="stop-color:#0F4D75"/>
	</linearGradient>
	<path style="fill:url(#SVGID_00000142856795607869336490000006802865723285622423_);" d="M11.6,59.9c0.6,4.9,2,15.6,2.7,21.6l2.4-1
		c-0.8-6-2.2-16.8-2.8-21.7L11.6,59.9L11.6,59.9z"/>
	<path class="st21" d="M14.4,81.7C14.4,81.7,14.3,81.7,14.4,81.7c-0.1,0-0.1-0.1-0.1-0.1L14.1,80c-0.8-6.1-2-15.5-2.5-20
		c0-0.1,0-0.2,0.1-0.2l2.3-1.1h0.1v0.1c0.5,4.2,1.7,12.9,2.5,19.1l0.3,2.6c0,0.1,0,0.2-0.1,0.2L14.4,81.7L14.4,81.7L14.4,81.7z
		 M11.8,60.1c0.6,4.5,1.7,13.7,2.5,19.8l0.2,1.4l2.2-0.9L16.4,78c-0.8-6.1-1.9-14.6-2.5-18.9L11.8,60.1z"/>
	
		<linearGradient id="SVGID_00000014607249373494365450000007963287140566666928_" gradientUnits="userSpaceOnUse" x1="-212.51" y1="810.5605" x2="-187.0526" y2="830.7337" gradientTransform="matrix(1 0 0 1 219.01 -743.6)">
		<stop  offset="0" style="stop-color:#E3F3FC"/>
		<stop  offset="0.28" style="stop-color:#3DB8C9"/>
		<stop  offset="0.36" style="stop-color:#36B1C5"/>
		<stop  offset="0.46" style="stop-color:#239EBA"/>
		<stop  offset="0.58" style="stop-color:#0480A9"/>
		<stop  offset="0.6" style="stop-color:#007CA7"/>
		<stop  offset="0.73" style="stop-color:#066690"/>
		<stop  offset="0.87" style="stop-color:#0F4D75"/>
	</linearGradient>
	<path style="fill:url(#SVGID_00000014607249373494365450000007963287140566666928_);" d="M9.3,61.1c0.6,4.9,2,15.5,2.7,21.4l2.4-1
		c-0.8-6-2.1-16.7-2.7-21.6L9.3,61.1L9.3,61.1z"/>
	<path class="st21" d="M12,82.7L12,82.7c-0.1,0-0.1-0.1-0.1-0.1c-0.7-6-2.1-16.6-2.7-21.5c0-0.1,0-0.2,0.1-0.2l2.3-1.1h0.1v0.1
		c0.6,4.4,1.8,13.8,2.5,19.9l0.2,1.7c0,0.1,0,0.2-0.1,0.2L12,82.7L12,82.7L12,82.7z M9.5,61.2c0.6,4.9,1.9,15.2,2.6,21.1l2.2-0.9
		l-0.2-1.5c-0.8-6.1-1.9-15.2-2.5-19.7L9.5,61.2z"/>
	
		<linearGradient id="SVGID_00000051383926792122968220000007342956029964504715_" gradientUnits="userSpaceOnUse" x1="-213.3047" y1="812.8145" x2="-187.5155" y2="833.2458" gradientTransform="matrix(1 0 0 1 219.01 -743.6)">
		<stop  offset="0" style="stop-color:#E3F3FC"/>
		<stop  offset="0.28" style="stop-color:#3DB8C9"/>
		<stop  offset="0.36" style="stop-color:#36B1C5"/>
		<stop  offset="0.46" style="stop-color:#239EBA"/>
		<stop  offset="0.58" style="stop-color:#0480A9"/>
		<stop  offset="0.6" style="stop-color:#007CA7"/>
		<stop  offset="0.73" style="stop-color:#066690"/>
		<stop  offset="0.87" style="stop-color:#0F4D75"/>
	</linearGradient>
	<path style="fill:url(#SVGID_00000051383926792122968220000007342956029964504715_);" d="M7.5,62l2.4,21.5l2.1-0.9
		c-0.7-6-2.1-16.6-2.7-21.5L7.5,62z"/>
	<path class="st21" d="M9.9,83.6C9.9,83.6,9.8,83.6,9.9,83.6c-0.1-0.1-0.1-0.1-0.1-0.2L7.4,62c0-0.1,0-0.2,0.1-0.2l1.8-0.9h0.1V61
		c0.6,4.9,1.9,15.5,2.7,21.5c0,0.1,0,0.2-0.1,0.2L9.9,83.6L9.9,83.6L9.9,83.6z M7.6,62.1L10,83.2l1.9-0.8c-0.7-5.9-2-16.2-2.6-21.1
		L7.6,62.1z"/>
	
		<linearGradient id="SVGID_00000008142986958086492280000002416289227686712504_" gradientUnits="userSpaceOnUse" x1="-208.3463" y1="796.3613" x2="-183.0133" y2="816.4263" gradientTransform="matrix(1 0 0 1 219.01 -743.6)">
		<stop  offset="0" style="stop-color:#E3F3FC"/>
		<stop  offset="0.28" style="stop-color:#3DB8C9"/>
		<stop  offset="0.36" style="stop-color:#36B1C5"/>
		<stop  offset="0.46" style="stop-color:#239EBA"/>
		<stop  offset="0.58" style="stop-color:#0480A9"/>
		<stop  offset="0.6" style="stop-color:#007CA7"/>
		<stop  offset="0.73" style="stop-color:#066690"/>
		<stop  offset="0.87" style="stop-color:#0F4D75"/>
	</linearGradient>
	<path style="fill:url(#SVGID_00000008142986958086492280000002416289227686712504_);" d="M23.1,54.2c0.7,4.7,2.2,16.1,3.1,22.2
		l2.4-1c-0.9-6.1-2.5-17.6-3.2-22.3L23.1,54.2L23.1,54.2z"/>
	<path class="st21" d="M26.2,76.6L26.2,76.6c-0.1,0-0.1-0.1-0.1-0.1L23,54.3c0-0.1,0-0.2,0.1-0.2l2.3-1.1h0.1v0.1l3.2,22.3
		c0,0.1,0,0.2-0.1,0.2L26.2,76.6C26.3,76.6,26.2,76.6,26.2,76.6L26.2,76.6z M23.3,54.3l3,21.8l2.2-0.9l-3.1-21.9L23.3,54.3
		L23.3,54.3z"/>
	
		<linearGradient id="SVGID_00000065043717167708487520000008060348551201241780_" gradientUnits="userSpaceOnUse" x1="-209.0957" y1="798.7762" x2="-183.7378" y2="818.8662" gradientTransform="matrix(1 0 0 1 219.01 -743.6)">
		<stop  offset="0" style="stop-color:#E3F3FC"/>
		<stop  offset="0.28" style="stop-color:#3DB8C9"/>
		<stop  offset="0.36" style="stop-color:#36B1C5"/>
		<stop  offset="0.46" style="stop-color:#239EBA"/>
		<stop  offset="0.58" style="stop-color:#0480A9"/>
		<stop  offset="0.6" style="stop-color:#007CA7"/>
		<stop  offset="0.73" style="stop-color:#066690"/>
		<stop  offset="0.87" style="stop-color:#0F4D75"/>
	</linearGradient>
	<path style="fill:url(#SVGID_00000065043717167708487520000008060348551201241780_);" d="M20.8,55.4c0.7,4.8,2.2,16,3,22.1l2.4-1
		c-0.8-6.1-2.4-17.4-3.1-22.2L20.8,55.4z"/>
	<path class="st21" d="M23.9,77.6C23.9,77.6,23.8,77.6,23.9,77.6c-0.1,0-0.1-0.1-0.1-0.1l-3-22.1c0-0.1,0-0.2,0.1-0.2l2.3-1.1h0.1
		v0.1l3.1,22.2c0,0.1,0,0.2-0.1,0.2L23.9,77.6L23.9,77.6L23.9,77.6z M21,55.5l3,21.7l2.2-0.9l-3-21.8L21,55.5z"/>
	
		<linearGradient id="SVGID_00000145030864833983667790000000517037749852104882_" gradientUnits="userSpaceOnUse" x1="-205.3894" y1="786.7992" x2="-180.1642" y2="806.7892" gradientTransform="matrix(1 0 0 1 219.01 -743.6)">
		<stop  offset="0" style="stop-color:#E3F3FC"/>
		<stop  offset="0.28" style="stop-color:#3DB8C9"/>
		<stop  offset="0.36" style="stop-color:#36B1C5"/>
		<stop  offset="0.46" style="stop-color:#239EBA"/>
		<stop  offset="0.58" style="stop-color:#0480A9"/>
		<stop  offset="0.6" style="stop-color:#007CA7"/>
		<stop  offset="0.73" style="stop-color:#066690"/>
		<stop  offset="0.87" style="stop-color:#0F4D75"/>
	</linearGradient>
	<path style="fill:url(#SVGID_00000145030864833983667790000000517037749852104882_);" d="M38.1,71.2l-3.4-22.8l-2.4,1.2l3.4,22.6
		L38.1,71.2z"/>
	<path class="st21" d="M35.7,72.5L35.7,72.5l-3.5-22.7c0-0.1,0-0.2,0.1-0.2l2.4-1.2h0.1v0.1l3.4,22.8v0.1c0,0,0,0.1-0.1,0.1
		L35.7,72.5L35.7,72.5L35.7,72.5z M32.5,49.8l3.3,22.3l2.2-1l-3.4-22.4L32.5,49.8L32.5,49.8z"/>
	
		<linearGradient id="SVGID_00000178904821521157468130000001032535688487184281_" gradientUnits="userSpaceOnUse" x1="-206.1836" y1="789.2266" x2="-180.9086" y2="809.2499" gradientTransform="matrix(1 0 0 1 219.01 -743.6)">
		<stop  offset="0" style="stop-color:#E3F3FC"/>
		<stop  offset="0.28" style="stop-color:#3DB8C9"/>
		<stop  offset="0.36" style="stop-color:#36B1C5"/>
		<stop  offset="0.46" style="stop-color:#239EBA"/>
		<stop  offset="0.58" style="stop-color:#0480A9"/>
		<stop  offset="0.6" style="stop-color:#007CA7"/>
		<stop  offset="0.73" style="stop-color:#066690"/>
		<stop  offset="0.87" style="stop-color:#0F4D75"/>
	</linearGradient>
	<path style="fill:url(#SVGID_00000178904821521157468130000001032535688487184281_);" d="M32.3,49.6L30,50.8
		c0.7,4.6,2.4,16.3,3.3,22.5l2.4-1L32.3,49.6L32.3,49.6z"/>
	<path class="st21" d="M33.3,73.5L33.3,73.5l-3.4-22.6c0-0.1,0-0.2,0.1-0.2l2.3-1.1h0.1v0.1l3.4,22.6v0.1c0,0,0,0.1-0.1,0.1
		L33.3,73.5C33.4,73.5,33.4,73.5,33.3,73.5L33.3,73.5z M30.2,50.9l3.3,22.2l2.2-0.9l-3.3-22.3L30.2,50.9L30.2,50.9z"/>
	
		<linearGradient id="SVGID_00000158020391429355669090000003503113501706527648_" gradientUnits="userSpaceOnUse" x1="-207.6274" y1="793.9766" x2="-182.3109" y2="814.0333" gradientTransform="matrix(1 0 0 1 219.01 -743.6)">
		<stop  offset="0" style="stop-color:#E3F3FC"/>
		<stop  offset="0.28" style="stop-color:#3DB8C9"/>
		<stop  offset="0.36" style="stop-color:#36B1C5"/>
		<stop  offset="0.46" style="stop-color:#239EBA"/>
		<stop  offset="0.58" style="stop-color:#0480A9"/>
		<stop  offset="0.6" style="stop-color:#007CA7"/>
		<stop  offset="0.73" style="stop-color:#066690"/>
		<stop  offset="0.87" style="stop-color:#0F4D75"/>
	</linearGradient>
	<path style="fill:url(#SVGID_00000158020391429355669090000003503113501706527648_);" d="M25.4,53.1c0.7,4.7,2.3,16.2,3.2,22.3
		l2.4-1c-0.9-6.2-2.6-17.7-3.2-22.4L25.4,53.1L25.4,53.1z"/>
	<path class="st21" d="M28.6,75.5L28.6,75.5c-0.1,0-0.1-0.1-0.1-0.1l-3.2-22.3c0-0.1,0-0.2,0.1-0.2l2.3-1.1h0.1v0.1L31,74.3
		c0,0.1,0,0.2-0.1,0.2L28.6,75.5L28.6,75.5L28.6,75.5z M25.6,53.2l3.1,21.9l2.2-0.9l-3.2-22L25.6,53.2z"/>
	
		<linearGradient id="SVGID_00000163043603867224756290000017675949536608236434_" gradientUnits="userSpaceOnUse" x1="-206.9089" y1="791.6111" x2="-181.6174" y2="811.6511" gradientTransform="matrix(1 0 0 1 219.01 -743.6)">
		<stop  offset="0" style="stop-color:#E3F3FC"/>
		<stop  offset="0.28" style="stop-color:#3DB8C9"/>
		<stop  offset="0.36" style="stop-color:#36B1C5"/>
		<stop  offset="0.46" style="stop-color:#239EBA"/>
		<stop  offset="0.58" style="stop-color:#0480A9"/>
		<stop  offset="0.6" style="stop-color:#007CA7"/>
		<stop  offset="0.73" style="stop-color:#066690"/>
		<stop  offset="0.87" style="stop-color:#0F4D75"/>
	</linearGradient>
	<path style="fill:url(#SVGID_00000163043603867224756290000017675949536608236434_);" d="M27.7,51.9c0.7,4.7,2.3,16.3,3.2,22.4
		l2.4-1c-0.9-6.2-2.6-17.9-3.3-22.5L27.7,51.9L27.7,51.9z"/>
	<path class="st21" d="M31,74.5C31,74.5,30.9,74.5,31,74.5c-0.1,0-0.1-0.1-0.1-0.1L27.6,52c0-0.1,0-0.2,0.1-0.2l2.3-1.1h0.1v0.1
		l3.3,22.5v0.1c0,0,0,0.1-0.1,0.1L31,74.5L31,74.5L31,74.5z M27.9,52l3.2,22l2.2-0.9L30,51L27.9,52z"/>
	<g>
		<path class="st33" d="M9.3,78l0.1,0.5l28-12.4l-0.1-0.5L9.3,78z"/>
		<path class="st33" d="M36.4,59.4l-27.7,13l0.1,0.5l27.7-13L36.4,59.4z"/>
		<path class="st33" d="M35.4,52.9L7.9,65.8L8,66.3l27.5-12.9L35.4,52.9z"/>
	</g>
	<g class="st34">
		<path class="st35" d="M34.7,48.5l3.4,22.8L9.9,83.5L34.7,48.5z"/>
	</g>
</g>
</svg>
