<?xml version="1.0" encoding="utf-8"?>
<!-- Generator: Adobe Illustrator 27.9.0, SVG Export Plug-In . SVG Version: 6.00 Build 0)  -->
<svg version="1.1" id="Laag_1" xmlns="http://www.w3.org/2000/svg" xmlns:xlink="http://www.w3.org/1999/xlink" x="0px" y="0px"
	 viewBox="0 0 169.5 116" style="enable-background:new 0 0 169.5 116;" xml:space="preserve">
<style type="text/css">
	.st0{fill:url(#SVGID_1_);}
	.st1{fill:#007B9C;}
	.st2{fill:url(#SVGID_00000121995065390932414920000018205476147550155429_);}
	.st3{fill:url(#SVGID_00000056416922599331061250000010683065660622430143_);}
	.st4{fill:url(#SVGID_00000062167090950698809080000017327961769115466414_);}
	.st5{fill:url(#SVGID_00000137090075040803104220000012381478968784001719_);}
	.st6{fill:url(#SVGID_00000016077509612668282610000006972162247348108940_);}
	.st7{fill:url(#SVGID_00000115472746791182072360000011817897213425304723_);}
	.st8{fill:url(#SVGID_00000034795089990779803310000006975958192466469298_);}
	.st9{fill:url(#SVGID_00000075153559747510021030000007993719834293522566_);}
	.st10{fill:url(#SVGID_00000090985369701930609750000010238604501576412071_);}
	.st11{fill:url(#SVGID_00000144339118897687577920000008596813921469794700_);}
	.st12{fill:url(#SVGID_00000075154711050722623010000015283907166279245725_);}
	.st13{fill:#71C0EB;}
	.st14{opacity:0.3;}
	.st15{fill:#008BB8;}
	.st16{fill:url(#SVGID_00000150806250712013037900000013819989719762836118_);}
	.st17{fill:#737679;}
	.st18{opacity:0.5;}
	.st19{fill:#B0C7D2;}
	.st20{fill:#648199;}
	.st21{fill:#CFD1D2;}
	.st22{fill:#FFFFFF;}
	.st23{fill:url(#SVGID_00000163061822931867346980000010337532874841059714_);}
	.st24{opacity:0.6;}
	.st25{fill:#AA7725;}
	.st26{fill:#828487;}
	.st27{fill:#C0C2C4;}
	.st28{fill:url(#SVGID_00000114042641607578948600000007462070473674641073_);}
	.st29{opacity:0.4;fill:url(#SVGID_00000075882273345116702010000006722399201442455986_);enable-background:new    ;}
	.st30{fill:#696768;}
	.st31{fill:#151515;}
	.st32{fill:#5C5E4F;}
	.st33{fill:url(#SVGID_00000166666202112037833090000008962204165463632521_);}
	.st34{fill:#65470D;}
	.st35{fill:#6E7E86;}
	.st36{fill:url(#SVGID_00000034775209251201444750000010864265422107977608_);}
	.st37{fill:url(#SVGID_00000096046490793526580140000016792698636978631327_);}
	.st38{fill:url(#SVGID_00000156587709877823392330000007794845696006368442_);}
	.st39{fill:url(#SVGID_00000158749191013832121900000016921506440715731386_);}
	.st40{fill:url(#SVGID_00000153680572916568543750000004728048696517138823_);}
	.st41{fill:url(#SVGID_00000152256598065981745760000012108783201603868604_);}
	.st42{fill:url(#SVGID_00000048459566269004298540000001426877285326323623_);}
	.st43{fill:url(#SVGID_00000002384105734787909750000006695546157972525187_);}
	.st44{fill:url(#SVGID_00000031923898791867932600000016048527793487257486_);}
	.st45{fill:url(#SVGID_00000088843655184894160560000010077034215441212556_);}
	.st46{fill:url(#SVGID_00000149367891088380880860000017419794353264913581_);}
	.st47{fill:url(#SVGID_00000137815778358414199370000000013254475158949762_);}
</style>
<g>
	
		<linearGradient id="SVGID_1_" gradientUnits="userSpaceOnUse" x1="-191.8208" y1="255.044" x2="-185.2688" y2="210.2511" gradientTransform="matrix(1 0 0 -1 219.01 262.4)">
		<stop  offset="0" style="stop-color:#E3F3FC"/>
		<stop  offset="0.28" style="stop-color:#3DB8C9"/>
		<stop  offset="0.36" style="stop-color:#36B1C5"/>
		<stop  offset="0.46" style="stop-color:#239EBA"/>
		<stop  offset="0.58" style="stop-color:#0480A9"/>
		<stop  offset="0.6" style="stop-color:#007CA7"/>
		<stop  offset="0.73" style="stop-color:#066690"/>
		<stop  offset="0.87" style="stop-color:#0F4D75"/>
	</linearGradient>
	<path class="st0" d="M34.9,15.6c-3,5.1-9.8,16.8-13.5,23.2l4.3,2.4c3.7-6.4,10.6-18.3,13.5-23.4L34.9,15.6z"/>
	<path class="st1" d="M21.1,39c0,0-0.1-0.1-0.1-0.1c0-0.1,0-0.1,0-0.2l13.5-23.2c0.1-0.1,0.2-0.2,0.4-0.1l4.3,2.2
		c0.1,0,0.1,0.1,0.1,0.2s0,0.1,0,0.2L25.9,41.4c-0.1,0.1-0.2,0.2-0.4,0.1L21.1,39C21.2,39,21.2,39,21.1,39L21.1,39z M35,16
		L21.7,38.7l3.9,2.2L38.8,18L35,16L35,16z"/>
	
		<linearGradient id="SVGID_00000004547518608246499260000013995518744634259115_" gradientUnits="userSpaceOnUse" x1="-195.7454" y1="254.4811" x2="-189.1862" y2="209.6814" gradientTransform="matrix(1 0 0 -1 219.01 262.4)">
		<stop  offset="0" style="stop-color:#E3F3FC"/>
		<stop  offset="0.28" style="stop-color:#3DB8C9"/>
		<stop  offset="0.36" style="stop-color:#36B1C5"/>
		<stop  offset="0.46" style="stop-color:#239EBA"/>
		<stop  offset="0.58" style="stop-color:#0480A9"/>
		<stop  offset="0.6" style="stop-color:#007CA7"/>
		<stop  offset="0.73" style="stop-color:#066690"/>
		<stop  offset="0.87" style="stop-color:#0F4D75"/>
	</linearGradient>
	<path style="fill:url(#SVGID_00000004547518608246499260000013995518744634259115_);" d="M30.5,13.4c-3,5.1-9.8,16.6-13.5,23
		l4.3,2.4c3.7-6.4,10.6-18.1,13.5-23.2L30.5,13.4z"/>
	<path class="st1" d="M16.8,36.6c0,0-0.1-0.1-0.1-0.1c0-0.1,0-0.1,0-0.2l13.5-23c0.1-0.1,0.2-0.2,0.4-0.1l4.3,2.2
		c0.1,0,0.1,0.1,0.1,0.2c0,0.1,0,0.1,0,0.2L21.6,38.9c-0.1,0.1-0.2,0.2-0.4,0.1L16.8,36.6C16.9,36.6,16.8,36.6,16.8,36.6L16.8,36.6z
		 M30.6,13.7L17.3,36.3l3.9,2.2l13.3-22.7L30.6,13.7L30.6,13.7z"/>
	
		<linearGradient id="SVGID_00000000910579523633200160000012321015483241340598_" gradientUnits="userSpaceOnUse" x1="-199.6601" y1="253.9057" x2="-193.1008" y2="209.1059" gradientTransform="matrix(1 0 0 -1 219.01 262.4)">
		<stop  offset="0" style="stop-color:#E3F3FC"/>
		<stop  offset="0.28" style="stop-color:#3DB8C9"/>
		<stop  offset="0.36" style="stop-color:#36B1C5"/>
		<stop  offset="0.46" style="stop-color:#239EBA"/>
		<stop  offset="0.58" style="stop-color:#0480A9"/>
		<stop  offset="0.6" style="stop-color:#007CA7"/>
		<stop  offset="0.73" style="stop-color:#066690"/>
		<stop  offset="0.87" style="stop-color:#0F4D75"/>
	</linearGradient>
	<path style="fill:url(#SVGID_00000000910579523633200160000012321015483241340598_);" d="M26.2,11.2c-3,5.1-9.8,16.5-13.5,22.8
		l4.3,2.4c3.7-6.3,10.5-17.9,13.5-23L26.2,11.2z"/>
	<path class="st1" d="M12.4,34.1c0,0-0.1-0.1-0.1-0.1c0-0.1,0-0.1,0-0.2l1-1.6C17.2,25.7,23.2,15.7,26,11c0.1-0.1,0.2-0.2,0.3-0.1
		l4.3,2.2c0.1,0,0.1,0.1,0.1,0.2c0,0.1,0,0.1,0,0.2l-13.5,23c-0.1,0.1-0.2,0.2-0.4,0.1L12.4,34.1C12.5,34.2,12.5,34.2,12.4,34.1
		L12.4,34.1z M26.3,11.5c-2.8,4.8-8.6,14.5-12.4,20.9L13,33.9l3.9,2.2l13.3-22.5L26.3,11.5L26.3,11.5z"/>
	
		<linearGradient id="SVGID_00000131351476641664716300000014744818706468111500_" gradientUnits="userSpaceOnUse" x1="-203.5735" y1="253.3365" x2="-197.0211" y2="208.5295" gradientTransform="matrix(1 0 0 -1 219.01 262.4)">
		<stop  offset="0" style="stop-color:#E3F3FC"/>
		<stop  offset="0.28" style="stop-color:#3DB8C9"/>
		<stop  offset="0.36" style="stop-color:#36B1C5"/>
		<stop  offset="0.46" style="stop-color:#239EBA"/>
		<stop  offset="0.58" style="stop-color:#0480A9"/>
		<stop  offset="0.6" style="stop-color:#007CA7"/>
		<stop  offset="0.73" style="stop-color:#066690"/>
		<stop  offset="0.87" style="stop-color:#0F4D75"/>
	</linearGradient>
	<path style="fill:url(#SVGID_00000131351476641664716300000014744818706468111500_);" d="M21.8,9C18.8,14.1,12,25.3,8.3,31.5
		l4.3,2.4c3.7-6.3,10.5-17.7,13.5-22.8L21.8,9z"/>
	<path class="st1" d="M8.1,31.7c0,0-0.1-0.1-0.1-0.1c0-0.1,0-0.1,0-0.2c3.7-6.2,10.5-17.5,13.6-22.6c0.1-0.1,0.2-0.2,0.3-0.1
		l4.3,2.2c0.1,0,0.1,0.1,0.1,0.2c0,0.1,0,0.1,0,0.2C23.6,16,17.7,26,13.8,32.4l-1,1.7c-0.1,0.1-0.2,0.2-0.4,0.1L8.1,31.7
		C8.2,31.8,8.1,31.7,8.1,31.7L8.1,31.7z M21.9,9.3c-3.1,5.1-9.6,15.9-13.3,22.1l3.9,2.2l0.9-1.4c3.8-6.4,9.6-16.1,12.4-20.9
		L21.9,9.3z"/>
	
		<linearGradient id="SVGID_00000161592883538287671320000015349069958594235583_" gradientUnits="userSpaceOnUse" x1="-207.4941" y1="252.7601" x2="-200.9421" y2="207.9673" gradientTransform="matrix(1 0 0 -1 219.01 262.4)">
		<stop  offset="0" style="stop-color:#E3F3FC"/>
		<stop  offset="0.28" style="stop-color:#3DB8C9"/>
		<stop  offset="0.36" style="stop-color:#36B1C5"/>
		<stop  offset="0.46" style="stop-color:#239EBA"/>
		<stop  offset="0.58" style="stop-color:#0480A9"/>
		<stop  offset="0.6" style="stop-color:#007CA7"/>
		<stop  offset="0.73" style="stop-color:#066690"/>
		<stop  offset="0.87" style="stop-color:#0F4D75"/>
	</linearGradient>
	<path style="fill:url(#SVGID_00000161592883538287671320000015349069958594235583_);" d="M17.5,6.7c-3.1,5.1-9.8,16.2-13.6,22.4
		l4.3,2.4C12,25.3,18.8,14,21.8,9L17.5,6.7L17.5,6.7z"/>
	<path class="st1" d="M3.8,29.3c0,0-0.1-0.1-0.1-0.1c0-0.1,0-0.1,0-0.2L17.3,6.6c0.1-0.1,0.2-0.2,0.3-0.1L22,8.7
		c0.1,0,0.1,0.1,0.1,0.2c0,0.1,0,0.1,0,0.2C19,14.2,12.3,25.4,8.5,31.7c-0.1,0.1-0.2,0.2-0.4,0.1L3.8,29.3
		C3.8,29.3,3.8,29.3,3.8,29.3L3.8,29.3z M17.6,7.1L4.3,29l3.9,2.2c3.7-6.2,10.2-17,13.3-22.1L17.6,7.1L17.6,7.1z"/>
	
		<linearGradient id="SVGID_00000107586801969291178170000002595381102019349141_" gradientUnits="userSpaceOnUse" x1="-211.2081" y1="252.2126" x2="-204.656" y2="207.4197" gradientTransform="matrix(1 0 0 -1 219.01 262.4)">
		<stop  offset="0" style="stop-color:#E3F3FC"/>
		<stop  offset="0.28" style="stop-color:#3DB8C9"/>
		<stop  offset="0.36" style="stop-color:#36B1C5"/>
		<stop  offset="0.46" style="stop-color:#239EBA"/>
		<stop  offset="0.58" style="stop-color:#0480A9"/>
		<stop  offset="0.6" style="stop-color:#007CA7"/>
		<stop  offset="0.73" style="stop-color:#066690"/>
		<stop  offset="0.87" style="stop-color:#0F4D75"/>
	</linearGradient>
	<path style="fill:url(#SVGID_00000107586801969291178170000002595381102019349141_);" d="M14.1,5L0,26.9L4,29.1
		c3.8-6.2,10.5-17.3,13.6-22.4L14.1,5L14.1,5z"/>
	<path class="st1" d="M-0.2,27.1c0,0-0.1-0.1-0.1-0.1c0-0.1,0-0.1,0-0.2L13.8,4.8c0.1-0.1,0.2-0.2,0.3-0.1l3.4,1.8
		c0.1,0,0.1,0.1,0.1,0.2c0,0.1,0,0.1,0,0.2L4.2,29.2c-0.1,0.1-0.2,0.2-0.4,0.1L-0.2,27.1C-0.1,27.2-0.1,27.1-0.2,27.1L-0.2,27.1z
		 M14.2,5.3L0.4,26.8l3.5,1.9L17.1,6.8L14.2,5.3L14.2,5.3z"/>
	
		<linearGradient id="SVGID_00000091706484688067241920000012994059650135264388_" gradientUnits="userSpaceOnUse" x1="-183.9906" y1="256.1952" x2="-177.4386" y2="211.4023" gradientTransform="matrix(1 0 0 -1 219.01 262.4)">
		<stop  offset="0" style="stop-color:#E3F3FC"/>
		<stop  offset="0.28" style="stop-color:#3DB8C9"/>
		<stop  offset="0.36" style="stop-color:#36B1C5"/>
		<stop  offset="0.46" style="stop-color:#239EBA"/>
		<stop  offset="0.58" style="stop-color:#0480A9"/>
		<stop  offset="0.6" style="stop-color:#007CA7"/>
		<stop  offset="0.73" style="stop-color:#066690"/>
		<stop  offset="0.87" style="stop-color:#0F4D75"/>
	</linearGradient>
	<path style="fill:url(#SVGID_00000091706484688067241920000012994059650135264388_);" d="M43.5,20.1c-2.9,5-9.8,17.1-13.5,23.6
		l4.3,2.4c3.7-6.5,10.7-18.8,13.5-23.8L43.5,20.1z"/>
	<path class="st1" d="M29.8,43.8c0,0-0.1-0.1-0.1-0.1c0-0.1,0-0.1,0-0.2l13.5-23.6c0.1-0.1,0.2-0.2,0.4-0.1L48,22
		c0.1,0,0.1,0.1,0.1,0.2c0,0.1,0,0.1,0,0.2L34.6,46.2c-0.1,0.1-0.2,0.2-0.4,0.1L29.8,43.8C29.9,43.9,29.9,43.8,29.8,43.8L29.8,43.8z
		 M43.6,20.4L30.4,43.5l3.9,2.2l13.2-23.3L43.6,20.4z"/>
	
		<linearGradient id="SVGID_00000005254802158830888750000017163846015475433386_" gradientUnits="userSpaceOnUse" x1="-187.9057" y1="255.6196" x2="-181.3536" y2="210.8267" gradientTransform="matrix(1 0 0 -1 219.01 262.4)">
		<stop  offset="0" style="stop-color:#E3F3FC"/>
		<stop  offset="0.28" style="stop-color:#3DB8C9"/>
		<stop  offset="0.36" style="stop-color:#36B1C5"/>
		<stop  offset="0.46" style="stop-color:#239EBA"/>
		<stop  offset="0.58" style="stop-color:#0480A9"/>
		<stop  offset="0.6" style="stop-color:#007CA7"/>
		<stop  offset="0.73" style="stop-color:#066690"/>
		<stop  offset="0.87" style="stop-color:#0F4D75"/>
	</linearGradient>
	<path style="fill:url(#SVGID_00000005254802158830888750000017163846015475433386_);" d="M39.2,17.9c-2.9,5.1-9.8,16.9-13.5,23.4
		l4.3,2.4c3.7-6.5,10.6-18.5,13.5-23.6L39.2,17.9z"/>
	<path class="st1" d="M25.5,41.4c0,0-0.1-0.1-0.1-0.1c0-0.1,0-0.1,0-0.2L39,17.7c0.1-0.1,0.2-0.2,0.4-0.1l4.3,2.2
		c0.1,0,0.1,0.1,0.1,0.2c0,0.1,0,0.1,0,0.2L30.2,43.8c-0.1,0.1-0.2,0.2-0.4,0.1L25.5,41.4C25.5,41.5,25.5,41.4,25.5,41.4L25.5,41.4z
		 M39.3,18.2L26,41.1l3.9,2.2l13.3-23.1L39.3,18.2z"/>
	
		<linearGradient id="SVGID_00000037651048332194896790000017451317103008736956_" gradientUnits="userSpaceOnUse" x1="-168.2925" y1="258.4919" x2="-161.7404" y2="213.699" gradientTransform="matrix(1 0 0 -1 219.01 262.4)">
		<stop  offset="0" style="stop-color:#E3F3FC"/>
		<stop  offset="0.28" style="stop-color:#3DB8C9"/>
		<stop  offset="0.36" style="stop-color:#36B1C5"/>
		<stop  offset="0.46" style="stop-color:#239EBA"/>
		<stop  offset="0.58" style="stop-color:#0480A9"/>
		<stop  offset="0.6" style="stop-color:#007CA7"/>
		<stop  offset="0.73" style="stop-color:#066690"/>
		<stop  offset="0.87" style="stop-color:#0F4D75"/>
	</linearGradient>
	<path style="fill:url(#SVGID_00000037651048332194896790000017451317103008736956_);" d="M51.8,55.8l13.5-24.6L60.9,29L47.4,53.3
		L51.8,55.8z"/>
	<path class="st1" d="M47.2,53.5c-0.1-0.1-0.1-0.2-0.1-0.3l13.5-24.4c0.1-0.1,0.2-0.2,0.4-0.1l4.4,2.3c0.1,0,0.1,0.1,0.1,0.2
		c0,0.1,0,0.1,0,0.2L52,56c0,0.1-0.1,0.1-0.2,0.1c-0.1,0-0.1,0-0.2,0L47.2,53.5C47.2,53.6,47.2,53.6,47.2,53.5L47.2,53.5z M61,29.3
		L47.7,53.2l4,2.2l13.2-24.1L61,29.3z"/>
	
		<linearGradient id="SVGID_00000160875390644876350620000012521665499444251323_" gradientUnits="userSpaceOnUse" x1="-172.2443" y1="257.9159" x2="-165.6991" y2="213.1157" gradientTransform="matrix(1 0 0 -1 219.01 262.4)">
		<stop  offset="0" style="stop-color:#E3F3FC"/>
		<stop  offset="0.28" style="stop-color:#3DB8C9"/>
		<stop  offset="0.36" style="stop-color:#36B1C5"/>
		<stop  offset="0.46" style="stop-color:#239EBA"/>
		<stop  offset="0.58" style="stop-color:#0480A9"/>
		<stop  offset="0.6" style="stop-color:#007CA7"/>
		<stop  offset="0.73" style="stop-color:#066690"/>
		<stop  offset="0.87" style="stop-color:#0F4D75"/>
	</linearGradient>
	<path style="fill:url(#SVGID_00000160875390644876350620000012521665499444251323_);" d="M60.9,29l-4.3-2.2
		c-2.8,5-9.8,17.5-13.5,24.2l4.3,2.4L60.9,29z"/>
	<path class="st1" d="M42.8,51.1c-0.1-0.1-0.1-0.2-0.1-0.3l13.5-24.2c0.1-0.1,0.2-0.2,0.4-0.1l4.3,2.2c0.1,0,0.1,0.1,0.1,0.2
		c0,0.1,0,0.1,0,0.2L47.6,53.5c0,0.1-0.1,0.1-0.2,0.1c-0.1,0-0.1,0-0.2,0L42.8,51.1C42.9,51.2,42.9,51.1,42.8,51.1L42.8,51.1z
		 M56.6,27.1L43.4,50.8l3.9,2.2l13.2-23.9L56.6,27.1z"/>
	
		<linearGradient id="SVGID_00000025433072828023301430000006164281290641671066_" gradientUnits="userSpaceOnUse" x1="-180.0831" y1="256.7634" x2="-173.5311" y2="211.9705" gradientTransform="matrix(1 0 0 -1 219.01 262.4)">
		<stop  offset="0" style="stop-color:#E3F3FC"/>
		<stop  offset="0.28" style="stop-color:#3DB8C9"/>
		<stop  offset="0.36" style="stop-color:#36B1C5"/>
		<stop  offset="0.46" style="stop-color:#239EBA"/>
		<stop  offset="0.58" style="stop-color:#0480A9"/>
		<stop  offset="0.6" style="stop-color:#007CA7"/>
		<stop  offset="0.73" style="stop-color:#066690"/>
		<stop  offset="0.87" style="stop-color:#0F4D75"/>
	</linearGradient>
	<path style="fill:url(#SVGID_00000025433072828023301430000006164281290641671066_);" d="M47.9,22.3c-2.9,5-9.8,17.2-13.5,23.8
		l4.3,2.4c3.7-6.6,10.7-19,13.5-24L47.9,22.3z"/>
	<path class="st1" d="M34.2,46.3c0,0-0.1-0.1-0.1-0.1c0-0.1,0-0.1,0-0.2l13.5-23.8C47.7,22,47.9,22,48,22l4.3,2.2
		c0.1,0,0.1,0.1,0.1,0.2c0,0.1,0,0.1,0,0.2l-13.5,24c-0.1,0.1-0.2,0.2-0.4,0.1L34.2,46.3C34.2,46.3,34.2,46.3,34.2,46.3L34.2,46.3z
		 M48,22.6L34.7,46l3.9,2.2l13.2-23.5L48,22.6L48,22.6z"/>
	
		<linearGradient id="SVGID_00000026881737992708486460000003623834075785693586_" gradientUnits="userSpaceOnUse" x1="-176.1705" y1="257.3387" x2="-169.6185" y2="212.5458" gradientTransform="matrix(1 0 0 -1 219.01 262.4)">
		<stop  offset="0" style="stop-color:#E3F3FC"/>
		<stop  offset="0.28" style="stop-color:#3DB8C9"/>
		<stop  offset="0.36" style="stop-color:#36B1C5"/>
		<stop  offset="0.46" style="stop-color:#239EBA"/>
		<stop  offset="0.58" style="stop-color:#0480A9"/>
		<stop  offset="0.6" style="stop-color:#007CA7"/>
		<stop  offset="0.73" style="stop-color:#066690"/>
		<stop  offset="0.87" style="stop-color:#0F4D75"/>
	</linearGradient>
	<path style="fill:url(#SVGID_00000026881737992708486460000003623834075785693586_);" d="M52.2,24.5c-2.8,5-9.8,17.4-13.5,24
		l4.3,2.4c3.7-6.6,10.7-19.2,13.5-24.2L52.2,24.5L52.2,24.5z"/>
	<path class="st1" d="M38.5,48.7c0,0-0.1-0.1-0.1-0.1c0-0.1,0-0.1,0-0.2l13.5-24c0.1-0.1,0.2-0.2,0.4-0.1l4.3,2.2
		c0.1,0,0.1,0.1,0.1,0.2c0,0.1,0,0.1,0,0.2L43.3,51.1c0,0.1-0.1,0.1-0.2,0.1c-0.1,0-0.1,0-0.2,0L38.5,48.7
		C38.6,48.7,38.5,48.7,38.5,48.7L38.5,48.7z M52.3,24.9L39.1,48.4l3.9,2.2l13.2-23.7L52.3,24.9L52.3,24.9z"/>
	<g>
		<path class="st13" d="M3.6,21.4l-0.4,0.5l51.6,28.4l0.3-0.6L3.6,21.4z"/>
		<path class="st13" d="M58.8,43L7.3,15.6l-0.4,0.6l51.6,27.4L58.8,43z"/>
		<path class="st13" d="M62.7,36L11.6,8.9l-0.4,0.6l51.1,27.2L62.7,36z"/>
	</g>
	<g class="st14">
		<path class="st15" d="M65.3,31.2L51.8,55.8L0,26.9L65.3,31.2z"/>
	</g>
	
		<linearGradient id="SVGID_00000014609554480116258780000003850401998486041528_" gradientUnits="userSpaceOnUse" x1="-150.7694" y1="156.4111" x2="-75.5156" y2="162.1532" gradientTransform="matrix(1 0 0 -1 219.01 262.4)">
		<stop  offset="0.46" style="stop-color:#E5E0DF"/>
		<stop  offset="1" style="stop-color:#8CA99C"/>
	</linearGradient>
	<path style="fill:url(#SVGID_00000014609554480116258780000003850401998486041528_);" d="M108.9,106.5c0-0.1,0.5-11.1,0.5-11.1
		l-7.1-3.6l-20.5,11c0,0,6.9,9.4,6.9,9.5l0,0l0.8,0.9c2.1,1.9,5.2,2.9,10.4,1.6C105.5,113.4,108.6,109.9,108.9,106.5z"/>
	<path class="st17" d="M108.9,106.5c0-0.1,0.5-11.1,0.5-11.1l-7.1-3.6l-20.5,11c0,0,6.9,9.4,6.9,9.5l0,0l0.8,0.9
		c2.1,1.9,5.2,2.9,10.4,1.6C105.5,113.4,108.6,109.9,108.9,106.5z"/>
	<g class="st18">
		<path class="st17" d="M94.9,110.9c5.3-0.9,10.4-2.7,14.1-6.6c0.1-3.3,0.4-8.9,0.4-8.9l-7.1-3.6l-20.5,11c0,0,3.2,4.4,5.3,7.2
			C89.4,110.7,92.5,111.3,94.9,110.9L94.9,110.9z"/>
	</g>
	<g>
		<path class="st19" d="M105.9,104.1c0,2.5,0.1,5.1,0.2,7.6c1.7-1.5,2.6-3.4,2.8-5.1c0-0.1,0.5-11.1,0.5-11.1l-3.5-1.8
			C106,97.1,105.9,100.6,105.9,104.1z"/>
	</g>
	<g>
		<path class="st19" d="M85.8,100.7l-4,2.1c0,0,6.9,9.4,6.9,9.5l0,0l0.8,0.9c1,0.9,2.2,1.6,3.7,2C90.5,110.5,88.2,105.6,85.8,100.7z
			"/>
	</g>
	<path class="st20" d="M113.1,92.3c0-0.2,0.9-20,0.9-20l-12.7-6.5L64.5,85.7c0,0,12.4,16.9,12.4,17.1l0,0.1l1.5,1.6
		c3.7,3.5,9.3,5.3,18.7,2.8C107,104.6,112.6,98.4,113.1,92.3L113.1,92.3z"/>
	<g>
		<path class="st21" d="M100.1,78.4c0.4,4.4,0.7,8.7,1,13.1c0.3,4.6,0.9,9.3,1.2,13.9c6.6-3.1,10.3-8.1,10.7-13c0-0.2,0.9-20,0.9-20
			l-12.7-6.5l-1.6,0.8C99.3,70.6,99.8,74.5,100.1,78.4L100.1,78.4z"/>
	</g>
	<g class="st18">
		<path class="st22" d="M89.6,91.3c-1.4-3.6-2.2-6.2-3.7-9.7c-0.9-2-1.8-4-2.4-6.1l-5.2,2.8c5.2,10,10.6,19.9,16.3,29.6
			c0.4-0.1,0.9-0.2,1.4-0.3C94,102.5,91.6,96.3,89.6,91.3z"/>
	</g>
	<g>
		<path class="st21" d="M70.3,88.8c-1.1-1.7-5.9-3.1-5.9-3.1s12.4,16.9,12.4,17.1l0,0.1l1.5,1.6c1.1,1,2.4,1.9,3.9,2.6
			C80.4,103.8,72.2,91.6,70.3,88.8L70.3,88.8z"/>
	</g>
	
		<linearGradient id="SVGID_00000117636344937206515270000014522004451399615663_" gradientUnits="userSpaceOnUse" x1="-199.5509" y1="195.5522" x2="-30.7716" y2="208.443" gradientTransform="matrix(1 0 0 -1 219.01 262.4)">
		<stop  offset="0.46" style="stop-color:#E5E0DF"/>
		<stop  offset="1" style="stop-color:#8CA99C"/>
	</linearGradient>
	<path style="fill:url(#SVGID_00000117636344937206515270000014522004451399615663_);" d="M113.7,70.1c-0.1-0.3-0.2-0.6-0.3-1
		L99.1,30.6l-1.1,2L48.6,42.9l14.9,40.8c0.1,0.3,0.2,0.5,0.3,0.8l0,0.1c3,6.9,15.3,9.7,28.4,6.2C106.1,87.1,115.7,77.8,113.7,70.1
		L113.7,70.1z"/>
	<g>
		<path class="st21" d="M90.1,34.2c2.6,9,4.6,18.1,7.4,27c2.5,7.9,5.2,15.7,7.6,23.7c6.3-4.3,9.8-9.9,8.5-14.9
			c-0.1-0.3-0.2-0.6-0.3-1L99.1,30.6l-1.1,2L90.1,34.2L90.1,34.2z"/>
	</g>
	<g>
		<path class="st21" d="M55.4,41.4l-6.8,1.4l14.9,40.8c0.1,0.3,0.2,0.5,0.3,0.8l0,0.1c1.3,2.9,4.3,5.1,8.3,6.4
			C66.4,74.5,60.9,58,55.4,41.4z"/>
	</g>
	<g class="st18">
		<path class="st22" d="M70.8,38.2L67,39c2.3,9.7,5.7,19.1,9,28.5c2.9,8.3,6.5,16.2,9.5,24.4c1.3-0.1,2.7-0.4,4.1-0.6
			C83.1,73.7,75.4,56.5,70.8,38.2z"/>
	</g>
	<path class="st20" d="M105.5,47.4c-0.5-1.3-1-2.5-1.5-3.8c-1.4,7-10.7,14.5-23.3,17.8c-10.3,2.7-20.2,1.9-26-1.6
		c0.4,1.2,0.8,2.4,1.2,3.5c6.5,2.7,15.8,3.1,25.5,0.6C93.2,60.8,102.2,54.4,105.5,47.4z"/>
	<path class="st17" d="M77.4,50.3c-13.9,3.6-26.8,0.3-28.8-7.5c-2-7.8,7.6-17,21.5-20.6c13.9-3.6,26.8-0.3,28.8,7.5
		C100.9,37.4,91.3,46.7,77.4,50.3z"/>
	<g class="st24">
		<path class="st22" d="M78.4,48.4c-13.3,3.5-25.7,0.3-27.7-7.2c-1.1-4.1,1.2-8.6,5.7-12.4c-5.3,4-8.2,9-7,13.5
			c2,7.5,14.4,10.7,27.7,7.2c6-1.6,11.2-4.3,14.9-7.4C88.4,44.7,83.7,47,78.4,48.4L78.4,48.4z"/>
	</g>
	<path class="st25" d="M75.9,44.5c-8.2,2.1-15.8,0.2-17-4.4c-1.2-4.6,4.5-10,12.6-12.1c8.2-2.1,15.8-0.2,17,4.4
		C89.8,36.9,84.1,42.4,75.9,44.5z"/>
	<path class="st26" d="M86.1,32.3c0-0.2-0.1-0.3-0.2-0.5l-7.1-19.2l-0.6,1l-24.6,5.1l7.4,20.3c0,0.1,0.1,0.3,0.1,0.4l0,0.1
		c1.5,3.4,7.6,4.8,14.1,3.1C82.3,40.8,87.1,36.2,86.1,32.3L86.1,32.3z"/>
	<path class="st22" d="M78.3,31.6c0.4,1.3,0.8,2.6,1.2,3.9c2.3-1.5,4.1-3.6,5.5-6l-6.2-16.7l-0.6,1L73,14.7
		C74.5,20.4,76.5,26,78.3,31.6z"/>
	<path class="st27" d="M86.1,32.3c0-0.2-0.1-0.3-0.2-0.5l-0.5-1.4c0,0,0,0,0,0c-1.5,2.4-3.4,4.4-5.6,5.9c0.4,1.3,0.8,2.6,1.2,3.9
		C84.7,38,86.8,35,86.1,32.3L86.1,32.3z"/>
	<path class="st27" d="M66.9,38.1c2,0.3,4.1,0.2,6-0.1c2.2-0.3,4.1-1.1,5.9-2.1c-0.5-1.6-1-3.2-1.5-4.8c-1.7-5.4-3.6-10.7-5-16.2
		l-12.3,2.6c0.5,1.5,0.9,3,1.4,4.5c1,2.9,2,5.8,3,8.6C65.3,33.1,66.1,35.6,66.9,38.1L66.9,38.1z"/>
	<path class="st22" d="M79,36.8c-1.8,1.1-3.8,1.8-6,2.1c-1.9,0.2-3.9,0.3-5.8,0.1c0.5,1.5,0.9,2.9,1.4,4.4c2.1,0.2,4.4-0.1,6.8-0.7
		c1.8-0.5,3.4-1.1,4.9-1.9C79.9,39.4,79.5,38.1,79,36.8L79,36.8z"/>
	<path class="st22" d="M65.9,37.9c-0.9-2.6-1.7-5.2-2.7-7.8c-1-2.9-2-5.8-3-8.7c-0.4-1.3-0.8-2.6-1.2-3.9l-5.4,1.1l6.2,17
		C61.7,36.9,63.8,37.6,65.9,37.9L65.9,37.9z"/>
	<path class="st27" d="M60.3,37l0.8,2.1c0,0.1,0.1,0.3,0.1,0.4l0,0.1c0.9,2,3.3,3.3,6.4,3.7c-0.5-1.5-1-2.9-1.4-4.4
		C64.2,38.5,62.2,37.9,60.3,37L60.3,37z"/>
	<path class="st22" d="M68,22.5c-6.9,1.8-13.3,0.2-14.4-3.7c-1-3.9,3.8-8.5,10.7-10.3c6.9-1.8,13.3-0.2,14.4,3.7
		C79.7,16.1,74.9,20.7,68,22.5z"/>
	<path class="st25" d="M71.2,34c-15.5,4.1-30,0.3-32.3-8.3c-2.3-8.7,8.5-19,24-23.1c15.5-4.1,30-0.3,32.3,8.3S86.7,30,71.2,34z"/>
	
		<radialGradient id="SVGID_00000047771229713623397280000013864709436724406958_" cx="-581.3867" cy="538.4234" r="1" gradientTransform="matrix(35.9207 44.7496 44.7496 -35.9207 -3160.3765 45340.25)" gradientUnits="userSpaceOnUse">
		<stop  offset="0.46" style="stop-color:#E9DCA3"/>
		<stop  offset="1" style="stop-color:#A88034"/>
	</radialGradient>
	<path style="fill:url(#SVGID_00000047771229713623397280000013864709436724406958_);" d="M71,33.3c-15.5,4.1-29.9,0.5-32.2-8
		c-2.2-8.5,8.6-18.7,24.1-22.7c15.5-4.1,29.9-0.5,32.2,8C97.3,19,86.5,29.2,71,33.3z"/>
	
		<radialGradient id="SVGID_00000091009801187096240940000013096157418928439227_" cx="-583.0502" cy="537.8566" r="1" gradientTransform="matrix(46.8857 58.4096 58.4096 -46.8857 -4012.9353 59357.9688)" gradientUnits="userSpaceOnUse">
		<stop  offset="0.46" style="stop-color:#E5E0DF"/>
		<stop  offset="1" style="stop-color:#77787B"/>
	</radialGradient>
	<path style="opacity:0.4;fill:url(#SVGID_00000091009801187096240940000013096157418928439227_);enable-background:new    ;" d="
		M48.9,22.9c5.9,1.5,12.2,2.6,18.4,2.3c6.2-0.3,12.5-1.3,18.3-3.8c3.3-1.4,6.7-3,9.6-5.2c0.5-1.8,0.6-3.6,0.1-5.3
		c-0.7-2.6-2.5-4.8-5.1-6.5c-1.6,4.3-4.2,8.3-7.5,11.6c-4.1,4.1-9.5,8.2-15.6,8.3c-6.2,0-11.7-3.9-15.9-8c-1.6-1.6-3.7-3.2-5.4-5.2
		c-3.1,2.6-5.3,5.5-6.3,8.4C42.4,21.2,45.9,22.1,48.9,22.9z"/>
	<path class="st30" d="M69.2,27.1c-1.8,0.5-3.4,0-3.7-1c-0.3-1,1-2.2,2.8-2.7c1.8-0.5,3.4,0,3.7,1C72.2,25.5,71,26.7,69.2,27.1z"/>
	<path class="st31" d="M69.2,27.1c-1,0.3-1.9,0-2.1-0.5c-0.1-0.6,0.5-1.2,1.5-1.5c1-0.3,1.9,0,2.1,0.5
		C70.8,26.2,70.2,26.9,69.2,27.1z"/>
	<path class="st25" d="M39.7,23.6c-0.2-0.2-0.1-0.5,0.1-0.7L58.6,6.7c0.2-0.2,0.6-0.2,0.8,0.1c0.2,0.2,0.2,0.6-0.1,0.8L40.5,23.7
		C40.3,23.9,39.9,23.8,39.7,23.6C39.7,23.6,39.7,23.6,39.7,23.6z"/>
	<path class="st25" d="M65.5,5.4c-0.1-0.1-0.1-0.2-0.1-0.3c0-0.3,0.2-0.6,0.6-0.6l19.4-1.1c0.3,0,0.6,0.2,0.6,0.5
		c0,0.3-0.2,0.6-0.6,0.6L66,5.6C65.8,5.6,65.6,5.5,65.5,5.4L65.5,5.4z"/>
	<path class="st25" d="M75.8,31.4L63.6,7.1c-0.2,0-0.3,0-0.5,0.1c-0.2,0.1-0.3,0.3-0.4,0.5L75,31.9c0.1,0.2,0.4,0.3,0.7,0.2
		C75.9,32,75.9,31.7,75.8,31.4L75.8,31.4z"/>
	<path class="st17" d="M84.8,56.1c-3.4,1.4-13.9,5.1-25.5,2.8l-1.8-6.2c-0.9-0.2-1.4-0.3-1.4-0.3l2.1,7.4
		c14.1,2.8,26.9-2.5,26.9-2.5L84.8,56.1z"/>
	<path class="st22" d="M84.8,56.1l-1.9-5.5c-10.8,4.1-21.6,2.7-25.4,2.1l1.8,6.2C70.9,61.2,81.3,57.5,84.8,56.1L84.8,56.1z"/>
	<g>
		<path class="st17" d="M80.4,56c0,0.1,0.1,0.2,0.1,0.3c0.7-0.2,1.3-0.5,1.7-0.6L81.3,53c-0.5,0.2-1.1,0.4-1.6,0.5
			C79.9,54.3,80.1,55.2,80.4,56L80.4,56z"/>
	</g>
	<g>
		<path class="st32" d="M77.9,56.5c0.1,0.1,0.1,0.3,0.2,0.4c0.6-0.1,1.2-0.3,1.7-0.4c-0.2-1-0.6-2-0.9-2.8c-0.6,0.1-1.1,0.3-1.7,0.3
			C77.4,54.9,77.6,55.7,77.9,56.5L77.9,56.5z"/>
	</g>
	<path class="st20" d="M75.4,57.4c0.6-0.1,1.2-0.1,1.8-0.3c-0.1-0.2-0.2-0.4-0.2-0.7c-0.3-0.8-0.5-1.5-0.7-2.3
		c-0.6,0.1-1.3,0.1-1.9,0.2C74.7,55.3,75.1,56.3,75.4,57.4z"/>
	
		<radialGradient id="SVGID_00000121276096080801852760000015814367994437514114_" cx="-548.4709" cy="549.6373" r="1" gradientTransform="matrix(6.3832 7.9522 7.9522 -6.3832 -813.3707 7869.3491)" gradientUnits="userSpaceOnUse">
		<stop  offset="0.46" style="stop-color:#E9DCA3"/>
		<stop  offset="1" style="stop-color:#A88034"/>
	</radialGradient>
	<path style="fill:url(#SVGID_00000121276096080801852760000015814367994437514114_);" d="M66.1,5.4l-0.6-2.5l-7,2.7l0.6,2.1
		c0,0.1,0,0.2,0.1,0.3c0.4,1.1,2.3,1.4,4.2,0.7C65.3,7.9,66.5,6.5,66.1,5.4L66.1,5.4z"/>
	<path class="st25" d="M62.7,6.3c-1.9,0.7-3.8,0.4-4.2-0.7c-0.4-1.1,0.9-2.5,2.8-3.2c1.9-0.7,3.8-0.4,4.2,0.7
		C65.9,4.1,64.6,5.6,62.7,6.3z"/>
	<path class="st34" d="M62.1,4.9c-0.8,0.3-1.5,0.2-1.7-0.3c-0.2-0.4,0.3-1,1.1-1.3c0.8-0.3,1.5-0.2,1.7,0.3
		C63.4,4.1,62.9,4.7,62.1,4.9z"/>
	<path class="st17" d="M100.3,60.7c-1.3,1.3-3,1.7-3.9,0.9c-0.9-0.8-0.6-2.6,0.7-3.9c1.3-1.3,3-1.7,3.9-0.9
		C101.9,57.6,101.6,59.4,100.3,60.7z"/>
	<g>
		<path class="st35" d="M100.3,60.4c-0.9,0.9-2.1,1.2-2.7,0.6c-0.6-0.6-0.4-1.8,0.5-2.8c0.9-0.9,2.1-1.2,2.7-0.6
			C101.4,58.2,101.2,59.4,100.3,60.4z"/>
	</g>
	
		<linearGradient id="SVGID_00000036210776642023285460000003396624170938470304_" gradientUnits="userSpaceOnUse" x1="-95.5367" y1="213.3057" x2="-87.7977" y2="160.4388" gradientTransform="matrix(1 0 0 -1 219.01 262.4)">
		<stop  offset="0" style="stop-color:#E3F3FC"/>
		<stop  offset="0.28" style="stop-color:#3DB8C9"/>
		<stop  offset="0.36" style="stop-color:#36B1C5"/>
		<stop  offset="0.46" style="stop-color:#239EBA"/>
		<stop  offset="0.58" style="stop-color:#0480A9"/>
		<stop  offset="0.6" style="stop-color:#007CA7"/>
		<stop  offset="0.73" style="stop-color:#066690"/>
		<stop  offset="0.87" style="stop-color:#0F4D75"/>
	</linearGradient>
	<path style="fill:url(#SVGID_00000036210776642023285460000003396624170938470304_);" d="M132.5,58.9c-3.5,6-11.6,19.8-16,27.3
		l5.1,2.9c4.4-7.6,12.5-21.6,16-27.6L132.5,58.9L132.5,58.9z"/>
	<path class="st1" d="M116.4,86.4c0,0-0.1-0.1-0.1-0.1c0-0.1,0-0.1,0-0.2l16-27.3c0.1-0.1,0.2-0.2,0.4-0.1l5.1,2.6
		c0.1,0,0.1,0.1,0.1,0.2c0,0.1,0,0.1,0,0.2l-16,27.6c-0.1,0.1-0.2,0.2-0.4,0.1L116.4,86.4C116.4,86.4,116.4,86.4,116.4,86.4
		L116.4,86.4z M132.6,59.2l-15.7,26.9l4.7,2.6l15.7-27.1L132.6,59.2z"/>
	
		<linearGradient id="SVGID_00000052818537280205772310000009202516692962436227_" gradientUnits="userSpaceOnUse" x1="-100.1546" y1="212.6322" x2="-92.4296" y2="159.7654" gradientTransform="matrix(1 0 0 -1 219.01 262.4)">
		<stop  offset="0" style="stop-color:#E3F3FC"/>
		<stop  offset="0.28" style="stop-color:#3DB8C9"/>
		<stop  offset="0.36" style="stop-color:#36B1C5"/>
		<stop  offset="0.46" style="stop-color:#239EBA"/>
		<stop  offset="0.58" style="stop-color:#0480A9"/>
		<stop  offset="0.6" style="stop-color:#007CA7"/>
		<stop  offset="0.73" style="stop-color:#066690"/>
		<stop  offset="0.87" style="stop-color:#0F4D75"/>
	</linearGradient>
	<path style="fill:url(#SVGID_00000052818537280205772310000009202516692962436227_);" d="M127.4,56.2c-3.5,6-11.6,19.6-16,27.1
		l5.1,2.9c4.4-7.6,12.5-21.4,16-27.3L127.4,56.2L127.4,56.2z"/>
	<path class="st1" d="M111.2,83.5c0,0-0.1-0.1-0.1-0.1c0-0.1,0-0.1,0-0.2c4.4-7.5,12.4-21.1,16-27.1c0.1-0.1,0.2-0.2,0.4-0.1
		l5.1,2.6c0.1,0,0.1,0.1,0.1,0.2c0,0.1,0,0.1,0,0.2l-16,27.3c-0.1,0.1-0.2,0.2-0.4,0.1L111.2,83.5C111.3,83.6,111.3,83.6,111.2,83.5
		L111.2,83.5z M127.5,56.6c-3.6,6-11.3,19.2-15.7,26.7l4.7,2.6L132.2,59L127.5,56.6z"/>
	
		<linearGradient id="SVGID_00000041270122926409835970000013105877730877636512_" gradientUnits="userSpaceOnUse" x1="-104.7662" y1="211.9532" x2="-97.0352" y2="159.0938" gradientTransform="matrix(1 0 0 -1 219.01 262.4)">
		<stop  offset="0" style="stop-color:#E3F3FC"/>
		<stop  offset="0.28" style="stop-color:#3DB8C9"/>
		<stop  offset="0.36" style="stop-color:#36B1C5"/>
		<stop  offset="0.46" style="stop-color:#239EBA"/>
		<stop  offset="0.58" style="stop-color:#0480A9"/>
		<stop  offset="0.6" style="stop-color:#007CA7"/>
		<stop  offset="0.73" style="stop-color:#066690"/>
		<stop  offset="0.87" style="stop-color:#0F4D75"/>
	</linearGradient>
	<path style="fill:url(#SVGID_00000041270122926409835970000013105877730877636512_);" d="M122.3,53.6c-3.6,6-11.6,19.4-16,26.9
		l5.1,2.9c4.4-7.5,12.5-21.1,16-27.1L122.3,53.6z"/>
	<path class="st1" d="M106.1,80.7c0,0-0.1-0.1-0.1-0.1c0-0.1,0-0.1,0-0.2l2-3.3c4.5-7.6,10.9-18.4,14-23.6c0.1-0.1,0.2-0.2,0.4-0.1
		l5.1,2.6c0.1,0,0.1,0.1,0.1,0.2c0,0.1,0,0.1,0,0.2c-3.5,6-11.6,19.6-16,27.1c-0.1,0.1-0.2,0.2-0.4,0.1L106.1,80.7
		C106.2,80.7,106.2,80.7,106.1,80.7L106.1,80.7z M122.4,54c-3.1,5.3-9.4,15.8-13.9,23.4l-1.8,3.1l4.7,2.6
		c4.4-7.4,12.1-20.6,15.7-26.6L122.4,54L122.4,54z"/>
	
		<linearGradient id="SVGID_00000089549325287772821560000009385841710787406249_" gradientUnits="userSpaceOnUse" x1="-109.4014" y1="211.2788" x2="-101.6624" y2="158.4119" gradientTransform="matrix(1 0 0 -1 219.01 262.4)">
		<stop  offset="0" style="stop-color:#E3F3FC"/>
		<stop  offset="0.28" style="stop-color:#3DB8C9"/>
		<stop  offset="0.36" style="stop-color:#36B1C5"/>
		<stop  offset="0.46" style="stop-color:#239EBA"/>
		<stop  offset="0.58" style="stop-color:#0480A9"/>
		<stop  offset="0.6" style="stop-color:#007CA7"/>
		<stop  offset="0.73" style="stop-color:#066690"/>
		<stop  offset="0.87" style="stop-color:#0F4D75"/>
	</linearGradient>
	<path style="fill:url(#SVGID_00000089549325287772821560000009385841710787406249_);" d="M117.2,51c-3.6,6-11.6,19.3-16,26.6
		l5.1,2.9c4.4-7.4,12.4-20.9,16-26.9L117.2,51L117.2,51z"/>
	<path class="st1" d="M101,77.8c0,0-0.1-0.1-0.1-0.1c0-0.1,0-0.1,0-0.2l1.2-2c4.6-7.6,11.5-19.1,14.8-24.6c0.1-0.1,0.2-0.2,0.3-0.1
		l5.1,2.6c0.1,0,0.1,0.1,0.1,0.2c0,0.1,0,0.1,0,0.2c-3.1,5.2-9.5,16-14.1,23.7l-1.9,3.2c-0.1,0.1-0.2,0.2-0.4,0.1L101,77.8
		C101.1,77.9,101,77.8,101,77.8L101,77.8z M117.3,51.3c-3.3,5.6-10.2,16.9-14.7,24.4l-1.1,1.8l4.7,2.6l1.8-3
		c4.5-7.5,10.8-18.1,13.9-23.4L117.3,51.3L117.3,51.3z"/>
	
		<linearGradient id="SVGID_00000011014040308535623100000004749999591977276555_" gradientUnits="userSpaceOnUse" x1="-114.0189" y1="210.6053" x2="-106.2869" y2="157.7315" gradientTransform="matrix(1 0 0 -1 219.01 262.4)">
		<stop  offset="0" style="stop-color:#E3F3FC"/>
		<stop  offset="0.28" style="stop-color:#3DB8C9"/>
		<stop  offset="0.36" style="stop-color:#36B1C5"/>
		<stop  offset="0.46" style="stop-color:#239EBA"/>
		<stop  offset="0.58" style="stop-color:#0480A9"/>
		<stop  offset="0.6" style="stop-color:#007CA7"/>
		<stop  offset="0.73" style="stop-color:#066690"/>
		<stop  offset="0.87" style="stop-color:#0F4D75"/>
	</linearGradient>
	<path style="fill:url(#SVGID_00000011014040308535623100000004749999591977276555_);" d="M112.1,48.4c-3.7,6-11.6,19.1-16,26.4
		l5.1,2.9c4.4-7.4,12.4-20.6,16-26.6L112.1,48.4L112.1,48.4z"/>
	<path class="st1" d="M95.9,75c0,0-0.1-0.1-0.1-0.1c0-0.1,0-0.1,0-0.2c4.4-7.3,12.3-20.4,16-26.4c0.1-0.1,0.2-0.2,0.3-0.1l5.1,2.6
		c0.1,0,0.1,0.1,0.1,0.2c0,0.1,0,0.1,0,0.2c-3.3,5.5-10.2,17-14.8,24.6l-1.2,2.1c-0.1,0.1-0.2,0.2-0.4,0.1L95.9,75
		C95.9,75,95.9,75,95.9,75L95.9,75z M112.2,48.7c-3.7,6-11.3,18.7-15.7,26l4.7,2.6l1.1-1.8c4.5-7.5,11.3-18.8,14.6-24.3L112.2,48.7z
		"/>
	
		<linearGradient id="SVGID_00000000220864893315212410000009396729508611359623_" gradientUnits="userSpaceOnUse" x1="-118.4138" y1="209.9613" x2="-110.6748" y2="157.0947" gradientTransform="matrix(1 0 0 -1 219.01 262.4)">
		<stop  offset="0" style="stop-color:#E3F3FC"/>
		<stop  offset="0.28" style="stop-color:#3DB8C9"/>
		<stop  offset="0.36" style="stop-color:#36B1C5"/>
		<stop  offset="0.46" style="stop-color:#239EBA"/>
		<stop  offset="0.58" style="stop-color:#0480A9"/>
		<stop  offset="0.6" style="stop-color:#007CA7"/>
		<stop  offset="0.73" style="stop-color:#066690"/>
		<stop  offset="0.87" style="stop-color:#0F4D75"/>
	</linearGradient>
	<path style="fill:url(#SVGID_00000000220864893315212410000009396729508611359623_);" d="M108,46.3L91.4,72.2l4.6,2.6
		c4.4-7.3,12.3-20.4,16-26.4L108,46.3L108,46.3z"/>
	<path class="st1" d="M91.2,72.4c0,0-0.1-0.1-0.1-0.1c0-0.1,0-0.2,0-0.2l16.6-25.9c0.1-0.1,0.2-0.2,0.3-0.1l4,2.1
		c0.1,0,0.1,0.1,0.1,0.2c0,0.1,0,0.1,0,0.2c-3.7,6-11.6,19.1-16,26.4C96.2,75,96,75,95.9,75L91.2,72.4
		C91.3,72.4,91.3,72.4,91.2,72.4z M108.1,46.6L91.8,72.1l4.2,2.3c4.4-7.3,12-19.9,15.7-25.9L108.1,46.6L108.1,46.6z"/>
	
		<linearGradient id="SVGID_00000062910840805742579970000007263280094748994948_" gradientUnits="userSpaceOnUse" x1="-86.2976" y1="214.6597" x2="-78.5586" y2="161.7933" gradientTransform="matrix(1 0 0 -1 219.01 262.4)">
		<stop  offset="0" style="stop-color:#E3F3FC"/>
		<stop  offset="0.28" style="stop-color:#3DB8C9"/>
		<stop  offset="0.36" style="stop-color:#36B1C5"/>
		<stop  offset="0.46" style="stop-color:#239EBA"/>
		<stop  offset="0.58" style="stop-color:#0480A9"/>
		<stop  offset="0.6" style="stop-color:#007CA7"/>
		<stop  offset="0.73" style="stop-color:#066690"/>
		<stop  offset="0.87" style="stop-color:#0F4D75"/>
	</linearGradient>
	<path style="fill:url(#SVGID_00000062910840805742579970000007263280094748994948_);" d="M142.8,64.1c-3.4,6-11.6,20.2-16,27.8
		l5.1,2.9c4.4-7.7,12.6-22.1,16-28.1L142.8,64.1z"/>
	<path class="st1" d="M126.6,92.1c0,0-0.1-0.1-0.1-0.1c0-0.1,0-0.1,0-0.2l16-27.8c0.1-0.1,0.2-0.2,0.4-0.1l5.1,2.6
		c0.1,0,0.1,0.1,0.1,0.2c0,0.1,0,0.1,0,0.2l-16,28.1c-0.1,0.1-0.2,0.2-0.4,0.1L126.6,92.1C126.7,92.2,126.6,92.1,126.6,92.1
		L126.6,92.1z M142.9,64.4l-15.7,27.4l4.7,2.6l15.7-27.6L142.9,64.4L142.9,64.4z"/>
	
		<linearGradient id="SVGID_00000139286371595646856300000000717560741023026084_" gradientUnits="userSpaceOnUse" x1="-90.9134" y1="213.9865" x2="-83.1814" y2="161.1132" gradientTransform="matrix(1 0 0 -1 219.01 262.4)">
		<stop  offset="0" style="stop-color:#E3F3FC"/>
		<stop  offset="0.28" style="stop-color:#3DB8C9"/>
		<stop  offset="0.36" style="stop-color:#36B1C5"/>
		<stop  offset="0.46" style="stop-color:#239EBA"/>
		<stop  offset="0.58" style="stop-color:#0480A9"/>
		<stop  offset="0.6" style="stop-color:#007CA7"/>
		<stop  offset="0.73" style="stop-color:#066690"/>
		<stop  offset="0.87" style="stop-color:#0F4D75"/>
	</linearGradient>
	<path style="fill:url(#SVGID_00000139286371595646856300000000717560741023026084_);" d="M137.6,61.5c-3.5,6-11.6,20-16,27.6
		l5.1,2.9c4.4-7.7,12.5-21.9,16-27.8L137.6,61.5L137.6,61.5z"/>
	<path class="st1" d="M121.5,89.3c0,0-0.1-0.1-0.1-0.1c0-0.1,0-0.1,0-0.2l16-27.6c0.1-0.1,0.2-0.2,0.4-0.1l5.1,2.6
		c0.1,0,0.1,0.1,0.1,0.2c0,0.1,0,0.1,0,0.2l-16,27.8c-0.1,0.1-0.2,0.2-0.4,0.1L121.5,89.3C121.5,89.3,121.5,89.3,121.5,89.3
		L121.5,89.3z M137.7,61.8L122,89l4.7,2.6l15.7-27.4L137.7,61.8L137.7,61.8z"/>
	
		<linearGradient id="SVGID_00000149381467193693504130000015700197028011996830_" gradientUnits="userSpaceOnUse" x1="-67.7618" y1="217.3675" x2="-60.0308" y2="164.5082" gradientTransform="matrix(1 0 0 -1 219.01 262.4)">
		<stop  offset="0" style="stop-color:#E3F3FC"/>
		<stop  offset="0.28" style="stop-color:#3DB8C9"/>
		<stop  offset="0.36" style="stop-color:#36B1C5"/>
		<stop  offset="0.46" style="stop-color:#239EBA"/>
		<stop  offset="0.58" style="stop-color:#0480A9"/>
		<stop  offset="0.6" style="stop-color:#007CA7"/>
		<stop  offset="0.73" style="stop-color:#066690"/>
		<stop  offset="0.87" style="stop-color:#0F4D75"/>
	</linearGradient>
	<path style="fill:url(#SVGID_00000149381467193693504130000015700197028011996830_);" d="M152.5,106.3l15.9-29l-5.2-2.7l-15.9,28.8
		L152.5,106.3z"/>
	<path class="st1" d="M147.1,103.6c-0.1-0.1-0.1-0.2-0.1-0.3L163,74.5c0.1-0.1,0.2-0.2,0.4-0.1l5.2,2.7c0.1,0,0.1,0.1,0.1,0.2
		c0,0.1,0,0.1,0,0.2l-15.9,29c0,0.1-0.1,0.1-0.2,0.1c-0.1,0-0.1,0-0.2,0L147.1,103.6C147.2,103.6,147.1,103.6,147.1,103.6
		L147.1,103.6z M163.3,74.9l-15.7,28.3l4.8,2.7l15.7-28.5L163.3,74.9z"/>
	
		<linearGradient id="SVGID_00000017492329237033681480000005913109146249408698_" gradientUnits="userSpaceOnUse" x1="-72.4408" y1="216.6855" x2="-64.7028" y2="163.8191" gradientTransform="matrix(1 0 0 -1 219.01 262.4)">
		<stop  offset="0" style="stop-color:#E3F3FC"/>
		<stop  offset="0.28" style="stop-color:#3DB8C9"/>
		<stop  offset="0.36" style="stop-color:#36B1C5"/>
		<stop  offset="0.46" style="stop-color:#239EBA"/>
		<stop  offset="0.58" style="stop-color:#0480A9"/>
		<stop  offset="0.6" style="stop-color:#007CA7"/>
		<stop  offset="0.73" style="stop-color:#066690"/>
		<stop  offset="0.87" style="stop-color:#0F4D75"/>
	</linearGradient>
	<path style="fill:url(#SVGID_00000017492329237033681480000005913109146249408698_);" d="M163.2,74.6l-5.1-2.6
		c-3.3,5.9-11.6,20.7-15.9,28.5l5.1,2.9L163.2,74.6z"/>
	<path class="st1" d="M142,100.7c-0.1-0.1-0.1-0.2-0.1-0.3l15.9-28.5c0.1-0.1,0.2-0.2,0.4-0.1l5.1,2.6c0.1,0,0.1,0.1,0.1,0.2
		c0,0.1,0,0.1,0,0.2l-15.9,28.8c0,0.1-0.1,0.1-0.2,0.1c-0.1,0-0.1,0-0.2,0L142,100.7C142,100.7,142,100.7,142,100.7L142,100.7z
		 M158.2,72.3l-15.7,28.1l4.7,2.6l15.6-28.3L158.2,72.3L158.2,72.3z"/>
	
		<linearGradient id="SVGID_00000069373233035987737470000007114162275285841553_" gradientUnits="userSpaceOnUse" x1="-81.68" y1="215.3315" x2="-73.949" y2="162.4716" gradientTransform="matrix(1 0 0 -1 219.01 262.4)">
		<stop  offset="0" style="stop-color:#E3F3FC"/>
		<stop  offset="0.28" style="stop-color:#3DB8C9"/>
		<stop  offset="0.36" style="stop-color:#36B1C5"/>
		<stop  offset="0.46" style="stop-color:#239EBA"/>
		<stop  offset="0.58" style="stop-color:#0480A9"/>
		<stop  offset="0.6" style="stop-color:#007CA7"/>
		<stop  offset="0.73" style="stop-color:#066690"/>
		<stop  offset="0.87" style="stop-color:#0F4D75"/>
	</linearGradient>
	<path style="fill:url(#SVGID_00000069373233035987737470000007114162275285841553_);" d="M147.9,66.7c-3.4,5.9-11.6,20.3-16,28.1
		l5.1,2.9c4.4-7.8,12.6-22.4,15.9-28.3L147.9,66.7L147.9,66.7z"/>
	<path class="st1" d="M131.7,95c0,0-0.1-0.1-0.1-0.1c0-0.1,0-0.1,0-0.2l15.9-28.1c0.1-0.1,0.2-0.2,0.4-0.1l5.1,2.6
		c0.1,0,0.1,0.1,0.1,0.2c0,0.1,0,0.1,0,0.2l-15.9,28.3c-0.1,0.1-0.2,0.2-0.4,0.1L131.7,95C131.8,95,131.8,95,131.7,95L131.7,95z
		 M148,67.1l-15.7,27.6l4.7,2.6l15.7-27.8L148,67.1L148,67.1z"/>
	
		<linearGradient id="SVGID_00000044164718205744536440000009007161374936124048_" gradientUnits="userSpaceOnUse" x1="-77.0467" y1="216.0137" x2="-69.3217" y2="163.1464" gradientTransform="matrix(1 0 0 -1 219.01 262.4)">
		<stop  offset="0" style="stop-color:#E3F3FC"/>
		<stop  offset="0.28" style="stop-color:#3DB8C9"/>
		<stop  offset="0.36" style="stop-color:#36B1C5"/>
		<stop  offset="0.46" style="stop-color:#239EBA"/>
		<stop  offset="0.58" style="stop-color:#0480A9"/>
		<stop  offset="0.6" style="stop-color:#007CA7"/>
		<stop  offset="0.73" style="stop-color:#066690"/>
		<stop  offset="0.87" style="stop-color:#0F4D75"/>
	</linearGradient>
	<path style="fill:url(#SVGID_00000044164718205744536440000009007161374936124048_);" d="M153,69.3c-3.3,5.9-11.6,20.5-15.9,28.3
		l5.1,2.9c4.4-7.8,12.6-22.7,15.9-28.5L153,69.3z"/>
	<path class="st1" d="M136.9,97.8c0,0-0.1-0.1-0.1-0.1c0-0.1,0-0.1,0-0.2l15.9-28.3c0.1-0.1,0.2-0.2,0.4-0.1l5.1,2.6
		c0.1,0,0.1,0.1,0.1,0.2c0,0.1,0,0.1,0,0.2l-15.9,28.5c0,0.1-0.1,0.1-0.2,0.1c-0.1,0-0.1,0-0.2,0L136.9,97.8
		C136.9,97.9,136.9,97.9,136.9,97.8L136.9,97.8z M153.1,69.7l-15.7,27.8l4.7,2.6l15.7-28.1L153.1,69.7L153.1,69.7z"/>
	<g>
		<path class="st13" d="M95.6,65.7l-0.4,0.6l60.9,33.5l0.4-0.7L95.6,65.7z"/>
		<path class="st13" d="M160.8,91.2L100,58.9l-0.4,0.7l60.9,32.4L160.8,91.2z"/>
		<path class="st13" d="M165.3,82.9l-60.3-32.1l-0.4,0.7L165,83.6L165.3,82.9z"/>
	</g>
	<g class="st14">
		<path class="st15" d="M168.4,77.3l-15.9,29L91.4,72.2L168.4,77.3z"/>
	</g>
</g>
</svg>
